ply
format ascii 1.0
comment PCL generated
element vertex 1035
property float x
property float y
property float z
property uchar red
property uchar green
property uchar blue
element camera 1
property float view_px
property float view_py
property float view_pz
property float x_axisx
property float x_axisy
property float x_axisz
property float y_axisx
property float y_axisy
property float y_axisz
property float z_axisx
property float z_axisy
property float z_axisz
property float focal
property float scalex
property float scaley
property float centerx
property float centery
property int viewportx
property int viewporty
property float k1
property float k2
end_header
0.13704182 -0.20558992 -0.13185179 141 141 135
0.13932869 -0.20451716 -0.13205844 146 147 143
0.13418347 -0.20383835 -0.1282137 145 146 137
0.13566335 -0.20396771 -0.12630552 142 143 137
0.13788098 -0.20123649 -0.12306625 150 151 147
0.14455266 -0.19782239 -0.12267786 143 143 139
0.13890879 -0.20046988 -0.12216789 150 151 147
0.14384694 -0.19924888 -0.12156391 148 148 144
0.14545897 -0.19682832 -0.12077725 145 145 141
-0.0014326386 -0.25740993 -0.11789399 243 245 255
-0.0014462247 -0.25489071 -0.11900389 67 72 81
0.00083771348 -0.25381932 -0.11921024 69 74 83
0.14453243 -0.19778231 -0.11766124 148 148 144
0.14736816 -0.19507936 -0.11797607 133 133 129
0.15845376 -0.18959473 -0.1179865 145 146 142
0.148533 -0.19369726 -0.11677917 131 130 126
0.1503768 -0.19281465 -0.11527425 139 137 129
0.14934996 -0.19207032 -0.11573547 151 148 142
0.15707907 -0.18967067 -0.11587983 145 146 142
0.15970871 -0.18951821 -0.11506784 147 144 141
0.1608243 -0.18899491 -0.11516869 147 144 141
-0.001716461 -0.25785151 -0.11384165 245 246 242
-0.00058181211 -0.25731927 -0.11394417 253 253 253
0.0068984851 -0.25465181 -0.11257732 250 255 255
0.009161897 -0.25359008 -0.11278182 250 255 255
0.010827977 -0.25294539 -0.11342824 236 243 243
0.013155296 -0.25033152 -0.1132018 106 113 119
0.014286995 -0.24980067 -0.11330408 104 114 117
0.14234085 -0.1960153 -0.1125657 147 147 143
0.14637771 -0.1959148 -0.11435893 147 146 144
0.14899364 -0.1942583 -0.11310861 138 138 136
0.15248939 -0.19153917 -0.11447388 138 138 132
0.15423945 -0.19097252 -0.1131161 127 126 124
0.15722145 -0.19011244 -0.11286086 144 144 140
0.15874885 -0.19140275 -0.11358207 137 135 131
0.16105197 -0.1910395 -0.11309066 143 139 136
0.15419473 -0.18937366 -0.11468625 143 144 140
0.1562992 -0.18810381 -0.1138851 144 145 141
0.16337684 -0.18873012 -0.11385444 144 142 138
0.16618109 -0.18902375 -0.11253405 142 139 136
0.16389735 -0.18698084 -0.11346406 141 141 137
0.16612265 -0.18593699 -0.1136651 141 141 137
0.16869718 -0.18716338 -0.11279041 140 140 136
0.16883218 -0.18452284 -0.11341438 139 139 133
-0.00094438344 -0.25805715 -0.11087698 249 250 246
0.00018585473 -0.25752696 -0.11097908 253 253 253
0.0046350658 -0.25571355 -0.11237282 250 255 254
0.0057667792 -0.25518268 -0.11247504 250 255 255
0.0013435483 -0.25435197 -0.11169776 241 243 255
0.0036441635 -0.25396881 -0.11103978 245 249 252
0.0053753071 -0.25343722 -0.1105153 250 255 255
0.013744116 -0.25365663 -0.11109453 182 186 188
0.016295934 -0.2530109 -0.11079985 100 107 112
0.01771751 -0.25289536 -0.11040306 96 103 107
0.0093260184 -0.25158399 -0.1108723 249 255 254
0.01095552 -0.25109154 -0.11201125 176 184 185
0.014313869 -0.25089964 -0.11225563 105 114 118
0.016569832 -0.25108624 -0.11190465 96 105 106
0.018524889 -0.25210395 -0.11149701 93 101 103
0.14421929 -0.20000589 -0.1105206 141 141 137
0.14585425 -0.20059913 -0.11061031 141 141 135
0.15377301 -0.20111901 -0.1101416 140 141 136
0.15671106 -0.20064639 -0.11036843 138 139 135
0.15782078 -0.20012583 -0.11046869 136 137 133
0.14090034 -0.19873667 -0.1123482 145 145 145
0.14436224 -0.19886851 -0.11158264 145 145 141
0.14593445 -0.19884455 -0.1110253 146 146 142
0.15109408 -0.19830054 -0.11007353 141 142 138
0.15292241 -0.19834848 -0.11020005 141 141 137
0.15674286 -0.19927309 -0.11042929 139 140 136
0.15866897 -0.19904876 -0.11057431 136 137 132
0.16170479 -0.19830388 -0.11081964 119 119 117
0.16336937 -0.19752303 -0.11097002 132 132 126
0.14011262 -0.19706054 -0.11236435 149 150 146
0.14905564 -0.19683044 -0.11099634 145 145 141
0.15142396 -0.19629554 -0.11098506 143 143 139
0.15435724 -0.19563785 -0.11041671 142 142 138
0.15628985 -0.19628417 -0.1107257 137 136 134
0.15971221 -0.19545865 -0.11180437 124 124 120
0.16118173 -0.19719087 -0.11083037 119 119 114
0.1638515 -0.1965905 -0.11171267 138 138 132
0.16669852 -0.19596136 -0.11127084 133 134 130
0.16780825 -0.1954408 -0.1113711 133 134 130
0.15054555 -0.19324405 -0.11225766 126 126 122
0.15425178 -0.1939396 -0.11148518 134 134 130
0.15589733 -0.19407445 -0.11159518 123 121 121
0.15920967 -0.19342744 -0.11185572 121 119 115
0.16111711 -0.19411956 -0.11196034 129 129 123
0.16278389 -0.19333768 -0.11211094 124 121 116
0.16624291 -0.19400953 -0.11165658 126 125 121
0.1685845 -0.19424716 -0.11097497 134 135 130
0.17072941 -0.19309159 -0.11067349 125 124 118
0.15277085 -0.19220018 -0.11245871 125 122 119
0.16144264 -0.19192658 -0.11207685 128 124 120
0.16448247 -0.19118071 -0.11232251 138 135 132
0.1663482 -0.19113991 -0.11205409 131 129 126
0.16956818 -0.19054011 -0.11170411 138 138 134
0.17157649 -0.19201595 -0.11077899 117 114 109
0.16480802 -0.18898776 -0.11243904 141 141 137
0.1690663 -0.18851157 -0.11175541 138 138 134
0.17086104 -0.18903346 -0.11110686 136 136 132
0.17115512 -0.18651524 -0.11098422 137 138 134
0.174291 -0.18637942 -0.11020716 134 134 130
0.17647287 -0.1867107 -0.11034647 132 131 131
0.17923984 -0.18541275 -0.11059648 130 130 130
0.1701363 -0.18319544 -0.1110543 137 137 131
0.17415936 -0.1841832 -0.11029168 135 135 131
0.17235282 -0.1821557 -0.11125457 137 137 133
0.17355585 -0.18094833 -0.1107218 135 135 131
0.0024769157 -0.26389986 -0.107858 202 202 204
0.0011117272 -0.26123452 -0.10837749 230 229 231
0.0082381517 -0.25816023 -0.10750484 252 255 251
0.024956357 -0.25828412 -0.10767198 101 111 116
0.026079264 -0.2577574 -0.10777342 97 104 108
0.00093704462 -0.25524727 -0.10912251 252 255 254
0.0065463632 -0.25647843 -0.10846105 248 254 252
0.0082586156 -0.25640795 -0.10791554 250 254 250
0.011081308 -0.25545019 -0.10782051 247 250 251
0.013297852 -0.25578678 -0.10796201 95 94 103
0.02112266 -0.25595891 -0.10750163 99 106 112
0.023897771 -0.25603166 -0.10769367 95 105 108
0.025020678 -0.25550491 -0.10779512 92 99 103
0.0065735877 -0.25260323 -0.10963184 250 255 255
0.011435054 -0.25455156 -0.10855267 241 244 243
0.013269179 -0.25470296 -0.10900968 232 231 242
0.01628761 -0.25401857 -0.10858222 102 105 115
0.018919736 -0.2531496 -0.10846996 94 101 105
0.020593364 -0.25483266 -0.10751247 98 103 110
0.023103841 -0.25434229 -0.10770997 90 98 102
0.021730676 -0.251831 -0.10872394 91 97 99
0.14737383 -0.20095126 -0.10969871 139 139 135
0.15194973 -0.20205039 -0.10947195 131 131 127
0.15325858 -0.2019653 -0.10906595 139 140 136
0.14685076 -0.19983825 -0.10970944 143 143 139
0.14907019 -0.19879715 -0.10991001 143 143 139
0.15070298 -0.19938959 -0.10999954 140 141 137
0.17195062 -0.19289643 -0.10976434 130 130 124
0.17398137 -0.1929962 -0.1088995 131 129 125
0.17331216 -0.19150518 -0.10966863 119 117 113
0.17676578 -0.19078808 -0.10918959 121 117 118
0.17832378 -0.19080801 -0.10879663 108 104 105
0.17259912 -0.18852784 -0.10999644 135 136 132
0.17625533 -0.18922353 -0.1092205 135 133 131
0.17809528 -0.1888866 -0.10886258 133 130 131
0.18129706 -0.18858647 -0.10859887 128 128 124
0.17579764 -0.18537924 -0.10935244 132 131 131
0.17996468 -0.18718468 -0.10856503 129 129 129
0.18080838 -0.18611331 -0.10867009 129 129 129
0.17556882 -0.18345708 -0.10941842 134 134 130
0.17875572 -0.18354063 -0.10963897 130 131 128
0.1784295 -0.18188967 -0.10968652 132 132 126
0.17647696 -0.17964859 -0.10964489 131 131 127
0.17758228 -0.17913009 -0.10974473 133 134 130
0.0078519247 -0.26807514 -0.10504764 128 127 129
0.010359116 -0.2675854 -0.10524487 138 141 144
0.0070590228 -0.26638797 -0.10506392 160 163 162
0.0095330607 -0.26605961 -0.1057536 177 183 185
0.011216111 -0.26588356 -0.10562865 179 184 189
0.013153023 -0.26591504 -0.10584714 193 193 200
0.0042789937 -0.26386014 -0.1059797 197 200 202
0.005666554 -0.2638965 -0.10607573 201 207 209
0.0087384693 -0.26314276 -0.10632396 220 227 231
0.011481415 -0.2646051 -0.10645443 220 227 231
0.01372724 -0.26355159 -0.10665736 250 254 255
0.016233981 -0.26428992 -0.10630043 252 255 254
0.017944928 -0.26334059 -0.10595959 252 255 254
0.020452119 -0.26285085 -0.10615683 250 255 254
0.00378187 -0.26134425 -0.10605216 227 230 233
0.0071184374 -0.26115364 -0.10629493 240 246 246
0.0087835034 -0.26119727 -0.10641018 244 249 249
0.010995012 -0.26162603 -0.10654742 248 254 252
0.014353022 -0.26050901 -0.10683125 204 200 224
0.016534522 -0.26223475 -0.106911 251 254 255
0.019632658 -0.26132199 -0.10666618 249 254 254
0.021312416 -0.2611475 -0.1065409 247 254 254
0.023266444 -0.26107311 -0.10643065 209 218 223
0.026059344 -0.26022056 -0.10666347 105 114 124
0.0013581762 -0.25909367 -0.10698112 240 240 240
0.0032351278 -0.25903714 -0.10678109 240 244 243
0.0062865987 -0.25838751 -0.10735787 250 253 252
0.010487165 -0.2595734 -0.10659933 251 255 250
0.013559092 -0.25881964 -0.10684754 149 144 169
0.015772752 -0.25915575 -0.10698891 101 97 118
0.018481085 -0.25811443 -0.10722381 90 93 106
0.021058328 -0.25873816 -0.10737842 162 173 179
0.022710528 -0.25933763 -0.10746902 123 135 141
0.026454577 -0.25912002 -0.10673825 101 108 116
0.028037939 -0.25860608 -0.10687155 92 99 105
0.0049294382 -0.25695968 -0.10732341 247 251 246
0.0094285868 -0.25732091 -0.10662103 251 255 250
0.011674408 -0.2562674 -0.10682398 163 166 167
0.014978815 -0.25746641 -0.10700518 85 78 98
0.017224628 -0.25641292 -0.10720807 79 77 93
0.019173648 -0.25618592 -0.10735486 98 105 113
0.021651942 -0.25708514 -0.10749078 106 113 119
0.027245037 -0.25691891 -0.10688782 90 97 101
0.0064661801 -0.26803881 -0.10495174 131 127 128
0.0059375763 -0.26691404 -0.10496259 147 147 147
-0.049411725 -0.015061084 0.024636805 62 45 75
-0.041846473 -0.010472383 0.024912179 60 44 70
-0.039544944 -0.0093927588 0.024704218 59 43 68
-0.039031897 -0.0068983007 0.024561644 56 40 64
-0.036243696 -0.0044634808 0.024261594 52 38 61
-0.032361154 -0.00048617832 0.024822176 51 38 58
-0.032308493 0.0017887224 0.024721324 55 40 60
-0.030660499 0.0042494386 0.02450037 55 41 61
-0.027847666 0.01164308 0.024990201 49 41 59
-0.027068902 0.012122286 0.023911655 48 42 57
-0.029287774 0.014456738 0.023968041 56 45 64
-0.029577885 0.015324686 0.024954677 54 43 62
-0.029957864 0.018516365 0.024845183 55 47 63
-0.029852714 0.02305891 0.024643838 75 75 77
-0.031582925 0.026740517 0.024608314 74 75 71
-0.053879734 0.032173533 0.024941117 62 48 75
-0.051608201 0.032113992 0.024783909 62 48 74
-0.048834972 0.034089945 0.024504494 67 53 79
-0.046552904 0.034485385 0.024327129 68 61 77
-0.07104598 0.036119368 0.024976522 73 59 79
-0.069474474 0.035166208 0.024906695 76 60 83
-0.044714618 0.035347711 0.024161041 111 110 112
-0.037743825 0.035083581 0.024685383 40 39 46
-0.062755436 -0.020191796 0.025794327 77 60 90
-0.074309751 -0.017609648 0.025493205 86 63 100
-0.068480879 -0.01867565 0.025463263 78 61 91
-0.065903455 -0.018282438 0.025934219 76 59 89
-0.064252496 -0.018322624 0.026488682 74 57 87
-0.060719002 -0.019325309 0.026617408 75 58 88
-0.058595251 -0.018745041 0.02604196 73 56 86
-0.05586626 -0.018088846 0.025220037 72 52 83
-0.054761399 -0.01765755 0.026127219 72 52 83
-0.082619995 -0.016475879 0.026530981 93 71 109
-0.081235781 -0.015826557 0.026405901 92 70 107
-0.07952331 -0.015641855 0.026779294 91 68 105
-0.076194644 -0.01664467 0.025919041 88 65 102
-0.074061289 -0.016089514 0.026414275 84 65 99
-0.071330585 -0.016314209 0.02623179 82 62 95
-0.069409922 -0.016590986 0.026610255 80 61 93
-0.066571116 -0.016436001 0.026905626 76 59 89
-0.059095349 -0.016402245 0.027381837 71 54 84
-0.055471424 -0.0169525 0.027150482 70 53 83
-0.053966746 -0.016765729 0.026534975 70 50 81
-0.051365305 -0.015649229 0.026204025 65 47 77
-0.086205497 -0.013639452 0.026662022 91 70 108
-0.078818552 -0.014746912 0.026691556 88 67 103
-0.075619012 -0.013918905 0.027434528 86 65 101
-0.072909907 -0.014901888 0.027285933 82 65 97
-0.050416131 -0.014581108 0.026693702 64 47 77
-0.048665177 -0.013715364 0.026031911 62 45 75
-0.046256911 -0.013322135 0.025678515 60 43 72
-0.091733649 -0.011211386 0.027448893 79 59 92
-0.089111581 -0.011049556 0.02675584 84 66 100
-0.048352044 -0.01145502 0.027418375 63 46 76
-0.046590488 -0.011347972 0.026955485 62 46 74
-0.043586377 -0.011723377 0.025756896 60 44 71
-0.043763649 -0.0093026506 0.027003825 64 45 73
-0.04117202 -0.0079945792 0.025762349 61 42 68
-0.039227813 -0.0060045477 0.026042342 58 42 66
-0.038964283 -0.0049006529 0.027481794 61 42 66
-0.036567751 -0.003913804 0.025766 55 39 62
-0.034685347 -0.002701534 0.025080204 53 37 60
-0.035731297 -0.0022625737 0.027141809 54 38 61
-0.03397328 -0.0013890332 0.026479125 53 38 59
-0.033078905 0.0013260003 0.025798619 54 39 59
-0.032593776 0.0026768688 0.025706768 55 40 60
-0.03119098 0.0044582281 0.025532067 55 40 60
-0.030415956 0.0057316441 0.027429998 53 40 60
-0.030723613 0.0084978286 0.026330128 52 39 59
-0.030311141 0.010259682 0.027229309 52 39 59
-0.028765347 0.011212604 0.025073111 52 41 60
-0.029487226 0.013003107 0.026050925 53 42 61
-0.030101527 0.019315761 0.026827931 57 49 65
-0.084223628 0.024173865 0.026078841 81 64 94
-0.030284442 0.024336413 0.026124746 84 85 81
-0.084052101 0.02512398 0.025357306 82 65 95
-0.081990644 0.02552665 0.025195152 79 63 90
-0.07369633 0.029805083 0.025432527 81 64 94
-0.036190335 0.029896189 0.026804388 37 39 45
-0.073133625 0.030365635 0.026874065 81 65 93
-0.071273372 0.030962685 0.027219394 81 64 93
-0.068325281 0.032059528 0.026463568 79 63 90
-0.058882374 0.032077048 0.025297046 64 50 77
-0.056610841 0.032017503 0.025139868 62 48 75
-0.050106201 0.030407812 0.025754452 63 47 74
-0.048270848 0.031268757 0.025588632 64 48 75
-0.041360144 0.032185409 0.025565207 56 49 63
-0.036137927 0.032160204 0.026704073 25 27 33
-0.073395886 0.033519048 0.026256183 82 66 92
-0.071486898 0.034353837 0.026420733 79 63 89
-0.066130221 0.033177558 0.025759786 75 59 84
-0.06384816 0.033572994 0.025582433 69 53 78
-0.061803777 0.033519406 0.025440931 68 52 78
-0.043140773 0.033594947 0.025630236 72 70 82
-0.063608527 0.035307068 0.026494861 69 54 74
-0.082931146 -0.015095169 0.027998984 93 72 110
-0.069074303 -0.015457772 0.02804333 78 61 91
-0.065133698 -0.016470894 0.028311104 74 57 87
-0.063899554 -0.016502796 0.028727392 74 57 87
-0.061205313 -0.016346268 0.028363964 73 56 86
-0.05924293 -0.015487611 0.028858244 73 56 86
-0.056611162 -0.015329298 0.028164685 71 54 84
-0.090624496 -0.013069561 0.028453529 85 64 100
-0.083799019 -0.01324849 0.027981162 92 71 109
-0.0811942 -0.013773881 0.028322101 91 70 108
-0.078111127 -0.013397587 0.027587503 88 67 103
-0.076634511 -0.013323973 0.02798222 87 66 102
-0.073564708 -0.013063772 0.028256893 83 66 98
-0.071322724 -0.014034363 0.028642341 82 62 95
-0.06930095 -0.01454212 0.029023528 80 60 93
-0.066736266 -0.014156073 0.029495617 76 59 89
-0.062301476 -0.014726397 0.029542565 74 57 87
-0.055878725 -0.01421386 0.028818116 71 54 83
-0.053636026 -0.013590641 0.028215667 71 52 80
-0.051563922 -0.012961686 0.02770862 68 49 80
-0.0936459 -0.01047951 0.02805379 73 54 89
-0.091926306 -0.010299539 0.028426826 77 57 90
-0.088783279 -0.012205863 0.028287172 85 67 102
-0.086608067 -0.011809481 0.028618962 89 70 107
-0.08389017 -0.011429824 0.029314661 89 71 108
-0.0817523 -0.010805443 0.029488817 91 70 108
-0.078863084 -0.011107519 0.029047668 91 70 106
-0.076646373 -0.011622377 0.029415449 87 66 102
-0.07362248 -0.011701646 0.029206136 85 67 99
-0.051095933 -0.011542684 0.028785774 68 50 80
-0.048152663 -0.010332352 0.02835992 64 47 77
-0.098229662 -0.0083198864 0.029789001 64 46 83
-0.093036726 -0.0098217893 0.029487908 73 55 90
-0.08849366 -0.0099408757 0.029173493 85 68 100
-0.078267455 -0.0097617563 0.029449999 92 71 107
-0.048410736 -0.0094278567 0.029342771 65 48 78
-0.046908479 -0.0092359381 0.028727263 63 47 74
-0.044054076 -0.00817734 0.02848132 63 44 72
-0.042197276 -0.0075387321 0.027821779 62 43 69
-0.10005358 -0.0073505919 0.02887249 64 46 83
-0.043213908 -0.0070860256 0.029880702 64 45 73
-0.041046515 -0.0063791871 0.029029211 62 43 69
-0.039720643 -0.0053514112 0.028557599 61 42 68
-0.039077986 -0.0040279794 0.029459238 59 40 64
-0.036950193 -0.0029321034 0.028259426 56 39 62
-0.035372537 -5.393289e-05 0.029029012 54 38 61
-0.033454388 0.001507042 0.027824074 54 39 59
-0.032795265 0.0039489493 0.028676838 54 39 59
-0.031614076 0.0061790217 0.02849853 54 39 59
-0.031415429 0.008397745 0.029393196 53 38 58
-0.085178226 0.014916811 0.029885828 98 76 110
-0.029631246 0.013818491 0.028032959 54 43 62
-0.086796701 0.016774455 0.02992036 94 74 107
-0.029578928 0.016078886 0.027932763 54 43 62
-0.094862193 0.018399652 0.029414713 91 76 106
-0.087821886 0.018162746 0.029933155 90 70 103
-0.086139716 0.018604591 0.029193927 90 70 102
-0.084872857 0.018592317 0.028703988 93 73 104
-0.093123145 0.020427082 0.028704196 97 79 110
-0.091624036 0.021041948 0.029074192 97 77 110
-0.088794991 0.021695038 0.028847361 88 71 102
-0.08660309 0.022273924 0.028668463 87 68 96
-0.083699301 0.020435665 0.027539432 85 68 98
-0.030671533 0.021022335 0.028801918 56 50 64
-0.087953314 0.022763852 0.028742492 90 73 103
-0.086233959 0.023658738 0.028081715 88 70 98
-0.084999025 0.023201276 0.027512729 83 67 94
-0.031427328 0.027366374 0.028584182 18 24 26
-0.036793742 0.029313561 0.02887845 48 43 53
-0.031857122 0.028280895 0.028575361 21 27 29
-0.071446232 0.031273469 0.029225081 81 65 92
-0.046296135 0.031633135 0.028946042 65 50 75
-0.03524648 0.031003911 0.029700875 23 29 31
-0.034817379 0.030090865 0.029709637 22 28 30
-0.068450183 0.032857396 0.027943403 77 61 86
-0.066159651 0.033931863 0.027736455 75 59 83
-0.06432724 0.034791436 0.027570903 71 55 78
-0.044098709 0.032744203 0.028242409 66 57 80
-0.040604267 0.032947961 0.029994667 53 48 60
-0.038328398 0.034015551 0.029789031 37 36 44
-0.036259484 0.032912564 0.028687239 30 32 38
-0.069638148 -0.013174512 0.030493945 81 61 94
-0.066220306 -0.012964425 0.031080743 76 60 90
-0.063784279 -0.013330949 0.031092316 74 59 89
-0.06099673 -0.014309861 0.031439781 74 57 87
-0.059411228 -0.014125972 0.031320378 73 56 86
-0.055999845 -0.013083786 0.03103598 74 56 85
-0.08349131 -0.010086685 0.030834734 90 72 109
-0.073760107 -0.010568678 0.030170918 87 69 101
-0.071526714 -0.011314788 0.031049052 85 65 98
-0.066371769 -0.012359546 0.031734526 78 61 91
-0.053260002 -0.011798551 0.030788422 72 53 81
-0.052015521 -0.010704689 0.031155884 71 51 82
-0.095676467 -0.0079520345 0.031600535 64 46 81
-0.093896545 -0.0093601122 0.031535465 69 51 86
-0.091847837 -0.0089607406 0.031374276 74 56 91
-0.088891029 -0.0084547848 0.031144772 82 65 98
-0.086026765 -0.0086597726 0.030952057 88 70 107
-0.083379805 -0.0085805794 0.031097015 90 71 108
-0.081658885 -0.0092271082 0.030669153 92 71 109
-0.078787945 -0.0084016286 0.031034017 94 73 109
-0.07621225 -0.0084732473 0.031257272 91 72 106
-0.073627904 -0.0089988317 0.031599641 89 69 102
-0.050772499 -0.0096115116 0.031523466 70 50 81
-0.048492961 -0.0085422043 0.031317472 65 48 78
-0.046082858 -0.007921733 0.03061983 64 47 74
-0.098372623 -0.0069737434 0.031748414 62 44 81
-0.096108332 -0.0070331022 0.031591654 63 45 80
-0.084555194 -0.0073476601 0.031795919 89 71 108
-0.081143305 -0.006535809 0.031855781 95 74 110
-0.078878678 -0.0063018841 0.032355446 96 75 111
-0.045301605 -0.0070451703 0.031029105 64 45 73
-0.043766737 -0.0064229239 0.031898022 64 45 73
-0.042401213 -0.0057823677 0.03177464 63 44 70
-0.040580515 -0.0049282964 0.031610131 62 43 69
-0.039429929 -0.0038322965 0.031482399 60 41 66
-0.036548357 -0.0015836526 0.031518221 56 37 61
-0.033674661 0.0016541798 0.030843377 56 38 59
-0.033193413 0.0029942635 0.030752361 54 39 59
-0.084440038 0.007112911 0.032173812 105 80 115
-0.033419628 0.0061208494 0.031638145 54 39 59
-0.090245575 0.0099792201 0.032459736 90 69 107
-0.088471323 0.0085756462 0.032394916 97 75 111
-0.085972875 0.00918868 0.03219302 106 84 118
-0.08417248 0.008915307 0.032078058 103 78 114
-0.031357009 0.0089052627 0.031708676 52 38 58
-0.09101259 0.01137748 0.031952292 89 68 104
-0.088296726 0.011532644 0.031754673 95 74 109
-0.0868278 0.011741219 0.031140745 105 83 117
-0.083904922 0.010717703 0.031982303 103 77 115
-0.030160431 0.01098733 0.031201184 54 41 61
-0.093100019 0.014397573 0.031468481 90 70 106
-0.091296718 0.014123764 0.031353325 90 69 105
-0.088820472 0.013605779 0.031201288 94 73 107
-0.086183034 0.01353664 0.031018773 100 78 112
-0.084998295 0.012599422 0.030975461 100 77 114
-0.029627893 0.014574762 0.031010568 54 41 61
-0.093531184 0.015315037 0.0314596 89 69 105
-0.090752259 0.01618544 0.030474529 90 69 105
-0.089222454 0.01638424 0.030107617 91 70 105
-0.092782333 0.019200388 0.030237734 92 75 105
-0.091866121 0.019630175 0.030154943 93 73 106
-0.030004222 0.017735846 0.030902028 54 43 60
-0.090949908 0.020059962 0.030072153 93 73 106
-0.031237382 0.022720098 0.030775964 58 53 63
-0.083337948 0.025695179 0.030299544 84 68 95
-0.033656482 0.028114364 0.031719208 34 34 38
-0.043168861 0.031586185 0.031236589 61 49 73
-0.042424966 0.032093886 0.030159175 61 52 73
-0.038382325 0.030973464 0.031427801 44 37 50
-0.036579579 0.031263292 0.031288639 31 32 39
-0.041514624 0.032520924 0.030076921 59 51 67
-0.056966815 -0.012614952 0.033090711 74 58 85
-0.070193693 -0.010908911 0.032944679 87 67 98
-0.067510501 -0.011882501 0.032797575 83 63 94
-0.065623574 -0.011714614 0.03416276 79 62 91
-0.062805846 -0.012010986 0.033475578 74 60 87
-0.061011229 -0.012283484 0.033360988 75 60 87
-0.05560128 -0.011974396 0.032967329 74 56 85
-0.053325403 -0.010906802 0.032761693 73 54 82
-0.052415062 -0.010479769 0.032679439 72 52 83
-0.094512597 -0.0075397138 0.032504439 66 48 83
-0.072824672 -0.0076785553 0.032991827 87 67 100
-0.071965098 -0.0095075909 0.03300947 88 68 101
-0.067048311 -0.0096540526 0.034676671 84 65 93
-0.051573213 -0.0091696233 0.03457107 72 53 81
-0.048850957 -0.0078926384 0.034325123 69 49 80
-0.098296225 -0.006094439 0.033712208 62 41 79
-0.096039176 -0.006153604 0.033555984 62 44 79
-0.093799882 -0.0061482317 0.034234393 64 46 81
-0.091525093 -0.0062719379 0.033243567 72 54 89
-0.088691607 -0.0061275186 0.033539802 82 64 98
-0.085882477 -0.0064198542 0.032853067 89 68 104
-0.083987184 -0.0059467852 0.033034015 89 71 106
-0.082496926 -0.0065086093 0.032618761 93 72 108
-0.075722784 -0.0062477011 0.03313452 87 69 104
-0.073933408 -0.0064595081 0.034021139 86 67 100
-0.047943536 -0.0074669793 0.034243107 68 49 77
-0.046128709 -0.0066156574 0.034079134 66 47 75
-0.044145305 -0.0057848021 0.03490752 64 43 72
-0.10032745 -0.0046688113 0.03279078 63 42 80
-0.090799809 -0.0049492177 0.034139454 72 56 91
-0.089343287 -0.0039396766 0.034328341 78 62 97
-0.086481735 -0.0034817178 0.033773094 88 67 103
-0.084004723 -0.0036219228 0.033604879 93 71 108
-0.080856897 -0.0040055308 0.033399861 99 78 112
-0.079278618 -0.0040092636 0.033289045 95 74 110
-0.076336652 -0.0033146292 0.034055889 88 68 104
-0.039615545 -0.0036599338 0.034498215 61 42 66
-0.090453014 -0.00046462752 0.034926951 78 60 95
-0.088684462 -0.0018636901 0.034862339 82 63 99
-0.086070456 -0.0014140869 0.034515943 92 69 106
-0.083662666 -0.0010774992 0.033723027 100 76 112
-0.081105433 -0.0011522609 0.033897568 100 76 113
-0.078516409 -0.00030332245 0.03307724 90 69 105
-0.076305211 -0.0017584264 0.034990609 84 66 101
-0.091096655 0.00090494193 0.034913778 77 59 94
-0.088611439 0.001290698 0.034722518 87 65 101
-0.086651184 0.0016902121 0.034567595 95 72 109
-0.083222359 0.00069852732 0.034368813 104 79 114
-0.081699416 0.00089006498 0.034002662 102 75 114
-0.079375997 0.0015257131 0.033059597 95 69 107
-0.035563771 0.00051018037 0.033533543 56 37 61
-0.033800591 0.0024995878 0.032822967 56 38 59
-0.092598498 0.0041006189 0.034882963 77 59 94
-0.091098636 0.0040613045 0.034779131 80 62 97
-0.088613883 0.0037785387 0.034365624 88 67 103
-0.08624468 0.0035122789 0.033457816 100 77 113
-0.083910935 0.0036769155 0.033286661 105 80 115
-0.082259864 0.0033787023 0.034186661 105 78 114
-0.033320893 0.0038353577 0.032732189 54 39 59
-0.095225245 0.0073257741 0.034929991 78 57 93
-0.093242154 0.0054701958 0.03486973 79 58 94
-0.091087475 0.0065580644 0.034170061 84 63 99
-0.088924475 0.0061364085 0.033701479 89 68 104
-0.0858711 0.0066638719 0.033297002 105 83 117
-0.083348557 0.0052428674 0.033180237 104 79 114
-0.033393789 0.0069091879 0.034612775 53 38 58
-0.095976166 0.0089236191 0.034914553 80 59 95
-0.094076157 0.0086612124 0.034457684 82 61 97
-0.09155909 0.008981077 0.033598103 86 65 101
-0.086220562 0.0078020971 0.033272982 105 83 118
-0.03201114 0.0086649284 0.034440577 55 37 56
-0.097851977 0.010550948 0.034977019 85 67 102
-0.096729539 0.011616051 0.033849239 87 67 102
-0.093663812 0.011247453 0.033314884 86 65 101
-0.091804571 0.010924792 0.032529026 87 66 102
-0.030775446 0.010467432 0.033273339 53 40 60
-0.095137805 0.013273936 0.032663167 88 70 105
-0.093633115 0.013234486 0.032558996 88 68 103
-0.083373934 0.013282627 0.034845561 95 73 108
-0.030723546 0.012709685 0.033173978 53 40 60
-0.092766836 0.016279336 0.034374833 88 70 105
-0.090946138 0.017133411 0.034210324 88 67 103
-0.083964482 0.016899504 0.034732699 97 77 110
-0.029620398 0.015322201 0.033988237 54 41 61
-0.090035781 0.017560448 0.03412807 88 67 103
-0.08912544 0.017987486 0.034045815 90 69 105
-0.086394392 0.019268591 0.033799052 87 69 101
-0.029994909 0.018467993 0.033880293 56 45 62
-0.084340826 0.020060591 0.034624219 87 67 98
-0.080705285 0.021765992 0.034295678 83 66 96
-0.088349327 0.022987392 0.032774329 92 80 106
-0.086508892 0.023493733 0.03463009 90 75 102
-0.084236681 0.024559602 0.034424782 91 70 97
-0.078887522 0.022618681 0.034131467 83 66 96
-0.03158351 0.023950286 0.032754511 58 53 63
-0.083559036 0.025055978 0.033352554 88 69 97
-0.032864582 0.026676204 0.032728225 49 47 54
-0.036598105 0.029915132 0.03285253 48 43 53
-0.03425825 0.027539678 0.033792794 42 40 47
-0.05883256 -0.012574911 0.035227001 75 59 86
-0.068872042 -0.010064494 0.035825878 86 66 97
-0.063858166 -0.011098132 0.036019057 79 63 90
-0.060854238 -0.011404905 0.036322594 75 60 87
-0.055922676 -0.01130946 0.03597166 75 57 86
-0.053204816 -0.010034539 0.03572607 75 56 84
-0.095967263 -0.0052799825 0.035520375 61 43 78
-0.074029312 -0.0052024275 0.035479307 84 65 98
-0.071944349 -0.0066266023 0.036898494 85 65 97
-0.048723038 -0.0059205405 0.037241966 68 49 75
-0.047368508 -0.0052851439 0.037119567 66 47 73
-0.043072242 -0.0053809881 0.035818219 64 43 70
-0.10041469 -0.0029088985 0.035731912 62 41 79
-0.099150263 -0.003849674 0.036017615 62 41 79
-0.096073762 -0.0034872559 0.036203861 62 42 79
-0.093736246 -0.0039905016 0.035559267 64 46 81
-0.090745792 -0.0033878051 0.035072371 75 58 93
-0.075898536 -0.0033629294 0.036033869 88 68 104
-0.074105427 -0.003204532 0.036904395 82 64 99
-0.045562472 -0.0044379458 0.036956429 65 44 71
-0.041263271 -0.0045324154 0.035654724 62 42 69
-0.097603425 -0.00077180564 0.037449777 63 42 80
-0.096171297 -0.0013233771 0.036870886 61 43 78
-0.09427461 -0.0012873746 0.03623426 63 45 80
-0.0920313 -0.00088168058 0.035390217 75 54 90
-0.077214107 -0.0021847747 0.035072744 88 67 103
-0.039080177 -0.0015002824 0.03737855 58 40 61
-0.037062161 -0.00039896369 0.035684466 57 39 60
-0.097765297 0.0019291267 0.037345827 63 45 80
-0.096102297 0.0016733771 0.036738083 64 46 81
-0.093313664 0.0013884827 0.036052436 71 51 87
-0.091884412 0.00046231505 0.035489768 76 55 91
-0.078275889 0.00051933527 0.036035359 91 65 103
-0.034997355 0.0015184879 0.036962509 56 37 61
-0.096895143 0.0034868503 0.036967263 65 47 82
-0.093710825 0.0036497682 0.035983812 72 53 89
-0.03345665 0.0039508287 0.036248595 55 38 59
-0.10011773 0.0069347285 0.037297547 84 64 97
-0.098645002 0.006382925 0.036883067 76 57 90
-0.095455706 0.0059463792 0.036008507 74 53 89
-0.094118401 0.0054611489 0.035935163 77 56 92
-0.10032439 0.0092252232 0.036210895 91 74 104
-0.099115677 0.0087626455 0.035643935 84 66 97
-0.096312523 0.0077695362 0.035990894 79 58 94
-0.03123619 0.0099042282 0.036339998 55 40 60
-0.031036224 0.012085885 0.037236094 53 40 60
-0.0305604 0.013410863 0.037146091 52 39 59
-0.029981446 0.019191314 0.036858559 56 45 62
-0.081171855 0.02082042 0.035372272 84 67 97
-0.033527676 0.02648643 0.035793185 47 42 54
-0.064696983 -0.010206189 0.039551795 83 64 92
-0.061805669 -0.010505255 0.039361238 77 62 89
-0.058914352 -0.010804314 0.039170682 76 60 87
-0.068881892 -0.0091843717 0.037795722 85 65 96
-0.066873387 -0.007916417 0.039607108 82 63 91
-0.056020688 -0.0095500685 0.039916951 73 55 85
-0.052961953 -0.0080636684 0.039136708 70 51 79
-0.071277857 -0.0055682398 0.039816618 83 63 96
-0.068199903 -0.007435102 0.039679885 83 63 94
-0.051251147 -0.0072095767 0.038478255 69 50 77
-0.098990545 -0.0025332384 0.037622511 61 40 78
-0.043476105 -0.003631141 0.038447578 66 42 69
-0.10049364 -0.0011666231 0.038673222 66 45 83
-0.099160671 -0.0016502887 0.038600087 62 41 79
-0.040883277 -0.0023461059 0.037541449 62 41 66
-0.039819103 -0.0019500591 0.038453043 60 39 64
-0.10073288 0.0010681115 0.039196648 70 49 87
-0.098416328 0.001471255 0.038414508 62 44 81
-0.035586942 0.0010320619 0.039031506 56 37 61
-0.10279191 0.0042484477 0.039607048 90 76 103
-0.10190469 0.0039265254 0.039558411 85 68 101
-0.099039562 0.0035816308 0.038368225 68 50 86
-0.033585247 0.0040624812 0.039764643 56 38 59
-0.10033794 0.0055601299 0.03837508 80 59 95
-0.099004969 0.0050764605 0.038301945 71 53 88
-0.033686731 0.0063233487 0.038671911 53 38 58
-0.033211682 0.0076461695 0.038582027 54 36 57
-0.031838018 0.0093905292 0.038410962 56 38 57
-0.029462758 0.016004637 0.037961543 54 41 61
-0.030322216 0.020417748 0.038836956 55 47 63
-0.031230394 0.022600867 0.039811015 55 47 63
-0.034545604 0.02682009 0.037857234 47 40 53
-0.059849728 -0.010349389 0.041223764 77 61 88
-0.069580138 -0.0083139427 0.041821182 86 66 97
-0.050949547 -0.0063842461 0.042435348 65 46 73
-0.0488883 -0.0053124093 0.041241169 65 46 72
-0.071274415 -0.004708793 0.041786432 82 62 95
-0.047991145 -0.0048915595 0.041160107 65 46 72
-0.046196833 -0.0040498637 0.040997982 64 44 71
-0.044231873 -0.0032330453 0.041828334 66 42 70
-0.03869589 -0.00074109808 0.042335987 59 41 62
-0.036539048 0.0003231205 0.041637152 57 39 60
-0.034801472 0.00228706 0.040929437 57 37 59
-0.033649582 0.0070990622 0.041646361 54 36 55
-0.033329654 0.0084594339 0.040562391 55 37 58
-0.031362057 0.010361314 0.041346222 55 38 58
-0.030479465 0.013389848 0.042158186 52 39 59
-0.066283673 -0.0086444784 0.043610215 83 63 93
-0.061335485 -0.0096658617 0.043807536 78 62 89
-0.058562916 -0.0099556074 0.043123245 77 61 88
-0.056133259 -0.0089208037 0.043911517 71 55 83
-0.054791924 -0.0082915947 0.04379034 72 52 83
-0.067997262 -0.006588947 0.042639554 82 62 93
-0.053003471 -0.0074526519 0.043628752 70 51 79
-0.052109245 -0.0070331767 0.043547928 68 49 77
-0.047882427 -0.0040625408 0.044127226 68 45 68
-0.04609691 -0.0032249726 0.043965906 67 43 63
-0.043167006 -0.0028384551 0.042739928 66 42 68
-0.04414006 -0.0024137571 0.044797003 70 41 61
-0.041212309 -0.0020264573 0.043571204 62 40 65
-0.039426792 -0.0011888891 0.043409884 60 39 64
-0.035227139 0.0017672144 0.043991625 56 37 61
-0.03407361 0.0039457362 0.04381755 56 36 58
-0.033137877 0.0091758296 0.044531822 61 35 52
-0.031307254 0.012212984 0.044273376 54 39 59
-0.029152904 0.016617671 0.042930424 54 41 61
-0.064332768 -0.0076358356 0.047443449 79 60 88
-0.05874899 -0.0093200263 0.046620965 76 60 87
-0.050550897 -0.0055810986 0.046888173 65 46 73
-0.068000704 -0.0048784912 0.046580315 79 59 90
-0.04859652 -0.004504241 0.045199633 66 46 68
-0.043078903 -0.0020226985 0.045709074 73 39 59
-0.041049577 -0.0012308415 0.047037631 71 36 55
-0.039191592 -0.00041264109 0.047373712 66 37 55
-0.03830469 3.3956021e-06 0.047293603 61 37 56
-0.036166526 0.001059752 0.046596408 57 38 58
-0.033923645 0.006514905 0.045704067 58 34 51
-0.03345402 0.0078226198 0.045615196 54 36 55
-0.031323899 0.010758108 0.04734683 56 38 57
-0.030387748 0.013364915 0.047169685 51 38 58
-0.029919673 0.014668312 0.047081113 52 39 59
-0.029683582 0.018637497 0.046393365 54 42 61
-0.06075988 -0.0088474248 0.048749 77 60 87
-0.055790264 -0.0080921911 0.04786554 70 54 82
-0.053569362 -0.0070503894 0.047664881 67 48 79
-0.05179264 -0.0062169451 0.047504365 66 47 75
-0.047945447 -0.003487628 0.04862231 65 43 66
-0.046704788 -0.0028513875 0.048006237 66 43 64
-0.043987248 -0.0016127881 0.048096675 70 41 60
-0.041132715 -0.00040035136 0.049014747 71 36 55
-0.035068411 0.0029302193 0.048947722 58 36 56
-0.034549717 0.0038257595 0.047869623 59 37 55
-0.03538442 0.0056018624 0.047852516 79 29 35
-0.033875186 0.0072779749 0.048678219 58 34 51
-0.033174619 0.0092287576 0.048545629 66 33 48
-0.030970845 0.012845643 0.049239576 53 38 58
-0.02993669 0.019812208 0.048869431 53 42 61
-0.030202512 0.020632315 0.049856544 51 43 61
-0.063096583 -0.0085935872 0.051410913 80 61 89
-0.058865588 -0.0084128529 0.051105637 75 58 86
-0.055441733 -0.0072753523 0.051819623 69 53 81
-0.054117996 -0.0066543967 0.051699996 70 50 81
-0.051911753 -0.00561947 0.051500678 64 46 75
-0.050771762 -0.0049761962 0.050389707 64 45 73
-0.049032118 -0.0037294365 0.051217526 65 44 68
-0.04703274 -0.0022505298 0.051013708 69 44 63
-0.043944001 -0.00080163282 0.050734639 98 41 47
-0.042009223 -4.356727e-06 0.051567972 119 39 33
-0.040247161 0.00082221068 0.051408768 107 34 30
-0.038849782 0.00079431693 0.050977152 74 34 46
-0.036026809 0.0018320065 0.050065398 55 36 57
-0.035449993 0.0035005305 0.051960349 64 34 49
-0.035167117 0.0063248556 0.051819861 83 33 39
-0.033590082 0.0086796023 0.051608443 78 30 40
-0.032737751 0.010573329 0.052471042 82 27 33
-0.031700704 0.012380393 0.050314248 58 36 52
-0.030642584 0.013830535 0.051181287 54 37 57
-0.029888172 0.015387539 0.050058365 51 38 58
-0.060724888 -0.0078173596 0.054221094 79 60 88
-0.0587488 -0.007856736 0.053080499 76 57 85
-0.064192757 -0.0072907973 0.054442525 82 63 91
-0.057671603 -0.0074617434 0.053991199 73 57 84
-0.055472691 -0.0064302552 0.053792506 68 52 80
-0.053963039 -0.005832402 0.054664195 67 50 80
-0.052206833 -0.0050085876 0.054505527 63 46 76
-0.051074862 -0.004367277 0.053395152 63 46 73
-0.049755517 -0.0037483815 0.053275943 64 45 71
-0.047880821 -0.0018483829 0.053564668 68 44 65
-0.046651844 -0.0012158249 0.052949548 72 46 63
-0.044892717 -0.0003906358 0.052790582 88 48 61
-0.043573372 0.00022825971 0.052671373 115 50 53
-0.041290686 0.0012429897 0.052969217 122 45 40
-0.038671017 0.0020201437 0.053587954 96 32 34
-0.036401059 0.0024057534 0.0530774 75 31 42
-0.040547911 0.0035693944 0.05432269 137 38 24
-0.039232958 0.0041862261 0.054203868 111 28 16
-0.036295068 0.0034742821 0.053525984 72 34 46
-0.036210194 0.0060099019 0.054114103 102 32 27
-0.033922944 0.0088232327 0.053632438 89 32 39
-0.033303175 0.010065952 0.054539263 99 26 27
-0.030952906 0.014067314 0.053868651 57 36 54
-0.030577395 0.01562966 0.05411005 53 38 58
-0.029852543 0.016097937 0.053035617 51 38 58
-0.03086324 0.018641666 0.054503202 50 38 58
-0.032589834 0.022184532 0.053971708 50 39 56
-0.031611044 0.020363901 0.054983914 50 39 58
-0.063443094 -0.0066927373 0.056872725 80 61 89
-0.0586357 -0.007024182 0.055712599 76 58 86
-0.055500884 -0.0055910405 0.05576542 68 52 80
-0.053994942 -0.0049967077 0.056637585 67 50 80
-0.051575348 -0.0033269718 0.056396056 61 45 72
-0.049802769 -0.0029181037 0.055250525 64 45 71
-0.050031621 -0.0020662826 0.056233704 62 43 67
-0.048281286 -0.0012452174 0.056075573 66 43 64
-0.0467893 -0.00065924972 0.05694896 73 44 63
-0.048486646 0.00068348646 0.057011008 69 42 62
-0.046480816 0.001741901 0.055821419 109 45 52
-0.043788895 0.00078618218 0.056341786 136 46 38
-0.042155121 0.0016285125 0.055522025 156 44 24
-0.04584052 0.0029942337 0.056726277 135 48 44
-0.043915786 0.0033020671 0.056176424 158 44 26
-0.040623341 0.0043720901 0.056300521 154 42 21
-0.039312791 0.004986858 0.056182086 128 32 13
-0.040865596 0.0052086487 0.057285219 155 43 22
-0.038311798 0.0060898778 0.05673353 112 30 18
-0.036566839 0.0069084223 0.056575876 102 30 23
-0.03548165 0.0083276816 0.056271732 102 30 22
-0.034020532 0.0096083563 0.055612564 106 28 26
-0.033454768 0.011950368 0.055974513 104 30 31
-0.03319471 0.012951251 0.057418525 102 29 32
-0.031735402 0.014231972 0.056759506 67 32 47
-0.031078115 0.015806703 0.056478858 54 36 54
-0.031519733 0.018866748 0.056546479 50 37 57
-0.033405613 0.022445295 0.057027996 50 39 58
-0.062696442 -0.0060996842 0.059303343 78 59 87
-0.060331669 -0.0070118476 0.058172584 78 59 87
-0.058584269 -0.0061921584 0.05801471 73 56 83
-0.058571722 -0.0042823069 0.059939027 68 52 79
-0.055742864 -0.0039072977 0.058720693 63 49 77
-0.054215763 -0.0041429307 0.057619989 64 47 77
-0.05387757 -0.0020215735 0.059010714 57 48 69
-0.0513574 -0.00078064017 0.058278799 57 46 64
-0.048623957 0.0015096273 0.058490455 69 42 62
-0.047407348 0.0021399725 0.057876289 82 42 59
-0.047942743 0.003109406 0.059544843 78 42 59
-0.045682576 0.0042099883 0.059004426 140 44 36
-0.044036284 0.0041946098 0.058053166 160 42 24
-0.045257811 0.0050379131 0.059608161 153 43 29
-0.043835945 0.0052333921 0.058998108 160 41 22
-0.041106462 0.0060422663 0.058269918 159 41 19
-0.038929537 0.007063441 0.058073223 121 29 13
-0.038137559 0.0082550868 0.059973419 99 23 11
-0.036574464 0.0086848401 0.058841765 98 27 18
-0.034349795 0.01192766 0.058546841 105 30 26
-0.033768062 0.013888523 0.059091151 101 30 29
-0.032781381 0.017141405 0.059217334 68 32 51
-0.032118667 0.015457738 0.058239222 72 32 47
-0.032731671 0.019289326 0.059122145 50 37 57
-0.032273743 0.018045221 0.058139652 51 35 55
-0.033549789 0.021030147 0.059105337 48 37 56
-0.032272894 0.020566825 0.059035301 49 38 57
-0.034367908 0.022770967 0.059088588 47 36 55
-0.062693685 -0.0052692648 0.061274409 77 58 86
-0.060748648 -0.0053034779 0.060135722 75 56 84
-0.060751047 -0.0044772811 0.062107384 72 53 81
-0.059592158 -0.0042094309 0.061345536 70 52 80
-0.055544022 -0.0020347126 0.061636925 61 49 75
-0.05400065 -0.0011914466 0.060488969 57 48 70
-0.052262042 -0.00037587993 0.060331881 55 47 65
-0.053158049 2.5745481e-05 0.062384546 97 96 105
-0.051275842 0.00060411094 0.061224066 77 68 83
-0.049010385 0.0020924546 0.061001182 67 40 62
-0.048893083 0.003148336 0.061449558 69 41 61
-0.048318554 0.0054774098 0.061811447 79 40 60
-0.046152625 0.0064934269 0.061615735 150 52 43
-0.044098824 0.0064577777 0.060971111 164 44 25
-0.041174993 0.0068302564 0.060247868 158 40 19
-0.039873231 0.0074408986 0.060130239 144 37 17
-0.045083281 0.0079273023 0.062482655 163 51 31
-0.044102535 0.00792123 0.061912239 167 47 28
-0.041387584 0.0087286616 0.061185163 162 42 22
-0.038788471 0.0099478811 0.060950339 107 21 10
-0.038371697 0.01076489 0.061555028 103 22 11
-0.036744613 0.011372765 0.061247408 93 27 18
-0.035112094 0.013663393 0.061536491 104 29 23
-0.034642275 0.013969886 0.060821455 102 28 26
-0.035592783 0.017074781 0.061926335 99 29 33
-0.034481339 0.016672876 0.060861945 98 29 36
-0.035464745 0.018345935 0.062030274 91 31 40
-0.033441346 0.018819189 0.060195524 56 35 55
-0.036479857 0.021347055 0.062308013 56 36 55
-0.034710061 0.021792304 0.061161131 47 36 55
-0.057302672 0.02459411 0.06162709 72 58 85
-0.0386483 0.023576397 0.061863661 55 38 60
-0.036471125 0.023156714 0.060725063 50 38 57
-0.055569936 0.025406923 0.061470509 71 56 86
-0.054703552 0.02581333 0.061392248 69 55 82
-0.06757082 -0.0026213937 0.064514518 80 62 97
-0.063121311 -0.0046479329 0.063284785 76 56 87
-0.060750674 -0.003656961 0.064079106 72 52 83
-0.058916837 -0.0032664426 0.06343174 68 51 78
-0.055888202 -0.0018457398 0.063158125 62 49 75
-0.054890785 -0.00078706816 0.062541127 65 59 76
-0.053181995 0.00082927383 0.064358652 41 40 49
-0.051517721 0.0016509257 0.063872062 59 53 65
-0.049678776 0.004586434 0.06395185 63 36 58
-0.04874425 0.0060487571 0.064074546 71 39 60
-0.046813097 0.0071158595 0.062638938 132 51 50
-0.045983471 0.0081039863 0.064043492 151 54 41
-0.043409307 0.0095111504 0.064304084 167 46 29
-0.041451368 0.0095027406 0.06316334 165 43 28
-0.041500408 0.010966678 0.063856825 166 45 31
-0.038679879 0.012091003 0.063108757 107 24 13
-0.040350471 0.014502611 0.064879239 139 37 25
-0.038619079 0.013868455 0.063781157 95 20 14
-0.036373418 0.013646285 0.062629305 93 26 20
-0.040520411 0.016353993 0.064812146 124 32 21
-0.038831893 0.016251611 0.06426774 91 22 17
-0.036293279 0.016609857 0.062998831 98 28 30
-0.041163553 0.019212278 0.064735353 112 31 26
-0.039188568 0.018734291 0.064616859 87 25 27
-0.036941502 0.018277895 0.063976616 91 28 32
-0.04293761 0.022242278 0.064730763 117 55 56
-0.041164488 0.020704048 0.06467171 99 31 33
-0.038584553 0.02124124 0.063664638 72 34 52
-0.036974821 0.02044291 0.063384831 78 33 50
-0.058279131 0.023989962 0.06473168 72 58 85
-0.057162751 0.023106821 0.064690888 72 58 85
-0.053933039 0.023729075 0.063433737 69 55 82
-0.04173309 0.022883099 0.064116955 82 40 58
-0.039665129 0.023928955 0.063425183 56 40 63
-0.065220684 -0.0027041305 0.065356135 77 57 90
-0.062963955 -0.0034901586 0.065899946 74 55 86
-0.060747545 -0.0028425232 0.066050887 72 52 83
-0.058617305 -0.0028983653 0.065903425 68 49 77
-0.065414324 -0.0018663108 0.066337407 75 58 90
-0.064146057 -0.0023264959 0.066267848 75 55 88
-0.060947735 -0.0020059943 0.067032635 70 50 83
-0.058820453 -0.0024660975 0.065899283 68 50 78
-0.055705231 -0.0010662191 0.066122115 64 50 74
-0.05471373 -1.2114644e-05 0.065505683 92 86 103
-0.053869311 0.001189772 0.067401707 63 51 71
-0.052940402 0.0029299706 0.065255344 72 59 79
-0.051512625 0.0038659323 0.065783896 58 39 61
-0.049632862 0.0060672327 0.066226639 63 37 60
-0.048616637 0.0078598708 0.066747546 73 42 63
-0.046220515 0.0091157211 0.065522052 163 71 58
-0.044499505 0.0099230334 0.065366566 168 49 31
-0.046192151 0.011625707 0.066416256 160 50 37
-0.043184098 0.011593401 0.065202743 168 44 29
-0.046180848 0.013419501 0.067342259 154 46 32
-0.043485466 0.014061021 0.065835238 164 44 28
-0.042071488 0.0136953 0.065034747 167 48 32
-0.046535943 0.016402135 0.067239881 143 45 31
-0.043752473 0.016100286 0.066053629 161 46 29
-0.041191753 0.016600478 0.065852165 157 53 39
-0.045645613 0.018219432 0.06709969 146 51 33
-0.044294536 0.018263031 0.06625025 149 48 31
-0.042204037 0.018754447 0.065831393 138 40 28
-0.047683109 0.021812521 0.067089558 119 58 63
-0.046383381 0.021138277 0.06659691 128 58 58
-0.043216325 0.020908426 0.065810651 132 49 41
-0.051433109 0.023889851 0.066261262 67 53 80
-0.048087332 0.022672638 0.067081273 76 53 76
-0.045967955 0.022617079 0.066934586 115 55 65
-0.044026148 0.0226316 0.065793991 104 64 81
-0.056714918 0.025091663 0.066581368 73 57 84
-0.067515537 -0.0010054298 0.06845516 77 59 94
-0.065392539 -0.0010610782 0.068308234 75 58 90
-0.063699074 -0.0013182126 0.068200111 71 54 87
-0.061344001 -0.0003417246 0.068996191 69 49 82
-0.058608819 -0.0015039608 0.068251409 67 48 77
-0.056144595 -0.00046563707 0.068134099 65 48 73
-0.060585182 0.00047407113 0.069409668 66 46 79
-0.058996242 0.00063132867 0.069792867 62 42 74
-0.055896726 0.001624546 0.069030806 59 40 66
-0.053124338 0.003820603 0.068574846 55 34 59
-0.052016757 0.0044934396 0.068635464 55 34 59
-0.051563792 0.0057547651 0.068549722 56 35 61
-0.049623434 0.0071898382 0.068351984 61 37 62
-0.050538473 0.0093136346 0.068827406 63 38 63
-0.049239684 0.0095352419 0.067723215 71 44 66
-0.050300527 0.011382118 0.069725752 66 43 66
-0.048508935 0.010999409 0.068612672 94 47 61
-0.047291625 0.012409505 0.068466842 126 53 49
-0.048433438 0.013898477 0.068985283 104 51 55
-0.046839047 0.013669748 0.06838119 150 51 38
-0.050379548 0.017098863 0.069487214 75 51 70
-0.048883215 0.016286382 0.069040395 100 50 56
-0.053700197 0.019725766 0.069608629 66 51 81
-0.050959323 0.019442257 0.069427937 75 53 76
-0.048529539 0.018378451 0.068299055 110 53 55
-0.059072774 0.021246199 0.069520161 74 58 86
-0.056011498 0.021556359 0.068488955 68 54 82
-0.053651232 0.021841027 0.069514841 67 52 81
-0.050917886 0.020706281 0.068769023 75 55 78
-0.049211204 0.020940533 0.068237603 91 59 73
-0.05170596 0.022914089 0.068328798 67 53 80
-0.066425897 -0.00023399293 0.070352316 75 57 92
-0.063680321 -0.00051798485 0.070171356 71 54 87
-0.068071097 0.0014768839 0.071398437 79 58 94
-0.065556139 0.0005643405 0.071260512 75 57 92
-0.063539185 0.00092057511 0.071605153 72 54 88
-0.061030682 0.0012923256 0.070911169 65 46 80
-0.059195269 0.0014558695 0.070775092 63 43 75
-0.057058651 0.0024581328 0.070582032 58 39 65
-0.069706984 0.003846148 0.071412265 84 62 100
-0.060648244 0.0027329437 0.07182616 68 47 82
-0.058733795 0.0033268232 0.071331702 61 41 72
-0.056305524 0.0038193832 0.07075765 56 37 63
-0.053841505 0.004490342 0.070269018 55 34 60
-0.05781256 0.0070571676 0.072445452 59 39 70
-0.056977119 0.0067540281 0.072399639 57 38 66
-0.053646587 0.0062251464 0.07118465 56 35 62
-0.05210774 0.0063497834 0.070067704 55 34 61
-0.055257428 0.0082557574 0.072214603 58 39 65
-0.053852905 0.0089540724 0.071799316 58 37 64
-0.052494179 0.0086466409 0.071000218 58 37 64
-0.05385448 0.011047118 0.071662284 59 40 66
-0.051173676 0.011006667 0.070806585 61 39 65
-0.053306337 0.013688751 0.07184539 63 44 68
-0.051636964 0.013897732 0.070882969 65 43 68
-0.056315426 0.01714249 0.071909547 45 44 55
-0.053383227 0.01643284 0.071733654 69 60 79
-0.051695444 0.01580961 0.070638239 67 47 70
-0.05837379 0.019064724 0.071303345 85 71 98
-0.055964183 0.018428301 0.071328282 89 80 104
-0.053746045 0.018471902 0.070869446 73 62 86
-0.050994467 0.018749323 0.070463419 72 51 76
-0.060232785 0.020681839 0.071030617 76 59 89
-0.068033099 0.0022628047 0.073368907 79 58 94
-0.065928221 0.0022076294 0.073223233 75 54 90
-0.06516923 0.0030154362 0.073637068 73 52 88
-0.063892759 0.0036142152 0.073521748 73 52 88
-0.061243806 0.004405044 0.07280001 68 48 81
-0.064055376 0.0054795481 0.07445693 70 49 85
-0.061411031 0.0062697115 0.073735513 68 47 81
-0.058938522 0.0062331492 0.07281065 61 41 73
-0.069318339 0.0098470114 0.074138939 88 65 102
-0.063251123 0.0083838366 0.07477802 70 47 84
-0.061977953 0.0089810695 0.074662983 68 48 81
-0.058620065 0.0087998062 0.073631883 61 41 73
-0.056160193 0.0090809539 0.073246241 58 39 67
-0.060256075 0.010827754 0.074463069 66 46 79
-0.059016928 0.011433393 0.074182808 63 44 75
-0.056136757 0.011607124 0.073136747 61 42 69
-0.054961581 0.012418579 0.073019445 60 44 69
-0.058909971 0.014576102 0.074208349 67 50 80
-0.056242488 0.013452974 0.073266029 61 45 71
-0.054712486 0.014096566 0.072930276 61 46 69
-0.060871121 0.015993834 0.074285731 69 53 83
-0.058338679 0.01648058 0.073585182 82 67 95
-0.056664854 0.016042836 0.072984487 83 79 94
-0.062807955 0.018461935 0.074316561 74 58 88
-0.061959177 0.018860091 0.07423988 75 58 88
-0.058192085 0.018188527 0.073000282 83 71 96
-0.062559292 0.020137031 0.074227571 80 63 93
-0.059587821 0.021530915 0.073959142 78 61 90
-0.067992344 0.0030428581 0.075339496 80 59 95
-0.065973155 0.0039187358 0.075661793 72 51 87
-0.064597234 0.0046354756 0.075032711 71 50 86
-0.066385031 0.0064720227 0.076685488 74 53 89
-0.064781353 0.0054454524 0.076014519 69 48 84
-0.067851901 0.0080040079 0.077124596 80 59 95
-0.065964296 0.0082978383 0.076778635 72 51 87
-0.063595831 0.0090756565 0.076027021 70 48 83
-0.061742958 0.0099822711 0.075607181 70 50 83
-0.063182056 0.011046469 0.076164603 70 50 83
-0.061145712 0.011645329 0.075494148 66 48 81
-0.063953504 0.01376715 0.076604381 76 57 90
-0.061222207 0.014375247 0.075382978 69 52 83
-0.059999783 0.012874324 0.075361073 66 49 79
-0.068105221 0.015132841 0.076838017 84 64 97
-0.065567672 0.016323175 0.076608777 77 60 90
-0.064323127 0.015871603 0.07654053 75 58 89
-0.061895948 0.015442107 0.075384818 68 53 84
-0.059902694 0.017068576 0.075175166 71 54 84
-0.065337434 0.017630722 0.07553339 78 61 91
-0.063443109 0.018000741 0.075384378 74 59 91
-0.060901165 0.019193146 0.075154692 75 58 88
-0.062534526 0.020852152 0.076202095 81 64 96
-0.061489332 0.020824749 0.076129764 79 62 92
-0.06852302 0.0054722279 0.07828325 86 63 102
-0.066184789 0.0093735456 0.078203082 75 54 89
-0.068245374 0.011011492 0.078696154 86 64 99
-0.066912897 0.011687665 0.078239106 81 60 95
-0.06460236 0.012479305 0.077708364 78 58 91
-0.068329528 0.013831694 0.077912748 86 63 99
-0.065988585 0.013339739 0.078019962 80 62 94
-0.066194385 0.015866853 0.0776757 78 61 93
0.069687046 0.029625688 0.53309977 11 15 14
0.070770539 0.029185595 0.53304243 12 15 11
0.06982927 0.030069232 0.5330708 13 16 15
0.070453942 0.030161286 0.53302294 11 16 14
0.071286358 0.024100551 0.54139358 11 14 13
0.071079195 0.025273517 0.54021132 11 14 13
0.071354546 0.021778403 0.54368573 33 30 42
0.071468338 0.022525005 0.54331142 10 13 12
0.073225327 0.023785591 0.54413742 15 16 10
0.073648177 0.022221569 0.54517782 9 15 14
0.073281214 0.022812059 0.54517841 9 13 10
0 0 0 1 0 0 0 1 0 0 0 1 0 0 0 0 0 1035 1 0 0
