ply
format ascii 1.0
comment PCL generated
element vertex 690
property float x
property float y
property float z
property uchar red
property uchar green
property uchar blue
element camera 1
property float view_px
property float view_py
property float view_pz
property float x_axisx
property float x_axisy
property float x_axisz
property float y_axisx
property float y_axisy
property float y_axisz
property float z_axisx
property float z_axisy
property float z_axisz
property float focal
property float scalex
property float scaley
property float centerx
property float centery
property int viewportx
property int viewporty
property float k1
property float k2
end_header
0.034075312 -0.021688554 0.01959753 101 78 117
0.038011484 -0.017206427 0.019982219 94 73 113
0.031595919 -0.021651184 0.020917973 101 83 116
0.033762507 -0.020628542 0.02068156 100 77 116
0.029749643 -0.018081818 0.021852851 100 77 116
0.030761676 -0.019033909 0.021451673 99 77 117
0.033356208 -0.018230338 0.021201512 97 74 115
0.035083503 -0.018061377 0.020894349 98 75 116
0.029279817 -0.016626973 0.021963596 99 76 115
0.031381764 -0.016488627 0.021991491 97 74 113
0.033803526 -0.016675914 0.021996295 96 73 114
0.037374381 -0.015103702 0.022148907 93 70 109
0.038828928 -0.016387317 0.020304084 95 74 112
0.027054282 -0.013059024 0.022226512 95 72 111
0.028583337 -0.013639368 0.022193193 96 73 112
0.024317827 -0.011294091 0.021841764 97 74 113
0.026647666 -0.010692049 0.022409597 93 70 109
0.028686404 -0.011465833 0.022365123 93 70 110
0.031431291 -0.01165662 0.022372305 90 67 108
0.023856083 -0.0098027326 0.022457063 96 73 112
0.027087303 -0.0098376907 0.022480428 92 69 110
0.021923572 -0.0072705001 0.021637619 95 72 111
0.015453506 -0.0040345974 0.020836949 101 80 120
0.037962511 -0.020178255 0.022757232 98 72 114
0.037649795 -0.019209903 0.022830963 98 72 114
0.028317226 -0.016857322 0.022940755 98 77 113
0.03025947 -0.01623502 0.023005426 98 75 114
0.033172838 -0.015301567 0.023102462 95 72 111
0.037020572 -0.017191224 0.023987949 96 73 114
0.027390644 -0.013875581 0.024171174 96 73 112
0.028662913 -0.014609467 0.023120552 96 73 112
0.031419918 -0.013191838 0.023254424 93 70 109
0.033403292 -0.013803001 0.023222327 92 69 108
0.036086202 -0.014368121 0.023199499 92 69 108
0.032234684 -0.012396511 0.023323596 91 68 107
0.033049442 -0.011601187 0.023392826 88 65 105
0.03545947 -0.01235716 0.024355888 89 66 105
0.024531638 -0.008453276 0.023571849 91 68 107
0.026391625 -0.0083481828 0.022592044 90 67 107
0.028499609 -0.0086716823 0.022583624 88 65 105
0.031067465 -0.0088682193 0.022588883 87 64 103
0.02110458 -0.0056711547 0.023094455 93 70 110
0.024240192 -0.0058608633 0.024024367 88 65 106
0.026334008 -0.0057386942 0.023800105 86 63 104
0.029387249 -0.0068975277 0.023733556 86 63 104
0.031110024 -0.0067017339 0.023762861 84 61 100
0.015889412 -0.0031835642 0.024418473 98 77 117
0.018990474 -0.0034617558 0.023920059 92 69 110
0.020735269 -0.0032057911 0.024957418 88 67 107
0.023766328 -0.0044242814 0.023882836 85 64 104
0.025872046 -0.0042559057 0.024414673 84 62 103
0.029093094 -0.004305982 0.024185985 83 61 100
0.030704057 -0.0043385215 0.02394563 82 61 99
0.081523716 0.0043931194 0.02404058 87 58 78
0.013206728 0.023173783 0.024967253 23 23 25
0.036549203 -0.015661366 0.025107682 94 71 110
0.037045803 -0.013826463 0.026259363 92 69 108
0.034834426 -0.010281209 0.02652061 87 64 103
0.035145648 -0.011244934 0.026447237 88 65 104
0.034211975 -0.0083537512 0.026667297 84 63 101
0.03374514 -0.006908156 0.026777357 81 60 98
0.022674425 -0.0025844797 0.02502197 84 63 103
0.028631531 -0.0028095134 0.025052428 81 60 98
0.030398114 -0.0033103377 0.025027275 80 59 97
0.014047068 -0.0020532794 0.027000427 102 84 121
0.015751829 -0.0018779387 0.026693603 94 74 113
0.018917469 -0.0012184232 0.026771108 84 62 104
0.021263698 -0.0013739308 0.026359841 83 62 101
0.023792669 -0.0013425514 0.025730694 82 61 100
0.026030323 -0.00076411414 0.025861183 80 59 97
0.028497905 -0.00068360072 0.02588745 77 58 95
0.030093163 -0.0022852495 0.026108623 80 59 97
0.015186546 0.00094840489 0.026744395 89 62 107
0.019223522 0.0017321669 0.027340293 75 54 94
0.02146771 0.0013877563 0.027331293 77 58 97
0.024023198 0.00069805759 0.026896358 78 60 97
0.026760785 0.0014639292 0.026878476 76 58 95
0.028334081 0.0012278386 0.026972914 72 54 91
0.031340059 0.0013474068 0.027157083 71 53 90
0.022122968 0.0026611574 0.027436852 76 55 95
0.023089454 0.0029708184 0.027469039 75 57 96
0.028544314 0.0025916733 0.027483284 70 52 89
0.080478072 0.0041293465 0.02501446 87 58 78
0.079588801 0.0066158846 0.026707709 76 55 81
0.080667399 0.006861385 0.025231034 76 55 81
0.07981357 0.0093219429 0.02642101 69 53 80
0.081364736 0.0090653049 0.025744578 74 55 86
0.079033017 0.011738978 0.02660498 65 48 77
0.08120241 0.011841279 0.025627434 69 52 84
0.077038169 0.014781263 0.025825262 58 44 71
0.078114927 0.01301712 0.026196629 63 47 74
0.026418224 0.015709952 0.027495682 62 45 77
0.074282423 0.016594255 0.026447296 56 43 70
0.075951979 0.01587492 0.026236972 58 44 71
0.02145046 0.019427203 0.026745081 54 40 65
0.023060935 0.019409776 0.026756704 57 42 68
0.026229845 0.019536063 0.026792249 61 44 72
0.028377146 0.019512832 0.026807785 62 45 75
0.06896767 0.019715942 0.027151704 57 42 72
0.071019374 0.018936733 0.026772559 56 41 71
0.073532335 0.019000735 0.026129127 57 42 72
0.011960186 0.020653896 0.026764989 20 23 24
0.013899338 0.021275202 0.026829571 20 21 24
0.016664321 0.021305628 0.026653672 39 36 47
0.01808089 0.021544794 0.026550194 45 41 54
0.020979043 0.021829233 0.02632848 51 41 60
0.024523441 0.021471938 0.026429325 56 43 68
0.026559828 0.020703036 0.026552418 60 45 72
0.028496861 0.021318058 0.026282093 61 46 73
0.031061947 0.02113268 0.026813686 62 46 74
0.034038492 0.021860162 0.027038306 59 44 73
0.036454201 0.021834023 0.027055785 59 44 74
0.039354701 0.021963213 0.027089357 58 43 73
0.040324274 0.022273865 0.027121663 58 43 73
0.069252871 0.021191418 0.026267031 59 43 73
0.015152063 0.023797072 0.025032043 22 22 24
0.019692978 0.023121495 0.02601856 47 42 54
0.021306021 0.02310404 0.026030242 51 41 59
0.024109652 0.023824239 0.026109597 51 41 60
0.026145151 0.023051681 0.02606521 57 44 68
0.029058516 0.023985129 0.026162267 61 47 72
0.030885532 0.023858145 0.026167015 59 45 71
0.034319986 0.023183802 0.026476046 59 45 72
0.036151282 0.023595549 0.026690438 58 44 72
0.038974155 0.023970785 0.026993573 58 43 73
0.040739238 0.023473673 0.027219489 58 43 73
0.043821331 0.024034444 0.027288532 61 45 72
0.045172155 0.023827139 0.027283132 61 45 72
0.064497843 0.023618039 0.027422786 61 46 78
0.065829292 0.022943966 0.02637732 61 46 78
0.068084255 0.022597909 0.02636832 59 44 76
0.039395176 0.025159921 0.02633822 55 41 68
0.041337416 0.025782218 0.02640292 56 42 69
0.043652974 0.025894105 0.027032316 60 44 71
0.045522902 0.02606762 0.027127961 59 43 70
0.048253447 0.025881248 0.027469754 59 43 70
0.047164153 0.027649119 0.026596963 57 41 68
0.048620835 0.028115844 0.026645511 57 41 68
0.013492528 -1.5996397e-05 0.029162586 102 79 120
0.012063796 0.0011162944 0.029240161 99 79 116
0.013678545 0.0012902543 0.028665017 94 71 112
0.01716296 0.0016468614 0.028319985 78 55 96
0.018127896 0.0019560307 0.028352112 74 51 92
0.012251614 0.0038265809 0.029455066 90 64 106
0.013215004 0.0041352585 0.029487133 86 60 102
0.015846426 0.0035254832 0.028457263 78 52 94
0.018408673 0.0032846902 0.028458992 72 49 90
0.021444852 0.0041701109 0.028152024 70 50 89
0.02352629 0.0038197425 0.027539412 72 54 93
0.026207322 0.0043242737 0.027600786 70 52 89
0.027921867 0.0045191385 0.027629972 68 50 87
0.031522464 0.0032918779 0.027813226 68 50 87
0.011802623 0.0068628602 0.029690474 71 51 82
0.013713052 0.0058848988 0.029628918 75 53 90
0.016257327 0.0061461031 0.029001275 71 46 85
0.018814862 0.006423112 0.028709382 66 43 82
0.021382568 0.0067149401 0.028753072 65 44 82
0.023122262 0.0061716586 0.027721316 67 47 86
0.026417006 0.0059183147 0.02822952 66 48 86
0.029064573 0.005969448 0.028254926 65 47 84
0.030964827 0.0063875392 0.028804719 63 45 80
0.033566881 0.0069027171 0.028866321 60 42 77
0.0066509969 0.0090990914 0.029824913 25 27 31
0.0084634619 0.0089731179 0.029829651 43 41 50
0.011027053 0.0092644729 0.029873282 68 51 72
0.014118592 0.0090182917 0.029878875 66 45 76
0.0164349 0.0080575272 0.029069602 66 45 80
0.019428203 0.0089200782 0.028910914 64 43 79
0.021326739 0.0085072769 0.028607164 64 43 80
0.024449119 0.0087592127 0.028938809 64 44 80
0.026051888 0.0087418705 0.028950393 62 44 80
0.028837664 0.0094574867 0.02902925 61 44 78
0.030860193 0.0086898506 0.028985143 61 44 77
0.03384766 0.0082313763 0.028973201 59 42 74
0.035030667 0.00896433 0.029040456 57 40 72
0.078858614 0.0086097606 0.028363556 70 52 80
0.0091166236 0.010242425 0.029934824 54 49 59
0.010561708 0.010705438 0.029982984 66 51 69
0.013838494 0.011310721 0.029254591 64 45 71
0.015817102 0.011089872 0.029052567 63 43 74
0.018708635 0.011697803 0.029123783 62 44 76
0.021147894 0.011220358 0.028437177 65 44 78
0.024293572 0.010800742 0.028095186 62 44 79
0.025638295 0.010545186 0.028754672 62 44 79
0.028747005 0.011364265 0.028844247 60 43 75
0.031686142 0.011077976 0.029179841 60 43 75
0.033771381 0.011215217 0.029207468 58 41 73
0.035218786 0.011678971 0.029255688 56 39 71
0.076735407 0.011709183 0.029593468 64 48 75
0.077959448 0.011483172 0.02808091 65 48 77
0.0091957999 0.014123209 0.028569162 23 22 24
0.011193641 0.01353696 0.029207855 54 47 60
0.013605984 0.014309881 0.029288217 64 49 73
0.016159659 0.014586253 0.028829068 60 44 71
0.019025691 0.013107154 0.028485 61 44 75
0.020788077 0.013399635 0.028271496 63 46 77
0.023567004 0.013758287 0.028322186 62 45 76
0.02630575 0.013926825 0.028357586 61 44 76
0.028872102 0.01368564 0.028359333 59 44 76
0.031542193 0.013123218 0.028336644 58 43 75
0.033631459 0.013277815 0.028867215 58 41 73
0.036847889 0.014042931 0.028953448 53 38 70
0.038072724 0.013832085 0.029448271 52 37 68
0.040542316 0.014977261 0.029558361 51 36 66
0.073469602 0.014184446 0.029427608 56 42 69
0.076213382 0.013584899 0.028232276 60 45 72
0.0094115138 0.015603516 0.028353095 20 23 22
0.011795069 0.016024504 0.029074213 92 86 94
0.013864835 0.016147247 0.028599054 64 51 70
0.016914021 0.016589407 0.028491318 59 43 68
0.018614786 0.016241675 0.028143307 59 43 69
0.021187982 0.016534125 0.028187117 59 43 70
0.023749268 0.016283447 0.027853668 60 43 74
0.027386252 0.016020112 0.027527928 63 46 78
0.02873905 0.015825272 0.0279248 62 45 77
0.031409837 0.015998956 0.028311148 60 44 76
0.033180341 0.016306702 0.028600484 60 43 75
0.036235403 0.016753826 0.028660357 55 40 72
0.037996352 0.016254589 0.028635293 53 38 69
0.041274205 0.016008073 0.029645428 51 37 66
0.043126401 0.016866952 0.029727995 52 38 65
0.045056276 0.017485291 0.029792309 52 38 65
0.071376219 0.015899573 0.02907759 54 41 68
0.074655384 0.015188038 0.02784431 57 43 70
0.011515059 0.018930256 0.028130367 18 20 21
0.013121419 0.018912362 0.028141975 36 33 38
0.016327024 0.018871799 0.027913883 54 43 64
0.018832663 0.018250212 0.027634382 56 41 66
0.021783227 0.018485479 0.027676731 57 41 67
0.02306298 0.017830368 0.027635515 59 42 72
0.026122931 0.018278208 0.027695477 61 44 74
0.028214851 0.018415891 0.027723223 61 44 74
0.031488091 0.018754547 0.02777634 61 44 75
0.032882705 0.018846337 0.027794838 61 44 75
0.036252968 0.018341966 0.028283954 58 42 73
0.038986508 0.018690296 0.028500656 55 40 70
0.041177358 0.018959096 0.028271997 54 39 69
0.043484025 0.019076303 0.028901756 54 40 68
0.046141446 0.018531239 0.029549042 54 40 67
0.069352649 0.018304219 0.02854839 55 40 70
0.070504412 0.018118642 0.028041482 57 42 72
0.013276119 0.020020373 0.027728856 18 21 22
0.015212178 0.020640694 0.027793348 31 29 40
0.034507044 0.020431928 0.027932763 59 44 74
0.035959087 0.020897163 0.027981132 59 44 74
0.039970633 0.02005218 0.027947009 57 42 72
0.04142268 0.020517416 0.027995378 57 42 72
0.044269335 0.021074444 0.028062245 57 43 70
0.046024434 0.021145457 0.028282654 58 43 70
0.048902892 0.02145059 0.029132461 60 44 71
0.060536686 0.022413123 0.029302239 61 46 76
0.063747361 0.022378389 0.029325426 60 45 77
0.066434689 0.021809638 0.028967997 63 46 77
0.046123397 0.024153832 0.028319657 61 45 72
0.04879776 0.023590511 0.028296908 61 45 72
0.050761811 0.022990635 0.028767139 61 45 72
0.05366895 0.023917586 0.028696418 61 45 72
0.056876823 0.0238856 0.028887033 60 44 71
0.058653098 0.024345338 0.028837252 61 44 73
0.062180191 0.023988795 0.028937966 61 45 76
0.064122081 0.022997195 0.028374016 61 46 78
0.04745644 0.026692733 0.027527153 59 43 70
0.049310483 0.026228687 0.027906884 60 44 71
0.051789269 0.026491664 0.028047919 59 43 70
0.053577885 0.026787069 0.027584061 59 43 70
0.05692932 0.025473125 0.028009236 59 43 70
0.059151534 0.025816858 0.027552703 60 43 71
0.061622024 0.025897175 0.02757901 60 43 73
0.062903821 0.025241014 0.027537704 61 44 74
0.051334742 0.027935352 0.027656317 57 41 68
0.054070905 0.027745174 0.027663469 57 41 68
0.056807064 0.027554993 0.027670622 57 41 68
0.0088078463 0.0033259727 0.031394035 87 76 100
0.011670521 0.004225418 0.030986428 86 66 102
0.07900691 0.0041567944 0.032026589 102 50 59
0.0069361515 0.0074811541 0.031706035 30 29 36
0.011032314 0.0061190017 0.03062883 72 56 84
0.034687053 0.0068188198 0.030875027 59 42 74
0.078374207 0.0064616688 0.030196697 79 53 76
0.0088152206 0.0080544986 0.030763298 48 43 55
0.035666302 0.0086997654 0.030529439 56 39 71
0.037914965 0.0099697374 0.031149149 52 35 67
0.077753745 0.0083829574 0.030342966 69 51 78
0.0061335322 0.011428647 0.03100726 25 25 27
0.0089778621 0.01231806 0.030097127 25 23 30
0.037299763 0.011852078 0.030289233 52 37 69
0.038786571 0.011648845 0.030954003 52 36 67
0.076003723 0.011551615 0.030912677 63 46 74
0.0063047223 0.012541842 0.03109628 25 25 27
0.00822841 0.013158198 0.031160355 23 23 25
0.038916316 0.013430066 0.030426562 52 37 67
0.041256841 0.013863293 0.031482678 50 35 65
0.071514204 0.014384959 0.031768203 55 41 68
0.042459652 0.015625402 0.030628026 51 37 64
0.044370797 0.016271565 0.031697452 50 36 63
0.04581356 0.016733829 0.031745523 50 36 63
0.049374849 0.018901095 0.030941784 54 40 67
0.050793976 0.019387905 0.0319947 54 40 67
0.065808438 0.01890688 0.032078147 58 43 73
0.06794019 0.019020086 0.031101137 56 41 71
0.050706908 0.021419257 0.030147642 61 45 72
0.053539444 0.020782374 0.031625107 58 44 71
0.055603191 0.020928793 0.032154858 58 44 71
0.0588517 0.021507401 0.031022906 59 45 73
0.061399851 0.021164723 0.031217128 62 46 76
0.063505784 0.021291258 0.030742556 61 45 76
0.065287188 0.020782091 0.030215263 61 46 76
0.054084189 0.022501346 0.030260146 61 45 72
0.055049125 0.022810515 0.030292273 61 45 72
0.011135507 0.0015520565 0.034282565 100 79 117
0.011091966 0.0046216622 0.032517672 83 66 96
0.0095562749 0.0062716268 0.033638299 72 60 82
0.010783233 0.005577676 0.032590449 74 60 87
0.076982126 0.0068102814 0.034225464 74 50 76
0.076519765 0.0082419999 0.034334451 68 51 77
0.039813604 0.010699961 0.034231365 50 35 65
0.072382629 0.01154412 0.032554626 57 41 68
0.074393481 0.011717726 0.033587754 59 43 70
0.075815573 0.010590121 0.033510447 63 46 76
0.042743798 0.014727455 0.032565832 50 36 63
0.071704388 0.013492636 0.033705771 55 41 68
0.044632126 0.015403543 0.03464061 46 34 60
0.047236055 0.017223421 0.032798648 52 38 65
0.049133278 0.017865129 0.033867657 53 39 66
0.062214516 0.019946508 0.034137189 60 45 75
0.064798042 0.018623773 0.033050776 57 42 72
0.066016972 0.018000014 0.034014702 55 40 70
0.068243206 0.017658368 0.034005761 54 39 69
0.0588938 0.020448042 0.033648282 58 44 72
0.063219279 0.020231213 0.033164561 60 45 75
0.0080363583 0.0047990531 0.035516322 64 55 76
0.0077291187 0.0057504475 0.035588741 41 38 52
0.074662261 0.010398641 0.036495388 61 45 72
0.042056754 0.013562378 0.035477936 48 33 63
0.045553975 0.015769958 0.036683142 47 35 61
0.067126535 0.01743269 0.036988318 54 39 69
0.069325805 0.01551275 0.036854923 54 41 67
0.050520033 0.018377103 0.035925388 53 39 66
0.05384462 0.019464862 0.036706645 55 41 68
0.057957429 0.019744053 0.037096202 56 44 70
0.060214266 0.019380089 0.036082685 58 44 71
0.063799821 0.018075319 0.036008913 56 41 69
0.056767553 0.020344999 0.035127699 58 44 71
0.058990199 0.020003904 0.035118818 56 44 70
0.010409974 0.0046518371 0.039536417 84 67 97
0.075264983 0.008126596 0.038829267 69 49 74
0.068835318 0.014978096 0.039818287 53 41 67
0.07009054 0.014335535 0.039777815 54 40 67
0.046469636 0.016134385 0.038725555 47 35 61
0.048349358 0.016772181 0.039794028 49 37 63
0.065119207 0.016877603 0.038934708 54 39 69
0.067580096 0.015620656 0.039858699 53 41 67
0.056930847 0.019486185 0.039073944 56 44 70
0.059139129 0.019147296 0.039065123 56 44 70
0.060745008 0.01752834 0.037947416 54 40 67
0.063861944 0.017521206 0.038975239 54 40 67
0.010144753 0.0056437217 0.040615499 75 61 88
0.075556979 0.006816756 0.041236281 77 48 68
0.049251098 0.017132167 0.041835904 50 38 64
0.062773049 0.017299321 0.041958332 54 40 67
0.054472759 0.018787431 0.041506827 52 40 66
0.058111552 0.018892519 0.041042924 54 42 68
0.073991969 0.0080367308 0.043827534 66 46 71
0.070830114 0.011606157 0.04257828 57 41 68
0.068319887 0.014465977 0.043284744 53 41 67
0.070163384 0.013524316 0.04372704 54 40 67
0.050172068 0.017462768 0.042872488 51 39 65
0.059334844 0.016974326 0.0439112 52 40 65
0.061693426 0.017080408 0.044941723 54 40 65
0.063976169 0.016687505 0.042922974 53 39 66
0.066474348 0.01540868 0.042842507 52 40 66
0.052061737 0.018068224 0.042935431 52 40 66
0.053616088 0.01806419 0.043449253 51 39 65
0.057053424 0.018665172 0.044025898 54 42 68
0.064388677 0.014930185 0.046800435 52 38 63
0.066568241 0.014595699 0.046791732 52 40 66
0.068429604 0.013642859 0.04673174 53 40 66
0.054731801 0.015967365 0.04680407 50 38 64
0.062891968 0.016472232 0.045906603 53 39 66
0.056039762 0.018414859 0.046004176 53 41 67
0.069782324 0.01063434 0.049515188 59 43 68
0.044724166 0.014863763 0.047639549 45 33 59
0.063974559 0.014376814 0.048759818 52 38 63
0.066711232 0.013761215 0.049736559 53 39 66
0.047492929 0.015825346 0.049743831 46 34 60
0.058383148 0.016204363 0.049192905 51 39 63
0.061817043 0.01625992 0.04889065 53 39 64
0.053096987 0.017620899 0.049930453 51 39 65
0.069423884 0.011603162 0.050591707 54 40 65
0.071589075 0.011270881 0.050583065 59 43 70
0.0539352 0.014890991 0.051728547 49 37 61
0.062281851 0.01449234 0.051764607 51 37 62
0.067890882 0.013164006 0.050702214 53 39 66
0.046519473 0.015587904 0.05172354 46 34 60
0.048846766 0.016333576 0.051801026 48 36 62
0.051654015 0.01721441 0.051391482 50 38 64
0.056464363 0.016685024 0.050887108 51 39 65
0.05765887 0.01608406 0.051852584 50 38 62
0.060794756 0.016020454 0.050869763 52 38 63
0.076521523 0.0038846533 0.053719521 100 39 41
0.068323031 0.011418276 0.053577662 53 39 64
0.07170406 0.010459751 0.053529501 60 44 71
0.06185231 0.013963701 0.054227352 51 37 62
0.063565776 0.013468081 0.053700596 52 38 63
0.066210128 0.013268143 0.053204626 51 37 63
0.0535408 0.01591083 0.054815054 49 37 63
0.056654591 0.015846953 0.053832054 50 38 62
0.057842463 0.015250679 0.054797828 49 37 61
0.073631078 0.0071919933 0.056297183 76 47 67
0.068692088 0.0097321011 0.057460427 59 43 68
0.071884118 0.00834677 0.056708355 64 44 70
0.067379855 0.01077687 0.056528896 55 41 66
0.068508551 0.010572109 0.055518746 57 41 66
0.070655793 0.010242585 0.055510163 59 43 70
0.048885599 0.014459927 0.055666268 46 34 60
0.056879006 0.014986012 0.055772305 50 38 62
0.058359578 0.013472825 0.056668282 50 38 62
0.060860015 0.013717778 0.055704623 51 38 63
0.062646881 0.012814872 0.056651115 54 40 65
0.065765753 0.012745824 0.055667698 52 38 63
0.052554525 0.015676081 0.056794882 47 35 61
0.055656496 0.015611831 0.055811703 50 38 62
0.078896075 -0.0031375773 0.057532787 120 32 24
0.078585483 -0.0014105762 0.059338052 117 31 25
0.080286056 -0.0015100837 0.059678316 130 47 42
0.077414647 0.001449775 0.057881951 109 32 27
0.078697808 0.00082657114 0.059682269 117 38 34
0.081312746 0.0017660931 0.058941424 112 58 76
0.074322529 0.0045799166 0.059106469 96 36 36
0.076525792 0.0042021833 0.058091462 102 41 44
0.073336713 0.0062175952 0.05822435 82 42 55
0.067659289 0.0095198974 0.059441566 58 44 69
0.070695117 0.0079658367 0.059343725 62 44 69
0.058684096 0.012203068 0.059580296 52 39 63
0.061446045 0.011546532 0.059049398 53 39 64
0.063269585 0.010613048 0.058990628 55 41 66
0.065994106 0.010614914 0.058511216 58 44 69
0.046504349 0.013839176 0.059109181 45 33 59
0.047894068 0.014264125 0.058652341 45 33 59
0.053842008 0.01467328 0.059234113 48 36 60
0.056561515 0.013651852 0.058339756 49 37 61
0.059496514 0.012919571 0.058640182 52 38 63
0.061069127 0.01286725 0.057645649 53 39 64
0.064740032 0.012522269 0.057648122 54 40 65
0.051128618 0.015280165 0.058256865 47 35 61
0.071781971 -0.010003559 0.061950326 187 94 97
0.073204644 -0.0092131002 0.062024057 173 66 61
0.075539671 -0.0081303194 0.062128168 153 47 41
0.072431505 -0.0057798699 0.062288105 126 33 38
0.073843859 -0.0059966124 0.062282462 135 35 30
0.076337881 -0.0062936656 0.061276119 136 32 27
0.078567579 -0.0059133247 0.06132403 134 35 30
0.071990818 -0.004415229 0.062391996 103 32 42
0.074168622 -0.00388477 0.062451322 121 29 25
0.075684816 -0.0040495172 0.061698273 125 29 23
0.077831849 -0.0036350675 0.06149745 124 31 24
0.074826851 -0.00057549775 0.061714053 108 28 23
0.077096105 -0.0013568103 0.061670899 115 29 22
0.073579945 0.0012037804 0.06184407 97 27 24
0.076395541 0.00089367665 0.061340868 108 29 22
0.06905178 0.0037753184 0.062009949 56 40 63
0.071640246 0.0038990695 0.061539054 72 33 48
0.073306806 0.0034265947 0.061515331 92 32 33
0.07569398 0.0031472482 0.061011076 103 34 31
0.066315301 0.0065648123 0.061873097 57 43 68
0.068108171 0.0062734084 0.061446682 58 43 68
0.071120232 0.0064338148 0.060731292 68 40 60
0.073043451 0.0052503496 0.060152054 88 37 48
0.057013661 0.0093038343 0.062347949 52 40 64
0.058289468 0.0090241246 0.062001865 53 39 64
0.061494868 0.0090263346 0.061693568 54 40 65
0.063726969 0.0088971453 0.061617851 56 42 67
0.065959454 0.0093907202 0.060755193 58 44 69
0.068194292 0.0077326596 0.060308337 58 44 69
0.051723905 0.011631355 0.062488437 50 38 62
0.053273901 0.011577751 0.061493605 50 38 62
0.056069888 0.011365055 0.061499499 50 38 62
0.05787427 0.011489086 0.060520649 52 38 63
0.060757346 0.010394834 0.060457826 54 40 65
0.049952969 0.014038403 0.061660588 47 35 59
0.051480785 0.014013686 0.061420172 47 35 59
0.053025115 0.013971396 0.060676932 49 37 61
0.055449694 0.012730248 0.060598791 50 38 62
0.064725816 -0.013171487 0.062647045 112 97 127
0.066547446 -0.01258783 0.062707722 106 85 121
0.054377265 -0.01229848 0.064638436 105 82 123
0.062317595 -0.011938706 0.06272465 103 80 121
0.063916691 -0.011729285 0.063088439 104 81 121
0.066720404 -0.011292431 0.063212357 103 76 116
0.068289414 -0.011004161 0.063097253 109 75 113
0.070808217 -0.010220475 0.062928498 197 104 107
0.061746735 -0.0092714177 0.064936303 94 71 112
0.063000612 -0.0095355362 0.064925641 97 71 113
0.066158146 -0.008363694 0.064040273 92 65 106
0.068371594 -0.0089518055 0.063510269 103 67 105
0.071425736 -0.0090204356 0.063027978 161 68 73
0.066657759 -0.0062860101 0.064207889 82 59 96
0.06915082 -0.0066990331 0.063693941 95 53 80
0.071001247 -0.0061498582 0.063250571 111 42 57
0.037289135 -0.0028561652 0.064240634 74 56 93
0.037581936 -0.0037628412 0.064171612 76 58 95
0.065984845 -0.003166642 0.064447999 74 53 87
0.069210544 -0.0037170351 0.063427612 67 41 69
0.070870057 -0.0041875169 0.063403964 97 33 44
0.074580997 -0.0030833855 0.062517762 119 28 21
0.036410734 -0.00013612956 0.064447701 70 52 87
0.064505421 -0.00013894588 0.064674437 101 92 115
0.065545648 -0.0018066317 0.064551532 74 54 86
0.068932697 -0.0013005721 0.06361562 63 38 64
0.070792764 -0.0015160702 0.062861323 68 34 52
0.073390327 -0.00095514581 0.062675714 101 27 25
0.036824413 0.00062497705 0.0638422 69 51 86
0.037643671 0.0022598803 0.064646304 63 45 80
0.061808486 0.0019984245 0.064820945 104 95 118
0.063674085 0.0014170544 0.06462305 68 66 83
0.06630452 0.001194109 0.064192057 65 53 75
0.068787344 0.0017155349 0.063250042 57 41 64
0.071493484 0.0012814725 0.062836468 73 32 44
0.036900833 0.0029681288 0.063692927 63 46 78
0.05911155 0.0041357875 0.064967394 59 43 68
0.061746877 0.0042916811 0.064666592 59 45 69
0.06385088 0.0035689063 0.063707158 73 64 84
0.06691885 0.0034966804 0.062973917 57 43 68
0.06812501 0.0028792508 0.062935054 56 42 66
0.054043412 0.0074584559 0.064184904 55 39 64
0.056863319 0.0070256987 0.064173616 53 39 64
0.058273263 0.0068093315 0.064167976 55 41 66
0.06080481 0.0062632686 0.063811064 57 42 67
0.063153483 0.0058038831 0.063125134 57 43 68
0.065875083 0.0051700398 0.063097239 57 43 68
0.040736347 0.0082058012 0.064136267 52 37 67
0.051797301 0.0097453743 0.06434682 51 39 63
0.053310923 0.0081988387 0.063735723 53 39 64
0.056107253 0.008398409 0.063272454 52 38 63
0.058910586 0.0079868957 0.063764274 54 40 65
0.06105046 0.007639803 0.063252687 55 41 66
0.04743626 0.012356855 0.0645172 47 35 59
0.051273346 0.010881563 0.063763298 49 37 61
0.053530898 0.011221677 0.062805176 50 38 62
0.046258885 0.012925372 0.06321492 45 33 57
0.048234817 0.013049461 0.063073486 46 34 58
0.050195053 0.013196744 0.063602448 47 35 59
0.056138419 -0.01159922 0.066212416 103 80 121
0.058565199 -0.01059532 0.066060275 100 77 118
0.057345934 -0.0091765709 0.066914499 98 75 116
0.058730632 -0.0087909065 0.066287272 93 71 111
0.06148579 -0.0079800133 0.065537423 89 66 107
0.06366989 -0.007989374 0.06505277 89 65 107
0.038598821 -0.0060284706 0.06625852 83 62 100
0.057376642 -0.0061805733 0.067150593 82 64 103
0.058175772 -0.0055074543 0.066206932 79 61 100
0.060878918 -0.0061369929 0.066179186 82 62 101
0.063885301 -0.0065886402 0.065164782 85 62 101
0.065300733 -0.0058021992 0.065238118 80 57 96
0.038335241 -0.0029228497 0.065748543 74 56 91
0.059303477 -0.0039042372 0.067345358 72 54 91
0.061243057 -0.003843023 0.066162124 73 54 90
0.064116113 -0.0036847815 0.065395266 74 55 91
0.036992338 -0.0018880218 0.065317571 73 55 92
0.038799144 -0.0012463611 0.066385865 70 52 87
0.059158277 -0.0013456009 0.066876866 66 45 80
0.060633257 -0.00073172152 0.066602767 67 46 81
0.06338536 -0.0014219433 0.065567523 75 60 92
0.036730852 0.0020233616 0.065623403 66 48 83
0.037930872 0.0014090613 0.065584779 66 48 83
0.059081294 0.00099708419 0.066475525 62 42 73
0.061546877 0.00065243989 0.065715991 84 70 100
0.039303765 0.0033750925 0.066252202 61 44 76
0.040060192 0.00414313 0.066820323 60 43 73
0.056430001 0.0040493333 0.066610813 56 40 65
0.058279254 0.003534738 0.065916501 58 42 68
0.060930084 0.0047184527 0.065027952 60 44 69
0.039077256 0.0061547295 0.066970766 55 39 71
0.04088961 0.0067354129 0.067031108 55 40 71
0.043554366 0.0072568431 0.0670937 55 41 68
0.048925381 0.006633108 0.066753604 56 40 65
0.051847197 0.0063816933 0.066339448 55 39 64
0.053611115 0.0061009699 0.066080838 55 39 64
0.056414612 0.0062731653 0.065113902 56 40 65
0.05881875 0.0050424635 0.065036416 59 43 68
0.039807942 0.0080032125 0.066119075 51 36 68
0.041903302 0.0077249296 0.067117214 54 39 69
0.043368321 0.0087641086 0.066608988 54 38 65
0.046847433 0.0089439088 0.066584371 51 37 62
0.048162382 0.0090159168 0.066266298 52 38 63
0.051088501 0.008253199 0.065561116 52 38 63
0.043777473 0.011228599 0.065401912 48 34 61
0.046338536 0.011060543 0.065660194 48 35 60
0.048909411 0.010871906 0.065415323 49 37 61
0.050111476 0.010256559 0.06537658 50 38 62
0.053650469 -0.01076534 0.068966389 100 77 118
0.056694858 -0.010292295 0.067824423 100 77 118
0.039901026 -0.0075742714 0.069909096 87 64 103
0.054058965 -0.0093669677 0.069213547 100 76 117
0.056498948 -0.008670629 0.068284929 95 72 113
0.039478607 -0.0063319393 0.068498731 84 63 101
0.041701004 -0.0069975592 0.069968998 84 61 100
0.053563971 -0.0067839772 0.068576932 92 69 110
0.056065403 -0.0058907801 0.068567172 83 63 103
0.040556699 -0.0035040081 0.068730086 74 55 90
0.05462493 -0.0039233454 0.069312334 75 54 93
0.055995919 -0.003522262 0.068853408 72 52 91
0.0399804 -0.0017360635 0.068363011 70 52 87
0.040979773 -0.00069008645 0.069456659 67 50 84
0.054357573 -0.0007850714 0.06955725 62 42 76
0.056304917 -0.00083536282 0.068231486 63 42 77
0.058429554 -0.0011980819 0.067551352 65 44 78
0.039422274 0.0015045144 0.067610592 64 47 80
0.040512595 0.001766519 0.068977498 64 47 79
0.04360801 0.0024666376 0.069726408 61 44 74
0.045540936 0.0011019818 0.069634587 61 41 72
0.048994269 0.0019604433 0.069730058 59 39 70
0.050789688 0.0017917119 0.069731295 59 39 70
0.053503446 0.0018841438 0.069258884 59 39 70
0.056224447 0.00045273826 0.068165064 61 41 73
0.058342692 0.00010126457 0.067652941 62 42 75
0.041017786 0.0035232063 0.068033159 61 44 74
0.043985385 0.0038630043 0.069003396 60 43 72
0.04617722 0.0037569851 0.069347158 58 42 70
0.048749767 0.0044406601 0.068719551 56 40 67
0.051546574 0.0036061245 0.068542719 57 39 66
0.053857531 0.0031595603 0.068108261 58 40 68
0.056418493 0.0029686019 0.067863166 56 40 66
0.043669466 0.0053537847 0.067947946 59 43 71
0.046781998 0.006019251 0.068025492 56 40 67
0.048581015 0.0056002773 0.06800703 55 39 64
0.045655087 0.0084784478 0.068210006 53 39 64
0.04925245 -0.010392435 0.071267396 102 76 118
0.050901622 -0.010895051 0.070739567 102 79 120
0.043845493 -0.0084638521 0.0718771 91 68 107
0.046723649 -0.0086930469 0.071882337 97 71 111
0.048529789 -0.0081546586 0.071437746 96 70 112
0.051670659 -0.0086714923 0.070920855 98 73 116
0.041610193 -0.0056819594 0.070406221 78 57 95
0.043089848 -0.0061483756 0.071050167 82 59 97
0.046221167 -0.0062193302 0.071671762 86 63 103
0.048107386 -0.00684743 0.071035683 88 65 106
0.051406723 -0.0063109123 0.070770226 89 66 107
0.053370308 -0.0062295236 0.070123792 89 67 109
0.041876458 -0.0044656359 0.070169777 77 56 92
0.043930151 -0.0040477058 0.071021713 73 52 87
0.046247054 -0.0034991051 0.071140945 72 51 86
0.04882466 -0.0038495914 0.071277477 74 52 89
0.050977871 -0.0034562685 0.071325839 73 52 88
0.053400859 -0.0032488964 0.070358694 71 50 88
0.041655317 -0.0017306916 0.070383333 68 50 84
0.044156983 -0.00076410547 0.070479602 64 44 77
0.046445075 -0.0011863249 0.070464872 63 43 76
0.049381465 -0.0015658736 0.07045868 63 43 76
0.050615799 -0.001806823 0.070784055 63 43 78
0.053239189 -0.0015181877 0.070493639 62 41 76
0.043379065 0.0011322536 0.070622623 62 45 76
0.045812059 0.00026132166 0.070573717 62 42 75
0.048656929 0.00067768991 0.070629507 59 39 71
0.05105181 0.00094987452 0.070670247 59 39 71
-0.020059407 0.071577519 0.53308201 11 15 10
-0.019767147 0.071671166 0.53309172 9 14 10
-0.019723648 0.072757058 0.53317755 8 14 12
-0.020324495 0.068798684 0.53587043 10 12 7
-0.019772213 0.068812348 0.53627723 10 11 7
-0.018568123 0.071431413 0.53548998 9 15 11
-0.017531771 0.067312032 0.53978848 9 12 11
-0.017318122 0.067279249 0.53978765 9 12 11
-0.018402897 0.068072006 0.53833658 9 11 8
-0.016484015 0.069540977 0.53986096 9 14 11
-0.017140124 0.070333913 0.53802329 8 14 12
-0.015783578 0.069033012 0.54106665 10 14 11
-0.015193627 0.066448286 0.54325032 8 11 8
-0.014769148 0.068125114 0.54288417 14 18 13
-0.014072945 0.064272046 0.54631239 10 14 12
-0.015103862 0.06735006 0.54683298 11 16 11
-0.014509435 0.067021742 0.54681194 10 14 9
-0.015116575 0.067981221 0.54688257 10 16 12
-0.014185747 0.068152092 0.54680324 9 16 13
-0.013040702 0.064582348 0.54763484 8 11 10
-0.0095588313 0.068584442 0.54998434 15 20 20
-0.012066018 0.067396946 0.5508737 9 16 10
-0.011732001 0.067503966 0.55088484 9 16 10
-0.0089219268 0.062421188 0.55351675 9 12 11
-0.0088622952 0.062976271 0.55356091 9 12 10
-0.010655186 0.067024991 0.55311286 10 16 10
-0.0093491906 0.066809051 0.55452752 9 15 12
-0.006384497 0.067879319 0.553967 70 69 69
-0.0073523819 0.061770041 0.55548441 10 13 12
-0.0080434009 0.066631056 0.55586153 7 14 8
-0.0070220539 0.066491932 0.55661118 11 16 15
-0.0052020699 0.067629054 0.55596304 76 76 76
-0.0056076534 0.065828659 0.55782431 19 19 19
-0.0081603713 0.068218686 0.55799186 13 16 13
-0.0069913203 0.068075225 0.55899316 6 13 7
0 0 0 1 0 0 0 1 0 0 0 1 0 0 0 0 0 690 1 0 0
