ply
format ascii 1.0
comment PCL generated
element vertex 379
property float x
property float y
property float z
property uchar red
property uchar green
property uchar blue
element camera 1
property float view_px
property float view_py
property float view_pz
property float x_axisx
property float x_axisy
property float x_axisz
property float y_axisx
property float y_axisy
property float y_axisz
property float z_axisx
property float z_axisy
property float z_axisz
property float focal
property float scalex
property float scaley
property float centerx
property float centery
property int viewportx
property int viewporty
property float k1
property float k2
end_header
-0.027904244 0.042313721 1.0880001 0 0 0
-0.027929891 0.045327105 1.0890001 0 0 0
-0.024955397 0.045327105 1.0890001 0 0 0
-0.063799068 0.030538538 1.092 0 0 0
-0.060816381 0.030538538 1.092 0 0 0
-0.057833698 0.030538538 1.092 0 0 0
-0.05485101 0.033521224 1.092 0 0 0
-0.05485101 0.036503911 1.092 0 0 0
-0.051868323 0.036503911 1.092 0 0 0
-0.048885636 0.036503911 1.092 0 0 0
-0.045902949 0.036503911 1.092 0 0 0
-0.033972207 0.042469285 1.092 0 0 0
-0.030932762 0.042391505 1.09 0 0 0
-0.02500123 0.042430393 1.0910001 0 0 0
-0.03098952 0.045451973 1.092 0 0 0
-0.022041459 0.045451973 1.092 0 0 0
-0.024978314 0.04834595 1.09 0 0 0
-0.022021275 0.048390303 1.0910001 0 0 0
0.0047983206 0.060310125 1.0910001 0 0 0
0.0077854055 0.060365405 1.092 0 0 0
0.010768092 0.063348092 1.092 0 0 0
-0.18045375 -0.050085563 1.0940001 0 0 0
-0.12058043 -0.0082439277 1.0930001 0 0 0
-0.066904068 0.027606321 1.0940001 0 0 0
-0.081844814 0.03059447 1.0940001 0 0 0
-0.078784585 0.030566506 1.0930001 0 0 0
-0.075868517 0.03059447 1.0940001 0 0 0
-0.072880365 0.03059447 1.0940001 0 0 0
-0.069828331 0.030566506 1.0930001 0 0 0
-0.066842914 0.030566506 1.0930001 0 0 0
-0.054901242 0.030566506 1.0930001 0 0 0
-0.060927767 0.03358262 1.0940001 0 0 0
-0.05788666 0.033551924 1.0930001 0 0 0
-0.051915824 0.033551924 1.0930001 0 0 0
-0.048930407 0.033551924 1.0930001 0 0 0
-0.045987021 0.03358262 1.0940001 0 0 0
-0.057939619 0.036570769 1.0940001 0 0 0
-0.042959571 0.036537342 1.0930001 0 0 0
-0.036988735 0.03952276 1.0930001 0 0 0
-0.034034427 0.039558917 1.0940001 0 0 0
-0.031046277 0.039558917 1.0940001 0 0 0
-0.036988735 0.042508177 1.0930001 0 0 0
-0.02803248 0.048479009 1.0930001 0 0 0
-0.019093679 0.048523363 1.0940001 0 0 0
-0.016105531 0.048523363 1.0940001 0 0 0
-0.016105531 0.051511511 1.0940001 0 0 0
-0.013117381 0.051511511 1.0940001 0 0 0
-0.013117381 0.054499663 1.0940001 0 0 0
-0.0041529331 0.054499663 1.0940001 0 0 0
-0.0011647836 0.057487812 1.0940001 0 0 0
0.0018233657 0.06047596 1.0940001 0 0 0
0.010787813 0.06047596 1.0940001 0 0 0
0.0077925348 0.063406102 1.0930001 0 0 0
0.010777953 0.06639152 1.0930001 0 0 0
0.01376337 0.06639152 1.0930001 0 0 0
-0.18993761 -0.056215595 1.097 0 0 0
-0.18694127 -0.056215595 1.097 0 0 0
-0.18394493 -0.053219251 1.097 0 0 0
-0.18377724 -0.050177123 1.0960001 0 0 0
-0.17779003 -0.050177123 1.0960001 0 0 0
-0.1749559 -0.044230219 1.097 0 0 0
-0.17195956 -0.044230219 1.097 0 0 0
-0.16566429 -0.038167819 1.095 0 0 0
-0.1626734 -0.038167819 1.095 0 0 0
-0.15997419 -0.038237534 1.097 0 0 0
-0.1626734 -0.03517694 1.095 0 0 0
-0.15982835 -0.035209063 1.0960001 0 0 0
-0.15997419 -0.032244846 1.097 0 0 0
-0.15697785 -0.032244846 1.097 0 0 0
-0.15398151 -0.032244846 1.097 0 0 0
-0.15384114 -0.029221838 1.0960001 0 0 0
-0.15098515 -0.029248502 1.097 0 0 0
-0.14798881 -0.026252158 1.097 0 0 0
-0.14472812 -0.026204297 1.095 0 0 0
-0.14199613 -0.026252158 1.097 0 0 0
-0.13899979 -0.020259472 1.097 0 0 0
-0.13575548 -0.020222535 1.095 0 0 0
-0.13300709 -0.020259472 1.097 0 0 0
-0.13300709 -0.017263127 1.097 0 0 0
-0.12701441 -0.014266784 1.097 0 0 0
-0.12401807 -0.014266784 1.097 0 0 0
-0.12401807 -0.011270441 1.097 0 0 0
-0.12102173 -0.011270441 1.097 0 0 0
-0.12379196 -0.0082590133 1.095 0 0 0
-0.1178102 -0.0082590133 1.095 0 0 0
-0.12080108 -0.0052681323 1.095 0 0 0
-0.1178102 -0.0052681323 1.095 0 0 0
-0.1178102 -0.0022772516 1.095 0 0 0
-0.11481932 -0.0022772516 1.095 0 0 0
-0.11193056 -0.0022793312 1.0960001 0 0 0
-0.11203269 0.0037112762 1.097 0 0 0
-0.10883755 0.0037045097 1.095 0 0 0
-0.10584667 0.0037045097 1.095 0 0 0
-0.10304366 0.0037112762 1.097 0 0 0
-0.10604 0.0067076199 1.097 0 0 0
-0.10304366 0.0067076199 1.097 0 0 0
-0.10004732 0.0067076199 1.097 0 0 0
-0.10004732 0.0097039631 1.097 0 0 0
-0.094054632 0.012700306 1.097 0 0 0
-0.091058284 0.012700306 1.097 0 0 0
-0.091058284 0.01569665 1.097 0 0 0
-0.088061936 0.01569665 1.097 0 0 0
-0.091058284 0.018692994 1.097 0 0 0
-0.087901391 0.018658914 1.095 0 0 0
-0.08498805 0.018675953 1.0960001 0 0 0
-0.081919625 0.024640674 1.095 0 0 0
-0.076076567 0.024685681 1.097 0 0 0
-0.072946988 0.024640674 1.095 0 0 0
-0.069956101 0.024640674 1.095 0 0 0
-0.081919625 0.027631555 1.095 0 0 0
-0.079000831 0.02765679 1.0960001 0 0 0
-0.076076567 0.027682025 1.097 0 0 0
-0.073013604 0.02765679 1.0960001 0 0 0
-0.069956101 0.027631555 1.095 0 0 0
-0.063974343 0.027631555 1.095 0 0 0
-0.06098346 0.027631555 1.095 0 0 0
-0.058098502 0.027682025 1.097 0 0 0
-0.052010819 0.030622436 1.095 0 0 0
-0.049109474 0.030678367 1.097 0 0 0
-0.079000831 0.033644013 1.0960001 0 0 0
-0.076007217 0.033644013 1.0960001 0 0 0
-0.073013604 0.033644013 1.0960001 0 0 0
-0.067087531 0.033674709 1.097 0 0 0
-0.063974343 0.033613317 1.095 0 0 0
-0.04307748 0.033644013 1.0960001 0 0 0
-0.06098346 0.036604196 1.095 0 0 0
-0.040047295 0.036604196 1.095 0 0 0
-0.037090257 0.036637627 1.0960001 0 0 0
-0.049064707 0.03963124 1.0960001 0 0 0
-0.046071097 0.03963124 1.0960001 0 0 0
-0.043038178 0.039595079 1.095 0 0 0
-0.040047295 0.039595079 1.095 0 0 0
-0.028135069 0.039667398 1.097 0 0 0
-0.04307748 0.04262485 1.0960001 0 0 0
-0.04008387 0.04262485 1.0960001 0 0 0
-0.022122197 0.04262485 1.0960001 0 0 0
-0.034096647 0.045618463 1.0960001 0 0 0
-0.019128585 0.045618463 1.0960001 0 0 0
-0.016149696 0.045660086 1.097 0 0 0
-0.013129371 0.048567723 1.095 0 0 0
-0.019146038 0.05165277 1.097 0 0 0
-0.01013849 0.051558603 1.095 0 0 0
-0.007160665 0.05165277 1.097 0 0 0
-0.016149696 0.054649115 1.097 0 0 0
-0.01013849 0.054549485 1.095 0 0 0
-0.0071476097 0.054549485 1.095 0 0 0
-0.0011658483 0.054549485 1.095 0 0 0
-0.0041567292 0.057540365 1.095 0 0 0
0.0018250323 0.057540365 1.095 0 0 0
0.0048247091 0.057645459 1.097 0 0 0
-0.0011658483 0.060531244 1.095 0 0 0
0.004820311 0.063580133 1.0960001 0 0 0
0.013801148 0.063580133 1.0960001 0 0 0
0.0078210523 0.066634491 1.097 0 0 0
0.01679476 0.066573747 1.0960001 0 0 0
0.025799114 0.072627179 1.097 0 0 0
0.028769208 0.072560973 1.0960001 0 0 0
0.031791802 0.072627179 1.097 0 0 0
0.037784487 0.07861986 1.097 0 0 0
-0.19928932 -0.062321696 1.0990001 0 0 0
-0.19610891 -0.06226499 1.098 0 0 0
-0.18411261 -0.056266841 1.098 0 0 0
-0.1872821 -0.05331628 1.0990001 0 0 0
-0.18111353 -0.053267766 1.098 0 0 0
-0.17527486 -0.050314471 1.0990001 0 0 0
-0.18127848 -0.047312666 1.0990001 0 0 0
-0.17811446 -0.047269616 1.098 0 0 0
-0.17527486 -0.047312666 1.0990001 0 0 0
-0.17827667 -0.044310857 1.0990001 0 0 0
-0.16911723 -0.044270542 1.098 0 0 0
-0.16927126 -0.041309051 1.0990001 0 0 0
-0.16626945 -0.041309051 1.0990001 0 0 0
-0.16927126 -0.038307246 1.0990001 0 0 0
-0.16626945 -0.035305437 1.0990001 0 0 0
-0.15726404 -0.035305437 1.0990001 0 0 0
-0.16311908 -0.032274239 1.098 0 0 0
-0.15126042 -0.032303631 1.0990001 0 0 0
-0.15726404 -0.029301826 1.0990001 0 0 0
-0.14512463 -0.029275166 1.098 0 0 0
-0.1392532 -0.026300019 1.0990001 0 0 0
-0.14512463 -0.023277016 1.098 0 0 0
-0.14212556 -0.023277016 1.098 0 0 0
-0.13912648 -0.023277016 1.098 0 0 0
-0.13625139 -0.023298213 1.0990001 0 0 0
-0.13612741 -0.017278865 1.098 0 0 0
-0.13324958 -0.014292796 1.0990001 0 0 0
-0.13012926 -0.014279789 1.098 0 0 0
-0.12124236 -0.014292796 1.0990001 0 0 0
-0.12724596 -0.01129099 1.0990001 0 0 0
-0.11824055 -0.01129099 1.0990001 0 0 0
-0.11513388 -0.0082816407 1.098 0 0 0
-0.11513388 -0.0052825655 1.098 0 0 0
-0.12113203 -0.0022834907 1.098 0 0 0
-0.10913573 -0.0022834907 1.098 0 0 0
-0.11213481 0.00071558432 1.098 0 0 0
-0.10913573 0.00071558432 1.098 0 0 0
-0.097227909 0.0067198481 1.0990001 0 0 0
-0.10623333 0.0097216545 1.0990001 0 0 0
-0.10323152 0.0097216545 1.0990001 0 0 0
-0.097139433 0.0097128088 1.098 0 0 0
-0.0942261 0.0097216545 1.0990001 0 0 0
-0.10022971 0.012723461 1.0990001 0 0 0
-0.097139433 0.012711884 1.098 0 0 0
-0.088222489 0.012723461 1.0990001 0 0 0
-0.0942261 0.015725268 1.0990001 0 0 0
-0.085143141 0.015710959 1.098 0 0 0
-0.082218878 0.018727073 1.0990001 0 0 0
-0.085143141 0.021709109 1.098 0 0 0
-0.082144067 0.021709109 1.098 0 0 0
-0.085143141 0.024708183 1.098 0 0 0
-0.079217069 0.024730688 1.0990001 0 0 0
-0.067148693 0.024708183 1.098 0 0 0
-0.055202618 0.027732493 1.0990001 0 0 0
-0.070147768 0.033705406 1.098 0 0 0
-0.073146842 0.036704481 1.098 0 0 0
-0.070147768 0.036704481 1.098 0 0 0
-0.067209847 0.036737911 1.0990001 0 0 0
-0.064149618 0.036704481 1.098 0 0 0
-0.034158867 0.036704481 1.098 0 0 0
-0.052200813 0.039739721 1.0990001 0 0 0
-0.037157942 0.045701709 1.098 0 0 0
-0.031159792 0.048700783 1.098 0 0 0
-0.010166267 0.048700783 1.098 0 0 0
0.0018300324 0.054698933 1.098 0 0 0
0.0078353118 0.057750553 1.0990001 0 0 0
0.013838924 0.060752362 1.0990001 0 0 0
0.019824483 0.066695228 1.098 0 0 0
0.022844343 0.072759584 1.0990001 0 0 0
0.028847955 0.075761393 1.0990001 0 0 0
0.031820782 0.075692452 1.098 0 0 0
0.034819856 0.075692452 1.098 0 0 0
0.037818931 0.075692452 1.098 0 0 0
0.034819856 0.078691527 1.098 0 0 0
0.040818006 0.078691527 1.098 0 0 0
-0.20566654 -0.068449646 1.1010001 0 0 0
-0.20265926 -0.068449646 1.1010001 0 0 0
-0.19983333 -0.068511821 1.102 0 0 0
-0.20265926 -0.065442376 1.1010001 0 0 0
-0.19947065 -0.065382943 1.1 0 0 0
-0.19664472 -0.065442376 1.1010001 0 0 0
-0.20265926 -0.062435109 1.1010001 0 0 0
-0.19346158 -0.062378407 1.1 0 0 0
-0.19080333 -0.062491819 1.102 0 0 0
-0.19682334 -0.059481818 1.102 0 0 0
-0.19346158 -0.059373867 1.1 0 0 0
-0.1906302 -0.059427839 1.1010001 0 0 0
-0.19346158 -0.056369331 1.1 0 0 0
-0.18144344 -0.056369331 1.1 0 0 0
-0.17876333 -0.053461816 1.102 0 0 0
-0.18745251 -0.050360255 1.1 0 0 0
-0.17258658 -0.047398765 1.1010001 0 0 0
-0.16657203 -0.044391498 1.1010001 0 0 0
-0.17274334 -0.041421816 1.102 0 0 0
-0.16356477 -0.041384228 1.1010001 0 0 0
-0.15468334 -0.035401814 1.102 0 0 0
-0.16672333 -0.032391813 1.102 0 0 0
-0.14839351 -0.02932849 1.1 0 0 0
-0.14251389 -0.029355152 1.1010001 0 0 0
-0.15755023 -0.026347883 1.1010001 0 0 0
-0.15167333 -0.026371812 1.102 0 0 0
-0.13662332 -0.026371812 1.102 0 0 0
-0.13361333 -0.023361811 1.102 0 0 0
-0.14238444 -0.020314876 1.1 0 0 0
-0.1304848 -0.020333344 1.1010001 0 0 0
-0.13950662 -0.017326074 1.1010001 0 0 0
-0.1303663 -0.017310338 1.1 0 0 0
-0.12736176 -0.017310338 1.1 0 0 0
-0.12458333 -0.017341811 1.102 0 0 0
-0.13662332 -0.014331811 1.102 0 0 0
-0.11555333 -0.011321811 1.102 0 0 0
-0.12736176 -0.0082967253 1.1 0 0 0
-0.12435722 -0.0052921874 1.1 0 0 0
-0.11233906 -0.0052921874 1.1 0 0 0
-0.10642666 -0.0022897297 1.1010001 0 0 0
-0.11534361 0.00071688776 1.1 0 0 0
-0.10632999 0.00071688776 1.1 0 0 0
-0.10032091 0.0037214255 1.1 0 0 0
-0.10933453 0.0067259632 1.1 0 0 0
-0.10351332 0.012758193 1.102 0 0 0
-0.097493321 0.015768193 1.102 0 0 0
-0.094397582 0.018761154 1.1010001 0 0 0
-0.079433315 0.018778194 1.102 0 0 0
-0.088302769 0.021748651 1.1 0 0 0
-0.079289153 0.021748651 1.1 0 0 0
-0.076284617 0.021748651 1.1 0 0 0
-0.073280074 0.021748651 1.1 0 0 0
-0.088463314 0.024798196 1.102 0 0 0
-0.064324893 0.024775691 1.1010001 0 0 0
-0.085453317 0.027808197 1.102 0 0 0
-0.046239238 0.030762265 1.1 0 0 0
-0.040266734 0.033797499 1.1010001 0 0 0
-0.076284617 0.036771338 1.1 0 0 0
-0.031244928 0.036804769 1.1010001 0 0 0
-0.067332156 0.039812036 1.1010001 0 0 0
-0.064266466 0.039775878 1.1 0 0 0
-0.061261926 0.039775878 1.1 0 0 0
-0.058310352 0.039812036 1.1010001 0 0 0
-0.05525285 0.039775878 1.1 0 0 0
-0.025253305 0.039848197 1.102 0 0 0
-0.064383313 0.042858198 1.102 0 0 0
-0.049288545 0.042819306 1.1010001 0 0 0
-0.046239238 0.042780414 1.1 0 0 0
-0.019233303 0.042858198 1.102 0 0 0
-0.013201313 0.045826577 1.1010001 0 0 0
-0.022202937 0.051794026 1.1 0 0 0
-0.0041757096 0.051794026 1.1 0 0 0
0.0048466995 0.054898202 1.102 0 0 0
-0.013201313 0.057855655 1.1010001 0 0 0
-0.010194044 0.057855655 1.1010001 0 0 0
-0.0071802475 0.057803102 1.1 0 0 0
-0.0041757096 0.060807638 1.1 0 0 0
0.016871378 0.063870192 1.1010001 0 0 0
0.022885917 0.066877462 1.1010001 0 0 0
0.013851516 0.069821253 1.1 0 0 0
0.016856054 0.069821253 1.1 0 0 0
0.019878646 0.069884732 1.1010001 0 0 0
0.022885917 0.069884732 1.1010001 0 0 0
0.025893185 0.069884732 1.1010001 0 0 0
0.028926704 0.069948204 1.102 0 0 0
0.016886702 0.072958201 1.102 0 0 0
0.019860592 0.072825789 1.1 0 0 0
0.034914993 0.072892003 1.1010001 0 0 0
0.025916703 0.075968206 1.102 0 0 0
0.040966704 0.075968206 1.102 0 0 0
0.031878743 0.078834862 1.1 0 0 0
0.0439368 0.078906536 1.1010001 0 0 0
0.040966704 0.081988208 1.102 0 0 0
0.043976706 0.081988208 1.102 0 0 0
0.046986707 0.084998205 1.102 0 0 0
0.049951334 0.084921077 1.1010001 0 0 0
0.053006709 0.084998205 1.102 0 0 0
0.062036708 0.094028205 1.102 0 0 0
0.065046713 0.094028205 1.102 0 0 0
0.064987682 0.096950144 1.1010001 0 0 0
0.11621671 0.12713821 1.102 0 0 0
0.11922672 0.12713821 1.102 0 0 0
-0.18193829 -0.044472136 1.103 0 0 0
-0.16084915 -0.029408475 1.103 0 0 0
-0.1186709 -0.014344816 1.103 0 0 0
-0.13072184 -0.011332084 1.103 0 0 0
-0.11264544 -0.0083193528 1.103 0 0 0
-0.1187785 0.00071949459 1.1040001 0 0 0
-0.11576303 0.0037349579 1.1040001 0 0 0
-0.091556318 0.0097570391 1.103 0 0 0
-0.091639325 0.021827737 1.1040001 0 0 0
-0.061429005 0.024820698 1.103 0 0 0
-0.079577476 0.036905054 1.1040001 0 0 0
-0.070531085 0.039920516 1.1040001 0 0 0
-0.067515619 0.042935979 1.1040001 0 0 0
-0.061484694 0.042935979 1.1040001 0 0 0
-0.04033988 0.045909822 1.103 0 0 0
-0.0071998294 0.048922554 1.103 0 0 0
-0.025276219 0.051935285 1.103 0 0 0
-0.019250758 0.054948017 1.103 0 0 0
0.0018383658 0.063986212 1.103 0 0 0
0.0048554959 0.067059688 1.1040001 0 0 0
0.025940223 0.066998944 1.103 0 0 0
0.010886422 0.070075147 1.1040001 0 0 0
0.028952954 0.07904987 1.103 0 0 0
0.037991151 0.082062602 1.103 0 0 0
0.04405652 0.085152462 1.1040001 0 0 0
0.050087448 0.088167928 1.1040001 0 0 0
0.053054806 0.088088065 1.103 0 0 0
0.056118373 0.088167928 1.1040001 0 0 0
0.053102911 0.091183394 1.1040001 0 0 0
0.056067538 0.091100797 1.103 0 0 0
0.059080269 0.091100797 1.103 0 0 0
0.059080269 0.094113529 1.103 0 0 0
0.062149301 0.097214326 1.1040001 0 0 0
0.068180226 0.097214326 1.1040001 0 0 0
0.086194858 0.10917719 1.103 0 0 0
0.089288466 0.10927618 1.1040001 0 0 0
0.095319398 0.11530711 1.1040001 0 0 0
0.10738125 0.12133803 1.1040001 0 0 0
0.11029672 0.12122811 1.103 0 0 0
0.11039671 0.12435349 1.1040001 0 0 0
0.11341217 0.12435349 1.1040001 0 0 0
0.11341217 0.12736896 1.1040001 0 0 0
0.12245856 0.12736896 1.1040001 0 0 0
0 0 0 1 0 0 0 1 0 0 0 1 0 0 0 0 0 379 1 0 0
