ply
format ascii 1.0
comment PCL generated
element vertex 703
property float x
property float y
property float z
property uchar red
property uchar green
property uchar blue
element camera 1
property float view_px
property float view_py
property float view_pz
property float x_axisx
property float x_axisy
property float x_axisz
property float y_axisx
property float y_axisy
property float y_axisz
property float z_axisx
property float z_axisy
property float z_axisz
property float focal
property float scalex
property float scaley
property float centerx
property float centery
property int viewportx
property int viewporty
property float k1
property float k2
end_header
-0.083809026 -0.030888557 0.036913335 57 64 68
-0.083544269 -0.029276926 0.03679359 60 67 74
-0.15184149 -0.070813425 0.039615631 183 184 180
-0.15166432 -0.069735624 0.039538145 183 184 180
-0.083768435 -0.031800523 0.037982285 57 62 67
-0.15088412 -0.073464401 0.040792048 185 186 182
-0.15044183 -0.070773937 0.040598571 185 186 182
-0.15116689 -0.06844417 0.040444314 183 184 180
-0.15035002 -0.066943847 0.042334676 183 184 180
0.016561911 -0.038464211 0.082450092 108 83 116
0.018292086 -0.038405452 0.082425237 102 79 112
0.021249868 -0.038205296 0.082375735 97 75 109
0.021917261 -0.037285306 0.082303405 98 76 108
0.022922404 -0.037450574 0.082302868 95 73 107
0.029816329 -0.027084403 0.082497597 88 66 98
0.031987969 -0.026413389 0.082424641 86 64 96
0.034159608 -0.025742374 0.082351625 83 61 93
-0.02054137 -0.013663836 0.082163453 90 73 103
-0.014191024 -0.012651823 0.082016468 79 59 90
-0.011682175 -0.013064343 0.082015216 77 57 88
-0.018706948 -0.011909287 0.082018733 85 67 96
-0.015696328 -0.012404311 0.082017213 81 61 92
0.041090775 -0.0087498389 0.082082599 66 45 70
0.041501515 -0.0062512681 0.081902921 65 44 69
0.042503454 -0.0064160153 0.081902444 61 45 68
-0.0085791349 -0.0041753501 0.082358837 78 58 89
-0.0081683956 -0.0016767792 0.082179189 75 56 84
-0.0067663738 -0.0013655499 0.082177244 73 55 84
-0.0049161464 -0.00067187101 0.082069874 70 53 83
-0.0065914243 0.0016564801 0.081927121 71 55 82
-0.0041440404 0.0019383604 0.081878066 68 52 79
-0.0024193823 0.0019969344 0.081853271 66 50 77
-0.0032570213 0.00316111 0.081781924 66 50 77
-0.0012531504 0.0028316155 0.081780881 64 48 75
0.039177082 0.0045155361 0.082180321 60 45 65
0.0065102875 0.005787611 0.08248347 61 45 70
0.01016742 0.0092854872 0.082194984 59 43 68
0.011413807 0.010617752 0.082086802 60 44 68
0.034159284 0.011489399 0.081752837 65 52 70
0.01390657 0.013282277 0.081870556 58 43 63
0.016153287 0.014450058 0.081761897 56 41 61
0.026626259 0.014281225 0.081694603 59 46 64
0.029485684 0.014307462 0.081611872 64 51 69
0.030986184 0.014060743 0.081611097 65 55 69
0.017481688 0.01628124 0.081617892 53 40 58
0.021483019 0.015623312 0.081615888 51 38 58
0.024579575 0.016176557 0.081650376 62 52 68
0.01580189 0.019170329 0.081561863 33 30 39
-0.010544516 -0.046363927 0.083327949 72 49 88
-0.0061943009 -0.045019768 0.083181739 86 60 98
-0.0060548298 -0.044422589 0.083639532 85 60 99
-0.0037991777 -0.043250531 0.083530456 91 67 104
-0.00067412108 -0.042838238 0.082962871 101 75 113
0.0018387362 -0.043251425 0.082961619 104 78 116
-0.0025774911 -0.042319722 0.08395195 96 70 108
-0.0013271142 -0.040983185 0.08384344 99 75 111
0.0017657876 -0.040977694 0.083805919 105 79 117
0.0037909385 -0.040931214 0.083110087 107 81 119
0.0068563372 -0.040987261 0.082743049 110 84 122
0.0085288733 -0.040232547 0.082670212 110 84 122
0.010814391 -0.041484192 0.083019972 108 82 120
0.015068173 -0.040952682 0.083948374 105 80 115
-0.0038994066 -0.038304243 0.084689528 96 71 106
-0.001151906 -0.038938902 0.084299922 103 77 114
0.0013710248 -0.039199304 0.083686315 109 83 121
0.0036002137 -0.039223149 0.083661228 112 86 124
0.0065532788 -0.039023321 0.083611809 112 86 124
0.0089470223 -0.038046136 0.08351472 109 83 121
0.011916196 -0.038632199 0.083018839 108 83 118
0.013211049 -0.038127102 0.083135046 108 83 116
0.015515666 -0.038362365 0.084257036 107 82 115
-0.0036414191 -0.035831623 0.083731055 105 79 119
-0.00090167671 -0.035717811 0.084472671 109 83 121
0.0012088256 -0.036301151 0.08415395 110 83 121
0.0037852421 -0.036464106 0.084067583 110 84 122
0.0062870458 -0.036352895 0.08426857 107 80 118
0.0087810159 -0.036283463 0.084396005 105 77 116
0.011786826 -0.036777698 0.084394515 105 77 116
0.013371877 -0.036525108 0.084357798 103 78 111
0.016421346 -0.036523595 0.084143981 105 81 114
0.018275147 -0.036774766 0.083648026 103 81 113
0.021647736 -0.036022127 0.08322072 98 77 109
-0.00015426427 -0.03430105 0.084364593 107 81 119
0.00084767491 -0.034465797 0.084364116 108 82 120
0.0028515458 -0.034795284 0.084363103 108 82 120
0.019375414 -0.034432903 0.084139407 99 79 110
0.021310523 -0.034938596 0.083149016 100 80 111
0.02326815 -0.03370494 0.084041752 95 75 106
0.025715627 -0.033422522 0.08399266 93 73 106
0.02680718 -0.03108689 0.084484555 90 71 104
0.028154556 -0.030923508 0.082786024 91 71 104
0.02845883 -0.029254574 0.083668232 91 71 104
0.028869569 -0.026756003 0.083488584 89 67 99
0.033255745 -0.02525489 0.08433342 85 63 95
0.036566421 -0.023337796 0.083322257 80 58 90
0.036994897 -0.021258097 0.084009051 83 58 90
-0.021090306 -0.018368565 0.084504165 89 71 100
-0.018646836 -0.018087134 0.084455132 85 63 96
-0.016424771 -0.018110905 0.084430128 81 59 93
-0.013535817 -0.018244324 0.084404789 81 59 92
-0.011759244 -0.017853238 0.084356129 80 60 91
0.037448164 -0.01861269 0.084821105 82 58 88
0.037611935 -0.017616458 0.08474946 81 57 87
-0.020912465 -0.016945321 0.083901256 91 71 103
-0.018828973 -0.0167755 0.083864361 85 64 98
-0.016129075 -0.016151454 0.084038928 81 60 92
-0.014596209 -0.016361963 0.084285885 80 59 90
-0.011750338 -0.01551833 0.08385855 78 58 89
0.038733378 -0.016932346 0.083685637 77 55 89
-0.020570062 -0.014521047 0.083226323 90 73 103
-0.018808398 -0.0137628 0.083173417 85 67 98
-0.016137728 -0.013791715 0.083142892 81 61 92
-0.014311988 -0.014010374 0.083115518 78 58 89
-0.01194676 -0.014228205 0.083102345 77 57 88
0.039265748 -0.013795756 0.084462404 76 52 82
0.039593287 -0.011803292 0.084319115 73 49 77
0.039920829 -0.0098108277 0.084175885 69 48 75
0.040166486 -0.0083164796 0.084068418 66 45 70
0.040537745 -0.0059562102 0.082896352 64 43 68
0.039842591 -0.0041031241 0.084278882 62 41 66
0.04070178 -0.0049583837 0.082824588 63 44 68
-0.0043871552 -0.0011313707 0.083098173 70 53 83
-0.0034769028 0.001280956 0.082918525 67 51 78
-0.001018857 0.0013094445 0.083555378 63 47 74
0.00079048425 0.0017390251 0.083837807 62 46 73
0.038685501 0.0012613684 0.084418833 61 43 63
0.0014346726 0.0030353703 0.08273688 61 45 72
0.038657151 0.0042696781 0.083707541 60 45 65
0.0043455884 0.0051187426 0.082556248 61 45 72
0.0055350475 0.0051799044 0.084542692 60 44 71
0.0087117618 0.00630337 0.083804406 60 44 69
0.037986502 0.0064246282 0.083564878 61 47 66
0.010810279 0.0086835576 0.08361312 59 43 68
0.012498856 0.01016397 0.084110558 61 42 66
0.013617938 0.010943044 0.083541363 58 41 64
0.030820116 0.012369365 0.08473891 58 45 65
0.034141205 0.010803409 0.084808588 61 48 66
0.035089679 0.010535508 0.083813429 61 48 66
0.014904261 0.012719423 0.082900465 57 42 62
0.016326819 0.013793248 0.08343716 55 40 60
0.019151215 0.013790574 0.084433049 54 39 59
0.021021025 0.013642893 0.084015578 54 39 59
0.024284791 0.013333637 0.083747387 56 41 61
0.025842495 0.013187815 0.084741414 57 42 62
0.02932683 0.012614898 0.084739685 58 45 65
0.015467465 0.016777284 0.082741916 57 43 58
0.019606031 0.016717713 0.083714366 50 38 57
0.015630841 0.017771762 0.082668006 53 41 56
-0.011685852 -0.04553495 0.086291194 70 47 86
-0.0083914995 -0.043545645 0.086780868 78 52 90
-0.0062490143 -0.043458924 0.085579485 83 60 97
-0.0058901031 -0.041773126 0.086459786 84 61 98
-0.00351955 -0.041800916 0.085168183 92 69 106
-0.0058700293 -0.038654324 0.086492062 90 67 101
-0.0040321462 -0.039131191 0.085367143 94 71 105
-0.0058203018 -0.036395092 0.086584091 93 70 106
-0.0045444816 -0.036461152 0.085570872 97 73 110
0.012116984 -0.03510154 0.085275829 101 73 112
0.013617478 -0.035348259 0.085275054 102 75 111
-0.0080669038 -0.033955008 0.087442935 88 65 102
-0.0058260355 -0.033958256 0.086664364 96 73 111
-0.0044034249 -0.033687409 0.085709393 104 81 118
-0.0018016342 -0.033837751 0.085354492 107 81 119
0.010116309 -0.034772567 0.085276842 102 74 113
0.014605675 -0.033086158 0.087109983 95 68 104
0.016523153 -0.033588938 0.086119652 100 75 110
0.018550681 -0.033643756 0.085764967 97 77 109
0.021612078 -0.033588372 0.085056007 99 79 110
0.022843074 -0.032581784 0.085973322 95 75 106
-0.023308475 -0.031254746 0.086969078 84 65 91
-0.0080450103 -0.031745318 0.087288119 91 69 106
-0.00577645 -0.031968616 0.086273968 101 78 115
-0.0043330342 -0.032301329 0.085778683 104 82 116
0.021912578 -0.032244571 0.086963415 97 77 108
-0.022615038 -0.029009119 0.087271631 86 65 94
-0.021617912 -0.029173069 0.087271154 85 64 93
-0.0087450556 -0.028735921 0.087086052 94 71 105
-0.0066118636 -0.029256927 0.087096892 100 75 110
0.026391611 -0.029916488 0.086746871 92 75 107
0.027552243 -0.029085815 0.086674869 91 71 104
-0.021672249 -0.026161268 0.086726986 88 68 99
-0.018552817 -0.026101746 0.087019533 83 63 96
-0.016476803 -0.025932342 0.086982787 84 63 96
-0.013485424 -0.026424199 0.086981267 86 64 98
-0.011989735 -0.026670136 0.086980522 87 65 99
-0.0090841316 -0.026126374 0.08690761 90 68 102
-0.021272872 -0.02328163 0.085852444 88 68 99
-0.018128479 -0.023196613 0.086310029 83 61 94
-0.016068036 -0.023445763 0.086803973 84 62 96
-0.013316285 -0.023687255 0.086537197 85 63 97
-0.011997776 -0.023604264 0.086766183 85 63 97
-0.009504959 -0.024014153 0.086764932 86 64 96
0.031834006 -0.024766982 0.085820138 86 64 96
0.034181796 -0.023025271 0.086171418 84 62 94
-0.021299381 -0.021103062 0.085700415 88 68 98
-0.018366616 -0.021201599 0.085672081 84 62 96
-0.016369158 -0.021530032 0.085671097 82 60 94
-0.013291076 -0.021524571 0.085633755 84 62 96
-0.012292348 -0.021688782 0.085633278 85 63 97
0.03489051 -0.021955781 0.087090611 83 61 93
-0.016459096 -0.01895735 0.085492253 81 59 93
-0.013962273 -0.019367889 0.085490972 83 61 94
-0.011882927 -0.019198216 0.085454166 83 61 93
0.037861027 -0.016324967 0.08666116 78 56 88
0.036232173 -0.01287742 0.086737156 89 48 72
0.038290076 -0.013770964 0.086978674 77 52 82
0.036476452 -0.011390496 0.086626649 90 44 67
0.038637109 -0.011715882 0.08733207 75 49 77
0.036965005 -0.0084166527 0.086405635 80 40 58
0.039105773 -0.0088090003 0.086621881 70 46 72
0.037169434 -0.0070654377 0.085302591 76 40 59
0.039493475 -0.0063946396 0.085947096 66 43 69
0.037953123 -0.0034575537 0.086762726 65 41 64
0.038318653 -0.0011020936 0.085591018 61 42 64
0.037795611 0.0017228723 0.086903572 61 43 63
0.038181566 0.0041416213 0.086228549 60 45 65
0.034356453 0.0067720637 0.085319459 59 41 62
0.037394181 0.0054094866 0.087151825 62 44 65
0.037513614 0.0062879249 0.086086452 61 46 66
0.012406025 0.0094768107 0.086308122 61 42 66
0.035068106 0.0098583177 0.086868584 60 47 65
0.015810341 0.010874741 0.086026132 58 39 63
0.030869091 0.010398023 0.085084081 59 44 64
0.033246189 0.011174478 0.086798429 60 47 65
0.017130222 0.012694187 0.085883081 55 40 60
0.021799792 0.013000591 0.08630684 54 39 59
-0.013935752 -0.044737466 0.088267416 68 43 83
-0.010496818 -0.043049403 0.089110613 73 47 85
-0.01038881 -0.040975604 0.089214921 75 50 86
-0.0092932088 -0.041414749 0.087979317 78 52 88
-0.0072172023 -0.041245349 0.087942541 82 58 94
-0.010995261 -0.038344603 0.089790106 75 52 87
-0.0092416443 -0.038257547 0.088259161 81 59 93
-0.0068084374 -0.038758777 0.087763786 86 64 98
-0.013211101 -0.035264976 0.089601338 74 51 88
-0.010807786 -0.036169261 0.08963573 79 57 91
-0.0089965761 -0.036766797 0.088151962 84 62 96
-0.02315031 -0.033630706 0.089606345 82 66 93
-0.015866898 -0.032791831 0.089460254 77 55 89
-0.013879056 -0.033118684 0.089459263 78 56 90
-0.010591951 -0.033449687 0.088774562 85 63 97
-0.0092506288 -0.033395521 0.08842051 87 65 101
0.018830992 -0.032573543 0.088025928 95 75 108
-0.021818303 -0.031401183 0.08893314 82 62 91
-0.018730618 -0.031367049 0.089060806 77 55 89
-0.015622422 -0.03130468 0.089353323 78 56 91
-0.013608673 -0.031211654 0.088877052 81 60 95
-0.010610558 -0.031302139 0.088290393 86 65 101
-0.0093103917 -0.031685896 0.088301659 89 67 104
0.024298348 -0.030412897 0.087809205 94 74 107
-0.021642931 -0.029998057 0.08833164 84 63 92
-0.018716132 -0.028779514 0.088211298 80 60 93
-0.016360823 -0.028754797 0.088259801 81 61 94
-0.013686772 -0.028246641 0.088113636 85 65 98
-0.010811709 -0.028379412 0.088088416 88 66 100
-0.0086275302 -0.028568573 0.088075429 94 70 105
0.023435034 -0.029909089 0.089789391 93 73 106
0.027833559 -0.027758546 0.088583708 90 70 103
-0.019162148 -0.02734635 0.088116407 82 62 95
-0.016510103 -0.02676253 0.088043749 83 63 96
-0.013523526 -0.027253598 0.088042229 85 65 98
-0.012030244 -0.027499132 0.088041484 86 66 99
-0.008880429 -0.026997179 0.087968588 92 70 104
0.031133167 -0.025274992 0.087684095 87 65 97
0.033521317 -0.021320216 0.089568943 86 63 93
0.035100941 -0.020807646 0.088010371 85 61 91
0.035426904 -0.018824775 0.087867796 84 59 89
0.035880357 -0.016198289 0.088681161 84 55 84
0.036111012 -0.013721809 0.08780241 87 50 76
0.03706973 -0.0029765964 0.089245945 65 41 64
0.037751626 -0.0048151836 0.087862611 68 41 63
0.037291255 -0.0015580729 0.088642836 62 42 64
0.037572905 0.00029715151 0.087507188 61 43 64
0.037134998 0.0036049075 0.088784903 62 43 63
0.034838341 0.0080966577 0.088999569 59 44 64
0.014706403 0.010357656 0.088230014 57 38 62
0.021193717 0.012448795 0.089025974 54 39 59
0.030379366 0.011869751 0.088789225 59 44 64
0.033679862 0.010313753 0.088858426 60 45 65
0.019263986 0.012570515 0.087871134 54 39 59
0.026484396 0.012622133 0.089785874 57 42 62
-0.011370212 -0.042695291 0.090098917 72 46 84
-0.015584152 -0.041581444 0.0920766 65 42 81
-0.014320013 -0.041112665 0.092028618 65 42 79
-0.011860058 -0.041439883 0.090768844 70 44 82
-0.015592143 -0.038535289 0.091863632 67 44 81
-0.014218835 -0.039319955 0.09165141 66 43 80
-0.011752233 -0.039372228 0.090873599 71 46 81
-0.020220801 -0.035744317 0.091724038 76 51 84
-0.018720593 -0.035583831 0.091193527 72 48 84
-0.015746046 -0.036072928 0.091192037 69 46 83
-0.013826227 -0.036489733 0.090696871 70 47 84
-0.02038621 -0.034105364 0.090993404 75 54 86
-0.018543739 -0.034189161 0.090592623 72 50 84
-0.015566785 -0.034678653 0.090591133 71 48 85
-0.014078304 -0.034923397 0.090590358 73 50 87
0.025584921 -0.028728381 0.091993034 90 73 105
0.03203173 -0.021335188 0.091091603 87 66 95
0.033546776 -0.02124133 0.090064347 85 63 94
0.033735599 -0.019311009 0.091597937 87 62 90
0.034480847 -0.016786782 0.091078281 87 58 85
0.035111811 -0.015099682 0.091621041 86 55 83
0.035482619 -0.012985952 0.092471361 89 52 78
0.036614291 -0.0061018914 0.091976345 77 41 60
0.036893047 -0.0042642727 0.090841889 68 41 63
0.03635589 -0.0015143082 0.091658592 79 35 52
0.036796156 0.0013158061 0.09045282 63 42 61
0.036269441 0.0061151139 0.091460206 61 43 64
0.033997551 0.008585535 0.09198308 59 44 64
0.020468775 0.012713186 0.090854287 54 39 59
-0.017130576 -0.042929523 0.094194412 73 47 87
-0.016456721 -0.040481783 0.093346834 65 42 79
-0.020351794 -0.037846562 0.093877643 76 52 87
-0.0189739 -0.038613487 0.093747646 70 47 84
-0.016230313 -0.038900327 0.092899345 65 42 79
-0.020959005 -0.034242973 0.092783988 78 56 88
0.026848517 -0.027564198 0.093903005 91 71 104
0.03184659 -0.018904977 0.09426558 89 63 89
0.032592528 -0.018409662 0.093887866 89 63 90
0.032038011 -0.015719388 0.094207585 124 63 71
0.033334598 -0.015894761 0.09336891 100 61 82
0.034035027 -0.013839073 0.094219185 116 57 69
0.035771668 -0.01136956 0.093357354 92 48 72
0.036175184 -0.0089149587 0.093180835 88 44 64
0.036497992 -0.0069512799 0.093039632 82 44 61
0.036101695 -0.0032885 0.093289435 93 33 40
0.035994004 0.0019579045 0.094427556 61 40 59
0.036189377 0.0033083335 0.093328238 62 42 62
0.035736866 0.00652311 0.094111383 61 43 62
0.019174337 0.011234164 0.093142152 55 36 60
0.030760948 -0.02264981 0.096519887 87 65 97
0.032358408 -0.014028355 0.095589221 167 74 63
0.033767112 -0.011671973 0.095908791 141 56 52
0.035012133 -0.01029624 0.096298933 126 45 46
0.035172753 -0.0093191937 0.096228659 124 40 40
0.035654601 -0.0063880733 0.096017875 114 36 38
0.03549403 -0.0012994334 0.095998108 86 37 52
0.035670031 0.005772613 0.09616971 60 40 60
0.033985253 0.0079347342 0.095036209 59 41 62
0.020428441 0.011505485 0.097122669 55 36 60
0.029779479 -0.022971749 0.099559605 87 65 97
0.031182852 -0.020375565 0.09835583 88 64 92
0.031500846 -0.019588903 0.097993433 88 64 92
0.031057073 -0.015194982 0.098981619 115 66 79
0.031321734 -0.013662454 0.09936896 153 70 66
0.032995518 -0.010668665 0.098354161 168 56 36
0.034236621 -0.0092992708 0.09874475 120 38 38
0.035140745 -0.0038803667 0.098856181 108 40 42
0.034853712 0.00029094517 0.099570394 105 32 33
0.035172839 0.0022322312 0.099430799 81 33 41
0.035364509 0.0035701357 0.098332435 65 37 53
0.034997582 0.0072454587 0.099082291 59 41 60
0.033159681 0.008426033 0.098019302 59 41 62
0.030627377 -0.01820299 0.10171142 85 60 88
0.030788954 -0.016984001 0.10011709 92 62 87
0.033309292 -0.0092758536 0.1012606 156 47 28
0.034813911 -0.0061114915 0.10051993 117 37 39
0.034663357 -0.0010389611 0.10066828 113 38 33
0.034666345 0.0046845451 0.10227299 61 39 55
0.034935266 0.0065024346 0.10114008 60 40 60
0.030149549 -0.021346986 0.10344875 86 64 96
0.030466847 -0.019415587 0.10330522 85 61 89
0.031894688 -0.010724284 0.10265929 170 61 40
0.03215725 -0.0092045479 0.10304758 169 59 39
0.03362149 -0.0078926384 0.10416764 136 31 20
0.034305457 -0.003903985 0.10488296 117 37 33
0.034523185 -0.0022355989 0.10275865 116 41 35
0.034131646 0.0010679439 0.10453731 111 38 39
0.034502566 0.0034152716 0.10386747 77 36 48
0.032880075 0.0086286888 0.10352233 58 40 60
0.026785329 -0.024226993 0.10669506 88 68 101
0.029817391 -0.017816737 0.10620213 83 59 87
0.029975254 -0.016855836 0.10613072 86 60 87
0.030133113 -0.015894935 0.10605931 91 61 86
0.030816391 -0.011902809 0.10676509 174 66 51
0.034039401 -0.0056944266 0.10601389 120 31 26
0.034197386 -0.0047333762 0.10594475 119 35 30
0.033916604 -0.00060414523 0.10666186 114 39 33
0.034023859 0.0002303049 0.1055997 115 39 36
0.034084193 0.0063285381 0.10667625 67 36 49
0.029373536 -0.020852491 0.10843265 84 62 95
0.031357158 -0.0088338004 0.10787362 178 55 34
0.033597983 -0.0030883104 0.10984701 110 30 26
0.03380987 -0.0014354065 0.10772377 112 37 31
0.033425611 0.0018423274 0.10950422 109 37 33
0.033766802 0.0041098148 0.10833901 101 33 34
0.032104284 0.0088635422 0.10852778 59 38 57
0.032556891 0.0087282136 0.10803056 57 39 58
0.027243901 0.011799768 0.10988456 54 39 59
0.028199349 0.011642665 0.10988408 56 38 59
0.025268786 -0.024091698 0.11241835 86 69 101
0.027390689 -0.021477312 0.11150289 85 64 100
0.028223526 -0.016314305 0.11061797 82 57 84
0.032970238 -0.0069069341 0.11012161 159 54 43
0.033414487 -0.0043864995 0.11094248 113 27 22
0.033059992 -0.00076577067 0.11169606 105 34 27
0.033242404 0.00053587928 0.11060029 106 35 28
0.032941081 0.0042680278 0.11234796 105 33 31
0.011408869 0.0058766454 0.11164635 62 43 69
0.032989692 0.0056098066 0.11086607 87 34 40
0.031711876 0.0087999515 0.11154449 58 37 55
0.030965131 0.0103276 0.11094534 56 38 59
0.021734294 -0.024511848 0.11463657 85 67 98
0.026508331 -0.022964694 0.1143297 87 67 100
0.030359261 -0.01757855 0.11490929 83 59 87
0.032697704 -0.0033536106 0.11388642 121 26 17
0.03226874 -0.00022592396 0.11467534 103 32 25
0.0066378973 0.0016406365 0.11492798 63 47 75
0.032424364 0.00072073936 0.11460727 102 31 24
0.032604255 0.0020170547 0.11351192 102 31 25
0.0073160753 0.0038999319 0.11383015 63 47 74
0.03114878 0.0048194677 0.11433595 102 30 28
0.011701237 0.0051004216 0.11454976 62 43 69
0.031073285 0.0064105988 0.1138914 97 32 35
0.0298732 0.0089182034 0.11406463 64 35 51
0.030571962 0.0093708141 0.11335621 59 36 54
0.02661879 0.011214413 0.11444435 54 36 57
0.028935496 0.010681912 0.11415756 55 36 57
0.030126721 0.010702483 0.11293423 56 38 59
0.017118815 -0.025709808 0.11691087 90 65 100
0.021063142 -0.024058342 0.11697787 86 66 99
0.024582066 -0.023268215 0.11637914 86 69 101
0.026348455 -0.021527808 0.11673743 84 65 98
0.027165547 -0.01963295 0.11709636 82 62 95
0.029138086 -0.019471981 0.11706144 84 62 95
0.029526483 -0.017109334 0.11689156 83 59 87
0.030671082 -0.010348648 0.1174075 173 65 50
0.031058824 -0.0079899952 0.11723787 178 56 35
0.029399812 -0.0062637702 0.11713707 179 47 27
0.031674024 -0.0060893572 0.11642925 173 49 29
0.029865101 -0.003433384 0.11693352 178 55 34
0.031779185 -0.0034059584 0.11590615 134 32 23
0.0030717291 -0.00096577406 0.1170826 68 51 81
0.031093756 -0.0017674193 0.11630103 115 27 16
0.0042260103 0.00063920766 0.11595398 66 49 79
0.030640578 0.0012839189 0.11659431 99 29 22
0.0084464215 0.0039924383 0.11581928 63 47 74
0.010493156 0.0046254769 0.11575603 61 45 72
0.030478656 0.0032484718 0.11645886 97 29 24
0.029189322 0.0065871566 0.11644135 97 30 31
0.030363966 0.005626373 0.11579269 98 29 27
0.017383736 0.0092774704 0.11619443 54 38 63
0.026754728 0.0090702819 0.11643058 69 33 47
0.028984014 0.0091862082 0.11505902 64 35 51
0.02111901 0.011146605 0.11652011 53 35 59
0.023051076 0.011252504 0.11598825 54 35 59
0.025701309 0.010534351 0.11634084 52 33 55
0.016635552 -0.023323223 0.11874616 86 61 96
0.018666327 -0.023676991 0.11911836 85 62 96
0.02085188 -0.023089275 0.11941892 84 64 97
0.023770604 -0.022779509 0.11835968 84 67 97
0.021950938 -0.022302665 0.11935067 82 65 95
0.024432875 -0.021831442 0.11878669 83 66 96
0.026127547 -0.020260163 0.11815518 81 64 96
0.026354078 -0.019000676 0.11856565 78 62 91
0.02644958 -0.015704794 0.11933652 79 61 82
0.027833311 -0.016014978 0.11884034 79 57 84
0.026790522 -0.013746839 0.11969674 78 52 77
0.028142976 -0.014131263 0.11870489 83 57 82
0.030108839 -0.013970844 0.11867005 90 60 85
0.026782922 -0.010848556 0.11949414 106 56 73
0.028166508 -0.011154611 0.11899769 115 57 72
0.030495923 -0.011616185 0.11850077 134 66 70
0.027169347 -0.0084978938 0.1193251 164 53 45
0.028522445 -0.0088733882 0.11833262 164 49 38
0.027478486 -0.0066173747 0.11918986 179 51 34
0.02868261 -0.0059730834 0.11829495 178 46 28
0.027217411 -0.0025685728 0.11991239 174 44 27
0.028287908 -0.0035792515 0.11863353 180 48 29
0.0020765364 -0.001623027 0.11814296 71 51 82
0.0051647089 -0.0010170415 0.11906606 64 47 77
0.027371716 -0.0016299114 0.11984485 172 43 29
0.028545151 -0.0013569847 0.11900969 171 51 34
0.030078389 -0.0023579821 0.11785829 168 59 38
0.007063651 0.00087680417 0.11857665 63 47 75
0.0085336994 0.001809705 0.11882791 63 47 74
0.010587692 0.002093859 0.1197859 61 45 72
0.028803235 0.0013958352 0.11878064 106 25 17
0.011454905 0.0040196679 0.11830411 60 44 70
0.012932651 0.0046003982 0.11958247 60 44 69
0.017341129 0.0035704821 0.11978653 133 47 38
0.026415519 0.0043115243 0.11944079 95 24 17
0.028910417 0.0032165691 0.11868545 93 28 20
0.013940638 0.0052653961 0.11852133 63 43 68
0.015551874 0.0060319677 0.11894965 73 37 59
0.024996407 0.0074369758 0.11923927 87 31 35
0.02629846 0.006677499 0.1187755 94 29 27
0.028545275 0.0057610348 0.11831141 95 29 25
0.01684344 0.0078135021 0.1193108 58 37 62
0.018447427 0.0089332759 0.11871198 56 37 60
0.021309488 0.0085252225 0.11920741 69 33 53
0.02413254 0.0080610365 0.11920601 85 32 38
0.02555524 0.0081840344 0.11817783 86 31 37
0.021622583 0.010762028 0.11804473 50 34 57
0.023507826 0.010452043 0.11804378 51 33 56
0.016772598 -0.024952076 0.12160313 90 65 100
0.020058576 -0.022600271 0.12139922 84 62 96
0.019194625 -0.022278927 0.12238961 81 59 93
0.021102976 -0.021123609 0.12188492 79 60 91
0.021766653 -0.018371064 0.12208545 78 65 87
0.023796912 -0.018622123 0.12087563 106 97 114
0.025546361 -0.018370654 0.12003505 80 65 92
0.022151764 -0.016028404 0.12191698 72 56 78
0.023091178 -0.01618287 0.1219165 85 69 91
0.025057107 -0.01570987 0.12085736 100 92 108
0.018325984 -0.014222622 0.12207896 59 38 65
0.023188824 -0.013632543 0.12173698 68 47 72
0.025365723 -0.013832547 0.12072233 87 68 91
0.023391692 -0.011420313 0.12157986 68 44 70
0.025905799 -0.010547221 0.12048611 91 58 80
0.022362441 -0.0091700032 0.1224373 69 43 70
0.023524687 -0.0089090299 0.12160312 87 53 75
0.026137259 -0.0091392249 0.12038487 125 65 75
0.023792848 -0.0061429315 0.12154012 152 68 67
0.026600182 -0.0063232281 0.12018236 176 60 47
0.022347316 -0.0034030005 0.12203419 158 50 37
0.023902163 -0.0043236315 0.12147842 159 44 32
0.025967775 -0.0042911768 0.12004781 171 42 25
0.0010012574 -0.001927942 0.12032408 72 52 83
0.0033331588 -0.0013854057 0.12111878 68 51 81
0.0063202246 -0.0011367922 0.1217339 63 46 76
0.023807446 -0.0010959825 0.12142567 159 40 24
0.025555886 -0.0011898378 0.12083838 167 45 28
0.0095255077 0.00062674284 0.12190628 62 46 73
0.011071974 0.0016728975 0.12081203 61 45 72
0.012646507 0.0020350739 0.12177032 61 45 72
0.021086816 0.00064726174 0.12176603 145 37 22
0.02358513 0.0011972226 0.1216976 152 40 22
0.025548311 0.0016985908 0.12063646 155 45 29
0.014198326 0.0039311522 0.12095074 69 47 70
0.016313301 0.0038340315 0.12160048 113 48 51
0.019123409 0.0044484162 0.12118963 132 43 34
0.021079252 0.0035307594 0.12156449 136 39 26
0.024000624 0.003922841 0.12083367 126 30 17
0.025731649 0.0034007565 0.12051524 112 27 16
0.016670164 0.0054039783 0.1204839 102 45 58
0.018964833 0.0056682751 0.12043786 125 43 39
0.021216398 0.0064529269 0.12035595 103 33 33
0.024439704 0.0066928454 0.1203005 92 27 29
0.018333506 0.0076968595 0.12030357 79 36 57
0.011964113 -0.024329036 0.12487471 91 63 104
0.014207147 -0.023977622 0.12457329 91 65 103
0.01562589 -0.023869086 0.12379681 88 64 101
0.016876606 -0.021279283 0.12401839 80 57 91
0.01887819 -0.020707401 0.12362019 76 54 88
0.018612197 -0.018627567 0.12414626 68 48 81
0.020901516 -0.018056922 0.12307638 66 46 78
0.018008832 -0.015801311 0.1249584 63 42 71
0.020506129 -0.016757539 0.1236586 63 43 72
0.017464232 -0.013912767 0.12306619 59 38 67
0.0184686 -0.013004504 0.12475729 58 37 65
0.021161973 -0.013694119 0.12326939 59 38 65
0.022531345 -0.014001526 0.12277317 62 41 66
0.018698484 -0.011606101 0.12465675 57 36 64
0.021715736 -0.011251681 0.12292484 61 39 66
0.019267105 -0.0086021423 0.1240388 60 36 62
0.021498008 -0.0088715777 0.12342934 67 40 66
0.018813636 -0.0060398108 0.12426607 64 40 62
0.021385595 -0.0056560659 0.12320582 101 45 57
0.018855331 -0.0035143408 0.12394574 80 45 59
0.020861287 -0.0039713383 0.12309428 119 45 47
0.0013914071 -0.0020343475 0.12376419 72 52 83
0.0034922957 -0.0019247979 0.1241622 68 51 81
0.0068670083 -0.0015962683 0.12359744 64 47 77
0.0093121901 -0.0011132509 0.12303299 62 46 73
0.010341048 -0.0011359826 0.12402481 62 46 73
0.015841492 -0.00076377887 0.12393276 69 45 65
0.018729711 -0.0011148881 0.12367202 107 42 45
0.020644013 -0.00041887909 0.12284845 140 39 26
0.011260923 0.00085196394 0.12320638 61 45 72
0.013726135 0.00093204976 0.12343852 63 46 71
0.015976388 0.001218617 0.12329122 88 46 61
0.018763252 0.00072500482 0.12304166 127 41 35
0.020224564 0.00092890114 0.12275922 137 40 28
0.019595392 0.0029505715 0.12262535 139 42 30
0.01200184 -0.02333869 0.12605891 86 60 100
0.01444627 -0.022875264 0.12549591 88 65 102
0.011823282 -0.022078834 0.12747669 81 58 97
0.01352129 -0.021206407 0.12672698 84 61 98
0.015764019 -0.020698268 0.12532786 81 59 93
0.013856442 -0.019291744 0.12692322 79 56 93
0.016367195 -0.018750511 0.12593625 74 53 87
0.016293649 -0.016256798 0.12629981 66 46 78
0.018322881 -0.01681041 0.12502521 65 45 78
0.016660556 -0.013761212 0.12616861 60 39 69
0.014663804 -0.010618616 0.12664112 60 39 68
0.01682106 -0.011324396 0.12626359 58 37 65
0.012341104 -0.0076933131 0.12746692 66 47 73
0.013692569 -0.0079944991 0.1269705 63 44 70
0.016311273 -0.0082380846 0.1261207 59 37 64
0.017836271 -0.0084348209 0.12544784 59 36 63
0.0094958944 -0.0056379214 0.12735735 85 67 93
0.011098877 -0.006536521 0.12740093 80 66 86
0.013613477 -0.006533769 0.12636805 65 52 73
0.016259149 -0.0064637326 0.12557954 60 39 64
0.018065758 -0.0070388168 0.12534744 61 37 63
0.004479751 -0.0027419105 0.12621248 67 50 80
0.0065986123 -0.0034152102 0.12723665 66 50 78
0.0092606321 -0.0029752366 0.12667269 61 46 72
0.010610215 -0.0032728259 0.12617603 84 72 95
0.0140009 -0.0035469728 0.12565327 70 59 75
0.015725724 -0.0037865739 0.12514806 62 44 64
0.01759173 -0.0040934011 0.1251471 66 41 63
0.0015776828 -0.0024160966 0.12522203 73 53 84
0.0026169531 -0.0024356171 0.12621343 73 53 84
0.0064283558 -0.0022079374 0.12548344 64 47 77
0.0093476959 -0.0017820373 0.12508446 62 45 75
0.010953699 -0.0017274991 0.12506135 59 43 71
0.013492706 -0.0018263733 0.12503777 66 53 76
0.015098706 -0.00177183 0.12501466 64 44 66
0.0087073781 -0.023165748 0.12870786 94 66 106
0.010857686 -0.023222566 0.12839925 88 60 101
0.0099955127 -0.022364073 0.12952358 88 62 102
0.011116747 -0.021084219 0.12875229 81 58 96
0.011465861 -0.019063804 0.12887415 76 53 90
0.012523562 -0.018201254 0.12819964 76 53 90
0.012065239 -0.01557266 0.12902382 69 49 82
0.013413982 -0.015880369 0.12852788 70 50 83
0.0096036941 -0.013572129 0.12991601 66 46 79
0.011803732 -0.013845026 0.12930714 65 45 78
0.013696642 -0.014065355 0.12814692 64 44 76
0.0072797462 -0.010342248 0.12971801 66 46 77
0.0090334704 -0.011146361 0.12950255 66 46 77
0.011304638 -0.010534619 0.12868057 63 44 73
0.013483683 -0.01127743 0.12790437 62 41 72
0.0043405592 -0.0079604574 0.1295867 69 52 79
0.0062468774 -0.0089067416 0.12963003 67 48 76
0.0085964324 -0.0091044251 0.12921461 65 46 74
0.011153081 -0.0093224421 0.12809637 65 44 73
0.013430867 -0.0097775832 0.1275996 63 42 71
0.0023279637 -0.0057310238 0.12945497 73 57 84
0.0042571165 -0.0055736005 0.12942079 68 51 81
0.0058797887 -0.0058392598 0.12881833 66 50 77
0.0086986758 -0.0066444632 0.12848508 67 47 74
0.0013851002 -0.0043088929 0.12896577 74 55 86
0.0034532547 -0.0041721873 0.12832987 70 52 82
0.0057737418 -0.004553739 0.12832868 67 51 78
0.0062280321 -0.020971702 0.13116296 94 66 105
0.0080614612 -0.021168152 0.13079989 90 63 102
0.0037143119 -0.018611142 0.1317447 90 66 101
0.0067143016 -0.018237656 0.13161366 82 59 95
0.0083536077 -0.018498255 0.13077676 76 53 90
0.010773137 -0.018036067 0.13021415 72 49 86
0.0015718713 -0.015454225 0.1323356 79 57 91
0.00357146 -0.016498288 0.13219807 78 56 90
0.006641651 -0.01690411 0.13185543 76 55 89
0.0087331319 -0.016189573 0.13061076 70 49 83
0.01115299 -0.015725382 0.13004798 69 49 82
0.00089643773 -0.012983906 0.13204436 79 58 89
0.0038258873 -0.013796804 0.13200608 76 54 88
0.0061432384 -0.013454949 0.13175385 71 51 84
0.0080970908 -0.01391307 0.13096042 69 49 82
0.0012758275 -0.011233307 0.1318574 77 57 88
0.0038408255 -0.011854671 0.13161945 73 53 85
0.0061501414 -0.011887234 0.13084212 70 50 83
0.0080001168 -0.012191422 0.1308412 69 49 82
0.001071232 -0.0085465582 0.13150486 75 59 86
0.0042168703 -0.0092003252 0.13067743 69 52 80
0.0055285096 -0.0098897964 0.13070989 69 49 80
0.0011654862 -0.0064868419 0.13072477 76 58 86
0.0022113025 -0.013737001 0.13302374 78 56 90
-0.00025173524 -0.011443354 0.13289286 82 62 93
0.00067004561 -0.011594921 0.13289243 80 60 91
0.029101336 0.11434218 0.58668339 13 17 12
0.02947258 0.11208487 0.58806121 12 17 13
0.030286636 0.11228825 0.58803719 13 17 13
0.029599652 0.11271199 0.58821642 13 17 15
0.030535774 0.11286526 0.58834773 13 18 14
0.03168004 0.11219689 0.59353638 14 18 13
0.033029594 0.11111624 0.59410137 15 19 14
0.031225914 0.11258774 0.59301031 15 19 14
0.033686332 0.11121345 0.59595281 12 17 12
0.035050336 0.11033208 0.59681439 8 13 9
0.036160253 0.10938574 0.59869611 12 18 12
0.036051575 0.11078805 0.59910989 21 28 26
0.034853846 0.11257358 0.59899718 10 18 17
0.037294067 0.10887565 0.60186046 26 30 24
0.038438451 0.10902622 0.60218805 25 29 25
0.040561717 0.10982081 0.60212171 84 77 78
0.036547795 0.11122281 0.60086304 27 29 26
0.038725384 0.11053147 0.60166067 48 49 45
0.040486511 0.11072187 0.60209328 16 17 13
0.039778087 0.1072085 0.60331631 57 56 50
0.041391727 0.10703376 0.60395765 67 65 60
0.042788923 0.10687905 0.60430807 29 30 28
0.045530163 0.10662435 0.60435545 178 181 184
0.050779127 0.1073596 0.60417622 15 16 10
0.039659128 0.1084016 0.60323668 69 67 63
0.041371938 0.10831923 0.60376805 73 71 67
0.042991482 0.10836624 0.60420978 15 17 12
0.048383761 0.10844406 0.60419887 16 17 11
0.047094289 0.10486989 0.60619915 180 181 186
0.047633607 0.1049023 0.60639083 176 176 182
0.044284992 0.10653419 0.60531443 14 18 14
0.046531506 0.10619622 0.60631347 19 23 20
0.04852616 0.10623974 0.60657001 20 23 20
0.050386168 0.10660205 0.60632616 14 17 12
0.044189703 0.10791797 0.60525113 14 19 14
0.045330394 0.10794246 0.60537523 13 19 14
0.049606856 0.10787994 0.60594875 15 16 11
0.050208468 0.10783926 0.60623312 13 17 15
0.049304131 0.10651272 0.60826319 16 16 10
0.051368922 0.10617321 0.60826212 15 16 10
0 0 0 1 0 0 0 1 0 0 0 1 0 0 0 0 0 703 1 0 0
