ply
format ascii 1.0
comment PCL generated
element vertex 35
property float x
property float y
property float z
property uchar red
property uchar green
property uchar blue
element camera 1
property float view_px
property float view_py
property float view_pz
property float x_axisx
property float x_axisy
property float x_axisz
property float y_axisx
property float y_axisy
property float y_axisz
property float z_axisx
property float z_axisy
property float z_axisz
property float focal
property float scalex
property float scaley
property float centerx
property float centery
property int viewportx
property int viewporty
property float k1
property float k2
end_header
0.028169716 0.11313307 0.53676969 9 16 12
0.0270372 0.11183275 0.53781962 10 16 14
0.028060505 0.11204606 0.5384084 11 17 15
0.028416097 0.11271112 0.5381726 11 17 15
0.031208124 0.11071435 0.54493713 12 18 16
0.033216447 0.10961545 0.54693651 10 15 10
0.032046653 0.11026293 0.54593855 10 16 13
0.034478106 0.10893539 0.54841864 14 18 14
0.035148852 0.10871834 0.54898798 13 16 15
0.034016293 0.11125231 0.54920048 16 13 16
0.0365448 0.10745861 0.55207145 45 46 42
0.035996467 0.10888285 0.55198449 16 19 18
0.038023941 0.10958391 0.55191147 83 74 76
0.035841271 0.11057843 0.550928 18 20 15
0.037385628 0.10727127 0.55307996 56 55 52
0.038888186 0.10697452 0.55360943 69 66 63
0.040256903 0.10683139 0.55408949 60 59 57
0.046012815 0.10548434 0.5541358 100 99 108
0.037147559 0.10829753 0.55302191 55 57 56
0.038541492 0.1082584 0.55338699 77 75 71
0.040708609 0.10831241 0.55415291 35 36 33
0.04299451 0.10787483 0.55499685 17 18 19
0.044273224 0.10482278 0.55620849 111 110 118
0.045496099 0.10474333 0.55609429 139 140 148
0.039944321 0.10600148 0.55522901 60 59 59
0.041603323 0.10649255 0.5551129 17 18 15
0.043924712 0.10609091 0.55603731 12 17 15
0.046201099 0.10603081 0.55656832 12 17 12
0.048286725 0.10642464 0.55640215 12 17 15
0.050279588 0.10605228 0.55706859 17 18 14
0.041682437 0.1076946 0.55503303 14 19 14
0.042804435 0.10761831 0.5550319 17 19 17
0.047011871 0.10627637 0.55808234 9 19 10
0.049166318 0.10599181 0.55810565 16 17 15
0.050404079 0.10571902 0.55809319 17 18 13
0 0 0 1 0 0 0 1 0 0 0 1 0 0 0 0 0 35 1 0 0
