ply
format ascii 1.0
comment PCL generated
element vertex 379
property list uint float x_axis
property list uint float y_axis
property list uint float z_axis
element camera 1
property float view_px
property float view_py
property float view_pz
property float x_axisx
property float x_axisy
property float x_axisz
property float y_axisx
property float y_axisy
property float y_axisz
property float z_axisx
property float z_axisy
property float z_axisz
property float focal
property float scalex
property float scaley
property float centerx
property float centery
property int viewportx
property int viewporty
property float k1
property float k2
end_header
3 -0.94344729 -0.32126257 0.081839278 3 -0.33147174 0.91843778 -0.21586756 3 -0.0058141151 -0.23078705 -0.972987
3 0.69496441 0.66682893 -0.26900491 3 0.7139616 -0.6843456 0.14808816 3 -0.085344784 -0.29497701 -0.95168531
3 0.94399387 0.31464857 -0.099357478 3 0.32074642 -0.94570875 0.052504785 3 -0.077447928 -0.081434496 -0.9936651
3 -0.30875322 -0.94686526 0.090097889 3 -0.94851041 0.31355622 0.044838358 3 -0.070706636 -0.071614802 -0.99492306
3 -0.61830401 -0.77792561 0.11194552 3 -0.78211379 0.62305707 0.0098974518 3 -0.077447928 -0.081434496 -0.9936651
3 0.9601686 0.27930972 0.0078991354 3 0.27332246 -0.94470984 0.18115814 3 0.058067635 -0.17178158 -0.98342228
3 -0.55170649 0.81769389 -0.16430652 3 0.83115506 0.55539167 -0.02685979 3 0.069291383 -0.15138291 -0.98604363
3 0.47354305 -0.86497235 0.16607225 3 -0.87804103 -0.47844148 0.011751197 3 0.069291383 -0.15138291 -0.98604363
3 -0.95611572 0.26238269 -0.13037625 3 0.28586483 0.9329502 -0.21882714 3 0.064218096 -0.24649407 -0.96701443
3 -0.84192187 -0.53168273 0.09209308 3 -0.5362156 0.80528325 -0.25296628 3 0.06033678 -0.26235956 -0.96308208
3 0.86257845 -0.48280507 0.15118773 3 -0.50582922 -0.82877642 0.23930463 3 0.0097633135 -0.28289416 -0.95910156
3 0.84159625 -0.5260697 0.12233754 3 -0.54010707 -0.81953692 0.19142549 3 -0.00044300023 -0.22717834 -0.97385311
3 0.87785733 0.4620021 -0.12617709 3 0.46579 -0.88489521 0.00058450922 3 -0.11138345 -0.059285145 -0.99200761
3 0.021452248 -0.94147909 0.33638787 3 -0.99882406 -0.034814041 -0.033739831 3 0.043476373 -0.33526853 -0.9411189
3 0.98611474 0.1558952 -0.057220943 3 0.16290914 -0.9749887 0.15118656 3 -0.032220516 -0.15840912 -0.98684764
3 0.58977699 0.77958184 -0.21074907 3 0.80475283 -0.58912027 0.07286974 3 -0.067348614 -0.2125778 -0.97482032
3 -0.62205607 0.63207304 -0.46209291 3 0.76991904 0.60111535 -0.21420807 3 0.14237601 -0.48902363 -0.86057258
3 -0.60159647 0.70064676 -0.38363516 3 0.791309 0.58834559 -0.1663723 3 0.10914184 -0.40366292 -0.90837461
3 -0.89476645 -0.44028163 0.074466437 3 -0.40551826 0.8710162 0.27728295 3 -0.18694405 0.21790595 -0.95789814
3 0.99657297 0.0073624551 0.082389101 3 -0.028148185 -0.90640223 0.42147645 3 0.077780791 -0.42235121 -0.90308887
3 0.65755999 0.72696084 -0.19784568 3 0.72809273 -0.54567361 0.41487533 3 0.19363892 -0.41685539 -0.88810796
3 -0.84703642 -0.52794874 -0.061640821 3 -0.52774769 0.82150775 0.21588822 3 -0.063339502 0.21539594 -0.97447056
3 0.97967696 0.13043347 0.15238202 3 0.052317739 -0.89956599 0.43364063 3 0.19363892 -0.41685539 -0.88810796
3 0.55396354 0.83154017 -0.040810481 3 0.81475645 -0.53140032 0.23191769 3 0.17116214 -0.16172452 -0.97187895
3 0.25797218 0.95450389 -0.14957529 3 0.9553206 -0.22888729 0.18701166 3 0.14426747 -0.19113611 -0.97090369
3 -0.9862898 -0.16494076 0.0052114031 3 -0.16358986 0.98138934 0.10056597 3 -0.021701839 0.09833464 -0.9949168
3 -0.13366526 0.92210662 0.36311567 3 0.97855973 0.1807403 -0.098762959 3 -0.15669961 0.34212914 -0.92649508
3 -0.47159871 -0.86632621 -0.16453986 3 -0.88176584 0.465222 0.077826887 3 0.0091240862 0.18178871 -0.9832952
3 0.75238186 0.6557849 0.062190026 3 0.64489794 -0.75253993 0.1333791 3 0.13426851 -0.060245786 -0.98911184
3 -0.39567167 -0.90705109 -0.14388314 3 -0.9178347 0.38509074 0.096357569 3 -0.031993177 0.17018688 -0.98489237
3 -0.50003999 0.71891469 0.48282671 3 0.83947384 0.5393343 0.066349149 3 -0.21270563 0.43849763 -0.87319887
3 0.047517091 -0.98402357 -0.1715803 3 -0.99835801 -0.052288618 0.023395255 3 -0.031993177 0.17018688 -0.98489237
3 0.91064167 0.40450519 0.084305197 3 0.40873635 -0.85196239 -0.32725325 3 -0.060550775 0.33246905 -0.94116831
3 0.84783518 -0.35437137 -0.39445749 3 -0.50020409 -0.78138036 -0.37314999 3 -0.17598762 0.51367879 -0.83973956
3 0.95265198 0.27826127 0.12257622 3 0.24491051 -0.94112462 0.23303081 3 0.18020296 -0.19197704 -0.96471328
3 -0.44556415 -0.88213539 0.15267485 3 -0.85165358 0.36508703 -0.37602857 3 0.27596852 -0.297571 -0.91394353
3 0.46091342 0.88576508 0.054580223 3 0.88522756 -0.45454615 -0.098792821 3 -0.062697999 0.093850866 -0.99361014
3 0.83232236 -0.47235924 0.29002854 3 -0.53357983 -0.82448733 0.18845123 3 0.15010813 -0.31160545 -0.93828028
3 0.97031784 0.014623791 -0.2413902 3 -0.014764808 -0.99272531 -0.11949103 3 -0.24138163 0.11950839 -0.96304333
3 -0.88704944 -0.34911978 0.3020905 3 -0.26432025 0.92052627 0.28769124 3 -0.37852091 0.17534775 -0.90883178
3 -0.58153814 -0.76521444 0.27615231 3 -0.80189061 0.48199967 -0.3530547 3 0.13705727 -0.42675874 -0.89391959
3 -0.59789038 -0.79543406 0.09905348 3 -0.70070219 0.57865548 0.41734165 3 -0.38928568 0.18011761 -0.90333509
3 -0.16390547 -0.98451912 -0.062106602 3 -0.95128834 0.14108013 0.27412993 3 -0.2611241 0.10401268 -0.95968521
3 -0.7395308 0.35705185 0.57062089 3 0.48078141 0.87349451 0.076530382 3 -0.47110888 0.33094049 -0.81763995
3 -0.49447668 0.35273436 0.79439986 3 0.58643585 0.80997783 0.0053774565 3 -0.64154959 0.46852368 -0.60737127
3 -0.72450376 -0.67182791 0.15408313 3 -0.59129429 0.72066873 0.3619501 3 -0.35421106 0.17112572 -0.91937518
3 0.94538462 -0.11024392 -0.30674821 3 -0.12530562 -0.99167126 -0.029784285 3 -0.30090976 0.066594861 -0.9513247
3 0.79468971 -0.46913439 -0.38520291 3 -0.52909166 -0.84638888 -0.060730502 3 -0.29754063 0.2520695 -0.9208315
3 -0.72721988 0.49543825 0.47507077 3 0.61949408 0.77178884 0.14342004 3 -0.29559854 0.39860138 -0.86818123
3 0.52827197 0.81132215 -0.25036967 3 0.80376101 -0.38280016 0.4554472 3 0.27367291 -0.4418374 -0.85433179
3 0.97061443 -0.042004067 -0.23694646 3 -0.12093833 -0.93641156 -0.32940519 3 -0.20804302 0.34838122 -0.91397417
3 -0.84318191 0.32677788 0.42691982 3 0.50032651 0.76756686 0.40064293 3 -0.19676825 0.55141413 -0.8106941
3 0.69764763 0.67144537 0.24989809 3 0.67739487 -0.504619 -0.53525347 3 -0.23329018 0.54269785 -0.80687976
3 0.9722023 0.22941843 -0.046798512 3 0.2018183 -0.92241132 -0.32928258 3 -0.11871093 0.31068444 -0.94307101
3 0.98588884 -0.071183443 -0.15151326 3 -0.13637994 -0.86639881 -0.48036861 3 -0.09707661 0.49425334 -0.86388075
3 -0.29561114 0.83260322 0.46838638 3 0.94580036 0.32407913 0.020837113 3 -0.13444522 0.44915977 -0.88327795
3 0.98956335 -0.06569837 -0.1282502 3 -0.11248884 -0.90844512 -0.40258393 3 -0.090059124 0.41280901 -0.90635431
3 0.91691327 0.38781053 0.09419544 3 0.39070848 -0.82419491 -0.40993837 3 -0.081343025 0.41268101 -0.90723634
3 0.97754306 0.20682646 -0.040402919 3 0.16492629 -0.87020087 -0.46427351 3 -0.13118272 0.44718382 -0.88476992
3 0.74984074 0.65048182 0.12088127 3 0.61489117 -0.61770904 -0.49024934 3 -0.24422881 0.44193774 -0.86315894
3 -0.23115447 -0.97187316 0.045059215 3 -0.97159761 0.22818188 -0.062701456 3 0.050656155 -0.058273137 -0.9970147
3 -0.99638528 0.079099432 -0.03097729 3 0.083329 0.98095751 -0.17543827 3 0.016510328 -0.17738542 -0.98400295
3 -0.98531497 0.036822766 0.16672893 3 0.033800289 0.9992094 -0.020930536 3 -0.16736785 -0.014987685 -0.9857806
3 -0.26616707 -0.94569016 0.18661585 3 -0.96391851 0.26031035 -0.055678174 3 0.004076262 -0.19470212 -0.98085403
3 0.39241818 -0.91768301 -0.062176697 3 -0.91973835 -0.39219508 -0.016264809 3 -0.0094594536 0.06356889 -0.99793267
3 -0.85649872 -0.5116508 -0.06799528 3 -0.46771508 0.82507807 -0.31699955 3 0.21829447 -0.23970731 -0.94598514
3 -0.37886441 0.90945405 -0.17133343 3 0.92165047 0.38754961 0.019132439 3 0.083800279 -0.15066093 -0.98502743
3 0.8822456 -0.46414346 0.078825817 3 -0.4647496 -0.8853662 -0.011590347 3 0.075169303 -0.026408739 -0.99682093
3 0.25563204 -0.93080628 0.26125047 3 -0.95692992 -0.28208041 -0.068670802 3 0.13761288 -0.23244399 -0.9628253
3 0.69874847 -0.49867743 0.5129047 3 -0.65824878 -0.72893763 0.18803799 3 0.28010532 -0.46901026 -0.83759797
3 -0.58251083 0.70496762 -0.4046008 3 0.77291131 0.63447249 -0.0072828829 3 0.25157386 -0.3169629 -0.91446453
3 0.12014098 0.99135578 -0.052725568 3 0.96281779 -0.10340866 0.24957725 3 0.24196754 -0.080749549 -0.96691847
3 0.50687152 -0.76176536 0.40347871 3 -0.8244952 -0.56502074 -0.030980796 3 0.25157386 -0.3169629 -0.91446453
3 -0.25954989 -0.93114841 0.25611803 3 -0.92008197 0.15785415 -0.35851252 3 0.2933991 -0.3287015 -0.89770395
3 0.05412811 0.99850142 -0.008067281 3 0.9773621 -0.051323835 0.20525391 3 0.20453227 -0.018994663 -0.97867548
3 0.80061489 0.59717685 0.04894362 3 0.58688015 -0.79802597 0.13684353 3 0.12077808 -0.080834933 -0.98938286
3 0.96537715 -0.066691101 0.25218892 3 -0.13016757 -0.96096033 0.24415544 3 0.22606052 -0.26852888 -0.93637019
3 0.86555099 0.47964868 0.14407793 3 0.44230121 -0.86704677 0.22934499 3 0.23492734 -0.13478398 -0.96262252
3 -0.99308038 0.0012687445 -0.11742894 3 0.0094438307 0.99756593 -0.069087118 3 0.11705547 -0.069718055 -0.99067527
3 -0.51730084 -0.85496539 -0.037866909 3 -0.85577899 0.51711404 0.015332158 3 0.0064730444 0.040337045 -0.99916506
3 -0.36439776 0.89361143 0.26205516 3 0.93116486 0.35329759 0.090071134 3 -0.012094864 0.27683827 -0.9608404
3 -0.48054761 -0.87682086 0.016095897 3 -0.86990333 0.4742707 -0.13540749 3 0.11109431 -0.079071626 -0.99065912
3 0.074682266 0.98896092 -0.12798056 3 0.99576259 -0.067050889 0.062939979 3 0.053663962 -0.13213873 -0.98977762
3 -0.77732414 -0.62389344 -0.080772229 3 -0.62892872 0.76768202 0.12293468 3 -0.014690747 0.14636008 -0.98912227
3 0.6768592 0.7352196 0.036249802 3 0.73362887 -0.66971475 -0.11520141 3 -0.060421295 0.104569 -0.99268061
3 0.97851658 -0.19391635 0.070012748 3 -0.19738536 -0.97922105 0.04653246 3 0.059534546 -0.059352271 -0.99646026
3 0.99711394 0.060995847 -0.045200776 3 0.056184322 -0.99329931 -0.10099295 3 -0.051058073 0.098161921 -0.99385977
3 -0.83261162 0.52879637 0.16471946 3 0.53924209 0.84183133 0.023202345 3 -0.12639667 0.10814219 -0.98606759
3 0.25299394 0.9663384 0.046735361 3 0.95769817 -0.24329905 -0.15368721 3 -0.13714318 0.083640307 -0.9870137
3 0.97006172 0.2428081 -0.0049561635 3 0.24058706 -0.95800322 0.1560377 3 0.033139206 -0.15255858 -0.98773867
3 0.99598157 -0.02647841 -0.085554555 3 -0.017922245 -0.99489903 0.099271372 3 -0.087746695 -0.097339123 -0.99137568
3 -0.98892617 0.11072063 -0.098822564 3 0.14022687 0.91515589 -0.37792358 3 0.048594151 -0.3875961 -0.92054766
3 -0.20300999 0.97857928 -0.034200072 3 0.93430942 0.18313798 -0.30582124 3 -0.29300699 -0.094038218 -0.95147461
3 -0.30217531 -0.92888802 0.21414265 3 -0.95009619 0.27521163 -0.14688721 3 0.07750722 -0.24784182 -0.96569514
3 0.76221848 -0.58917791 0.26812759 3 -0.64713234 -0.70352525 0.29372087 3 0.015580684 -0.39739349 -0.91751599
3 -0.00030761957 0.91128087 -0.41178522 3 0.99910116 0.017735049 0.038501307 3 0.042388536 -0.41140327 -0.91046727
3 0.2810145 0.95499003 -0.094999649 3 0.94887096 -0.29130894 -0.12158599 3 -0.14378765 -0.055974998 -0.98802429
3 -0.63736308 0.51105362 0.57670832 3 0.61858028 0.78562152 -0.012544408 3 -0.45948532 0.34874505 -0.81685388
3 -0.070848942 -0.85194898 0.5188095 3 -0.98047078 -0.036181368 -0.19330794 3 0.18345974 -0.52237326 -0.8327477
3 0.72114134 0.66916633 -0.17936386 3 0.67023873 -0.60836482 0.42505544 3 0.17531416 -0.42674172 -0.88721842
3 0.52945399 -0.8475647 -0.036233127 3 -0.82981277 -0.52629638 0.18553557 3 -0.1763227 -0.068165831 -0.98196942
3 -0.62401569 0.78046244 0.038506143 3 0.77815175 0.6251539 -0.06051613 3 -0.071302839 -0.0077993898 -0.99742419
3 -0.70666826 0.47150072 0.52754802 3 0.64125407 0.74190003 0.19590157 3 -0.29902023 0.47672981 -0.8266291
3 -0.90190667 -0.3852033 -0.19540456 3 -0.12495165 0.66573721 -0.73565042 3 0.41346303 -0.63907176 -0.64856452
3 0.61702776 0.76126289 -0.19938865 3 0.72331911 -0.4488323 0.52474713 3 0.3099784 -0.46800503 -0.82757777
3 -0.90672255 -0.045500487 -0.41926625 3 0.14283788 0.9022699 -0.40682516 3 0.39680201 -0.42876452 -0.81160903
3 0.65595901 0.75471008 -0.011431813 3 0.64419287 -0.55188107 0.52956897 3 0.39336196 -0.35473976 -0.84819001
3 0.66247541 -0.65153068 -0.36964056 3 -0.73308313 -0.66533983 -0.14111072 3 -0.15399861 0.36445963 -0.91839737
3 -0.30971736 0.68241692 0.66210449 3 0.93168283 0.35684687 0.068025485 3 -0.18984815 0.63793999 -0.7463178
3 -0.72021568 -0.69361079 0.013917178 3 -0.41881707 0.41871399 -0.80577362 3 0.55306584 -0.58615941 -0.59206027
3 0.69271064 0.72114927 -0.0097595397 3 0.58713639 -0.5560208 0.58831209 3 0.41883448 -0.41326046 -0.80857486
3 -0.06509909 -0.98137128 0.1807553 3 -0.93985635 -0.0005672425 -0.3415693 3 0.33530888 -0.19211985 -0.92231113
3 -0.70153463 -0.69616336 -0.15233435 3 -0.65753734 0.71475053 -0.23827785 3 0.274764 -0.066992022 -0.95917511
3 0.33338881 -0.93671143 -0.10688057 3 -0.93948948 -0.32060343 -0.1207176 3 0.078812368 0.14065607 -0.9869166
3 0.63110578 -0.26074511 -0.73055965 3 -0.51418161 -0.84579253 -0.14231107 3 -0.58079487 0.46545365 -0.66785508
3 0.72318918 -0.072492667 0.68683481 3 -0.39978752 -0.8548646 0.33072084 3 0.5631761 -0.51376182 -0.64721054
3 0.88002104 -0.24317434 0.40795732 3 -0.32053703 -0.93794346 0.13235587 3 0.3504554 -0.24724139 -0.90335637
3 -0.92241943 -0.12785888 -0.36440998 3 0.048570432 0.89770234 -0.43791753 3 0.38312331 -0.42164314 -0.8218478
3 -0.010386288 -0.92344201 -0.38359764 3 -0.95666999 -0.10245839 0.27255285 3 -0.29098949 0.36980709 -0.88236493
3 -0.14127094 -0.97747934 -0.1567698 3 -0.97041076 0.10540845 0.21723731 3 -0.19581924 0.18282636 -0.96344656
3 0.83953285 -0.19745526 0.50615793 3 -0.36471117 -0.89533794 0.25564712 3 0.40270361 -0.39922568 -0.82367992
3 0.061289094 -0.99375868 -0.093205854 3 -0.99682152 -0.065703467 0.045051895 3 -0.050894663 0.090148412 -0.99462694
3 0.46127114 0.88725907 0.00035915524 3 0.88069981 -0.45791015 0.12118533 3 0.10768726 -0.055583004 -0.99262977
3 -0.0484768 -0.97712618 -0.2070614 3 -0.9659313 -0.0069006495 0.25870621 3 -0.25421748 0.21254829 -0.94350231
3 0.67154562 -0.62549722 0.39721471 3 -0.71688956 -0.68401635 0.13487342 3 0.18733852 -0.37533286 -0.90776074
3 0.85844707 -0.50066364 0.11137608 3 -0.51019198 -0.85582936 0.085208334 3 0.052658193 -0.12997001 -0.99011868
3 -0.0096527636 0.99044818 -0.13754727 3 0.98847198 0.030236099 0.14835484 3 0.15109667 -0.13452956 -0.97932208
3 -0.94021571 0.33975163 -0.023730166 3 0.33859116 0.939973 0.042504802 3 0.036746792 0.031928863 -0.9988144
3 -0.615753 0.76296276 0.19681516 3 0.7866199 0.6096856 0.097533748 3 -0.045580752 0.21487539 -0.97557729
3 0.97872692 -0.15470278 0.13476054 3 -0.16902342 -0.98029858 0.10220252 3 0.11629456 -0.12280607 -0.98559326
3 -0.092826545 0.97364831 0.20830815 3 0.99534607 0.096178599 -0.0059987921 3 -0.025875498 0.20678183 -0.97804481
3 -0.87864697 -0.47392729 -0.058072105 3 -0.46567538 0.82370895 0.32349637 3 -0.10547926 0.31128189 -0.94444567
3 -0.40670967 0.84948623 0.33609593 3 0.90609252 0.42203057 0.029775545 3 -0.11654883 0.31664398 -0.94135702
3 -0.70938838 -0.70406938 -0.032472868 3 -0.70477986 0.70907503 0.022315044 3 0.007314356 0.038716253 -0.99922347
3 -0.69228983 -0.71369457 -0.10665372 3 -0.71687734 0.66327065 0.21484683 3 -0.082594708 0.22519389 -0.97080684
3 -0.73673838 -0.66257012 -0.13497156 3 -0.6615895 0.66509736 0.34633017 3 -0.13969879 0.3444505 -0.9283523
3 -0.94717932 0.18837366 0.2595512 3 0.25429311 0.93427694 0.24992378 3 -0.1954136 0.30272466 -0.9328298
3 -0.38876989 -0.8839252 -0.25987339 3 -0.92133427 0.37266907 0.1107287 3 -0.0010291133 0.28247824 -0.9592731
3 0.7925027 -0.58454406 -0.17391904 3 -0.60748446 -0.78181565 -0.14045279 3 -0.053871777 0.21696231 -0.97469234
3 0.63520229 0.77211159 0.019023195 3 0.76378375 -0.62431258 -0.16391614 3 -0.11468511 0.11864951 -0.98629087
3 0.49465317 0.84649754 0.19687657 3 0.83721662 -0.40333718 -0.3693071 3 -0.23320985 0.34750718 -0.90821362
3 0.99917269 -0.031297892 -0.025970271 3 -0.032045532 -0.9990688 -0.028889744 3 -0.025041897 0.029698072 -0.99924517
3 0.90362191 -0.41700846 -0.097833328 3 -0.41650635 -0.90874702 0.026482824 3 -0.099949308 0.016817743 -0.9948504
3 0.95062447 -0.077836841 -0.3004241 3 -0.15829819 -0.9542523 -0.25366193 3 -0.26693612 0.28869382 -0.9194569
3 -0.65316027 0.54707837 0.5235334 3 0.65414774 0.7559129 0.026205987 3 -0.38140884 0.35958481 -0.85160208
3 -0.78533173 -0.60502052 0.13116471 3 -0.57337844 0.79074007 0.21439967 3 -0.23343341 0.093167834 -0.96789902
3 0.978953 0.1124067 -0.17033932 3 0.10104477 -0.99212641 -0.073990919 3 -0.17731522 0.055221755 -0.98260349
3 0.93879157 0.26864815 -0.21563512 3 0.18422127 -0.92045313 -0.34471497 3 -0.29108909 0.28389093 -0.91360438
3 0.78319627 0.62040603 -0.041234344 3 0.51684886 -0.6864627 -0.51150459 3 -0.34564629 0.37929639 -0.85829091
3 0.63378114 0.7657001 0.10965747 3 0.57789898 -0.37449053 -0.72511327 3 -0.51415366 0.52293414 -0.67984241
3 0.63540167 -0.77060664 0.049296077 3 -0.77133745 -0.63042766 0.08717484 3 -0.0360999 -0.093414955 -0.99497259
3 0.44194353 0.89483654 0.062877618 3 0.8462491 -0.39264166 -0.36013177 3 -0.29757068 0.21236803 -0.93077999
3 0.94273865 0.24577349 -0.22547516 3 0.16471782 -0.93090671 -0.32600641 3 -0.29002014 0.27019912 -0.91808522
3 0.75525987 0.64998263 0.084292412 3 0.62299138 -0.67196798 -0.40042597 3 -0.20362808 0.3549391 -0.91244394
3 0.91407382 0.21342432 -0.34484655 3 -0.020990416 -0.82428503 -0.56578577 3 -0.40500423 0.5244084 -0.74897748
3 0.32162941 -0.89436382 0.31091458 3 -0.90823978 -0.38423258 -0.16572747 3 0.26768416 -0.2290822 -0.93587732
3 0.63294053 -0.73276103 0.24989496 3 -0.73932928 -0.66786057 -0.085758872 3 0.22973575 -0.13047439 -0.96446776
3 -0.47628185 0.85326564 0.21235181 3 0.86460155 0.49842367 -0.063544318 3 -0.16006136 0.15333472 -0.97512501
3 -0.9379667 -0.3052904 0.16436629 3 -0.33023366 0.93105674 -0.15517479 3 -0.10566098 -0.19982807 -0.97411734
3 -0.71113396 -0.43314341 0.5537827 3 -0.56904578 0.81719232 -0.091563523 3 -0.41288689 -0.38024166 -0.82761157
3 -0.16573933 -0.9690116 0.18315828 3 -0.96856815 0.12501548 -0.21505101 3 0.18548931 -0.2130437 -0.95927376
3 -0.69035548 -0.72059596 0.064427443 3 -0.71412367 0.66446066 -0.22027153 3 0.11591727 -0.1980748 -0.9733085
3 -0.93512917 0.35429206 -0.0032756515 3 0.3404676 0.89600497 -0.28505638 3 -0.098058209 -0.26767975 -0.95850521
3 -0.97595739 0.0038161278 0.21792808 3 -0.048736036 0.97071111 -0.23525491 3 -0.21244296 -0.24021971 -0.94718665
3 0.69149995 0.6656397 -0.28062746 3 0.70293689 -0.70955753 0.049072824 3 -0.16645648 -0.23119721 -0.95856154
3 -0.98002434 -0.10337143 -0.16990173 3 -0.038409434 0.93659878 -0.34829178 3 0.19513318 -0.33480862 -0.9218601
3 0.42009306 -0.89745879 0.13449624 3 -0.89856613 -0.39064935 0.19992884 3 -0.12688704 -0.20484258 -0.9705354
3 0.83806831 -0.53589624 0.10225734 3 -0.53261799 -0.76308781 0.36608022 3 -0.11814969 -0.36126438 -0.92494786
3 -0.72506344 0.67327529 -0.1448562 3 0.67890042 0.66345 -0.31452855 3 -0.11565947 -0.32639611 -0.93813026
3 -0.021700382 0.9931888 0.11447737 3 0.99042088 0.0369743 -0.13303895 3 -0.13636553 0.11049378 -0.98447728
3 -0.98225808 -0.04675895 0.1816116 3 0.031629365 0.91323775 0.40619782 3 -0.18484794 0.4047353 -0.89555609
3 -0.63989538 -0.49938816 -0.58407652 3 -0.71235096 0.10037367 0.69460881 3 -0.28825349 0.86054444 -0.41996831
3 -0.99471748 0.068003058 -0.076894104 3 0.099605411 0.82052511 -0.56286532 3 0.02481705 -0.56755108 -0.82296413
3 -0.32593736 0.86479783 -0.38195497 3 0.94529796 0.29243988 -0.14453681 3 -0.013296191 -0.40817136 -0.9128086
3 0.44139004 -0.89019316 0.11283202 3 -0.89590281 -0.43014434 0.11105906 3 -0.050329939 -0.15010691 -0.9873879
3 -0.71060032 0.67440951 0.20054667 3 0.69942737 0.70806897 0.097158685 3 -0.076476112 0.2093088 -0.97485447
3 -0.98024476 -0.18966517 0.056102887 3 -0.15084231 0.90034306 0.40820235 3 -0.12793362 0.39167544 -0.91116589
3 -0.92849195 -0.35048741 -0.12272407 3 -0.3241477 0.6036793 0.72835392 3 -0.18119292 0.71605152 -0.67412108
3 0.059753299 -0.78077579 0.62194753 3 -0.99325794 -0.10851128 -0.040795319 3 0.09934032 -0.61531663 -0.78199565
3 0.32543832 0.86756122 -0.37606838 3 0.94430375 -0.31871533 0.081920072 3 -0.048786115 -0.38177747 -0.92296576
3 -0.022876916 0.98564076 -0.16729896 3 0.99957407 0.019517021 -0.021700079 3 -0.018123453 -0.16771773 -0.98566848
3 0.38275665 -0.90104634 -0.2039921 3 -0.92098647 -0.38952145 -0.0075337887 3 -0.072671004 0.19075757 -0.97894353
3 -0.88485914 0.43172839 0.17502791 3 0.46560541 0.8319692 0.30172595 3 -0.015354171 0.34847897 -0.93719077
3 -0.15775454 0.72056234 0.67520618 3 0.97558087 0.21954852 -0.0063626096 3 -0.15282518 0.65771455 -0.73760164
3 0.32934561 0.85483497 -0.40098467 3 0.9429276 -0.3198882 0.092515871 3 -0.049183078 -0.40856561 -0.91140288
3 0.60640013 -0.77112967 0.19400467 3 -0.79455262 -0.57809424 0.18572333 3 -0.031063804 -0.26676959 -0.96325964
3 0.62831694 -0.74202287 -0.23370953 3 -0.77090549 -0.63422006 -0.058907151 3 -0.1045128 0.21718027 -0.97052044
3 0.99337554 0.11417481 -0.013008296 3 0.097577348 -0.89788008 -0.42929047 3 -0.060694069 0.42517731 -0.90307295
3 -0.022950111 -0.79284382 -0.6089927 3 -0.99181241 -0.058489405 0.1135238 3 -0.12562618 0.60661429 -0.78500795
3 -0.97195613 -0.22138184 0.079318404 3 -0.1044462 0.70859104 0.69784641 3 -0.21069477 0.66999161 -0.71184188
3 0.067177743 0.82330942 -0.56360322 3 0.99156451 0.0076659694 0.12938629 3 0.11084524 -0.56754458 -0.8158471
3 0.42294812 -0.86429536 0.27222827 3 -0.90397751 -0.38163358 0.19282162 3 -0.062763393 -0.32764184 -0.94271499
3 0.29657456 -0.90441561 -0.30671781 3 -0.9345963 -0.34090823 0.10154362 3 -0.19640027 0.25654209 -0.94636828
3 0.99082631 0.0065565407 -0.13498203 3 -0.055563305 -0.89072961 -0.4511244 3 -0.12319034 0.45448601 -0.8821941
3 -0.58038551 -0.6401636 -0.50333202 3 -0.80425298 0.35360479 0.47764072 3 -0.12778571 0.68202418 -0.72007906
3 -0.58035749 -0.63965809 -0.50400662 3 -0.80232555 0.34310398 0.488419 3 -0.13949497 0.6878345 -0.71233743
3 -0.79377431 -0.52291566 -0.31061485 3 -0.57788783 0.48918131 0.65325904 3 -0.18965238 0.69804078 -0.69048613
3 -0.23749876 -0.49568558 0.8353982 3 -0.94185221 -0.092951097 -0.32291576 3 0.23771587 -0.86351377 -0.44478676
3 -0.063474134 -0.89823377 0.43491048 3 -0.99564147 0.027156636 -0.089224048 3 0.068333343 -0.43867835 -0.89604253
3 0.025458932 -0.98046863 -0.1950216 3 -0.97618604 -0.066425212 0.2065165 3 -0.21543725 0.18511963 -0.95881063
3 0.75492036 0.64590079 0.11361188 3 0.62392181 -0.65397859 -0.42782497 3 -0.2020327 0.39385861 -0.89669317
3 -0.044469837 -0.75516587 -0.65402365 3 -0.98729253 -0.066758022 0.1442121 3 -0.15256539 0.65212548 -0.7426011
3 -0.73107761 -0.55816311 -0.39240214 3 -0.66234672 0.44253588 0.604532 3 -0.16377635 0.70186538 -0.6932261
3 -0.85417855 0.26123685 0.44959342 3 0.50600278 0.6167267 0.60300034 3 -0.11975034 0.74256551 -0.65898132
3 -0.27865666 0.28216004 -0.91800654 3 0.93209827 0.30976081 -0.18772556 3 0.23139347 -0.90798312 -0.34931904
3 0.41346535 0.75821424 -0.50414056 3 0.90292084 -0.27004477 0.33438036 3 0.11739191 -0.59345275 -0.79626209
3 0.70369744 -0.70852458 0.052942116 3 -0.70946318 -0.69669372 0.10620677 3 -0.038365681 -0.11229791 -0.99293363
3 0.78752661 -0.48979309 -0.37403828 3 -0.59391266 -0.76520705 -0.2484476 3 -0.16452879 0.41780514 -0.89351517
3 0.1791546 -0.81409246 -0.55241019 3 -0.95271993 -0.28362557 0.10900101 3 -0.24541467 0.50676471 -0.8264147
3 0.33991998 -0.63028389 -0.69799477 3 -0.93222153 -0.32380831 -0.16159087 3 -0.12416908 0.70561498 -0.6976316
3 -0.97876734 0.044228818 0.20014662 3 0.16608511 0.74337727 0.6479249 3 -0.12012743 0.66740888 -0.73493892
3 0.062574841 0.76454514 -0.64152557 3 0.99165642 0.024956666 0.12646922 3 0.11270157 -0.64408928 -0.75660241
3 0.540986 -0.77255869 0.33239609 3 -0.83904976 -0.52288681 0.1502829 3 0.057703149 -0.36019781 -0.9310897
3 0.30790275 -0.89213002 -0.33060527 3 -0.93327409 -0.35074818 0.077298559 3 -0.1849179 0.28474003 -0.9406001
3 0.0019437373 -0.83840799 -0.54503965 3 -0.97569722 -0.1210168 0.18267469 3 -0.21911488 0.53143865 -0.81826758
3 0.21812442 0.66809857 0.71138322 3 0.969468 -0.064649127 -0.23654291 3 -0.11204366 0.74125904 -0.66180164
3 -0.55700582 0.36609736 -0.7454645 3 0.80207098 0.47000271 -0.3684836 3 0.21547076 -0.80316377 -0.5554285
3 -0.54674697 0.74328792 -0.38547492 3 0.83518296 0.51683486 -0.18801916 3 0.059474476 -0.42474094 -0.90335923
3 0.02496323 0.98601311 -0.16478738 3 0.9979828 -0.014955009 0.061697923 3 0.058370572 -0.16599517 -0.98439759
3 0.74196279 -0.56902152 -0.35455 3 -0.66943097 -0.65779275 -0.34521127 3 -0.036787741 0.49348068 -0.86897838
3 0.82824689 -0.26298004 -0.49482197 3 -0.54502678 -0.58323985 -0.60231012 3 -0.13020431 0.76855254 -0.62639761
3 -0.22550598 0.85217708 -0.47216651 3 0.94734126 0.30490777 0.097855948 3 0.22735785 -0.42523572 -0.87606108
3 0.28020513 -0.95455629 0.1015254 3 -0.95599961 -0.28706297 -0.060495056 3 0.086890116 -0.080107212 -0.99299192
3 0.99608529 0.068041414 -0.056430951 3 0.032758377 -0.87705404 -0.47927353 3 -0.082103424 0.47554871 -0.87584955
3 -0.52735662 -0.69303119 -0.49153113 3 -0.83186293 0.30341265 0.46469891 3 -0.17291406 0.65394849 -0.73651356
3 -0.22060926 0.82932794 -0.51336801 3 0.94859922 0.30488315 0.084887139 3 0.22691798 -0.46825901 -0.85395652
3 0.51040792 -0.84080732 0.18035108 3 -0.83794147 -0.53342044 -0.11539638 3 0.19322912 -0.092224441 -0.97680962
3 0.6333198 -0.76753807 -0.098951302 3 -0.77111834 -0.61505949 -0.16455525 3 0.065441489 0.18051924 -0.98139203
3 0.56580991 -0.66365987 -0.48930013 3 -0.81834376 -0.52458346 -0.23478845 3 -0.10085909 0.53326142 -0.83991653
3 -0.32991457 0.43896744 0.83574164 3 0.91065276 0.38125598 0.1592342 3 -0.24873284 0.813604 -0.52552873
3 0.19982395 0.6623404 -0.72206348 3 0.90230346 0.162907 0.3991363 3 0.38199347 -0.73127663 -0.56508005
3 -0.031976908 0.9029417 -0.4285717 3 0.93562722 0.17785585 0.30490816 3 0.35153827 -0.39123333 -0.85050422
3 -0.46028218 0.87176794 -0.16781197 3 0.87635881 0.47638661 0.071069017 3 0.14189908 -0.1143517 -0.9832539
3 -0.10769568 -0.96984118 -0.21865439 3 -0.98773521 0.079367906 0.13446128 3 -0.11305252 0.23044831 -0.96649504
3 0.29702705 -0.57044464 -0.76574665 3 -0.91897804 -0.38857621 -0.066993579 3 -0.25933474 0.72360313 -0.63964373
3 0.031675234 0.91153628 -0.40999806 3 0.95457244 0.094011568 0.28276053 3 0.29629099 -0.40032929 -0.86714947
3 -0.25288439 0.9125554 -0.32139108 3 0.9513405 0.29499459 0.089049585 3 0.1760713 -0.28323308 -0.94275033
3 -0.19841334 0.85409188 0.48079032 3 0.97313786 0.23011118 -0.0071810037 3 -0.11676845 0.46645039 -0.8768062
3 -0.69974613 0.43293571 0.5682624 3 0.66404223 0.68750972 0.29390207 3 -0.26344523 0.58300704 -0.76856977
3 0.076394022 -0.74834043 0.65890098 3 -0.95208418 -0.25102204 -0.17470971 3 0.29614103 -0.61398244 -0.73165977
3 0.52299976 -0.69454801 0.49403894 3 -0.83956969 -0.51973307 0.15811543 3 0.14694956 -0.49747434 -0.85494161
3 0.86336315 -0.49444494 -0.10063902 3 -0.50255656 -0.86047602 -0.083773077 3 -0.045176286 0.12290339 -0.99138987
3 0.91359466 -0.23739339 -0.33013505 3 -0.3670997 -0.83069283 -0.41855398 3 -0.17487888 0.50358117 -0.84606355
3 0.74702859 -0.029984169 -0.66411549 3 -0.59516579 -0.47524279 -0.64801395 3 -0.29618588 0.87934369 -0.3728655
3 0.73768234 -0.56885934 0.36362618 3 -0.64074886 -0.75960422 0.11154636 3 0.21275771 -0.31527874 -0.92484248
3 0.99133003 0.12029505 -0.052857891 3 0.12247021 -0.99166447 0.040033236 3 -0.047601491 -0.046159666 -0.99779928
3 0.7367965 0.67587954 0.01782541 3 0.63415116 -0.68168312 -0.36491138 3 -0.23448485 0.28016943 -0.93087155
3 0.59462541 -0.58347589 -0.55315143 3 -0.72666013 -0.68444371 -0.059177607 3 -0.3440721 0.43714139 -0.83097649
3 0.21665391 0.8869952 -0.40779957 3 0.96333706 -0.12653118 0.23658241 3 0.15824813 -0.44410497 -0.88188899
3 0.25846806 -0.72920358 0.63360596 3 -0.96428573 -0.15547168 0.21443386 3 -0.057858147 -0.66640145 -0.74334502
3 0.6975528 -0.58483571 -0.41398948 3 -0.59913778 -0.79295892 0.11068026 3 -0.39300641 0.1708314 -0.90352786
3 0.82784367 0.46751058 -0.31001413 3 0.28725627 -0.82799488 -0.48156863 3 -0.48182851 0.30961004 -0.8197456
3 -0.9284935 -0.3707889 -0.020383673 3 -0.10462176 0.3138617 -0.94368696 3 0.35630676 -0.8740744 -0.3302111
3 -0.45122704 0.49362028 -0.74346036 3 0.88159025 0.37589255 -0.28548825 3 0.13853839 -0.78424734 -0.60478365
3 0.95741916 0.18870559 -0.21849209 3 0.24975821 -0.9209919 0.2989901 3 -0.14481372 -0.34083009 -0.92890477
3 0.89038432 0.22396018 -0.39630502 3 -0.018458366 -0.85211986 -0.52302128 3 -0.45483527 0.47300506 -0.7545802
3 0.44470391 -0.76667678 -0.46308213 3 -0.8924377 -0.33534276 -0.3018277 3 0.076113053 0.54749596 -0.83333963
3 0.18885489 0.604783 -0.77367383 3 0.92995906 0.14293836 0.33873966 3 0.315451 -0.78346002 -0.53542602
3 0.87724513 0.46978629 -0.098700911 3 0.38209668 -0.5588727 0.73597801 3 0.29059112 -0.68334639 -0.66977215
3 -0.95285225 -0.28872079 0.093343645 3 -0.27254581 0.67912585 -0.68154776 3 0.13338488 -0.67485464 -0.72579616
3 0.33983526 -0.35901478 -0.86926436 3 -0.89361763 -0.41139686 -0.17944509 3 -0.29318917 0.83777159 -0.46062905
3 -0.57876611 -0.044762719 -0.81426418 3 0.69578636 0.49367774 -0.52169299 3 0.42533669 -0.86849207 -0.25457835
3 -0.92268527 -0.32294458 -0.2106151 3 -0.049577281 0.64110994 -0.76584607 3 0.38235331 -0.6961931 -0.60755336
3 -0.84454888 -0.53546453 -0.0038685799 3 -0.3647438 0.58054292 -0.7279644 3 0.39204493 -0.61339045 -0.68560421
3 -0.84296399 0.41180715 -0.34615946 3 0.34450695 0.90743268 0.24058366 3 0.41319057 0.083549023 -0.90680367
3 nan nan nan 3 nan nan nan 3 nan nan nan
3 0.82193422 0.55095154 0.14448841 3 0.16014455 -0.46697789 0.86964691 3 0.546606 -0.69165325 -0.47205681
3 -0.73993289 0.18475904 -0.64681017 3 0.47853261 0.82035148 -0.3130976 3 0.47276407 -0.54119098 -0.69541824
3 0.47124821 -0.69325161 -0.545277 3 -0.87863058 -0.31499529 -0.35886732 3 0.077025667 0.64821285 -0.75755328
3 0.45833242 0.5425725 0.70395064 3 0.88024473 -0.16760018 -0.44393659 3 -0.12288547 0.82311934 -0.55441308
3 -0.26337481 0.76239157 -0.59109455 3 0.95023048 0.31072569 -0.022622645 3 0.1664205 -0.56763303 -0.80628604
3 0.27729115 0.88316566 -0.37832254 3 0.80410451 0.0021916926 0.59448397 3 0.52585709 -0.46905604 -0.70954984
3 -0.85793978 -0.14908347 -0.49164379 3 0.17028746 0.82035106 -0.54591793 3 0.48470774 -0.5520854 -0.67842466
3 0.29068699 -0.60567719 -0.74071336 3 -0.92518729 -0.37532991 -0.056177124 3 -0.24398667 0.70162851 -0.66946834
3 0.90337384 0.35947412 -0.23386775 3 -0.055387229 -0.44296765 -0.89482522 3 -0.42526266 0.82131481 -0.38025498
3 -0.92049158 -0.30802357 -0.24045119 3 -0.086993083 0.76142979 -0.64238369 3 0.38095602 -0.57039118 -0.72768563
3 0.40099066 0.87437373 -0.27327138 3 0.83936167 -0.23117852 0.49196434 3 0.36698616 -0.42664653 -0.82661611
3 -0.44970396 0.87118703 0.1969759 3 0.89170444 0.42524692 0.15501091 3 0.051280096 0.24535331 -0.96807653
3 -0.85117149 -0.51784611 -0.085689276 3 -0.45053837 0.63704425 0.62545192 3 -0.26930001 0.57097304 -0.77554333
3 -0.55268508 0.35055175 -0.75607711 3 0.76213127 0.5796628 -0.28835252 3 0.33718702 -0.73559797 -0.58753794
3 -0.78025395 0.17022792 -0.6018523 3 0.44290566 0.82980812 -0.33948928 3 0.44163138 -0.5314517 -0.72285593
3 -0.61183953 0.78599346 0.088693842 3 0.78678203 0.59321314 0.17050484 3 0.081401333 0.17410433 -0.98135686
3 -0.83418477 -0.53866988 -0.11819699 3 -0.50932407 0.67032003 0.53968519 3 -0.21148241 0.51039767 -0.83352828
3 0.58748895 -0.39525056 -0.70613998 3 -0.77385563 -0.52958626 -0.34739906 3 -0.23665115 0.7505427 -0.61699444
3 0.89969379 0.052631661 0.43333703 3 -0.13786605 -0.90763444 0.39647555 3 0.41417879 -0.41644907 -0.80933696
3 -0.76385659 0.56717324 -0.30795723 3 0.60726547 0.79320055 -0.045401223 3 0.21852148 -0.22169183 -0.95031619
3 0.68500805 -0.51345587 -0.51684344 3 -0.70654023 -0.64120889 -0.29942 3 -0.17766562 0.57027572 -0.80201042
3 0.2318757 -0.76651925 -0.59890056 3 -0.94976658 -0.31143218 0.030874848 3 -0.21018444 0.56166112 -0.80022442
3 0.55651993 0.55393422 0.61922747 3 -0.019240439 -0.73651546 0.67614704 3 0.83061147 -0.38820341 -0.3992275
3 -0.47082081 0.74409747 -0.47396913 3 0.85990024 0.50715798 -0.057986811 3 0.19722939 -0.43486756 -0.8786301
3 0.38449115 -0.87911648 -0.28163916 3 -0.9172684 -0.39815786 -0.0094249323 3 -0.10385125 0.26196253 -0.95947409
3 -0.54414332 0.83899218 0.00049644895 3 0.82895386 0.53772384 -0.15391159 3 -0.12939756 -0.083338425 -0.98808455
3 -0.0087909997 -0.74262309 0.66965169 3 -0.97037435 -0.15536113 -0.18502951 3 0.24144509 -0.65143967 -0.71925682
3 0.95552355 -0.20509407 -0.21192202 3 -0.25540829 -0.9347629 -0.24695078 3 -0.14744872 0.29009399 -0.94557089
3 0.97034264 0.21382451 -0.11275736 3 0.12543339 -0.84411359 -0.52128589 3 -0.2066437 0.49168244 -0.84590018
3 0.75505191 -0.2542932 -0.60434377 3 -0.57756782 -0.69423354 -0.42948207 3 -0.31034142 0.6733309 -0.67105407
3 -0.92832386 -0.071809918 -0.36477131 3 0.24101362 0.63081717 -0.73755151 3 0.28306749 -0.77260154 -0.56829548
3 0.38315123 -0.84775746 -0.3667455 3 -0.85305333 -0.47704071 0.21149924 3 -0.35425264 0.23181729 -0.90596116
3 0.57328022 -0.25482145 -0.77872699 3 -0.68023717 -0.67783016 -0.27896917 3 -0.45675734 0.6896466 -0.56192571
3 0.486545 0.69622892 -0.52776808 3 0.83807546 -0.20130323 0.50705659 3 0.2467861 -0.68901539 -0.68143553
3 -0.95704108 -0.28987896 -0.0065195262 3 -0.1782195 0.60583371 -0.77537304 3 0.22871415 -0.74090195 -0.63146985
3 0.80568254 -0.011394233 -0.59223783 3 -0.40440428 -0.74113041 -0.53589427 3 -0.43281946 0.67126429 -0.60172379
3 -0.41645822 0.86971521 0.26487401 3 0.89935541 0.35143685 0.26010084 3 0.13312714 0.3465369 -0.9285416
3 -0.31427774 -0.76584798 -0.560987 3 -0.88247854 0.017851725 0.47001386 3 -0.34994453 0.64277387 -0.68145478
3 -0.78102803 -0.13256526 -0.61026353 3 0.45499808 0.5485512 -0.70147574 3 0.42775217 -0.82554102 -0.36811695
3 0.069570273 0.87031227 -0.48756173 3 0.97303379 0.048545089 0.2254968 3 0.21992138 -0.49010193 -0.84346598
3 0.3794052 -0.26852039 -0.88540876 3 -0.80061662 -0.57493556 -0.16870874 3 -0.46375117 0.77288181 -0.4331153
3 nan nan nan 3 nan nan nan 3 nan nan nan
3 -0.045134008 -0.3380782 0.9400351 3 -0.89866471 -0.39724156 -0.18601331 3 0.43630809 -0.85317189 -0.28588989
3 -0.88045406 0.10903043 -0.46142519 3 0.36706233 0.77275079 -0.51780474 3 0.30011016 -0.62527502 -0.72039241
3 -0.92143059 -0.38800061 -0.020524919 3 -0.26770571 0.67226392 -0.69021386 3 0.28160161 -0.63048947 -0.72331446
3 0.44021711 0.65009391 0.619344 3 0.7851541 0.055922389 -0.61677045 3 -0.43559381 0.75779325 -0.48580584
3 -0.80284965 -0.022289783 -0.5957647 3 0.39483562 0.72885847 -0.55934793 3 0.44669589 -0.68430144 -0.57636303
3 -0.90655857 -0.39407098 -0.15119413 3 -0.16262859 0.6566745 -0.736431 3 0.38949138 -0.64302933 -0.65940112
3 -0.89893216 -0.28299791 -0.33441433 3 -0.41954172 0.77586734 0.47118399 3 0.12611711 0.56386334 -0.81618172
3 -0.013700753 0.84887862 0.5284102 3 0.9863435 0.098218039 -0.13221082 3 -0.16413036 0.5193826 -0.83863157
3 0.77471143 0.1498524 0.61430168 3 -0.24803628 -0.82162726 0.51323211 3 0.58163601 -0.54997581 -0.5993551
3 -0.75855702 -0.01219067 -0.65149283 3 0.27792645 0.89826488 -0.34040818 3 0.58936274 -0.43928599 -0.67799687
3 -0.94636792 0.16604865 -0.27715653 3 0.032399744 0.90227753 0.42993715 3 0.32146248 0.39789888 -0.85926634
3 -0.19916937 -0.80328703 -0.5613035 3 -0.97851264 0.1941939 0.069296397 3 0.053336814 0.56304425 -0.82470387
3 -0.20306903 -0.83124578 -0.51748747 3 -0.9648869 0.25980076 -0.038686223 3 0.16660143 0.49146104 -0.85481578
3 0.035001412 -0.98565429 -0.16510758 3 -0.90126139 0.040259726 -0.4314011 3 0.43185955 0.16390477 -0.88692302
3 -0.082389861 0.86009556 0.50343603 3 0.99500775 0.042443689 0.090325117 3 0.056320529 0.5083645 -0.85929841
3 -0.69878626 0.6365453 0.32635498 3 0.70447379 0.69156963 0.15952337 3 -0.12415341 0.3413814 -0.93168908
3 -0.80025148 0.51594055 -0.30561882 3 0.4964591 0.85587788 0.14491895 3 0.3363471 -0.035758957 -0.94105899
3 -0.94932437 -0.31342331 -0.023436967 3 -0.31341043 0.93840551 0.14549732 3 -0.023608867 0.1454695 -0.98908114
3 -0.97364712 -0.22755542 -0.01515739 3 -0.22469033 0.96852374 -0.10712561 3 0.039057322 -0.10089683 -0.99412996
3 -0.99201488 0.11545211 -0.050766557 3 0.1181209 0.99157572 -0.053148758 3 0.044202756 -0.058720954 -0.99729526
3 0.11933279 -0.98729801 0.1048917 3 -0.99208575 -0.12272909 -0.026520917 3 0.039057311 -0.10089674 -0.99412996
3 -0.6843515 0.67630851 0.27252477 3 0.7173115 0.69152987 0.085150704 3 -0.13087089 0.25375819 -0.95837343
3 -0.75359106 -0.64426994 0.13044783 3 -0.64833641 0.69574422 -0.30919197 3 0.10844477 -0.31757843 -0.9420104
3 -0.16301352 -0.98563755 -0.044104565 3 -0.9812879 0.15732694 0.11100572 3 -0.10247257 0.061374713 -0.99284065
3 0.0133138 -0.99975991 -0.017399855 3 -0.99661225 -0.014680263 0.080922626 3 -0.081158638 0.01626353 -0.9965685
3 0.80658174 0.57483661 -0.1378001 3 0.57081568 -0.81799138 -0.071131587 3 -0.15360832 -0.021285009 -0.98790258
3 0.897071 0.42066827 -0.1352841 3 0.42326075 -0.90594804 -0.010412551 3 -0.12694058 -0.047919646 -0.9907521
3 0.79208529 -0.60452312 -0.08457429 3 -0.59237522 -0.79469931 0.13245666 3 -0.14728424 -0.054817256 -0.98757398
3 -0.67288661 0.66483533 0.32437271 3 0.70106494 0.71306103 -0.0071859956 3 -0.23607506 0.222571 -0.94590193
3 -0.80620492 0.37413061 0.45832258 3 0.53600323 0.7898311 0.29810536 3 -0.25046715 0.48599651 -0.83730125
3 0.86401922 0.49247491 -0.10459155 3 0.41874856 -0.81829572 -0.39375359 3 -0.27950051 0.29641309 -0.91324627
3 0.7078076 0.70548713 0.036004126 3 0.69482702 -0.68611139 -0.21556126 3 -0.12737285 0.17759255 -0.97582638
3 -0.88274652 -0.45862323 -0.10209565 3 -0.43010998 0.70131493 0.56847465 3 -0.18911444 0.54573125 -0.81634152
3 0.01501447 -0.88174433 -0.4714886 3 -0.97392297 -0.11965699 0.19275956 3 -0.22638156 0.45629942 -0.8605476
3 -0.88907486 -0.44809258 -0.093589827 3 -0.41687152 0.70808971 0.56993634 3 -0.18911424 0.54573095 -0.8163417
3 -0.70637 -0.60305083 -0.37063622 3 -0.7056973 0.55923313 0.43502867 3 -0.055072285 0.56884819 -0.82059675
3 -0.36251664 -0.85232729 -0.37698767 3 -0.92687911 0.37197274 0.050310835 3 0.097347863 0.36766058 -0.92485082
3 0.36112329 -0.88603872 -0.29073262 3 -0.92811364 -0.3112365 -0.20429723 3 0.090528652 0.34360933 -0.93473923
3 -0.9663375 0.15504281 0.2053137 3 0.23667175 0.84863496 0.47308108 3 -0.10088854 0.50574785 -0.85676187
3 0.66458923 -0.72651249 -0.17464463 3 -0.73427492 -0.59169614 -0.33277041 3 0.13842531 0.34939277 -0.92669475
3 0.75156534 -0.64533365 -0.13672598 3 -0.65085232 -0.69167483 -0.31301317 3 0.10742803 0.32423827 -0.93985575
3 0.24762048 0.82908475 0.50130087 3 0.96768016 -0.18614426 -0.17013346 3 -0.047740765 0.52722746 -0.848382
3 0.81760371 0.50976664 0.26769829 3 0.57290828 -0.67386091 -0.46657038 3 -0.0574506 0.53483611 -0.84300053
3 -0.95488834 -0.29681545 -0.0094242692 3 -0.24649568 0.77450693 0.58256245 3 -0.16561438 0.55860513 -0.81273139
3 -0.57738882 -0.77298248 -0.26290685 3 -0.79595667 0.46117759 0.39213237 3 -0.18186475 0.43567541 -0.88153952
3 -0.054393619 -0.85080278 -0.52266228 3 -0.98400092 -0.04326297 0.17282982 3 -0.16965604 0.52370107 -0.83483762
3 -0.43427259 -0.85552657 -0.28192472 3 -0.89074111 0.36125845 0.27581221 3 -0.13411702 0.37089962 -0.91893744
3 0.29116324 0.88935959 0.35251009 3 0.94135803 -0.20067416 -0.27124712 3 -0.17049658 0.41081539 -0.89563483
3 0.95646608 -0.14949381 -0.25064743 3 -0.23686168 -0.89937884 -0.36744279 3 -0.17049658 0.41081539 -0.89563483
3 0.89861834 0.43871593 -0.0036686659 3 0.40510949 -0.8329348 -0.37696937 3 -0.16843827 0.33726534 -0.92621845
3 -0.77843118 0.54335815 0.31433582 3 0.60500634 0.78292519 0.14489922 3 -0.16736928 0.30296922 -0.93818831
3 0.16628727 -0.92930293 -0.32976481 3 -0.97176975 -0.21120125 0.10515676 3 -0.16736919 0.30296919 -0.93818831
3 -0.9327547 -0.34449399 0.10626614 3 -0.28157961 0.88023371 0.38197044 3 -0.22512555 0.32636237 -0.91804469
3 -0.26420635 -0.95109361 -0.16005023 3 -0.93013418 0.20738614 0.30305323 3 -0.25503975 0.22893678 -0.93943733
3 0.71726191 0.69648248 -0.021152355 3 0.68392074 -0.7094866 -0.16994441 3 -0.13337062 0.10742813 -0.98522663
3 0.93374681 0.34429294 -0.097873665 3 0.33241972 -0.93552601 -0.11953299 3 -0.13271773 0.079078414 -0.98799419
3 -0.69576991 -0.71279711 -0.088455588 3 -0.69576353 0.63825965 0.32945052 3 -0.17836963 0.2907702 -0.94001967
3 -0.94921428 -0.30249497 0.086539231 3 -0.25918821 0.9077161 0.32995915 3 -0.17836963 0.2907702 -0.94001967
3 -0.77950156 -0.62359279 -0.059238523 3 -0.60448319 0.7240594 0.33217162 3 -0.16424564 0.29473862 -0.94135678
3 -0.933438 -0.35429752 -0.056274347 3 -0.31858408 0.74657869 0.58405858 3 -0.16492093 0.56310916 -0.80975866
3 nan nan nan 3 nan nan nan 3 nan nan nan
3 nan nan nan 3 nan nan nan 3 nan nan nan
3 nan nan nan 3 nan nan nan 3 nan nan nan
3 nan nan nan 3 nan nan nan 3 nan nan nan
3 0.44119102 0.88827008 0.12777634 3 0.82010514 -0.34126318 -0.45931152 3 -0.36438948 0.30742979 -0.87903768
3 0.92548388 0.29997036 -0.23129486 3 0.21121037 -0.91555274 -0.34227684 3 -0.31444091 0.26791811 -0.91068488
3 0.94621533 0.31771904 -0.061083168 3 0.31602365 -0.94807124 -0.035916291 3 -0.069325052 0.01467996 -0.99748611
3 0.97225463 0.22492531 -0.064261258 3 0.22341652 -0.9742654 -0.029865619 3 -0.069325052 0.01467996 -0.99748611
3 0.99782872 0.0026939984 -0.065806985 3 9.3504786e-07 -0.99916381 -0.040889464 3 -0.065881446 0.040800571 -0.99699306
3 -0.92857146 -0.33665216 0.15626988 3 -0.36142939 0.72444087 -0.58698744 3 0.084406227 -0.6015389 -0.79437184
3 nan nan nan 3 nan nan nan 3 nan nan nan
0 0 0 1 0 0 0 1 0 0 0 1 0 0 0 0 0 379 1 0 0
