ply
format ascii 1.0
comment PCL generated
element vertex 35
property list uint float x_axis
property list uint float y_axis
property list uint float z_axis
element camera 1
property float view_px
property float view_py
property float view_pz
property float x_axisx
property float x_axisy
property float x_axisz
property float y_axisx
property float y_axisy
property float y_axisz
property float z_axisx
property float z_axisy
property float z_axisz
property float focal
property float scalex
property float scaley
property float centerx
property float centery
property int viewportx
property int viewporty
property float k1
property float k2
end_header
3 nan nan nan 3 nan nan nan 3 nan nan nan
3 0.50969785 -0.14991827 0.84719104 3 0.69512904 0.65198535 -0.30283758 3 -0.50695544 0.74326283 0.43652773
3 0.4545036 -0.19981265 0.86804461 3 0.73240906 0.63846338 -0.23651953 3 -0.50695544 0.74326283 0.43652773
3 0.3920432 -0.2521984 0.88470227 3 0.76765788 0.61964238 -0.16353779 3 -0.50695544 0.74326283 0.43652773
3 0.35438156 -0.59311974 0.7229265 3 0.4641467 0.78271222 0.41464388 3 -0.81177682 0.18860175 0.5526734
3 0.60548151 -0.29008538 0.74110913 3 0.12581316 0.95438522 0.27077746 3 -0.78585178 -0.070709586 0.61435944
3 0.54345536 0.20038162 0.81517088 3 -0.092235088 0.97946548 -0.17927682 3 -0.83435547 0.022241592 0.55077797
3 -0.11064702 0.95725095 -0.26726064 3 -0.70905232 -0.26446444 -0.65368509 3 -0.69642133 0.11717342 0.70800292
3 -0.50534189 0.5188905 -0.68947971 3 -0.69685137 -0.71664548 -0.028590187 3 -0.50894767 0.46601704 0.72374052
3 -0.64751971 0.27212858 -0.71180379 3 -0.19233891 -0.96218616 -0.19288337 3 -0.73737657 0.012011791 0.67537516
3 -0.95560902 0.25415742 0.14904836 3 0.11617488 -0.13985948 0.98333251 3 0.27076709 0.95699704 0.10412427
3 -0.87060273 -0.15771438 -0.46602255 3 -0.11320093 -0.85759676 0.50171041 3 -0.47878641 0.48954469 0.7287727
3 -0.90711147 0.33498409 0.25482267 3 0.23564047 -0.09745682 0.9669416 3 0.34874421 0.93717021 0.0094683897
3 0.71204698 -0.24452969 0.65817499 3 0.48369682 0.8503139 -0.2073732 3 -0.50894767 0.46601704 0.72374052
3 -0.92944348 0.22839481 0.28977689 3 0.25044823 -0.18619841 0.95005578 3 0.27094379 0.95559728 0.11585984
3 -0.9846614 0.058156446 -0.16449848 3 -0.17106298 -0.50736147 0.84458393 3 -0.034342226 0.85976881 0.50952762
3 -0.93081319 0.088505097 -0.35461789 3 -0.28762656 -0.77603042 0.5612914 3 -0.22551709 0.6244548 0.74779564
3 0.38642448 0.87590402 -0.28890848 3 -0.88313437 0.26105008 -0.38977712 3 -0.26598778 0.40576455 0.87441719
3 -0.96075392 0.2759006 -0.028824016 3 -0.059509952 -0.1035031 0.99284744 3 0.27094379 0.95559728 0.11585984
3 -0.8526352 0.26239365 -0.45184341 3 -0.50919223 -0.22329691 0.83118081 3 0.11720132 0.93876946 0.3239997
3 -0.95545292 0.0082469732 -0.29502827 3 -0.19039887 -0.78101742 0.59477729 3 -0.22551709 0.6244548 0.74779564
3 -0.82629758 0.31346634 -0.4679434 3 -0.51982975 -0.7442565 0.41935566 3 -0.21681564 0.5897634 0.7779268
3 0.54134554 0.81342781 -0.21279161 3 -0.79761863 0.41676193 -0.43602067 3 -0.26598787 0.4057644 0.8744173
3 0.42817783 0.85151547 -0.30263022 3 -0.86978918 0.29744887 -0.3936888 3 -0.2452151 0.43179333 0.86800003
3 -0.97423589 -0.14657167 -0.17140982 3 0.0025679767 -0.76718515 0.64142066 3 -0.22551709 0.6244548 0.74779564
3 0.82052088 -0.32164666 0.47253448 3 0.5289011 0.74075806 -0.41417515 3 -0.21681564 0.5897634 0.7779268
3 -0.85839105 0.31218576 -0.40706864 3 -0.43888953 -0.85774374 0.26767829 3 -0.26559365 0.40843022 0.87329537
3 -0.85045671 -0.51012027 -0.12845543 3 0.4393636 -0.82309973 0.35981476 3 -0.28928044 0.24956818 0.9241389
3 -0.95139694 0.050682161 -0.30376816 3 -0.12433334 -0.96561879 0.22830144 3 -0.28175572 0.25497395 0.92498761
3 -0.92969829 0.20386243 -0.30675909 3 -0.11339487 -0.95082587 -0.28822178 3 -0.35043198 -0.23317443 0.90709823
3 0.68424857 -0.39137721 0.61532754 3 0.71751571 0.51207048 -0.47218165 3 -0.13028996 0.7645967 0.63120264
3 -0.8073951 0.33959228 -0.48248354 3 -0.54872906 -0.73270428 0.40254319 3 -0.21681564 0.5897634 0.7779268
3 -0.93850768 0.12514819 -0.32177824 3 -0.20203421 -0.95483083 0.21789944 3 -0.27997187 0.26951021 0.92140108
3 0.78394777 -0.49594271 0.37345237 3 0.55932558 0.82525116 -0.078202114 3 -0.26940826 0.27018788 0.92434728
3 0.44702417 0.80943632 0.38076514 3 -0.82302296 0.53892714 -0.17941776 3 -0.35043198 -0.23317443 0.90709823
0 0 0 1 0 0 0 1 0 0 0 1 0 0 0 0 0 35 1 0 0
