ply
format ascii 1.0
comment PCL generated
element vertex 617
property float x
property float y
property float z
property uchar red
property uchar green
property uchar blue
element camera 1
property float view_px
property float view_py
property float view_pz
property float x_axisx
property float x_axisy
property float x_axisz
property float y_axisx
property float y_axisy
property float y_axisz
property float z_axisx
property float z_axisy
property float z_axisz
property float focal
property float scalex
property float scaley
property float centerx
property float centery
property int viewportx
property int viewporty
property float k1
property float k2
end_header
0.15644109 0.14412621 0.58700001 61 9 176
0.15928051 0.14412621 0.58700001 61 9 176
0.16133122 0.14381072 0.58700001 61 9 176
0.16401289 0.14365298 0.58700001 61 9 176
0.16637911 0.14365298 0.58700001 61 9 176
0.16874531 0.14412621 0.58700001 61 9 176
0.17111149 0.14412621 0.58700001 61 9 176
0.15605053 0.14648691 0.58660001 61 9 176
0.16117346 0.14649242 0.58700001 61 9 176
0.16401291 0.14649242 0.58700001 61 9 176
0.16637909 0.14649242 0.58700001 61 9 176
0.16867323 0.14642982 0.58675003 61 9 176
0.15387763 0.14866802 0.58625001 61 9 176
0.15617457 0.14860502 0.58600003 61 9 176
0.16089889 0.14860502 0.58600003 61 9 176
0.16373348 0.14860502 0.58600003 61 9 176
0.16609566 0.14860502 0.58600003 61 9 176
0.16845784 0.14860502 0.58600003 61 9 176
0.15839866 0.13986877 0.58900005 61 9 176
0.16124777 0.13939391 0.58900005 61 9 176
0.16409688 0.13939391 0.58900005 61 9 176
0.16552143 0.13939391 0.58900005 61 9 176
0.16903533 0.13948889 0.58900005 61 9 176
0.17074479 0.13939391 0.58900005 61 9 176
0.17368723 0.13915648 0.58885717 61 9 176
0.15704328 0.14200397 0.58866668 61 9 176
0.15826419 0.14212187 0.58850002 61 9 176
0.16097401 0.14200151 0.588 61 9 176
0.16429231 0.14200151 0.588 61 9 176
0.16571446 0.14200151 0.588 61 9 176
0.16855872 0.14200151 0.588 61 9 176
0.17140301 0.14200151 0.588 61 9 176
0.15604985 0.14338706 0.58850002 61 9 176
0.15812974 0.14342365 0.588 61 9 176
0.16049996 0.14342365 0.588 61 9 176
0.16903278 0.14342365 0.588 61 9 176
0.17140299 0.14342365 0.588 61 9 176
0.15528546 0.14626792 0.588 61 9 176
0.17638716 0.12817214 0.59200001 61 9 176
0.16636449 0.13199031 0.59200001 61 9 176
0.16897346 0.1315978 0.5916667 61 9 176
0.17099264 0.13140155 0.59150004 61 9 176
0.1739787 0.13113748 0.59160006 61 9 176
0.17581086 0.13096143 0.5916667 61 9 176
0.16350088 0.13437666 0.59200001 61 9 176
0.16615352 0.13420621 0.59125 61 9 176
0.16846579 0.13414966 0.59100002 61 9 176
0.1708481 0.13414966 0.59100002 61 9 176
0.17370689 0.13414966 0.59100002 61 9 176
0.17561275 0.13414966 0.59100002 61 9 176
0.15872817 0.13676301 0.59200001 61 9 176
0.16160408 0.13615017 0.59100008 61 9 176
0.16392593 0.13581969 0.59066671 61 9 176
0.16637178 0.13590178 0.5903334 61 9 176
0.16913204 0.13582531 0.59000003 61 9 176
0.17055902 0.13582531 0.59000003 61 9 176
0.17388862 0.13582531 0.59000009 61 9 176
0.17641589 0.13594002 0.5905 61 9 176
0.15607691 0.1389139 0.59100008 61 9 176
0.15825875 0.13873781 0.59025002 61 9 176
0.16152152 0.13820359 0.59000003 61 9 176
0.16437547 0.13820359 0.59000003 61 9 176
0.16651593 0.13844141 0.59000003 61 9 176
0.16913204 0.13820359 0.59000003 61 9 176
0.17055902 0.13820359 0.59000003 61 9 176
0.17341296 0.13820359 0.59000003 61 9 176
0.15590112 0.14081959 0.59033334 61 9 176
0.15771626 0.14010623 0.59000003 61 9 176
0.16740541 0.12668963 0.59400004 61 9 176
0.16836318 0.12668963 0.59400004 61 9 176
0.17123647 0.12668963 0.59400004 61 9 176
0.17315201 0.12668963 0.59400004 61 9 176
0.17602532 0.12668963 0.59400004 61 9 176
0.16453212 0.12860516 0.59400004 61 9 176
0.16708617 0.1282859 0.59400004 61 9 176
0.16881166 0.12814157 0.59333336 61 9 176
0.17131239 0.1279439 0.59360003 61 9 176
0.17369229 0.12821373 0.59366673 61 9 176
0.17595121 0.12783271 0.59375006 61 9 176
0.15974329 0.13243622 0.59400004 61 9 176
0.16359042 0.13151476 0.59362501 61 9 176
0.16664551 0.13077903 0.59300005 61 9 176
0.16871719 0.13061966 0.59300005 61 9 176
0.17142627 0.13030095 0.59300005 61 9 176
0.17315201 0.13052069 0.59400004 61 9 176
0.15878554 0.13435175 0.59400004 61 9 176
0.16186476 0.13412556 0.59300005 61 9 176
0.1545192 0.13641262 0.59380007 61 9 176
0.15582474 0.13619028 0.59366673 61 9 176
0.15841958 0.13579723 0.59314293 61 9 176
0.16186476 0.13508171 0.59300005 61 9 176
0.18365252 0.11674086 0.597 61 9 176
0.18621947 0.11641999 0.597 61 9 176
0.1692135 0.11962866 0.597 61 9 176
0.1721013 0.11914736 0.597 61 9 176
0.17354521 0.11962866 0.597 61 9 176
0.17643301 0.11962866 0.597 61 9 176
0.17787692 0.11914736 0.597 61 9 176
0.18147358 0.11920355 0.59679997 61 9 176
0.18387032 0.11892013 0.59666669 61 9 176
0.16632569 0.12059127 0.597 61 9 176
0.1692135 0.12059127 0.597 61 9 176
0.17136347 0.1211646 0.59666669 61 9 176
0.17339985 0.12145126 0.59650004 61 9 176
0.17628525 0.12145126 0.59650004 61 9 176
0.17861444 0.12140075 0.59625 61 9 176
0.15958747 0.12444168 0.597 61 9 176
0.16119182 0.12412081 0.597 61 9 176
0.1639192 0.12347907 0.59700006 61 9 176
0.16623281 0.12340959 0.59666663 61 9 176
0.16841415 0.12372547 0.59587502 61 9 176
0.1713922 0.12422226 0.59537506 61 9 176
0.17334901 0.12388834 0.59549999 61 9 176
0.1762756 0.12419641 0.59525001 61 9 176
0.17875989 0.12352308 0.59566671 61 9 176
0.15958747 0.12636688 0.597 61 9 176
0.16096374 0.12631355 0.59675002 61 9 176
0.16387752 0.12630475 0.59580004 61 9 176
0.16627401 0.12576377 0.59566671 61 9 176
0.15637881 0.12893383 0.597 61 9 176
0.15908892 0.12878947 0.59633332 61 9 176
0.160694 0.12850355 0.59575003 61 9 176
0.16365783 0.12824604 0.59500003 61 9 176
0.16672786 0.12786229 0.59500003 61 9 176
0.15413274 0.13182162 0.597 61 9 176
0.15602192 0.13149558 0.59625006 61 9 176
0.15870641 0.13132998 0.59549999 61 9 176
0.16049191 0.1312201 0.59500003 61 9 176
0.16289034 0.13074042 0.59500003 61 9 176
0.15361822 0.13389885 0.59625 61 9 176
0.15576024 0.13367429 0.59525001 61 9 176
0.15857315 0.13265918 0.59500003 61 9 176
0.1609716 0.13265918 0.59500003 61 9 176
0.15425596 0.13553731 0.59500003 61 9 176
0.18716526 0.1084395 0.59900004 61 9 176
0.17943865 0.1123028 0.59900004 61 9 176
0.18185322 0.1123028 0.59900004 61 9 176
0.18330196 0.11181989 0.59900004 61 9 176
0.18632016 0.11145769 0.59900004 61 9 176
0.17460951 0.11423446 0.59900004 61 9 176
0.17654116 0.11423446 0.59900004 61 9 176
0.17847282 0.11423447 0.59900004 61 9 176
0.18185322 0.11423446 0.59900004 61 9 176
0.18330196 0.11423446 0.59900004 61 9 176
0.18599166 0.11410733 0.59833336 61 9 176
0.16446833 0.11713194 0.59900004 61 9 176
0.16656096 0.11681 0.59900004 61 9 176
0.16922662 0.11660014 0.59875005 61 9 176
0.17108577 0.11630981 0.59850001 61 9 176
0.17361906 0.11594801 0.59850001 61 9 176
0.17669109 0.11620349 0.59820002 61 9 176
0.17862061 0.11594456 0.59857142 61 9 176
0.18165082 0.1160363 0.59833336 61 9 176
0.18396014 0.11549008 0.59800005 61 9 176
0.18620999 0.11532938 0.59800005 61 9 176
0.16205376 0.11906359 0.59900004 61 9 176
0.16433105 0.11944632 0.59850001 61 9 176
0.16564009 0.11934693 0.59800005 61 9 176
0.16885413 0.11918623 0.59800005 61 9 176
0.17046115 0.11934693 0.59800005 61 9 176
0.1738359 0.11886483 0.59800005 61 9 176
0.17672855 0.11886483 0.59800005 61 9 176
0.17913908 0.11934693 0.59800005 61 9 176
0.15722463 0.12099525 0.59900004 61 9 176
0.15819046 0.12099525 0.59900004 61 9 176
0.16104285 0.12047867 0.59883338 61 9 176
0.16419375 0.12079325 0.59800005 61 9 176
0.1668829 0.12002942 0.59900004 61 9 176
0.16853273 0.12079325 0.59800005 61 9 176
0.15669797 0.12385798 0.59883338 61 9 176
0.15875056 0.1235341 0.59820002 61 9 176
0.1611404 0.12304309 0.59800005 61 9 176
0.17046115 0.12272169 0.59800005 61 9 176
0.15648004 0.12561433 0.59800005 61 9 176
0.15792637 0.12561433 0.59800005 61 9 176
0.15599793 0.12826592 0.59800005 61 9 176
0.15792637 0.12802488 0.59800005 61 9 176
0.15310529 0.13139962 0.59800005 61 9 176
0.18907331 0.099275969 0.60200006 61 9 176
0.18713199 0.10218796 0.60200006 61 9 176
0.18850946 0.10117486 0.60175002 61 9 176
0.18421999 0.10412928 0.60200006 61 9 176
0.18627816 0.10401344 0.60133338 61 9 176
0.18822235 0.10392722 0.60083336 61 9 176
0.17936668 0.10704128 0.60200006 61 9 176
0.18163157 0.10639417 0.60200006 61 9 176
0.18365815 0.10602617 0.60175002 61 9 176
0.18671699 0.1068042 0.6006667 61 9 176
0.17451335 0.10898262 0.60200006 61 9 176
0.17596935 0.10898262 0.60200006 61 9 176
0.17873275 0.10840677 0.60150003 61 9 176
0.18100682 0.10831705 0.60100001 61 9 176
0.18335295 0.10827179 0.60075003 61 9 176
0.18637864 0.10807595 0.60020006 61 9 176
0.16674803 0.11189461 0.60200006 61 9 176
0.16868937 0.11189461 0.60200006 61 9 176
0.17104477 0.1113628 0.60175002 61 9 176
0.17406142 0.11170766 0.60100001 61 9 176
0.17596711 0.11151427 0.60100001 61 9 176
0.17872413 0.11144798 0.60025001 61 9 176
0.18167309 0.11103914 0.60000002 61 9 176
0.18296301 0.1108779 0.60000002 61 9 176
0.18554285 0.11055542 0.60000002 61 9 176
0.16148151 0.11409592 0.60166669 61 9 176
0.16328308 0.11378825 0.60175002 61 9 176
0.16656311 0.11370932 0.60133332 61 9 176
0.16923729 0.11355148 0.60049999 61 9 176
0.17068967 0.11355148 0.60049999 61 9 176
0.17338471 0.1138427 0.60033339 61 9 176
0.16137001 0.11657755 0.60050005 61 9 176
0.16356336 0.11590741 0.60100001 61 9 176
0.16600057 0.11577959 0.60000002 61 9 176
0.16909638 0.11539262 0.60000002 61 9 176
0.17006382 0.11539262 0.60000002 61 9 176
0.16087314 0.11926237 0.60000002 61 9 176
0.16716151 0.11926237 0.60000002 61 9 176
0.15684216 0.12055229 0.60000002 61 9 176
0.15845455 0.12022981 0.60000002 61 9 176
0.18970147 0.091814682 0.60400003 61 9 176
0.18937683 0.094411708 0.60400003 61 9 176
0.18580592 0.096684128 0.60400003 61 9 176
0.18867522 0.096170492 0.60383338 61 9 176
0.18405291 0.099216238 0.60400003 61 9 176
0.18635155 0.099226199 0.60366672 61 9 176
0.18849282 0.098752499 0.60325003 61 9 176
0.18386963 0.10125758 0.60340005 61 9 176
0.18614648 0.10106134 0.60300004 61 9 176
0.17606704 0.10447524 0.60400003 61 9 176
0.17947564 0.10398829 0.60400003 61 9 176
0.18083662 0.10344368 0.60366672 61 9 176
0.1832801 0.10352031 0.60316676 61 9 176
0.17144105 0.10690995 0.60400003 61 9 176
0.17415506 0.10657091 0.60300004 61 9 176
0.17614488 0.10615711 0.60360003 61 9 176
0.17911522 0.10598091 0.60333341 61 9 176
0.1806369 0.10527454 0.60300004 61 9 176
0.16697741 0.10902003 0.60400003 61 9 176
0.16873837 0.10889935 0.60333335 61 9 176
0.17122166 0.10865204 0.60340005 61 9 176
0.17415506 0.10851546 0.60300004 61 9 176
0.17626166 0.10819136 0.60300004 61 9 176
0.16637684 0.11143229 0.60300004 61 9 176
0.16896957 0.1111082 0.60300004 61 9 176
0.18950874 0.081926145 0.60650003 61 9 176
0.18672878 0.084440902 0.60700005 61 9 176
0.18901937 0.083882391 0.60650003 61 9 176
0.18379261 0.087377086 0.60700005 61 9 176
0.18623941 0.086887717 0.60700005 61 9 176
0.18870771 0.086673006 0.60549998 61 9 176
0.18183516 0.088355809 0.60700005 61 9 176
0.18379261 0.088355809 0.60700005 61 9 176
0.18608561 0.088283032 0.60650003 61 9 176
0.18870771 0.088137463 0.60549998 61 9 176
0.19001554 0.088064685 0.60500002 61 9 176
0.18134578 0.091291986 0.60700005 61 9 176
0.18364094 0.091216259 0.60650003 61 9 176
0.18588133 0.09111625 0.60583335 61 9 176
0.18855231 0.090991192 0.60500002 61 9 176
0.19001554 0.090503439 0.60500002 61 9 176
0.17792025 0.094228163 0.60700005 61 9 176
0.181196 0.094150543 0.60650003 61 9 176
0.18348981 0.094072931 0.60600001 61 9 176
0.18562579 0.094405442 0.60500002 61 9 176
0.18838972 0.094242863 0.60500002 61 9 176
0.17400534 0.09716434 0.60700005 61 9 176
0.17655003 0.096381359 0.60700005 61 9 176
0.17826223 0.09635026 0.60650003 61 9 176
0.18104702 0.096027143 0.60600001 61 9 176
0.18338835 0.095974058 0.60566664 61 9 176
0.1854632 0.096193857 0.60500002 61 9 176
0.17400534 0.099121794 0.60700005 61 9 176
0.17623393 0.099487871 0.60624999 61 9 176
0.17860425 0.099447042 0.60600001 61 9 176
0.18097213 0.099405825 0.60575002 61 9 176
0.1825127 0.098958492 0.60600001 61 9 176
0.1720479 0.10107925 0.60700005 61 9 176
0.17344432 0.10054825 0.60675007 61 9 176
0.17616147 0.10091272 0.60600001 61 9 176
0.17860425 0.10091272 0.60600001 61 9 176
0.18074828 0.1007462 0.60500002 61 9 176
0.17136903 0.10390038 0.60633337 61 9 176
0.17327049 0.10361405 0.60580003 61 9 176
0.17645542 0.10324153 0.60533333 61 9 176
0.17928503 0.1026972 0.60500002 61 9 176
0.18026054 0.1026972 0.60500002 61 9 176
0.17099327 0.1056237 0.60500002 61 9 176
0.18930794 0.071953766 0.60900003 61 9 176
0.18930794 0.074408643 0.60900003 61 9 176
0.19094948 0.074261576 0.60860002 61 9 176
0.18734404 0.075881571 0.60900003 61 9 176
0.18930794 0.075881571 0.60900003 61 9 176
0.19062382 0.075819269 0.6085 61 9 176
0.18709856 0.079072908 0.60900003 61 9 176
0.18959087 0.078740858 0.60833335 61 9 176
0.18625955 0.081728518 0.60866672 61 9 176
0.18899709 0.081639007 0.60800004 61 9 176
0.18210697 0.08439181 0.60900003 61 9 176
0.18331583 0.0836908 0.60866672 61 9 176
0.18597159 0.083494127 0.60812497 61 9 176
0.18899709 0.082619339 0.60800004 61 9 176
0.17948844 0.086683027 0.60900003 61 9 176
0.18179353 0.08661186 0.6085 61 9 176
0.18311505 0.086540692 0.60800004 61 9 176
0.18507573 0.086540692 0.60800004 61 9 176
0.17864394 0.088225037 0.60879999 61 9 176
0.18148117 0.087847807 0.60800004 61 9 176
0.1740877 0.091592781 0.60900003 61 9 176
0.17676079 0.091698289 0.60839999 61 9 176
0.17847447 0.091165476 0.60833335 61 9 176
0.17359674 0.09355668 0.60900003 61 9 176
0.17674285 0.094383404 0.60800004 61 9 176
0.17948844 0.093556687 0.60900003 61 9 176
0.16966893 0.096993506 0.60900003 61 9 176
0.17100093 0.09666799 0.6085 61 9 176
0.17343339 0.096131429 0.60842854 61 9 176
0.17625269 0.095363744 0.60800004 61 9 176
0.17919371 0.09585391 0.60800004 61 9 176
0.16917795 0.09944839 0.60900003 61 9 176
0.1714911 0.099366739 0.6085 61 9 176
0.17331167 0.099285096 0.60800004 61 9 176
0.16896939 0.10079683 0.60825002 61 9 176
0.1710242 0.10059222 0.60800004 61 9 176
0.1966546 0.058493193 0.61200005 61 9 176
0.19813479 0.058493193 0.61200005 61 9 176
0.19188513 0.062111419 0.61200005 61 9 176
0.19361451 0.061674744 0.61175001 61 9 176
0.19608364 0.061266843 0.61137503 61 9 176
0.19172066 0.063427128 0.61200005 61 9 176
0.19387034 0.06332349 0.611 61 9 176
0.18885899 0.066584855 0.61200005 61 9 176
0.19145948 0.066296831 0.61116666 61 9 176
0.18728012 0.069347858 0.61200005 61 9 176
0.18860568 0.069291204 0.61150002 61 9 176
0.19125035 0.069177881 0.61049998 61 9 176
0.18431976 0.071814828 0.61200005 61 9 176
0.18641879 0.071243204 0.61133337 61 9 176
0.18829152 0.070984557 0.61080003 61 9 176
0.19084825 0.07084246 0.61000001 61 9 176
0.18382636 0.074281797 0.61200005 61 9 176
0.18648152 0.074160419 0.611 61 9 176
0.18765166 0.074039042 0.61000001 61 9 176
0.18234618 0.075761981 0.61200005 61 9 176
0.18360089 0.075668931 0.61124998 61 9 176
0.18625242 0.07554514 0.61025 61 9 176
0.18765166 0.075022608 0.61000001 61 9 176
0.17905688 0.078886807 0.61200005 61 9 176
0.1812849 0.078689985 0.61175001 61 9 176
0.18332548 0.078999743 0.61033338 61 9 176
0.18607798 0.078760147 0.61000001 61 9 176
0.17642546 0.081189319 0.61200005 61 9 176
0.17874625 0.081122175 0.61150002 61 9 176
0.18106306 0.081056647 0.611 61 9 176
0.18322563 0.081907548 0.61000001 61 9 176
0.17430934 0.084573522 0.61150002 61 9 176
0.17569236 0.084034823 0.61116666 61 9 176
0.17885923 0.084083356 0.61062503 61 9 176
0.18119282 0.083264261 0.61033338 61 9 176
0.18273385 0.082891114 0.61000001 61 9 176
0.17149152 0.087110043 0.61200005 61 9 176
0.17369901 0.086404741 0.61166668 61 9 176
0.17564459 0.086967707 0.611 61 9 176
0.17830782 0.086825363 0.61000001 61 9 176
0.17149152 0.08859022 0.61200005 61 9 176
0.17407101 0.088396944 0.61066675 61 9 176
0.17613718 0.08844547 0.611 61 9 176
0.17781603 0.087808929 0.61000001 61 9 176
0.16951793 0.092043981 0.61200005 61 9 176
0.17078836 0.091438197 0.61125004 61 9 176
0.17363589 0.091005519 0.61000001 61 9 176
0.1690627 0.093901135 0.61125004 61 9 176
0.17069609 0.093433119 0.61033332 61 9 176
0.16664544 0.096520141 0.61160004 61 9 176
0.16885495 0.095755056 0.61050004 61 9 176
0.16623926 0.098762602 0.61083335 61 9 176
0.16896397 0.09764456 0.61000001 61 9 176
0.16558912 0.10112826 0.61025 61 9 176
0.19449224 0.054394286 0.61400002 61 9 176
0.19680227 0.054229286 0.61400002 61 9 176
0.19828728 0.054229286 0.61400002 61 9 176
0.19185221 0.056704316 0.61400002 61 9 176
0.19383223 0.056704316 0.61400002 61 9 176
0.19697595 0.056611963 0.61300004 61 9 176
0.19845854 0.056611963 0.61300004 61 9 176
0.18987218 0.058684342 0.61400002 61 9 176
0.19185221 0.058189336 0.61400002 61 9 176
0.19344515 0.05803331 0.61339998 61 9 176
0.19648175 0.057929832 0.61300004 61 9 176
0.19845854 0.057600364 0.61300004 61 9 176
0.18929987 0.061134271 0.61375004 61 9 176
0.19153973 0.061059766 0.61300004 61 9 176
0.19252814 0.060565565 0.61300004 61 9 176
0.18591213 0.063634403 0.61400002 61 9 176
0.18872781 0.063087843 0.61350006 61 9 176
0.18442711 0.066109434 0.61400002 61 9 176
0.18571027 0.066531591 0.61333334 61 9 176
0.18783323 0.066248864 0.61300004 61 9 176
0.18096207 0.069574483 0.61400002 61 9 176
0.18388189 0.068565585 0.61383337 61 9 176
0.18560934 0.069461167 0.61300004 61 9 176
0.17997205 0.071554512 0.61400002 61 9 176
0.18086381 0.071515121 0.61366671 61 9 176
0.18339272 0.071313418 0.61314285 61 9 176
0.17940377 0.073504187 0.61375004 61 9 176
0.18066734 0.074403167 0.61300004 61 9 176
0.18264413 0.074403167 0.61300004 61 9 176
0.176672 0.076174565 0.61400002 61 9 176
0.1792576 0.075916514 0.61325002 61 9 176
0.18066734 0.075885773 0.61300004 61 9 176
0.17609468 0.079027154 0.61360002 61 9 176
0.17869054 0.078356773 0.61300004 61 9 176
0.17388944 0.082377508 0.6135 61 9 176
0.17549087 0.081036188 0.61333334 61 9 176
0.17172195 0.084094673 0.61400002 61 9 176
0.17341906 0.083628237 0.61300004 61 9 176
0.17092223 0.08633434 0.6135 61 9 176
0.16894341 0.088807352 0.6135 61 9 176
0.17078333 0.088734969 0.61300004 61 9 176
0.16710189 0.092344776 0.61400002 61 9 176
0.16856831 0.09158504 0.61333334 61 9 176
0.1664708 0.093258783 0.6135 61 9 176
0.16413185 0.096799836 0.61400002 61 9 176
0.16617079 0.095489047 0.61300004 61 9 176
0.16350317 0.098204821 0.6135 61 9 176
0.1629647 0.10114441 0.6133334 61 9 176
0.15905216 0.10661267 0.6135 61 9 176
0.19622476 0.049631763 0.61633343 61 9 176
0.198875 0.04913488 0.61633343 61 9 176
0.19423775 0.050625544 0.61633343 61 9 176
0.19613117 0.050846919 0.61500001 61 9 176
0.19861025 0.050846919 0.61500001 61 9 176
0.18682049 0.054991674 0.61700004 61 9 176
0.18937087 0.05463035 0.61666673 61 9 176
0.19131754 0.053908508 0.616 61 9 176
0.19361576 0.053640652 0.61519998 61 9 176
0.19613117 0.052830171 0.61500001 61 9 176
0.19861025 0.052830171 0.61500001 61 9 176
0.18483078 0.056981374 0.61700004 61 9 176
0.18617167 0.056935199 0.61650002 61 9 176
0.18900079 0.056889024 0.61600006 61 9 176
0.19018142 0.05679667 0.61500001 61 9 176
0.18416755 0.058639456 0.61700004 61 9 176
0.18602109 0.058378883 0.61600006 61 9 176
0.18877047 0.058307603 0.61524999 61 9 176
0.19018142 0.057788298 0.61500001 61 9 176
0.18184623 0.061955623 0.61700004 61 9 176
0.18361208 0.061383292 0.61625004 61 9 176
0.1858701 0.061308384 0.61550003 61 9 176
0.18819816 0.061258987 0.61500001 61 9 176
0.17985654 0.063945323 0.61700004 61 9 176
0.18127513 0.063421987 0.61675006 61 9 176
0.18338822 0.063293651 0.61550003 61 9 176
0.18555383 0.063076966 0.61500001 61 9 176
0.1791933 0.066598259 0.61700004 61 9 176
0.18145245 0.06628862 0.61566669 61 9 176
0.17687199 0.069914423 0.61700004 61 9 176
0.17864385 0.0688354 0.61625004 61 9 176
0.1806934 0.068402328 0.61533338 61 9 176
0.17630289 0.07137756 0.61675006 61 9 176
0.17842604 0.071233101 0.61550003 61 9 176
0.18026517 0.070679426 0.61500001 61 9 176
0.17388743 0.074391246 0.61700004 61 9 176
0.17644145 0.074044988 0.61550003 61 9 176
0.1732491 0.076319054 0.61650002 61 9 176
0.1757326 0.076009087 0.61533338 61 9 176
0.17189774 0.079365492 0.61700004 61 9 176
0.17303854 0.079204515 0.61575007 61 9 176
0.17530704 0.078612424 0.61500001 61 9 176
0.16990803 0.080857769 0.61700004 61 9 176
0.17197564 0.0806612 0.61550003 61 9 176
0.1733238 0.080595672 0.61500001 61 9 176
0.16885844 0.083814822 0.61680001 61 9 176
0.17119792 0.083399072 0.61519998 61 9 176
0.16827887 0.085762471 0.61650002 61 9 176
0.17034891 0.085553803 0.61500001 61 9 176
0.16493379 0.089313999 0.61700004 61 9 176
0.1669955 0.088841841 0.61580002 61 9 176
0.16800593 0.087608218 0.61550003 61 9 176
0.16430271 0.091726735 0.61650002 61 9 176
0.16671295 0.091834091 0.61500001 61 9 176
0.16410303 0.093104199 0.61575007 61 9 176
0.16346259 0.096261032 0.6158334 61 9 176
0.16095439 0.098765068 0.61700004 61 9 176
0.16268 0.098108381 0.61600006 61 9 176
0.15995954 0.10174962 0.61700004 61 9 176
0.1610589 0.10125394 0.61550003 61 9 176
0.15945508 0.10395885 0.61633337 61 9 176
0.16043267 0.10439467 0.61500001 61 9 176
0.15876172 0.10617286 0.61524999 61 9 176
0.19940297 0.042194959 0.61900002 61 9 176
0.19890393 0.044191107 0.61900002 61 9 176
0.19441259 0.046187259 0.61900002 61 9 176
0.19583039 0.045669571 0.61874998 61 9 176
0.19866273 0.04563266 0.61825001 61 9 176
0.19208376 0.048848789 0.61900002 61 9 176
0.19425556 0.048642717 0.61849999 61 9 176
0.19542713 0.048437718 0.61800003 61 9 176
0.19858259 0.048105564 0.61800003 61 9 176
0.18742608 0.051177632 0.61900002 61 9 176
0.18942222 0.051177632 0.61900002 61 9 176
0.1912632 0.050637525 0.61849999 61 9 176
0.19409852 0.05009849 0.61800003 61 9 176
0.18685134 0.053650938 0.61875004 61 9 176
0.18911621 0.05358611 0.61800003 61 9 176
0.19011267 0.053087879 0.61800003 61 9 176
0.18343377 0.057166081 0.61900002 61 9 176
0.18577836 0.055125367 0.61849999 61 9 176
0.17944147 0.059162229 0.61900002 61 9 176
0.18190652 0.058766354 0.61833334 61 9 176
0.18313743 0.05807019 0.61800003 61 9 176
0.17910878 0.061823759 0.61900002 61 9 176
0.18147667 0.06139173 0.61800003 61 9 176
0.17744532 0.064152606 0.61900002 61 9 176
0.17858337 0.063418664 0.61833334 61 9 176
0.17687462 0.06662067 0.61875004 61 9 176
0.17815512 0.066041887 0.61800003 61 9 176
0.1744511 0.068144903 0.61900002 61 9 176
0.17666042 0.068034813 0.61800003 61 9 176
0.17245495 0.072137199 0.61900002 61 9 176
0.17381142 0.071081132 0.61849999 61 9 176
0.1761622 0.070027739 0.61800003 61 9 176
0.17245495 0.074133351 0.61900002 61 9 176
0.1731728 0.074013583 0.61800003 61 9 176
0.16946073 0.077127576 0.61900002 61 9 176
0.17127168 0.076047234 0.61833334 61 9 176
0.1731728 0.075010046 0.61800003 61 9 176
0.16932383 0.079558045 0.61849999 61 9 176
0.17018342 0.079494134 0.61800003 61 9 176
0.16870408 0.080743499 0.61866665 61 9 176
0.16695152 0.084022969 0.61833334 61 9 176
0.16819049 0.083479978 0.61800003 61 9 176
0.16447034 0.086110249 0.61900002 61 9 176
0.16604362 0.085731186 0.61866665 61 9 176
0.16408798 0.089032091 0.61849999 61 9 176
0.16520111 0.087964058 0.61800003 61 9 176
0.16334024 0.091026232 0.61849999 61 9 176
0.16147612 0.093595803 0.61900002 61 9 176
0.16320819 0.093444601 0.61800003 61 9 176
0.16134569 0.096511602 0.61849999 61 9 176
0.16063736 0.098313659 0.61833334 61 9 176
0.16021879 0.10091807 0.61800003 61 9 176
0.19736063 0.03939072 0.62200004 61 9 176
0.19904594 0.039327394 0.62100005 61 9 176
0.19334899 0.042399459 0.62200004 61 9 176
0.19620627 0.04146307 0.6211251 61 9 176
0.19905546 0.041279674 0.62024999 61 9 176
0.18933734 0.044405282 0.62200004 61 9 176
0.19184461 0.044405282 0.62200004 61 9 176
0.19388241 0.044298194 0.62050003 61 9 176
0.19622621 0.044262499 0.62 61 9 176
0.18733151 0.046411105 0.62200004 61 9 176
0.1887598 0.045890994 0.62175 61 9 176
0.19138199 0.045798533 0.62050003 61 9 176
0.19339375 0.045595411 0.62 61 9 176
0.18432277 0.049419839 0.62200004 61 9 176
0.18689682 0.049059052 0.62166667 61 9 176
0.18830439 0.048780549 0.62024999 61 9 176
0.19106114 0.048594475 0.62 61 9 176
0.18231696 0.051425666 0.62200004 61 9 176
0.18374723 0.050903544 0.62175006 61 9 176
0.1863791 0.0508014 0.62050003 61 9 176
0.1882287 0.050260622 0.62 61 9 176
0.18155067 0.05407092 0.62166673 61 9 176
0.18345171 0.053824358 0.62075007 61 9 176
0.18572949 0.05375953 0.62 61 9 176
0.17930822 0.056440223 0.62200004 61 9 176
0.18102175 0.056348681 0.62100005 61 9 176
0.18306364 0.055925518 0.62 61 9 176
0.17629948 0.059448961 0.62200004 61 9 176
0.17866263 0.058900118 0.62150002 61 9 176
0.18087599 0.0583051 0.62050003 61 9 176
0.17610945 0.062056452 0.62133336 61 9 176
0.17816079 0.061623346 0.62033337 61 9 176
0.17408268 0.06413506 0.62125003 61 9 176
0.17615978 0.063623793 0.62033337 61 9 176
0.17773199 0.063256554 0.62 61 9 176
0.17128493 0.067472257 0.62200004 61 9 176
0.17387281 0.066809162 0.62050003 61 9 176
0.17100956 0.068365075 0.62100005 61 9 176
0.17337269 0.068310037 0.62050003 61 9 176
0.17060871 0.071568921 0.62100005 61 9 176
0.17273355 0.070754215 0.62 61 9 176
0.17037122 0.074312992 0.62050003 61 9 176
0.16924354 0.076101422 0.62040001 61 9 176
0.16700436 0.079379372 0.62100005 61 9 176
0.1687348 0.07925155 0.62 61 9 176
0.16649131 0.080961376 0.62033337 61 9 176
0.16573574 0.083750144 0.62 61 9 176
0.16473605 0.085249677 0.62 61 9 176
0.16326162 0.088533409 0.62200004 61 9 176
0.16173699 0.092247486 0.62 61 9 176
0.19346762 0.03951738 0.62400001 61 9 176
0.19617115 0.03945405 0.62300003 61 9 176
0.18979394 0.04199864 0.62349999 61 9 176
0.19175334 0.041484747 0.62333333 61 9 176
0.19305713 0.041262198 0.62300003 61 9 176
0.19566889 0.040458575 0.62300003 61 9 176
0.1885037 0.04385351 0.6236667 61 9 176
0.18441239 0.046560336 0.62400001 61 9 176
0.18577263 0.04601996 0.62349999 61 9 176
0.18763269 0.045481198 0.62300003 61 9 176
0.18376155 0.049036358 0.62349999 61 9 176
0.18562365 0.048494771 0.62300003 61 9 176
0.18074597 0.051046614 0.62349999 61 9 176
0.18261008 0.05050382 0.62300003 61 9 176
0.17945331 0.05424488 0.6236667 61 9 176
0.18060103 0.053517394 0.62300003 61 9 176
0.17859198 0.055526443 0.62300003 61 9 176
0.17859198 0.057535488 0.62300003 61 9 176
0.18681546 0.041729316 0.62700003 61 9 176
0.1890405 0.041157678 0.62600005 61 9 176
0.19025055 0.040588461 0.625 61 9 176
0.18601242 0.043680679 0.62600005 61 9 176
0.18823506 0.042603958 0.625 61 9 176
0.18521181 0.045627207 0.625 61 9 176
0.1809656 0.049232572 0.62600005 61 9 176
0.17945197 0.051756375 0.62600005 61 9 176
0.18017305 0.051169828 0.625 61 9 176
0 0 0 1 0 0 0 1 0 0 0 1 0 0 0 0 0 617 1 0 0
