ply
format ascii 1.0
comment PCL generated
element vertex 551
property float x
property float y
property float z
property uchar red
property uchar green
property uchar blue
element camera 1
property float view_px
property float view_py
property float view_pz
property float x_axisx
property float x_axisy
property float x_axisz
property float y_axisx
property float y_axisy
property float y_axisz
property float z_axisx
property float z_axisy
property float z_axisz
property float focal
property float scalex
property float scaley
property float centerx
property float centery
property int viewportx
property int viewporty
property float k1
property float k2
end_header
-0.023582496 0.037971392 0.044789314 70 150 120
-0.021059375 0.041328747 0.044762343 70 150 120
-0.019506849 0.041713957 0.044971377 70 150 120
-0.020373523 0.043137714 0.04463464 70 150 120
-0.019338503 0.043394521 0.044773996 70 150 120
-0.017734013 0.045977682 0.044696629 70 150 120
-0.016181484 0.046362892 0.044905692 70 150 120
-0.015896752 0.047526069 0.044797361 70 150 120
-0.014059484 0.049074456 0.044898033 70 150 120
-0.013618872 0.056831479 0.043930471 70 150 120
0.026063934 0.056150377 0.044550061 70 150 120
0.028152592 0.056668613 0.044831276 70 150 120
-0.010630198 0.058119293 0.044259578 70 150 120
-0.0090776719 0.058504499 0.044468611 70 150 120
-0.0061839172 0.059404582 0.044833779 70 150 120
-0.00052462518 0.057699218 0.04499048 70 150 120
0.00048848987 0.058850277 0.043983251 70 150 120
0.023953915 0.059686139 0.044743717 70 150 120
0.025711641 0.057716504 0.044280589 70 150 120
0.027800292 0.058234736 0.044561803 70 150 120
-0.0056034029 0.060815744 0.043718994 70 150 120
-0.0045668334 0.061072938 0.043858528 70 150 120
-0.0017249385 0.061413348 0.044290185 70 150 120
0.019267967 0.061655391 0.044715147 70 150 120
0.020118237 0.061133638 0.044928014 70 150 120
0.023988808 0.061162416 0.044551391 70 150 120
0.027213126 0.060844935 0.044112742 70 150 120
-0.0050330907 0.063145585 0.043501914 70 150 120
-0.0029599369 0.063659973 0.043781102 70 150 120
0.001186341 0.064688742 0.044339359 70 150 120
0.0032074377 0.063001886 0.044905335 70 150 120
0.0070549399 0.063766941 0.044426024 70 150 120
0.0087844916 0.063600786 0.04448311 70 150 120
0.011857604 0.064403184 0.044124406 70 150 120
0.013477653 0.063707709 0.044489902 70 150 120
0.016637422 0.064164974 0.044192076 70 150 120
0.018895105 0.064127401 0.044320643 70 150 120
0.021973059 0.063597523 0.043885857 70 150 120
0.023015834 0.063856252 0.044026256 70 150 120
-8.3357096e-05 0.065467872 0.044021487 70 150 120
0.0038224123 0.065750986 0.043872356 70 150 120
0.0065879971 0.065842696 0.044068873 70 150 120
0.010965466 0.066742525 0.043660462 70 150 120
0.016344316 0.065692663 0.043682039 70 150 120
0.018140331 0.065039203 0.044071436 70 150 120
-0.031451158 0.0097983629 0.047250509 70 150 120
-0.031800319 0.011350513 0.046983451 70 150 120
-0.030312218 0.014451057 0.046817064 70 150 120
-0.029204663 0.021401212 0.046581358 70 150 120
-0.030220758 0.023760237 0.045582503 70 150 120
-0.029351562 0.024212167 0.046690702 70 150 120
-0.028399721 0.026448304 0.046550333 70 150 120
-0.028330542 0.02937451 0.046169043 70 150 120
-0.02729708 0.029630929 0.046308219 70 150 120
-0.027645715 0.031180769 0.046041548 70 150 120
-0.026609549 0.031044459 0.04691577 70 150 120
-0.028226778 0.033763826 0.045597136 70 150 120
-0.026159842 0.034276664 0.04587543 70 150 120
-0.024301151 0.033507843 0.047313672 70 150 120
-0.02639227 0.035309885 0.045697659 70 150 120
-0.023821771 0.036254458 0.04641173 70 150 120
-0.021829985 0.03655263 0.046808526 70 150 120
-0.019158006 0.037104845 0.046671748 70 150 120
-0.02272325 0.038402021 0.045898736 70 150 120
-0.020656317 0.038914859 0.04617703 70 150 120
-0.018382184 0.038824961 0.046059638 70 150 120
-0.016522452 0.039940551 0.046733677 70 150 120
-0.018872954 0.041324973 0.045130074 70 150 120
-0.016563531 0.042219218 0.04693222 70 150 120
-0.01630356 0.043813255 0.046250384 70 150 120
-0.013085857 0.044065908 0.046756983 70 150 120
-0.013972327 0.047326222 0.04719317 70 150 120
-0.013467918 0.048766408 0.046402592 70 150 120
-0.012372643 0.049901642 0.047116041 70 150 120
0.0036466271 0.048886694 0.046874344 70 150 120
0.0065123835 0.048586052 0.046032291 70 150 120
0.0087023824 0.047524497 0.045860767 70 150 120
-0.013352752 0.051836964 0.046691567 70 150 120
-0.011572801 0.051189352 0.047077477 70 150 120
0.019788064 0.05192123 0.047132373 70 150 120
0.020138785 0.050362088 0.047400653 70 150 120
0.026872844 0.051604636 0.046319127 70 150 120
-0.013515768 0.053598952 0.045609307 70 150 120
-0.011374861 0.054011285 0.046049912 70 150 120
-0.0088468473 0.053704742 0.047051456 70 150 120
-0.0056440681 0.054639481 0.046587169 70 150 120
-0.0046105981 0.0548959 0.046726346 70 150 120
-0.00024430454 0.054888375 0.047460735 70 150 120
0.0010002404 0.054996118 0.046632409 70 150 120
0.016889974 0.05415336 0.047368765 70 150 120
0.019203514 0.054519795 0.046685278 70 150 120
0.021177098 0.053754702 0.046352372 70 150 120
0.024074048 0.053322509 0.04664129 70 150 120
0.026134381 0.053255934 0.045973379 70 150 120
0.028739765 0.05405841 0.045280397 70 150 120
-0.010242775 0.05568023 0.045675039 70 150 120
-0.0084428638 0.055763196 0.045966208 70 150 120
-0.0056200377 0.056398213 0.046014111 70 150 120
-0.0040169656 0.05608505 0.046410635 70 150 120
-0.00048851967 0.056365225 0.046709955 70 150 120
0.00075626373 0.05647549 0.045881361 70 150 120
0.016539767 0.055710174 0.047100902 70 150 120
0.019002527 0.056435753 0.047076166 70 150 120
0.020624533 0.056335639 0.046680152 70 150 120
0.023932815 0.056282185 0.045810997 70 150 120
-0.0053387135 0.058885939 0.045045376 70 150 120
-0.0043037087 0.059142753 0.045184731 70 150 120
-0.0017161593 0.05978477 0.04553318 70 150 120
0.0011253506 0.058500879 0.047205746 70 150 120
0.0031922907 0.059013724 0.04748404 70 150 120
0.0054770112 0.059384473 0.04679507 70 150 120
0.008047238 0.059293848 0.047238987 70 150 120
0.011534001 0.059232306 0.046810031 70 150 120
0.01378269 0.058596384 0.046761692 70 150 120
0.015839353 0.058823798 0.046565175 70 150 120
0.018671148 0.059326194 0.045950517 70 150 120
0.02058658 0.059051685 0.045286238 70 150 120
0.023545988 0.058584727 0.045334548 70 150 120
-0.0045364797 0.06017752 0.045006692 70 150 120
-0.0012336671 0.06142493 0.045734942 70 150 120
0.00056832534 0.061508406 0.046026409 70 150 120
0.0036303313 0.061767172 0.046164989 70 150 120
0.0061565712 0.061641715 0.046094716 70 150 120
0.0091454871 0.061144516 0.045896396 70 150 120
0.012141302 0.060645752 0.045699418 70 150 120
0.014026065 0.060682755 0.045670051 70 150 120
0.016643994 0.061018106 0.045382857 70 150 120
0.01768367 0.061276071 0.045522839 70 150 120
0.021662652 0.060784116 0.045234382 70 150 120
0.0047622919 0.06338767 0.045114696 70 150 120
0.0070685595 0.062865734 0.045572162 70 150 120
0.011674359 0.062721506 0.045342267 70 150 120
0.012712479 0.062979087 0.045482039 70 150 120
-0.02962292 0.0019239113 0.048103482 70 150 120
-0.020907693 0.0042204335 0.049770385 70 150 120
-0.029229574 0.011279713 0.048959091 70 150 120
-0.030011497 0.012594089 0.04813987 70 150 120
-0.029144399 0.013062686 0.049245417 70 150 120
-0.028970411 0.016233766 0.049019348 70 150 120
-0.028324991 0.018835716 0.049119323 70 150 120
-0.028705105 0.020796448 0.048280776 70 150 120
-0.026511375 0.021522664 0.04931891 70 150 120
-0.02660884 0.024017304 0.048882324 70 150 120
-0.024982415 0.023049727 0.04962641 70 150 120
-0.027569577 0.025435194 0.047848642 70 150 120
-0.026068041 0.026166877 0.04861635 70 150 120
-0.023616873 0.026651397 0.049372137 70 150 120
-0.021556146 0.027162686 0.049649656 70 150 120
-0.02648586 0.027882598 0.047702044 70 150 120
-0.023449279 0.028324392 0.049175665 70 150 120
-0.021388551 0.028835693 0.049453139 70 150 120
-0.018928505 0.029989883 0.049711347 70 150 120
-0.023718959 0.031446956 0.047892772 70 150 120
-0.021967869 0.031410996 0.049010038 70 150 120
-0.01887678 0.032177951 0.049426258 70 150 120
-0.022770546 0.033161446 0.047617316 70 150 120
-0.021711525 0.032993209 0.048329204 70 150 120
-0.018902313 0.033866674 0.048990645 70 150 120
-0.020138949 0.035992891 0.047679126 70 150 120
-0.018682592 0.036465418 0.048371732 70 150 120
-0.016197421 0.037193209 0.049202859 70 150 120
-0.018307202 0.037536643 0.0477795 70 150 120
-0.015983474 0.038822949 0.048764274 70 150 120
-0.014600143 0.039764747 0.04912591 70 150 120
-0.015675604 0.040368095 0.047841311 70 150 120
-0.013705865 0.040965535 0.048603415 70 150 120
0.013462916 0.040153384 0.048672915 70 150 120
-0.015295327 0.042855106 0.048594177 70 150 120
-0.013044015 0.043199547 0.04790318 70 150 120
-0.012416162 0.044220354 0.049405873 70 150 120
0.0084267706 0.043581307 0.048730552 70 150 120
-0.013087936 0.045472592 0.048102051 70 150 120
-0.011345923 0.045788839 0.049545508 70 150 120
0.0076888204 0.045512974 0.048006296 70 150 120
-0.013131142 0.047742538 0.048301458 70 150 120
-0.011701465 0.048641071 0.048420921 70 150 120
-0.0087434798 0.04919374 0.048843544 70 150 120
-0.0069489628 0.049276449 0.049133837 70 150 120
-0.0042358139 0.048499484 0.049693864 70 150 120
0.0017750015 0.048621554 0.04932322 70 150 120
0.0034496039 0.048168667 0.048983395 70 150 120
0.0064857751 0.047616959 0.048544586 70 150 120
0.01805453 0.0480849 0.049401999 70 150 120
-0.0085776448 0.050548822 0.048007507 70 150 120
-0.0061657391 0.051000047 0.048522532 70 150 120
-0.0034718439 0.051124368 0.048958313 70 150 120
-0.0018214136 0.051430345 0.048682988 70 150 120
0.00098055229 0.051477555 0.04863584 70 150 120
0.011484921 0.051253274 0.04991889 70 150 120
0.014817104 0.051869176 0.049372971 70 150 120
0.016225707 0.051175624 0.048884414 70 150 120
0.017707132 0.050520796 0.04799372 70 150 120
-0.0056133866 0.053757243 0.047733665 70 150 120
-0.003549556 0.054269325 0.048011541 70 150 120
0.00063217431 0.053026222 0.048369378 70 150 120
0.0063178688 0.053994484 0.049705803 70 150 120
0.0097541809 0.054096512 0.04924643 70 150 120
0.010903858 0.053836323 0.049474448 70 150 120
0.013775349 0.054290526 0.048617169 70 150 120
0.015619218 0.054045647 0.04819262 70 150 120
-0.0028657615 0.056072861 0.047884226 70 150 120
0.0013876632 0.056139488 0.049101114 70 150 120
0.0057308748 0.057016894 0.048689961 70 150 120
0.010548182 0.056272615 0.048064709 70 150 120
0.013483696 0.055806283 0.048108935 70 150 120
0.015269533 0.055600137 0.047925144 70 150 120
-0.0032138675 0.057620369 0.047617972 70 150 120
0.0011458695 0.057612844 0.048351228 70 150 120
0.0039645485 0.058543999 0.04801774 70 150 120
0.0054916441 0.058493346 0.047940075 70 150 120
0.0084193125 0.058029164 0.047982723 70 150 120
0.010082632 0.058342159 0.047708631 70 150 120
-0.028625259 -0.0010565668 0.05225132 70 150 120
-0.029132426 0.0015374571 0.051135898 70 150 120
-0.029119544 0.0032655746 0.050565064 70 150 120
-0.027109362 0.0034887493 0.051895618 70 150 120
-0.028752139 0.0062119216 0.050742611 70 150 120
-0.021399165 0.0064557791 0.050751548 70 150 120
-0.028152138 0.0081242621 0.051098049 70 150 120
-0.026871376 0.0083417045 0.052306812 70 150 120
-0.022592366 0.0081528574 0.051005125 70 150 120
-0.028118454 0.0108421 0.05142067 70 150 120
-0.026841074 0.011426151 0.051897734 70 150 120
-0.028164551 0.013015449 0.050439239 70 150 120
-0.02627502 0.013738558 0.051682323 70 150 120
-0.027713507 0.015846416 0.050134897 70 150 120
-0.025824651 0.016565233 0.051378429 70 150 120
-0.024795845 0.016820505 0.05151695 70 150 120
-0.025614522 0.018184613 0.050940588 70 150 120
-0.023803305 0.019362189 0.051853806 70 150 120
-0.025721356 0.020934775 0.050809085 70 150 120
-0.024337614 0.021882009 0.051170021 70 150 120
-0.021270726 0.022282697 0.052398503 70 150 120
-0.024126492 0.023502454 0.050732195 70 150 120
-0.021260865 0.023923943 0.05177065 70 150 120
-0.019960865 0.023692027 0.052429259 70 150 120
-0.023294622 0.026242798 0.050503969 70 150 120
-0.020988405 0.026453018 0.050863117 70 150 120
-0.018416375 0.02709119 0.05120945 70 150 120
-0.02070538 0.027609214 0.050755382 70 150 120
-0.018113665 0.028516883 0.051273428 70 150 120
-0.016714124 0.028757036 0.051953573 70 150 120
-0.018081702 0.03043215 0.050817072 70 150 120
-0.017052889 0.030687422 0.050955594 70 150 120
-0.014308225 0.031271465 0.052105293 70 150 120
-0.017631333 0.03325884 0.050513178 70 150 120
-0.01557371 0.033769369 0.05079022 70 150 120
-0.013813326 0.034234565 0.051637135 70 150 120
-0.015920781 0.03531222 0.050524771 70 150 120
-0.013643935 0.035718873 0.051364005 70 150 120
-0.010971308 0.036765896 0.052183747 70 150 120
-0.015354723 0.037624627 0.05030936 70 150 120
-0.01397489 0.038565561 0.050670475 70 150 120
-0.011167954 0.039247233 0.051817536 70 150 120
-0.013759851 0.040192291 0.05023247 70 150 120
-0.011019647 0.041343715 0.051049531 70 150 120
-0.0090790493 0.041211311 0.051904678 70 150 120
-0.0062454939 0.042275816 0.05223766 70 150 120
0.0092188269 0.04109861 0.051924586 70 150 120
-0.010853149 0.04417143 0.050186396 70 150 120
-0.0082484335 0.043947522 0.05167678 70 150 120
-0.0064765215 0.04330283 0.052060962 70 150 120
-0.0048201084 0.043171644 0.052356809 70 150 120
-0.0011310875 0.044411708 0.051787078 70 150 120
0.0016723126 0.044021308 0.052310348 70 150 120
0.0033237636 0.044321533 0.052035987 70 150 120
0.0077227503 0.042905912 0.051430643 70 150 120
-0.010570124 0.045327634 0.05007869 70 150 120
-0.0083238138 0.04660897 0.050283927 70 150 120
-0.0066499463 0.046045389 0.05115217 70 150 120
-0.0036342591 0.04668656 0.051061194 70 150 120
-0.0016573258 0.046942957 0.051103115 70 150 120
0.0016174266 0.046398874 0.051300008 70 150 120
0.0033605695 0.045889974 0.050638217 70 150 120
0.0098968446 0.046930529 0.05227828 70 150 120
0.011080627 0.046789233 0.052155137 70 150 120
0.013566136 0.045989644 0.051998019 70 150 120
0.016506692 0.046216242 0.051643252 70 150 120
0.018283799 0.046174154 0.050719917 70 150 120
-0.0018488765 0.048366651 0.050112635 70 150 120
0.00095875561 0.047975667 0.050636709 70 150 120
0.0071409494 0.049509585 0.051469147 70 150 120
0.011205994 0.049216431 0.051168352 70 150 120
0.013100632 0.0484902 0.051072657 70 150 120
0.015782803 0.048610881 0.050654609 70 150 120
0.0021102875 0.05173181 0.051348627 70 150 120
0.0061623007 0.051441994 0.051045269 70 150 120
0.0090858042 0.050535947 0.051657975 70 150 120
0.01072457 0.050549317 0.050908525 70 150 120
0.012634605 0.050993085 0.050146908 70 150 120
0.0019767135 0.053122506 0.050116628 70 150 120
0.0064457506 0.052599937 0.050937414 70 150 120
0.0089964271 0.053388286 0.050237078 70 150 120
-0.023478273 -0.0053988472 0.053698868 70 150 120
-0.020786501 -0.0052747726 0.054134309 70 150 120
-0.018494047 -0.0057935864 0.054589033 70 150 120
-0.016433321 -0.0052822828 0.054866493 70 150 120
-0.023825865 -0.0038536638 0.053433001 70 150 120
-0.021197088 -0.0040060878 0.054917812 70 150 120
-0.025703499 -0.0013271222 0.05311932 70 150 120
-0.02420605 -0.0014947429 0.054075241 70 150 120
-0.021261128 -0.0013070405 0.054544657 70 150 120
-0.019336412 -0.0010104775 0.054828148 70 150 120
-0.0261862 0.0012718737 0.053371191 70 150 120
-0.024411604 0.0006262064 0.053755939 70 150 120
-0.022238288 0.00062245131 0.054121464 70 150 120
-0.025735833 0.0040985532 0.053067297 70 150 120
-0.023697235 0.0035178363 0.054169554 70 150 120
-0.021700487 0.0041037598 0.05476721 70 150 120
-0.01767268 0.0044702142 0.054371715 70 150 120
-0.026314277 0.0066699758 0.052624881 70 150 120
-0.023455217 0.0054756105 0.054288268 70 150 120
-0.02025792 0.0057267547 0.0547916 70 150 120
-0.018111486 0.0061243996 0.054587275 70 150 120
-0.026031248 0.0078261793 0.052517176 70 150 120
-0.023949247 0.0088771246 0.053748578 70 150 120
-0.021212781 0.0087474985 0.053543705 70 150 120
-0.023814132 0.011892587 0.053366382 70 150 120
-0.02190068 0.0103295 0.054409087 70 150 120
-0.025072426 0.01266472 0.053051353 70 150 120
-0.023854289 0.013885451 0.053296637 70 150 120
-0.021655733 0.013769198 0.054499835 70 150 120
-0.019014567 0.014063622 0.054903906 70 150 120
-0.018924627 0.016070895 0.054649502 70 150 120
-0.0164757 0.017219871 0.054906547 70 150 120
-0.020642377 0.018892787 0.053982109 70 150 120
-0.019103814 0.019274533 0.054189265 70 150 120
-0.016424205 0.019398041 0.05462274 70 150 120
-0.014885642 0.019779786 0.054829895 70 150 120
-0.020988397 0.020430975 0.053717464 70 150 120
-0.019449838 0.020812735 0.05392462 70 150 120
-0.01625737 0.02106349 0.054427147 70 150 120
-0.014090613 0.021059746 0.05479157 70 150 120
-0.018437168 0.023347199 0.052731495 70 150 120
-0.016296834 0.024119891 0.053242952 70 150 120
-0.013756946 0.024390638 0.054400384 70 150 120
-0.011987709 0.023746923 0.05478397 70 150 120
-0.01813738 0.025228813 0.052529216 70 150 120
-0.01586258 0.025642741 0.053367153 70 150 120
-0.013077259 0.026183337 0.054273844 70 150 120
-0.011366919 0.026282892 0.054547738 70 150 120
-0.0088590831 0.026688591 0.054914474 70 150 120
-0.015705377 0.028237998 0.053556561 70 150 120
-0.013626747 0.029118102 0.053020328 70 150 120
-0.011602551 0.029255986 0.054108977 70 150 120
-0.0093204454 0.028739519 0.054561615 70 150 120
-0.013227354 0.030501476 0.052986901 70 150 120
-0.011551052 0.031434167 0.05382517 70 150 120
-0.0097818077 0.030790448 0.054208755 70 150 120
-0.010473847 0.033866838 0.053679466 70 150 120
-0.009217456 0.033095874 0.053994 70 150 120
-0.010537691 0.036557749 0.053307444 70 150 120
-0.0092876134 0.036155812 0.053775929 70 150 120
0.0098119006 0.036810096 0.054645747 70 150 120
-0.0095758289 0.039503157 0.053073466 70 150 120
-0.0014216602 0.039360963 0.054462165 70 150 120
0.00023224205 0.039229974 0.054757535 70 150 120
0.0046686232 0.039562121 0.054435194 70 150 120
0.0069541782 0.039044872 0.054888546 70 150 120
0.0087190494 0.039253872 0.054134071 70 150 120
-0.0076397583 0.040524885 0.053261518 70 150 120
-0.0061011985 0.04090663 0.053468674 70 150 120
-0.0039172717 0.041628953 0.053738493 70 150 120
-0.0013228357 0.041710794 0.05365181 70 150 120
0.0020446628 0.041192554 0.054287016 70 150 120
0.0037472248 0.041446596 0.053771704 70 150 120
0.006718114 0.0405 0.054142088 70 150 120
0.0087409131 0.040775053 0.053422064 70 150 120
0.014034848 0.041431561 0.053711671 70 150 120
-0.0027655959 0.043681413 0.052633435 70 150 120
-0.00086096924 0.043250371 0.05301122 70 150 120
0.0016899854 0.043160424 0.053451777 70 150 120
0.0034469068 0.043375645 0.052695096 70 150 120
0.0087066591 0.044137694 0.053476244 70 150 120
0.011394382 0.044261582 0.05391103 70 150 120
0.013494154 0.043835174 0.053298134 70 150 120
0.016210154 0.043922544 0.052719712 70 150 120
0.011789981 0.045768835 0.052752271 70 150 120
-0.015969865 -0.0073425323 0.055220962 70 150 120
-0.014036034 -0.0066697053 0.056137323 70 150 120
-0.010896578 -0.0063372403 0.05696097 70 150 120
-0.0095633967 -0.0058254548 0.057116169 70 150 120
-0.020168275 -0.003750816 0.055056393 70 150 120
-0.018794876 -0.0040616482 0.055328798 70 150 120
-0.015821651 -0.0037583262 0.055787444 70 150 120
-0.014162743 -0.003889706 0.056083709 70 150 120
-0.011273612 -0.0032589932 0.056825239 70 150 120
-0.0094173998 -0.0032552928 0.056795597 70 150 120
-0.0071284026 -0.0037733167 0.057249606 70 150 120
-0.015800126 -0.0010325959 0.056106966 70 150 120
-0.014185131 -0.0019833595 0.056846857 70 150 120
-0.011045594 -0.0014754608 0.057305962 70 150 120
-0.0057222196 -0.0019764453 0.057244521 70 150 120
-0.0043890327 -0.0014646649 0.05739972 70 150 120
-0.020874694 0.0012363605 0.055290923 70 150 120
-0.01921829 0.0011051744 0.055586737 70 150 120
-0.016249551 0.0014080436 0.05604472 70 150 120
-0.013735445 0.00083906949 0.056543395 70 150 120
-0.011167295 0.0014762729 0.056889191 70 150 120
-0.0084836334 0.0015999824 0.057323337 70 150 120
-0.0074563771 0.0018548518 0.057461679 70 150 120
-0.019911379 0.0041862279 0.055056632 70 150 120
-0.01653005 0.0034673735 0.055976838 70 150 120
-0.013265789 0.0032616556 0.056808442 70 150 120
-0.011938289 0.0042705834 0.057407409 70 150 120
-0.0081838416 0.0034815918 0.057121038 70 150 120
-0.0066601485 0.003136754 0.057423294 70 150 120
-0.01667673 0.006559521 0.056304168 70 150 120
-0.013540696 0.0065797344 0.056828216 70 150 120
-0.0115574 0.0068014264 0.05679059 70 150 120
-0.008097887 0.0071173757 0.056647301 70 150 120
-0.0068396032 0.0063452348 0.056962311 70 150 120
-0.018450916 0.0091508776 0.055658251 70 150 120
-0.016912349 0.0095326155 0.055865407 70 150 120
-0.01388672 0.0081179366 0.056563526 70 150 120
-0.011587461 0.0083275242 0.056921601 70 150 120
-0.0085933879 0.0088225007 0.057102308 70 150 120
-0.0072196126 0.0097721666 0.057461262 70 150 120
-0.0040528886 0.0085953176 0.056872547 70 150 120
-0.0024718791 0.0093277842 0.056272626 70 150 120
-0.018796932 0.010689072 0.055393606 70 150 120
-0.016232664 0.011325315 0.055738866 70 150 120
-0.013818062 0.01102217 0.056185115 70 150 120
-0.011899151 0.011317842 0.056467712 70 150 120
-0.0090207867 0.011761349 0.05689165 70 150 120
-0.0056295544 0.012332097 0.05738461 70 150 120
-0.0034236461 0.010445818 0.056985468 70 150 120
-0.00085549057 0.011083022 0.057331264 70 150 120
-0.018347926 0.013507232 0.055090606 70 150 120
-0.015783653 0.014143482 0.055435896 70 150 120
-0.013616901 0.014139734 0.055800319 70 150 120
-0.011219457 0.013110533 0.056341171 70 150 120
-0.0085398555 0.013234045 0.056774691 70 150 120
-0.005672127 0.014126033 0.057136595 70 150 120
-0.0040137358 0.01374948 0.057209969 70 150 120
-0.00070973235 0.013649315 0.057011187 70 150 120
0.0010195673 0.014801279 0.057146966 70 150 120
0.010898218 0.013462946 0.056940198 70 150 120
-0.015732162 0.016321652 0.055152074 70 150 120
-0.013850054 0.016139016 0.055492721 70 150 120
-0.010885795 0.016441425 0.055949986 70 150 120
-0.0092318952 0.016310439 0.056245357 70 150 120
-0.0062872716 0.016860604 0.056666076 70 150 120
-0.0045008659 0.016942948 0.056955099 70 150 120
0.00078853965 0.015828297 0.056970268 70 150 120
0.0039791986 0.016489133 0.056906015 70 150 120
0.0091726733 0.016297644 0.056269784 70 150 120
-0.013911426 0.017856114 0.055251867 70 150 120
-0.01058646 0.018320197 0.055748004 70 150 120
-0.0091804042 0.018488616 0.055961549 70 150 120
-0.006484455 0.018883411 0.056565918 70 150 120
-0.0048468858 0.018481135 0.056690425 70 150 120
-0.0013979934 0.018795524 0.057227507 70 150 120
0.00039699674 0.019240901 0.057469189 70 150 120
0.0032927394 0.019160479 0.056943461 70 150 120
0.0051677674 0.018825158 0.056280553 70 150 120
0.0092830211 0.019846246 0.056834698 70 150 120
-0.011165631 0.021402124 0.055441499 70 150 120
-0.008929655 0.02150777 0.056621104 70 150 120
-0.005977144 0.021435142 0.056785841 70 150 120
-0.00085939467 0.020011857 0.057154655 70 150 120
0.0010766834 0.0210336 0.057342649 70 150 120
0.0042302683 0.021019604 0.056851298 70 150 120
0.0066571161 0.021079585 0.057250857 70 150 120
-0.01073131 0.022975959 0.055098563 70 150 120
-0.008250989 0.023297757 0.056494772 70 150 120
-0.0067147538 0.023678921 0.056701615 70 150 120
-0.0028998777 0.023544401 0.05736044 70 150 120
-0.0019908845 0.02431047 0.05741024 70 150 120
0.003064245 0.024233498 0.057246834 70 150 120
0.0063105673 0.022620097 0.056985795 70 150 120
-0.0082208263 0.026368245 0.056087572 70 150 120
-0.0065815896 0.026856178 0.056638319 70 150 120
-0.0034757033 0.026104182 0.056920022 70 150 120
-0.0022212118 0.025334388 0.057234108 70 150 120
-0.0082633197 0.028159469 0.055839896 70 150 120
-0.0066146604 0.028368959 0.056770582 70 150 120
-0.0084985886 0.031128069 0.055401802 70 150 120
-0.0063796043 0.031448048 0.056226164 70 150 120
-0.0040203854 0.031763151 0.056580111 70 150 120
-0.0082756579 0.033021193 0.05518505 70 150 120
-0.0057152733 0.03365647 0.055529803 70 150 120
-0.0035863842 0.033683397 0.056054235 70 150 120
0.003502138 0.035943486 0.056770906 70 150 120
0.0060151159 0.036149815 0.056756139 70 150 120
-0.001153181 0.038211774 0.055684429 70 150 120
0.001726379 0.038490143 0.055789769 70 150 120
0.0039203963 0.038881924 0.055423778 70 150 120
0.010266982 0.038782507 0.055480212 70 150 120
0.0098049194 0.040836535 0.055126786 70 150 120
-0.0058682114 -0.0045466125 0.057565093 70 150 120
-0.0085523976 -0.0013086548 0.057702322 70 150 120
-0.0068788081 -0.00071269274 0.057903409 70 150 120
-0.0014852255 -0.00085277262 0.057805277 70 150 120
-0.0059326738 0.0015100241 0.057763875 70 150 120
-0.0039125308 0.00056546926 0.058230013 70 150 120
-0.00095611316 0.00074839097 0.058020115 70 150 120
0.0015524551 0.0010955036 0.058053941 70 150 120
-0.010995995 0.0036923587 0.057643309 70 150 120
-0.0081176311 0.004135862 0.058067203 70 150 120
-0.0062636733 0.0041422793 0.058036763 70 150 120
-0.003158937 0.0036440243 0.057943225 70 150 120
-0.0017122378 0.0036415309 0.058186572 70 150 120
0.00064618886 0.0044074208 0.058479846 70 150 120
-0.006296888 0.005670324 0.058166981 70 150 120
-0.0036172867 0.0057938322 0.0586005 70 150 120
-0.0013638586 0.0064412705 0.058551092 70 150 120
0.0014241388 0.0064534717 0.058506269 70 150 120
-0.0069889426 0.0087466985 0.057637691 70 150 120
-0.0026554316 0.008739233 0.058366537 70 150 120
-0.00060400367 0.0092482269 0.058642805 70 150 120
0.00093455613 0.0096299723 0.058849961 70 150 120
0.0031504035 0.0077396035 0.058453023 70 150 120
-0.0051681995 0.01028116 0.05773747 70 150 120
-0.00064797699 0.011130385 0.059405506 70 150 120
0.0014489368 0.011110152 0.059078556 70 150 120
0.004409194 0.011033446 0.05924511 70 150 120
0.0061133541 0.011253078 0.05873467 70 150 120
0.0092651099 0.011877964 0.05790158 70 150 120
-0.003900744 0.013565682 0.058532178 70 150 120
0.00082451105 0.014198393 0.059240878 70 150 120
0.0040252008 0.014094129 0.059110601 70 150 120
0.0056017339 0.012953386 0.059187621 70 150 120
0.0090161636 0.013398267 0.05816707 70 150 120
-0.0034276247 0.015567139 0.059365749 70 150 120
-0.00096237659 0.015655503 0.05772227 70 150 120
0.0041019418 0.016453007 0.059488654 70 150 120
0.0061805001 0.016257877 0.058500171 70 150 120
0.0078122616 0.015944511 0.058134377 70 150 120
-0.0041175634 0.018634221 0.058838069 70 150 120
-0.00039803982 0.017960936 0.057507515 70 150 120
0.00062768161 0.018215433 0.057645619 70 150 120
0.0065601915 0.019945771 0.059432566 70 150 120
0.0078076273 0.019996926 0.058612406 70 150 120
-0.0045775324 0.020678937 0.058486223 70 150 120
-0.0012998879 0.021238724 0.057938773 70 150 120
0.0022177249 0.020775363 0.057568967 70 150 120
0.0030127615 0.022055313 0.057530642 70 150 120
0.0071236938 0.022247717 0.059218109 70 150 120
0.0081838667 0.021533867 0.058469236 70 150 120
-0.005267486 0.023746023 0.057958543 70 150 120
-0.0011545619 0.023797264 0.057619631 70 150 120
0.0013119131 0.024048895 0.058000147 70 150 120
0.0062609389 0.024070688 0.058317035 70 150 120
0.0079175085 0.02352573 0.059179842 70 150 120
-0.0014070421 0.025783285 0.058333397 70 150 120
0.0013715662 0.025808733 0.058285266 70 150 120
0.0036591142 0.026433051 0.058074255 70 150 120
0.0064550876 0.026023358 0.058803439 70 150 120
-0.0030046105 0.02808547 0.057755977 70 150 120
-0.0015856922 0.028977243 0.05787456 70 150 120
0 0 0 1 0 0 0 1 0 0 0 1 0 0 0 0 0 551 1 0 0
