ply
format ascii 1.0
comment PCL generated
element vertex 965
property float x
property float y
property float z
property uchar red
property uchar green
property uchar blue
element camera 1
property float view_px
property float view_py
property float view_pz
property float x_axisx
property float x_axisy
property float x_axisz
property float y_axisx
property float y_axisy
property float y_axisz
property float z_axisx
property float z_axisy
property float z_axisz
property float focal
property float scalex
property float scaley
property float centerx
property float centery
property int viewportx
property int viewporty
property float k1
property float k2
end_header
0.21240094 -0.025639877 -0.092577815 220 52 147
0.21631871 -0.02583807 -0.09284687 220 52 147
0.2183079 -0.025803588 -0.093527079 220 52 147
0.22129171 -0.025751866 -0.094547391 220 52 147
0.22664836 -0.025137424 -0.094289005 220 52 147
0.22764599 -0.025120139 -0.094630122 220 52 147
0.23060189 -0.025333397 -0.094570339 220 52 147
0.23794574 -0.025202215 -0.092850983 220 52 147
0.21236905 -0.024591446 -0.092617929 220 52 147
0.2162708 -0.024263017 -0.092907071 220 52 147
0.21837142 -0.024292324 -0.093357757 220 52 147
0.22169337 -0.024432711 -0.093690753 220 52 147
0.22318755 -0.024406821 -0.094201714 220 52 147
0.22565866 -0.024276242 -0.094698392 220 52 147
0.22761399 -0.02406688 -0.094670415 220 52 147
0.23080106 -0.024405964 -0.094154567 220 52 147
0.23349936 -0.024313008 -0.093845546 220 52 147
0.23645577 -0.024435021 -0.093437761 220 52 147
0.23791349 -0.024140924 -0.092891634 220 52 147
0.21569365 -0.021646559 -0.092837453 220 52 147
0.21860901 -0.021329582 -0.09278959 220 52 147
0.22143672 -0.021455938 -0.093747973 220 52 147
0.22305481 -0.021249196 -0.093604863 220 52 147
0.22621879 -0.021191686 -0.094122805 220 52 147
0.22867699 -0.02088207 -0.094341755 220 52 147
0.23153615 -0.021662636 -0.094186179 220 52 147
0.23354673 -0.020871008 -0.093676567 220 52 147
0.23635909 -0.021255948 -0.093559384 220 52 147
0.23783277 -0.021487661 -0.09299311 220 52 147
0.24127463 -0.020090014 -0.093177438 220 52 147
0.21849708 -0.017648838 -0.092930406 220 52 147
0.22198273 -0.019422352 -0.092975438 220 52 147
0.22370499 -0.019519918 -0.09302932 220 52 147
0.22610532 -0.019345149 -0.0936803 220 52 147
0.22791147 -0.019047514 -0.093958318 220 52 147
0.23087087 -0.019251034 -0.093900234 220 52 147
0.23363747 -0.018836021 -0.093453862 220 52 147
0.2362785 -0.018606715 -0.093660712 220 52 147
0.2380764 -0.018474823 -0.093222737 220 52 147
0.24120998 -0.017964199 -0.093258739 220 52 147
0.22383453 -0.016479641 -0.092692524 220 52 147
0.22668962 -0.01605178 -0.093052648 220 52 147
0.22827272 -0.016124979 -0.093166053 220 52 147
0.23108228 -0.016242681 -0.093413554 220 52 147
0.23341238 -0.016223511 -0.093222067 220 52 147
0.23619792 -0.015957475 -0.0937621 220 52 147
0.23817402 -0.016172424 -0.093367994 220 52 147
0.24116148 -0.016369827 -0.093319744 220 52 147
0.22617492 -0.012990266 -0.092602909 220 52 147
0.23113927 -0.013149381 -0.093230844 220 52 147
0.23360798 -0.013351731 -0.093005329 220 52 147
0.23661768 -0.014606595 -0.09291327 220 52 147
0.23842864 -0.013948485 -0.093210422 220 52 147
0.24108066 -0.01371254 -0.0934214 220 52 147
0.23167992 -0.011468828 -0.092703655 220 52 147
0.23339772 -0.011941716 -0.093002178 220 52 147
0.23652084 -0.011422694 -0.093035042 220 52 147
0.23820405 -0.011325655 -0.092979327 220 52 147
0.23789862 -0.0084503144 -0.092591882 220 52 147
0.24139294 -0.0086268485 -0.092717528 220 52 147
0.1939075 -0.025938526 -0.090485774 220 52 147
0.19726788 -0.025625922 -0.090589523 220 52 147
0.19875063 -0.025600225 -0.09109655 220 52 147
0.20143257 -0.025686793 -0.091478288 220 52 147
0.20311245 -0.025268659 -0.09154278 220 52 147
0.20629704 -0.025346518 -0.092096478 220 52 147
0.20870991 -0.025570795 -0.091850966 220 52 147
0.21140787 -0.025657088 -0.092238188 220 52 147
0.2138322 -0.025881171 -0.09199661 220 52 147
0.19722027 -0.024060532 -0.090649426 220 52 147
0.19910467 -0.023769513 -0.090248615 220 52 147
0.20157972 -0.023726612 -0.091094941 220 52 147
0.20338267 -0.023892906 -0.090908647 220 52 147
0.20657025 -0.023969501 -0.091463402 220 52 147
0.20887735 -0.024127476 -0.091449425 220 52 147
0.21157755 -0.024212122 -0.091837496 220 52 147
0.21344745 -0.024136862 -0.091950141 220 52 147
0.23939034 -0.024376586 -0.092326224 220 52 147
0.2418786 -0.024594724 -0.0921067 220 52 147
0.20190555 -0.020842552 -0.090288699 220 52 147
0.20384626 -0.021156037 -0.090230323 220 52 147
0.20663536 -0.021194255 -0.090827309 220 52 147
0.20882516 -0.021083321 -0.090733483 220 52 147
0.21191674 -0.021315753 -0.09103632 220 52 147
0.21340978 -0.021289878 -0.091546878 220 52 147
0.21677746 -0.02118597 -0.092171788 220 52 147
0.21800816 -0.020018153 -0.091590703 220 52 147
0.23929334 -0.021187836 -0.092448212 220 52 147
0.24179766 -0.021933407 -0.092208475 220 52 147
0.20817031 -0.019675784 -0.090367019 220 52 147
0.21137948 -0.01847367 -0.090462409 220 52 147
0.21354845 -0.01878681 -0.09118703 220 52 147
0.21636014 -0.018387347 -0.09216553 220 52 147
0.21950462 -0.019992217 -0.092102408 220 52 147
0.21392143 -0.016927563 -0.090346992 220 52 147
0.21667732 -0.015992114 -0.09062741 220 52 147
0.21875718 -0.016202915 -0.090841852 220 52 147
0.22153592 -0.015852109 -0.091410145 220 52 147
0.22328639 -0.015821762 -0.09200874 220 52 147
0.22627133 -0.016159669 -0.092481673 220 52 147
0.21917 -0.013111696 -0.090207577 220 52 147
0.22117141 -0.013077006 -0.090891957 220 52 147
0.22367316 -0.013033643 -0.091747433 220 52 147
0.22813259 -0.013201497 -0.092202723 220 52 147
0.21913788 -0.012055203 -0.090247989 220 52 147
0.22113928 -0.012020513 -0.090932369 220 52 147
0.22443071 -0.011473108 -0.09075959 220 52 147
0.22671628 -0.011188854 -0.091464877 220 52 147
0.22837253 -0.011240266 -0.091674782 220 52 147
0.23124816 -0.010862187 -0.091792613 220 52 147
0.23415367 -0.010755822 -0.09226004 220 52 147
0.22737649 -0.0083956122 -0.090063035 220 52 147
0.22888441 -0.0083694682 -0.090578705 220 52 147
0.23185778 -0.0085550249 -0.090526223 220 52 147
0.23367941 -0.0082474602 -0.090809979 220 52 147
0.2360044 -0.0083652288 -0.090892196 220 52 147
0.2389477 -0.0080470331 -0.091118395 220 52 147
0.22734421 -0.0073343068 -0.090103686 220 52 147
0.23182547 -0.0074921101 -0.090566874 220 52 147
0.23326153 -0.0066376328 -0.090040624 220 52 147
0.24025303 -0.0069842041 -0.090293229 220 52 147
0.17600599 -0.026483357 -0.087526023 220 52 147
0.17931104 -0.025656089 -0.087635934 220 52 147
0.18029496 -0.025639042 -0.087972403 220 52 147
0.18364225 -0.025848737 -0.088046275 220 52 147
0.18579659 -0.025423989 -0.088272929 220 52 147
0.18897264 -0.026024058 -0.088798285 220 52 147
0.19212154 -0.025581278 -0.089365095 220 52 147
0.19379227 -0.025164112 -0.089426428 220 52 147
0.19527501 -0.025138408 -0.089933455 220 52 147
0.17927945 -0.024617329 -0.087675691 220 52 147
0.18367735 -0.02444374 -0.087915041 220 52 147
0.18594831 -0.023991421 -0.087865531 220 52 147
0.18881147 -0.024620211 -0.088600054 220 52 147
0.19128929 -0.024163343 -0.088621318 220 52 147
0.19369039 -0.02365298 -0.088830516 220 52 147
0.19543348 -0.023700885 -0.089528561 220 52 147
0.19760373 -0.023272648 -0.08976078 220 52 147
0.18489796 -0.02192457 -0.087607741 220 52 147
0.18588492 -0.021907464 -0.087945223 220 52 147
0.1887387 -0.021597214 -0.087876081 220 52 147
0.19040775 -0.021175243 -0.087937057 220 52 147
0.19363256 -0.020770105 -0.088351637 220 52 147
0.19575021 -0.020819411 -0.08871901 220 52 147
0.19886172 -0.020852029 -0.089426249 220 52 147
0.20330384 -0.02055268 -0.089722097 220 52 147
0.19054642 -0.019211978 -0.087550938 220 52 147
0.19442116 -0.019401237 -0.087805808 220 52 147
0.19590849 -0.019375458 -0.088314414 220 52 147
0.19838737 -0.019332491 -0.089162052 220 52 147
0.20128581 -0.019538693 -0.089083016 220 52 147
0.2040543 -0.018632438 -0.089278191 220 52 147
0.20664646 -0.018651612 -0.089897037 220 52 147
0.20853582 -0.017821506 -0.08952412 220 52 147
0.21009398 -0.019898877 -0.089954615 220 52 147
0.19435748 -0.017307609 -0.087885916 220 52 147
0.1962088 -0.015955284 -0.087525517 220 52 147
0.19889641 -0.016692981 -0.088194832 220 52 147
0.20091051 -0.016785916 -0.088560045 220 52 147
0.20363417 -0.016122308 -0.088357866 220 52 147
0.2063349 -0.016456718 -0.088839732 220 52 147
0.20900759 -0.016169047 -0.088707723 220 52 147
0.21101236 -0.016249727 -0.089123234 220 52 147
0.21381068 -0.015597969 -0.089316182 220 52 147
0.1995565 -0.014572173 -0.087677002 220 52 147
0.20345923 -0.014752917 -0.087941676 220 52 147
0.20637499 -0.014950775 -0.087868959 220 52 147
0.20905204 -0.013973132 -0.088300824 220 52 147
0.21073294 -0.013012767 -0.088392079 220 52 147
0.21366614 -0.013207093 -0.08832553 220 52 147
0.2161679 -0.013163731 -0.089181006 220 52 147
0.2181693 -0.013129041 -0.089865386 220 52 147
0.21457034 -0.012377918 -0.087616563 220 52 147
0.21557254 -0.012360543 -0.08795929 220 52 147
0.218694 -0.011265878 -0.088416152 220 52 147
0.2209805 -0.010919988 -0.088816255 220 52 147
0.22348988 -0.010876484 -0.089674354 220 52 147
0.22084218 -0.0085088685 -0.087828666 220 52 147
0.22385801 -0.0084565952 -0.088859916 220 52 147
0.22536594 -0.0084304512 -0.089375556 220 52 147
0.22930846 -0.0075357333 -0.089706182 220 52 147
0.23329392 -0.0077021569 -0.089999855 220 52 147
0.22080991 -0.0074475631 -0.087869257 220 52 147
0.22403392 -0.0069776848 -0.088462979 220 52 147
0.22554298 -0.0069515258 -0.088979006 220 52 147
0.22848049 -0.0060710013 -0.088966146 220 52 147
0.23089798 -0.0063235611 -0.089249648 220 52 147
0.2339513 -0.0060595237 -0.089246303 220 52 147
0.23595896 -0.0064075366 -0.08938536 220 52 147
0.23871973 -0.0064766258 -0.089794889 220 52 147
0.24069127 -0.006140545 -0.089426041 220 52 147
0.22610611 -0.0035663992 -0.087749183 220 52 147
0.22895187 -0.0031554997 -0.087946609 220 52 147
0.2305963 -0.0037176013 -0.088215768 220 52 147
0.23324895 -0.0034682155 -0.088427603 220 52 147
0.23593614 -0.0034909174 -0.088197306 220 52 147
0.23908305 -0.0037477612 -0.088641264 220 52 147
0.2405801 -0.003440991 -0.088814281 220 52 147
0.23448375 -0.0019684583 -0.08751148 220 52 147
0.23900282 -0.0021159649 -0.087988138 220 52 147
0.24148588 -0.0017621741 -0.087794632 220 52 147
0.16127305 -0.025675679 -0.085360289 220 52 147
0.16380002 -0.025811428 -0.08551053 220 52 147
0.16913612 -0.025747735 -0.08654055 220 52 147
0.17147511 -0.025975712 -0.086269602 220 52 147
0.17434764 -0.025820294 -0.086992562 220 52 147
0.17569143 -0.026103817 -0.08690834 220 52 147
0.17832711 -0.025673151 -0.087299466 220 52 147
0.16244182 -0.024110854 -0.085129917 220 52 147
0.16440052 -0.024076909 -0.085799694 220 52 147
0.16913314 -0.024003798 -0.086007334 220 52 147
0.17120847 -0.02386851 -0.0860167 220 52 147
0.17415318 -0.024053492 -0.08648333 220 52 147
0.17581992 -0.024157658 -0.086517945 220 52 147
0.1787322 -0.024022117 -0.087165393 220 52 147
0.18063843 -0.024339415 -0.087095052 220 52 147
0.18397439 -0.024025634 -0.087190509 220 52 147
0.16928844 -0.02106542 -0.085498072 220 52 147
0.17178947 -0.021109603 -0.085291356 220 52 147
0.17444003 -0.021193482 -0.085662574 220 52 147
0.1760132 -0.021231528 -0.085932925 220 52 147
0.17906535 -0.021243945 -0.086708993 220 52 147
0.18133004 -0.021399833 -0.086680636 220 52 147
0.18401106 -0.020983433 -0.086998425 220 52 147
0.18574145 -0.02060502 -0.086901933 220 52 147
0.18909317 -0.020282909 -0.087003171 220 52 147
0.19060999 -0.021302372 -0.087471008 220 52 147
0.17455171 -0.018719874 -0.085292101 220 52 147
0.1763434 -0.019468242 -0.085514307 220 52 147
0.17939037 -0.019413725 -0.085851178 220 52 147
0.18156001 -0.019504335 -0.086058006 220 52 147
0.18421108 -0.019065335 -0.086454809 220 52 147
0.18589295 -0.019164406 -0.086494803 220 52 147
0.18906137 -0.019237712 -0.087043136 220 52 147
0.19293383 -0.019427016 -0.087297201 220 52 147
0.19625664 -0.017527908 -0.087465346 220 52 147
0.1768437 -0.016851544 -0.085107088 220 52 147
0.18124144 -0.016452044 -0.08535739 220 52 147
0.1845109 -0.016179333 -0.085639656 220 52 147
0.18619472 -0.016275411 -0.085680537 220 52 147
0.18930103 -0.016305698 -0.086386114 220 52 147
0.19098993 -0.016401956 -0.08642868 220 52 147
0.19347349 -0.016216427 -0.087002829 220 52 147
0.19521573 -0.01597251 -0.087185889 220 52 147
0.19859385 -0.015639454 -0.087296724 220 52 147
0.19450308 -0.014123902 -0.085269846 220 52 147
0.196299 -0.014175564 -0.08552736 220 52 147
0.19894463 -0.01377736 -0.086449206 220 52 147
0.2008722 -0.013558269 -0.086412214 220 52 147
0.20423831 -0.013125338 -0.08617121 220 52 147
0.20573705 -0.013099357 -0.086683691 220 52 147
0.2084492 -0.013174929 -0.087076366 220 52 147
0.19929531 -0.011912063 -0.085601807 220 52 147
0.20119265 -0.011595003 -0.085206717 220 52 147
0.20414269 -0.01140058 -0.085693657 220 52 147
0.20559627 -0.011232894 -0.085668832 220 52 147
0.20881224 -0.011297584 -0.086233824 220 52 147
0.21103059 -0.011380096 -0.086457647 220 52 147
0.21419163 -0.011258635 -0.086907148 220 52 147
0.21596172 -0.011006966 -0.087100089 220 52 147
0.20642379 -0.0082845539 -0.085036755 220 52 147
0.20914343 -0.0083559752 -0.085432112 220 52 147
0.21136425 -0.0084360316 -0.085656881 220 52 147
0.21434219 -0.0081094997 -0.086335994 220 52 147
0.21581607 -0.0078090378 -0.086500786 220 52 147
0.21883164 -0.0085437223 -0.087141126 220 52 147
0.20982641 -0.0074024349 -0.085182548 220 52 147
0.21083015 -0.0073850304 -0.085525811 220 52 147
0.21424332 -0.006499514 -0.085675418 220 52 147
0.21575123 -0.0064733848 -0.086191088 220 52 147
0.21900372 -0.0070648789 -0.086742908 220 52 147
0.22142753 -0.0061932579 -0.086554378 220 52 147
0.2241542 -0.0057303905 -0.086978137 220 52 147
0.22589214 -0.0058164001 -0.087037951 220 52 147
0.21594445 -0.0042224624 -0.085308768 220 52 147
0.21908751 -0.0038389899 -0.085870698 220 52 147
0.2214307 -0.0033123821 -0.085743643 220 52 147
0.22429711 -0.0031789318 -0.086622089 220 52 147
0.22571228 -0.003014788 -0.086936533 220 52 147
0.23102072 -0.0028709918 -0.08734405 220 52 147
0.23451626 -0.0030378252 -0.087470591 220 52 147
0.22194768 -0.0017341152 -0.085362136 220 52 147
0.22491997 -0.0019084364 -0.085309803 220 52 147
0.22643703 -0.0018821359 -0.085828573 220 52 147
0.22947118 -0.0018295422 -0.086866111 220 52 147
0.23164085 -0.0010591298 -0.086057127 220 52 147
0.23366818 -0.0010239929 -0.086750388 220 52 147
0.23642059 -0.0016523361 -0.086495206 220 52 147
0.23943767 -0.0012611151 -0.087120354 220 52 147
0.24046992 -0.0017797872 -0.087447226 220 52 147
0.22485501 0.00022706389 -0.085391521 220 52 147
0.22732836 4.7340989e-05 -0.085168779 220 52 147
0.22935414 8.2448125e-05 -0.085861504 220 52 147
0.23098694 0.00067671138 -0.085742213 220 52 147
0.23427631 0.001332283 -0.085485876 220 52 147
0.23612924 0.0011124164 -0.085754633 220 52 147
0.23880592 0.0011906028 -0.085966304 220 52 147
0.24158442 0.0011290833 -0.086382255 220 52 147
0.23672196 0.0027666241 -0.085332096 220 52 147
0.24126063 0.0026275318 -0.085815847 220 52 147
0.24268436 0.0045903921 -0.085339308 220 52 147
0.15236145 -0.026085198 -0.082653105 220 52 147
0.1533393 -0.026068255 -0.082987487 220 52 147
0.15602043 -0.025763568 -0.083916858 220 52 147
0.15839215 -0.025598094 -0.084205091 220 52 147
0.16100425 -0.025170244 -0.084588051 220 52 147
0.15640317 -0.024598915 -0.083575204 220 52 147
0.15819806 -0.023799434 -0.083168641 220 52 147
0.16113839 -0.023748472 -0.084174097 220 52 147
0.16375615 -0.023318112 -0.084559113 220 52 147
0.15829836 -0.021340556 -0.082793593 220 52 147
0.16140649 -0.020898461 -0.083346441 220 52 147
0.16287892 -0.020872936 -0.083849967 220 52 147
0.16600853 -0.020949319 -0.084384918 220 52 147
0.17029777 -0.020615801 -0.084806561 220 52 147
0.16640699 -0.019187976 -0.083284378 220 52 147
0.16883235 -0.018386031 -0.083709978 220 52 147
0.1710088 -0.018716775 -0.084348157 220 52 147
0.17258082 -0.018754043 -0.084618151 220 52 147
0.17592013 -0.018952608 -0.084689856 220 52 147
0.17366934 -0.016642928 -0.083681859 220 52 147
0.1761201 -0.016270898 -0.08409521 220 52 147
0.17943162 -0.016182428 -0.084259547 220 52 147
0.18118964 -0.015539736 -0.084537864 220 52 147
0.18253085 -0.01621367 -0.084962606 220 52 147
0.18188441 -0.013231496 -0.082771778 220 52 147
0.18325102 -0.014606446 -0.08317107 220 52 147
0.18589962 -0.013634123 -0.083592966 220 52 147
0.18858397 -0.013711773 -0.083976001 220 52 147
0.19127208 -0.013787773 -0.084360376 220 52 147
0.19393206 -0.012813658 -0.084786177 220 52 147
0.19733205 -0.012999892 -0.08487922 220 52 147
0.18857674 -0.011503558 -0.083023168 220 52 147
0.19133316 -0.011320358 -0.083337687 220 52 147
0.19429104 -0.01147189 -0.083916187 220 52 147
0.19631971 -0.011381526 -0.084083766 220 52 147
0.19847207 -0.010842755 -0.083962761 220 52 147
0.20106097 -0.010254472 -0.084169388 220 52 147
0.20648813 -0.010400727 -0.084955812 220 52 147
0.19649354 -0.0082195997 -0.082710356 220 52 147
0.19899529 -0.0081762299 -0.083565831 220 52 147
0.20149705 -0.0081328601 -0.084421307 220 52 147
0.20441931 -0.0083193034 -0.084351361 220 52 147
0.20542157 -0.0083019286 -0.084694088 220 52 147
0.21226504 -0.0075956732 -0.084947348 220 52 147
0.20138045 -0.0073133507 -0.083363689 220 52 147
0.20397682 -0.0067184963 -0.083573081 220 52 147
0.20619163 -0.0068764389 -0.084232748 220 52 147
0.20880653 -0.0068899915 -0.08485961 220 52 147
0.21122749 -0.006551797 -0.084644161 220 52 147
0.20169967 -0.0043625534 -0.082558334 220 52 147
0.20270345 -0.0043451488 -0.082901537 220 52 147
0.20612042 -0.003985656 -0.083026893 220 52 147
0.20892838 -0.0033115596 -0.083224237 220 52 147
0.21098532 -0.0035604637 -0.08382564 220 52 147
0.21371782 -0.0036278863 -0.084225573 220 52 147
0.21667345 -0.0030198295 -0.084558211 220 52 147
0.22046533 -0.0028265268 -0.084803343 220 52 147
0.21142057 -0.0016907677 -0.082831055 220 52 147
0.21293306 -0.0016645491 -0.083348215 220 52 147
0.21639349 -0.0018303891 -0.083462857 220 52 147
0.21942306 -0.0017778724 -0.084498823 220 52 147
0.22043291 -0.0017603785 -0.084844172 220 52 147
0.21329907 0.00024937093 -0.082508445 220 52 147
0.2162714 0.00050859153 -0.082829833 220 52 147
0.21877047 0.0006557554 -0.08333689 220 52 147
0.22137679 0.0012305549 -0.083498374 220 52 147
0.22324418 0.0010475417 -0.083824255 220 52 147
0.22605054 0.0012213498 -0.084366903 220 52 147
0.22841179 0.0012722263 -0.084540211 220 52 147
0.23121214 0.0018157512 -0.084464155 220 52 147
0.23573714 0.0016747862 -0.084943056 220 52 147
0.22115333 0.0031500708 -0.083213329 220 52 147
0.22362348 0.0029751062 -0.082989693 220 52 147
0.22657509 0.0038816631 -0.082982898 220 52 147
0.22809902 0.0039080679 -0.083503991 220 52 147
0.23097076 0.0035286248 -0.084112525 220 52 147
0.23330857 0.003423949 -0.084199727 220 52 147
0.23600122 0.0042053536 -0.084362984 220 52 147
0.23817088 0.0036503449 -0.084811658 220 52 147
0.24115357 0.0045638606 -0.08481583 220 52 147
0.22305113 0.0051082522 -0.0828982 220 52 147
0.22600186 0.0060180128 -0.082891285 220 52 147
0.22848409 0.0058480799 -0.08267194 220 52 147
0.23102814 0.005892992 -0.08354196 220 52 147
0.23276585 0.006354019 -0.083628267 220 52 147
0.23565678 0.0062448382 -0.083815858 220 52 147
0.23804283 0.0061268955 -0.083830729 220 52 147
0.2413387 0.0060779713 -0.084423751 220 52 147
0.24310531 0.0060025305 -0.084493846 220 52 147
0.23090696 0.0078298897 -0.082537115 220 52 147
0.23656167 0.0082055554 -0.083162159 220 52 147
0.2385834 0.0089829713 -0.083096325 220 52 147
0.24172398 0.0085742995 -0.083618879 220 52 147
0.24325821 0.0086008906 -0.084143519 220 52 147
0.23682529 0.010751814 -0.082582653 220 52 147
0.2418921 0.010634772 -0.083247602 220 52 147
0.2433771 0.011245792 -0.08307866 220 52 147
0.24328609 0.013702482 -0.082814544 220 52 147
0.14894456 -0.026087802 -0.080694184 220 52 147
0.15154205 -0.025716834 -0.081862658 220 52 147
0.15316948 -0.025306039 -0.081908941 220 52 147
0.15201718 -0.02455768 -0.080494583 220 52 147
0.15338495 -0.023949396 -0.081255138 220 52 147
0.15639961 -0.023445629 -0.082043558 220 52 147
0.15423554 -0.021672234 -0.080333889 220 52 147
0.15676427 -0.021174476 -0.08095625 220 52 147
0.15862478 -0.020558454 -0.081885278 220 52 147
0.1574752 -0.019798741 -0.08047241 220 52 147
0.15895106 -0.019773155 -0.080977052 220 52 147
0.17644592 -0.015523359 -0.081862897 220 52 147
0.17793325 -0.01549758 -0.082371473 220 52 147
0.17694028 -0.014016514 -0.081047118 220 52 147
0.17825377 -0.013644077 -0.081513286 220 52 147
0.18058157 -0.013953392 -0.082292259 220 52 147
0.18357903 -0.012747943 -0.082315624 220 52 147
0.17807679 -0.011792742 -0.080485225 220 52 147
0.18123856 -0.011333615 -0.081057191 220 52 147
0.18322927 -0.011299107 -0.081737921 220 52 147
0.18641314 -0.011365689 -0.082291842 220 52 147
0.19155428 -0.010419264 -0.08091858 220 52 147
0.19305533 -0.010393247 -0.081431866 220 52 147
0.1955571 -0.010349885 -0.082287341 220 52 147
0.18373562 -0.009020336 -0.080434889 220 52 147
0.18668313 -0.0086970134 -0.081103481 220 52 147
0.18813573 -0.0083996058 -0.08126086 220 52 147
0.1910886 -0.0080761909 -0.081931293 220 52 147
0.19378993 -0.0081479102 -0.082320422 220 52 147
0.18895614 -0.0072932094 -0.08018434 220 52 147
0.19174802 -0.0069704354 -0.080799796 220 52 147
0.19314471 -0.0068090335 -0.081107795 220 52 147
0.19623765 -0.0070258081 -0.081411876 220 52 147
0.19829194 -0.006817033 -0.08162912 220 52 147
0.20126227 -0.0064906254 -0.08230561 220 52 147
0.19617903 -0.0044582412 -0.080670536 220 52 147
0.19837561 -0.0040045641 -0.080913022 220 52 147
0.20155664 -0.0033662945 -0.08128874 220 52 147
0.20328085 -0.0030867234 -0.081573188 220 52 147
0.2059903 -0.0026225448 -0.081991136 220 52 147
0.20385811 -0.0018218458 -0.080245078 220 52 147
0.20637892 -0.0017781481 -0.08110705 220 52 147
0.20889974 -0.0017344579 -0.081969053 220 52 147
0.20343566 0.0010110587 -0.0802387 220 52 147
0.20642205 0.0013447279 -0.080921061 220 52 147
0.20807634 0.0012997389 -0.081130587 220 52 147
0.21096304 0.0011231899 -0.081754126 220 52 147
0.21317542 0.0016270801 -0.081475586 220 52 147
0.21618067 0.0017841011 -0.082155786 220 52 147
0.21814716 0.002028048 -0.082133293 220 52 147
0.21110395 0.0031936467 -0.080845177 220 52 147
0.21334201 0.0031235591 -0.081076324 220 52 147
0.21654928 0.0037120283 -0.081317566 220 52 147
0.21811461 0.0030974001 -0.082174182 220 52 147
0.21197215 0.0051307678 -0.080177844 220 52 147
0.2134915 0.0051571131 -0.080697387 220 52 147
0.2171119 0.0057196668 -0.080902003 220 52 147
0.21840975 0.0062615611 -0.080842212 220 52 147
0.22128326 0.006007731 -0.081633754 220 52 147
0.22366735 0.0064084455 -0.081585035 220 52 147
0.22710568 0.0065407008 -0.082235433 220 52 147
0.22890165 0.0067187697 -0.08179909 220 52 147
0.23093969 0.0067540854 -0.082495987 220 52 147
0.22177245 0.0089560151 -0.080533683 220 52 147
0.22401267 0.0094289817 -0.080792025 220 52 147
0.22702171 0.0087356716 -0.080727041 220 52 147
0.22855139 0.0087621845 -0.081250116 220 52 147
0.23199685 0.009076382 -0.08191184 220 52 147
0.23359659 0.0086415336 -0.081907541 220 52 147
0.23583603 0.0096550733 -0.082191885 220 52 147
0.22717977 0.010789499 -0.080352008 220 52 147
0.22916973 0.011047269 -0.080338217 220 52 147
0.23169856 0.011202745 -0.080855817 220 52 147
0.23345932 0.011131633 -0.080924109 220 52 147
0.23642862 0.011329149 -0.081770279 220 52 147
0.23880492 0.011121854 -0.082218215 220 52 147
0.24181426 0.011511341 -0.082205892 220 52 147
0.23206946 0.0137081 -0.080046475 220 52 147
0.23360482 0.013734713 -0.080571473 220 52 147
0.23660642 0.014128104 -0.08055672 220 52 147
0.2385473 0.014013785 -0.081001677 220 52 147
0.24135314 0.014258568 -0.081477083 220 52 147
0.24372208 0.014594436 -0.081948936 220 52 147
0.23855594 0.015589297 -0.080235094 220 52 147
0.24112251 0.015633777 -0.081112742 220 52 147
0.24373612 0.016173262 -0.081184372 220 52 147
0.24399628 0.01909671 -0.080146074 220 52 147
0.24502596 0.019114546 -0.080498189 220 52 147
0.14487648 -0.026484266 -0.079022825 220 52 147
0.14638735 -0.025946921 -0.07885921 220 52 147
0.14861563 -0.025652729 -0.079281032 220 52 147
0.14919473 -0.024614975 -0.078118764 220 52 147
0.15091944 -0.024062311 -0.079439104 220 52 147
0.15065092 -0.021995664 -0.078037739 220 52 147
0.15369286 -0.021162851 -0.078763306 220 52 147
0.1568453 -0.020067692 -0.079186738 220 52 147
0.15897609 -0.01698201 -0.078300834 220 52 147
0.16094199 -0.016599899 -0.078989983 220 52 147
0.16385165 -0.016285822 -0.079645187 220 52 147
0.16888332 -0.015904449 -0.078207016 220 52 147
0.17661682 -0.012868628 -0.079934895 220 52 147
0.1749737 -0.012090072 -0.078354537 220 52 147
0.17714046 -0.011647396 -0.07858634 220 52 147
0.17842814 -0.010978006 -0.079586953 220 52 147
0.17903094 -0.0088296533 -0.0784868 220 52 147
0.18169236 -0.0087835193 -0.079396866 220 52 147
0.18359476 -0.0082060844 -0.079368748 220 52 147
0.18195122 -0.0074146241 -0.077789009 220 52 147
0.18404207 -0.0071725957 -0.078249559 220 52 147
0.18652816 -0.0067865304 -0.078675628 220 52 147
0.18853211 -0.0067517906 -0.079360902 220 52 147
0.19132602 -0.0064289868 -0.079977036 220 52 147
0.18865089 -0.0045887283 -0.078096271 220 52 147
0.19123745 -0.0039897612 -0.078302562 220 52 147
0.19353823 -0.0036717355 -0.078750305 220 52 147
0.19674161 -0.0032000765 -0.079337075 220 52 147
0.19894269 -0.002744697 -0.079581201 220 52 147
0.19679978 -0.0019441992 -0.077831447 220 52 147
0.19881646 -0.0019092411 -0.078521051 220 52 147
0.20184144 -0.0018568039 -0.079555452 220 52 147
0.20284978 -0.0018393248 -0.079900265 220 52 147
0.19673502 0.0001848489 -0.077912927 220 52 147
0.1991449 0.00053738058 -0.077694356 220 52 147
0.20119126 0.00098157523 -0.078837082 220 52 147
0.20335539 0.0015734732 -0.079533555 220 52 147
0.20351858 0.0030621688 -0.078251362 220 52 147
0.20655274 0.0031147599 -0.0792889 220 52 147
0.2080698 0.0031410605 -0.079807639 220 52 147
0.20488179 0.0050078779 -0.077753305 220 52 147
0.20710126 0.0054748282 -0.078004241 220 52 147
0.20862174 0.0055011958 -0.078524157 220 52 147
0.21160619 0.0059822202 -0.079036742 220 52 147
0.21382213 0.0065359473 -0.079184912 220 52 147
0.21682563 0.0069320947 -0.079805613 220 52 147
0.21719378 0.0088766515 -0.078967988 220 52 147
0.21865603 0.0094229607 -0.078858793 220 52 147
0.22167045 0.0098225176 -0.07948339 220 52 147
0.22268945 0.0098401904 -0.079831839 220 52 147
0.21901548 0.010647982 -0.077560246 220 52 147
0.22153227 0.010983179 -0.078082442 220 52 147
0.2238123 0.011168487 -0.078692928 220 52 147
0.22534426 0.011195041 -0.079216748 220 52 147
0.22810496 0.011680238 -0.079653203 220 52 147
0.22490436 0.013583913 -0.077596366 220 52 147
0.22591153 0.014141954 -0.077967048 220 52 147
0.22877426 0.0142997 -0.078951225 220 52 147
0.2312559 0.014135383 -0.079260856 220 52 147
0.23402719 0.014624804 -0.079701096 220 52 147
0.22886871 0.01561822 -0.077989787 220 52 147
0.23122872 0.015954986 -0.07845863 220 52 147
0.23403075 0.01620088 -0.078932784 220 52 147
0.23722894 0.016010903 -0.079274148 220 52 147
0.23898417 0.016485944 -0.079367131 220 52 147
0.24052641 0.016512677 -0.079894483 220 52 147
0.23377733 0.018567756 -0.07769227 220 52 147
0.23634775 0.01861231 -0.07857123 220 52 147
0.2389584 0.019156545 -0.078642085 220 52 147
0.24090722 0.019043155 -0.079089761 220 52 147
0.24296659 0.019078858 -0.07979399 220 52 147
0.23925853 0.020457298 -0.077538371 220 52 147
0.24080533 0.020484112 -0.078067362 220 52 147
0.24411592 0.020992547 -0.078692496 220 52 147
0.24544579 0.020564541 -0.079654157 220 52 147
0.24426657 0.023627937 -0.078343183 220 52 147
0.24521744 0.024552986 -0.077654839 220 52 147
0.14128412 -0.026739305 -0.075669669 220 52 147
0.1442183 -0.026257407 -0.076482438 220 52 147
0.1458261 -0.025197193 -0.076236248 220 52 147
0.14779395 -0.025163084 -0.076909184 220 52 147
0.14613196 -0.024417073 -0.07532084 220 52 147
0.14873451 -0.023461685 -0.075726211 220 52 147
0.15081605 -0.021471996 -0.076004148 220 52 147
0.15374492 -0.020379506 -0.077056348 220 52 147
0.15443787 -0.019055208 -0.075594246 220 52 147
0.15568832 -0.018642209 -0.076217175 220 52 147
0.15745816 -0.017440766 -0.077408195 220 52 147
0.15827526 -0.016634092 -0.076668382 220 52 147
0.16428013 -0.016234227 -0.075563133 220 52 147
0.16593827 -0.01580438 -0.075620741 220 52 147
0.16831696 -0.01562945 -0.076264359 220 52 147
0.17008901 -0.015331343 -0.076530695 220 52 147
0.16939783 -0.013484076 -0.075327098 220 52 147
0.17120638 -0.013330154 -0.076480329 220 52 147
0.17273214 -0.012616038 -0.07544899 220 52 147
0.17402703 -0.0119441 -0.076452181 220 52 147
0.17546861 -0.010889128 -0.076113842 220 52 147
0.17804483 -0.010653421 -0.076298952 220 52 147
0.17597914 -0.0085751712 -0.075695455 220 52 147
0.17865562 -0.0081180111 -0.076101795 220 52 147
0.17994982 -0.007449314 -0.077104628 220 52 147
0.18149565 -0.006716311 -0.076080978 220 52 147
0.18330818 -0.006567955 -0.077235341 220 52 147
0.18405291 -0.0043820799 -0.075903296 220 52 147
0.18599863 -0.0038024236 -0.076172091 220 52 147
0.18869326 -0.0033395812 -0.07658492 220 52 147
0.19139166 -0.0028755888 -0.076999098 220 52 147
0.18923733 -0.0020752773 -0.07524547 220 52 147
0.19074982 -0.0020490587 -0.075762689 220 52 147
0.19377482 -0.0019966215 -0.076797068 220 52 147
0.19815123 -1.3202429e-05 -0.077328682 220 52 147
0.18917257 5.377084e-05 -0.07532689 220 52 147
0.19068506 7.9989433e-05 -0.075844109 220 52 147
0.19380239 0.00034505501 -0.076655924 220 52 147
0.19656034 0.0013083717 -0.076497674 220 52 147
0.19870619 0.0016279966 -0.076892637 220 52 147
0.20051694 0.001941815 -0.077172995 220 52 147
0.19886942 0.0027638127 -0.075593293 220 52 147
0.20051368 0.0042199441 -0.076224983 220 52 147
0.20336245 0.0049815401 -0.077233762 220 52 147
0.20070107 0.0057923794 -0.075307667 220 52 147
0.20393527 0.0062785484 -0.075905681 220 52 147
0.20545805 0.0063049421 -0.076426387 220 52 147
0.21376471 0.0085058855 -0.07619381 220 52 147
0.21580425 0.0085412338 -0.076891243 220 52 147
0.21587308 0.01038865 -0.075418025 220 52 147
0.21903634 0.011027684 -0.075822972 220 52 147
0.22043952 0.011547372 -0.07703203 220 52 147
0.22101167 0.013957821 -0.075757831 220 52 147
0.22357255 0.014002208 -0.076633528 220 52 147
0.22531375 0.014473766 -0.076721549 220 52 147
0.2241963 0.015767479 -0.075698137 220 52 147
0.22599837 0.016012255 -0.076501027 220 52 147
0.22928327 0.01651299 -0.077117026 220 52 147
0.22658022 0.018443003 -0.075231224 220 52 147
0.22935738 0.018938959 -0.075673819 220 52 147
0.23090076 0.018965714 -0.076201558 220 52 147
0.23419772 0.019470677 -0.076821893 220 52 147
0.23574227 0.019497454 -0.07735008 220 52 147
0.23204005 0.020332173 -0.075070024 220 52 147
0.23410246 0.02036792 -0.075775266 220 52 147
0.23586014 0.020849444 -0.075869396 220 52 147
0.23885524 0.02105171 -0.076724611 220 52 147
0.24123468 0.021393657 -0.077200323 220 52 147
0.23904508 0.023353502 -0.075491071 220 52 147
0.24139948 0.023794839 -0.076104082 220 52 147
0.24418318 0.02453506 -0.077301145 220 52 147
0.24150869 0.02540046 -0.075373292 220 52 147
0.24358027 0.025436372 -0.076081634 220 52 147
0.24610278 0.025848046 -0.075904429 220 52 147
0.1391329 -0.026486374 -0.073361635 220 52 147
0.14157537 -0.025883416 -0.073695242 220 52 147
0.1441927 -0.02549161 -0.074607074 220 52 147
0.14463091 -0.023795709 -0.073252529 220 52 147
0.14599355 -0.023468127 -0.073556982 220 52 147
0.14704892 -0.022057429 -0.072575271 220 52 147
0.14956445 -0.02157869 -0.073809169 220 52 147
0.15073995 -0.020335471 -0.073565505 220 52 147
0.15207605 -0.018959641 -0.073911875 220 52 147
0.15419972 -0.018003672 -0.07415396 220 52 147
0.15352255 -0.01721967 -0.072903395 220 52 147
0.15582858 -0.0168295 -0.073708974 220 52 147
0.16165394 -0.016529731 -0.073595166 220 52 147
0.16447362 -0.015677065 -0.073540747 220 52 147
0.16547129 -0.015659764 -0.073881924 220 52 147
0.16626959 -0.013783462 -0.073187768 220 52 147
0.16907918 -0.013030618 -0.074182771 220 52 147
0.17073381 -0.012650669 -0.074765623 220 52 147
0.17085119 -0.011562918 -0.07344836 220 52 147
0.17351003 -0.011164486 -0.074374698 220 52 147
0.17422539 -0.0090797767 -0.072957218 220 52 147
0.17579277 -0.008188243 -0.074240409 220 52 147
0.177048 -0.0071442425 -0.072956502 220 52 147
0.1791797 -0.0068733916 -0.074754477 220 52 147
0.17999929 -0.0049693584 -0.074068964 220 52 147
0.18090324 -0.0043984703 -0.073699914 220 52 147
0.18394189 -0.0035108279 -0.073721908 220 52 147
0.18574056 -0.003200978 -0.073997915 220 52 147
0.18606539 -0.0012893826 -0.073144019 220 52 147
0.18740147 0.00064617395 -0.072636187 220 52 147
0.18942422 0.00068123639 -0.073327899 220 52 147
0.19112322 0.001135163 -0.073400646 220 52 147
0.19409062 0.0016118586 -0.073907197 220 52 147
0.19554132 0.002062276 -0.073895097 220 52 147
0.19599971 0.0036767125 -0.074129969 220 52 147
0.19870478 0.0046862364 -0.074572921 220 52 147
0.19926611 0.005985491 -0.07324101 220 52 147
0.2016468 0.0068164566 -0.073564671 220 52 147
0.20441276 0.0073706657 -0.073477447 220 52 147
0.20594126 0.0073971525 -0.07400012 220 52 147
0.20476079 0.0093229413 -0.072633386 220 52 147
0.2062916 0.0093494728 -0.073156863 220 52 147
0.20935321 0.0094025359 -0.074203759 220 52 147
0.210884 0.0094290823 -0.074727237 220 52 147
0.21118459 0.010102503 -0.072747141 220 52 147
0.2139314 0.010579343 -0.074059822 220 52 147
0.21607071 0.011387043 -0.073682994 220 52 147
0.2171458 0.013249382 -0.073875844 220 52 147
0.21877836 0.013867279 -0.073757626 220 52 147
0.22042194 0.013748363 -0.074488789 220 52 147
0.21999621 0.015070781 -0.072821379 220 52 147
0.22155344 0.015525386 -0.073727228 220 52 147
0.22407585 0.016227528 -0.074269235 220 52 147
0.2223894 0.018178374 -0.072731137 220 52 147
0.22443223 0.018758416 -0.073456138 220 52 147
0.22565281 0.01902402 -0.074238025 220 52 147
0.22750476 0.019354671 -0.074533224 220 52 147
0.22636837 0.02023387 -0.073130608 220 52 147
0.22873943 0.020575667 -0.073603451 220 52 147
0.23131996 0.020996276 -0.074063435 220 52 147
0.2345219 0.021277308 -0.074904859 220 52 147
0.23180524 0.023228019 -0.073015392 220 52 147
0.23387377 0.023263872 -0.07372272 220 52 147
0.23677255 0.0236175 -0.074376166 220 52 147
0.23947036 0.024271026 -0.074623048 220 52 147
0.24050617 0.024288982 -0.074977219 220 52 147
0.24390021 0.025998726 -0.073045015 220 52 147
0.24598095 0.026034787 -0.073756576 220 52 147
0.24742195 0.02808173 -0.073289931 220 52 147
0.13699463 -0.026791155 -0.071559727 220 52 147
0.13843635 -0.026123613 -0.070497423 220 52 147
0.14132586 -0.025465056 -0.071162499 220 52 147
0.14285284 -0.025002912 -0.072058439 220 52 147
0.14348373 -0.024473593 -0.070183992 220 52 147
0.14646271 -0.021868072 -0.071062431 220 52 147
0.14888105 -0.020710682 -0.071502946 220 52 147
0.14892769 -0.018601492 -0.070211172 220 52 147
0.15100949 -0.018046409 -0.071653388 220 52 147
0.15175496 -0.016968176 -0.070549823 220 52 147
0.15383682 -0.016415238 -0.07199204 220 52 147
0.15851976 -0.016834058 -0.071453601 220 52 147
0.16118203 -0.016333753 -0.071328364 220 52 147
0.16283664 -0.015953794 -0.071911216 220 52 147
0.16313067 -0.014083043 -0.071044862 220 52 147
0.16594881 -0.013302296 -0.071779698 220 52 147
0.16711369 -0.012262836 -0.070905447 220 52 147
0.1689921 -0.011563763 -0.071403883 220 52 147
0.17077672 -0.011260048 -0.071674824 220 52 147
0.17132413 -0.0091013052 -0.070908844 220 52 147
0.17460802 -0.0080690905 -0.070492655 220 52 147
0.17506972 -0.0082404017 -0.072228372 220 52 147
0.17619789 -0.0071157813 -0.071257614 220 52 147
0.17877936 -0.0065168887 -0.071462184 220 52 147
0.1789034 -0.0044990927 -0.071073771 220 52 147
0.18151638 -0.003348276 -0.070963338 220 52 147
0.18446475 -0.0026096553 -0.071476102 220 52 147
0.18237704 -0.00050921738 -0.070866108 220 52 147
0.18439978 -0.00047415495 -0.07155782 220 52 147
0.18656094 0.00069414079 -0.070941567 220 52 147
0.18896838 0.0014125779 -0.071621388 220 52 147
0.19129302 0.0023421198 -0.071578167 220 52 147
0.19188741 0.0041389912 -0.070105433 220 52 147
0.19372237 0.0042780712 -0.071266979 220 52 147
0.19555578 0.0044171214 -0.072427988 220 52 147
0.1963716 0.0054540932 -0.071170121 220 52 147
0.20084623 0.0073088408 -0.072257876 220 52 147
0.20159706 0.0090615973 -0.070483834 220 52 147
0.20271972 0.0092875659 -0.071935475 220 52 147
0.20606667 0.010013796 -0.070997059 220 52 147
0.20862563 0.01005815 -0.071872085 220 52 147
0.21134113 0.010847633 -0.07107389 220 52 147
0.21555555 0.01193735 -0.072211862 220 52 147
0.21636517 0.014237801 -0.070907675 220 52 147
0.21813834 0.015483983 -0.071678907 220 52 147
0.220911 0.015977442 -0.072119802 220 52 147
0.2187005 0.017922431 -0.070402622 220 52 147
0.22161543 0.018730462 -0.070801616 220 52 147
0.2229936 0.019536361 -0.071416676 220 52 147
0.22611983 0.020812158 -0.071751833 220 52 147
0.22958907 0.022821754 -0.070124328 220 52 147
0.2316637 0.022857711 -0.070833743 220 52 147
0.23363496 0.023805253 -0.070494533 220 52 147
0.23671801 0.024164235 -0.071211062 220 52 147
0.23821162 0.024801195 -0.071046382 220 52 147
0.24133271 0.024855293 -0.072113633 220 52 147
0.23915374 0.02573736 -0.070355594 220 52 147
0.24175847 0.025782511 -0.071246266 220 52 147
0.2433213 0.025809601 -0.071780682 220 52 147
0.24162892 0.027805462 -0.070242763 220 52 147
0.24371576 0.027841637 -0.070956349 220 52 147
0.24684602 0.027895898 -0.07202673 220 52 147
0.24774432 0.028665081 -0.07025522 220 52 147
0.13662641 -0.026769131 -0.06879095 220 52 147
0.13954937 -0.025589153 -0.068787694 220 52 147
0.14216052 -0.024627976 -0.069196284 220 52 147
0.14341953 -0.022769481 -0.068658441 220 52 147
0.14405051 -0.021837786 -0.068390131 220 52 147
0.14646132 -0.021181086 -0.068891823 220 52 147
0.14727408 -0.018883377 -0.068575621 220 52 147
0.14824583 -0.018076979 -0.068946347 220 52 147
0.15368828 -0.016360745 -0.067713231 220 52 147
0.15669039 -0.01630871 -0.068739802 220 52 147
0.15819144 -0.016282693 -0.069253087 220 52 147
0.16019285 -0.016248003 -0.069937468 220 52 147
0.16204454 -0.01415651 -0.068907976 220 52 147
0.1664649 -0.011928548 -0.069113813 220 52 147
0.16742232 -0.0096719116 -0.068492472 220 52 147
0.17614479 -0.0063138208 -0.068457998 220 52 147
0.17745003 -0.0048678517 -0.068973541 220 52 147
0.17880645 -0.0040034652 -0.068420589 220 52 147
0.18149644 -0.0029998347 -0.068858117 220 52 147
0.18211322 -0.00042242557 -0.068664998 220 52 147
0.1831114 0.00012983382 -0.069032311 220 52 147
0.18600243 0.0010329075 -0.069004685 220 52 147
0.18819608 0.0020343959 -0.069272816 220 52 147
0.18922579 0.0038783252 -0.068127215 220 52 147
0.19124743 0.0044523403 -0.068844676 220 52 147
0.19264549 0.0048010349 -0.068280876 220 52 147
0.19364959 0.0053582191 -0.068650454 220 52 147
0.19666877 0.0062251836 -0.068400383 220 52 147
0.19808549 0.0068415552 -0.069178045 220 52 147
0.20137252 0.0091869384 -0.068297923 220 52 147
0.20340557 0.0097627938 -0.069019347 220 52 147
0.20676219 0.010497242 -0.068084717 220 52 147
0.20846476 0.010889307 -0.068684541 220 52 147
0.21570623 0.01460278 -0.069219828 220 52 147
0.21640137 0.015606478 -0.068976909 220 52 147
0.21773553 0.015727222 -0.069966733 220 52 147
0.21674488 0.018146809 -0.068159938 220 52 147
0.21872811 0.018926401 -0.068768561 220 52 147
0.22156227 0.019773036 -0.069353402 220 52 147
0.22395048 0.020532593 -0.068089634 220 52 147
0.22667983 0.023228012 -0.068622857 220 52 147
0.22858937 0.023352444 -0.069174491 220 52 147
0.2316584 0.02438207 -0.069143198 220 52 147
0.23405017 0.024729058 -0.069623381 220 52 147
0.23446524 0.025656089 -0.068752348 220 52 147
0.23706996 0.02570124 -0.069643021 220 52 147
0.23811185 0.0257193 -0.069999337 220 52 147
0.23436272 0.028164124 -0.068486787 220 52 147
0.23658657 0.028511435 -0.068909682 220 52 147
0.23898657 0.02806896 -0.069001675 220 52 147
0.24041903 0.028538108 -0.067750335 220 52 147
0.24355845 0.028592527 -0.068823837 220 52 147
0.24565136 0.028628811 -0.069539487 220 52 147
0.24864239 0.029440716 -0.068483889 220 52 147
0.13525879 -0.027243108 -0.065128326 220 52 147
0.13886306 -0.025779312 -0.066428937 220 52 147
0.14016792 -0.025056839 -0.066909194 220 52 147
0.14158782 -0.023320563 -0.065891385 220 52 147
0.14390455 -0.02134455 -0.066072591 220 52 147
0.14664406 -0.020201325 -0.067238927 220 52 147
0.14491561 -0.018375278 -0.065680444 220 52 147
0.14691398 -0.018340647 -0.066363811 220 52 147
0.14688188 -0.017285794 -0.066404164 220 52 147
0.1612218 -0.015913472 -0.067131579 220 52 147
0.15613084 -0.013877995 -0.065494001 220 52 147
0.16349208 -0.012930453 -0.066993356 220 52 147
0.16369694 -0.012023647 -0.066402219 220 52 147
0.17617324 -0.0053481013 -0.066399276 220 52 147
0.17903717 -0.0039177686 -0.066388041 220 52 147
0.17949623 -0.0023000985 -0.066623271 220 52 147
0.1816857 -0.0012995079 -0.066889942 220 52 147
0.18387832 0.00091585517 -0.066159047 220 52 147
0.18623421 0.0016737431 -0.066999555 220 52 147
0.18887207 0.0040369295 -0.066163301 220 52 147
0.19237977 0.0054517537 -0.066106498 220 52 147
0.1940971 0.0059172586 -0.066186041 220 52 147
0.19717503 0.008365497 -0.065768421 220 52 147
0.19887507 0.0087569803 -0.06636741 220 52 147
0.20124859 0.0095205158 -0.067214131 220 52 147
0.20408651 0.010247588 -0.066102207 220 52 147
0.20511618 0.01026544 -0.066454291 220 52 147
0.22448079 0.022915035 -0.067328654 220 52 147
0.23979262 0.029459953 -0.06652379 220 52 147
0.24129575 0.029313371 -0.065971673 220 52 147
0.24414943 0.029276505 -0.066414446 220 52 147
0.24648063 0.029230587 -0.066678584 220 52 147
0.24871908 0.030123033 -0.065898925 220 52 147
0.13426417 -0.027260348 -0.064788222 220 52 147
0.13586208 -0.026711062 -0.063244581 220 52 147
0.13816856 -0.025968 -0.064067446 220 52 147
0.13808179 -0.023770824 -0.063086987 220 52 147
0.14072622 -0.023326308 -0.063481838 220 52 147
0.14348951 -0.021421589 -0.063459367 220 52 147
0.14412068 -0.018455515 -0.063642643 220 52 147
0.14521444 -0.017564669 -0.064764202 220 52 147
0.17605399 -0.0048471987 -0.063738704 220 52 147
0.17839643 -0.0036325094 -0.063614659 220 52 147
0.17991817 -0.00103046 -0.062598228 220 52 147
0.18018562 -0.0005838424 -0.064826548 220 52 147
0.18352517 0.0011375956 -0.063669592 220 52 147
0.18633686 0.0021033958 -0.063882381 220 52 147
0.18563074 0.0040406585 -0.062677979 220 52 147
0.18799962 0.0041881651 -0.064022064 220 52 147
0.19008747 0.0049893707 -0.063186646 220 52 147
0.19072336 0.0052117258 -0.064472079 220 52 147
0.19364771 0.0061355084 -0.06445682 220 52 147
0.19551843 0.0081302971 -0.0641343 220 52 147
0.19865617 0.0089633912 -0.063658535 220 52 147
0.20077318 0.0097836405 -0.062834024 220 52 147
0.20283866 0.0098194331 -0.06354028 220 52 147
0.20346412 0.010033533 -0.06482172 220 52 147
0.20559172 0.01085721 -0.064000994 220 52 147
0.20521331 0.012934789 -0.063444138 220 52 147
0.24368152 0.029950194 -0.063643306 220 52 147
0.24578971 0.029986739 -0.064364195 220 52 147
0.24674252 0.030948862 -0.063678354 220 52 147
0.24822694 0.031920202 -0.063174278 220 52 147
0.13646516 -0.026172563 -0.061361134 220 52 147
0.1323981 -0.024128988 -0.060073197 220 52 147
0.1343995 -0.024094298 -0.060757577 220 52 147
0.13590056 -0.024068281 -0.061270863 220 52 147
0.13940302 -0.024007574 -0.062468529 220 52 147
0.14035502 -0.023321122 -0.061240107 220 52 147
0.14147179 -0.02184001 -0.0611642 220 52 147
0.14220218 -0.018897809 -0.060498714 220 52 147
0.14386877 -0.018087968 -0.062164247 220 52 147
0.17554218 -0.0035802573 -0.062039226 220 52 147
0.17582995 -0.0011013299 -0.061200202 220 52 147
0.17874214 -0.00073042884 -0.061153919 220 52 147
0.18096076 -0.00026187301 -0.061404645 220 52 147
0.18200624 0.00051160157 -0.060212314 220 52 147
0.18364635 0.0018406212 -0.061894059 220 52 147
0.18429132 0.0041665039 -0.061169546 220 52 147
0.18584996 0.0047046095 -0.06066972 220 52 147
0.18893445 0.0047580749 -0.061724454 220 52 147
0.19176824 0.0059067854 -0.060984094 220 52 147
0.19428256 0.0066066384 -0.061523199 220 52 147
0.19531378 0.0066245049 -0.06187582 220 52 147
0.19460994 0.0085859448 -0.060673416 220 52 147
0.19618838 0.0090457648 -0.061586756 220 52 147
0.19910738 0.0095515102 -0.061196804 220 52 147
0.20014164 0.0095694363 -0.061550438 220 52 147
0.20194799 0.010289922 -0.06008637 220 52 147
0.20433767 0.010432169 -0.061437219 220 52 147
0.20147881 0.01267162 -0.061099768 220 52 147
0.20406829 0.012716502 -0.061985224 220 52 147
0.20725638 0.013022766 -0.061501116 220 52 147
0.2095058 0.014059857 -0.06178993 220 52 147
0.20986885 0.015518531 -0.060927033 220 52 147
0.24346977 0.031837747 -0.061547577 220 52 147
0.24558407 0.031874388 -0.062270522 220 52 147
0.24698623 0.033858228 -0.061082464 220 52 147
0.24879421 0.033697922 -0.061489888 220 52 147
0.24891126 0.037036046 -0.060483336 220 52 147
0.13308534 -0.026756898 -0.058064401 220 52 147
0.13559471 -0.026713409 -0.05892247 220 52 147
0.13732105 -0.023760796 -0.058597207 220 52 147
0.13947569 -0.023320742 -0.058824748 220 52 147
0.14030463 -0.022647217 -0.059669077 220 52 147
0.14059421 -0.021835133 -0.058749676 220 52 147
0.13981067 -0.018908313 -0.05756706 220 52 147
0.14130116 -0.01899517 -0.058494329 220 52 147
0.18167599 0.0010126829 -0.059066374 220 52 147
0.18619366 0.005307267 -0.058348257 220 52 147
0.18954572 0.0052255541 -0.058782578 220 52 147
0.19146737 0.0055962056 -0.058398396 220 52 147
0.19883607 0.010235973 -0.059022188 220 52 147
0.20091069 0.010271937 -0.059731603 220 52 147
0.20690577 0.012974091 -0.058206022 220 52 147
0.20864171 0.014007911 -0.058319569 220 52 147
0.2508294 0.0389992 -0.059117794 220 52 147
0.12937567 -0.027084097 -0.055725396 220 52 147
0.13181335 -0.026774988 -0.056219358 220 52 147
0.13266912 -0.026226431 -0.055832803 220 52 147
0.13392258 -0.024335802 -0.055294633 220 52 147
0.13649537 -0.023850152 -0.056548435 220 52 147
0.13792351 -0.023201346 -0.056714535 220 52 147
0.13865833 -0.021852916 -0.056678217 220 52 147
0.13793641 -0.018533245 -0.056417137 220 52 147
0.14110833 -0.018069103 -0.056992829 220 52 147
0.18859616 0.0056756735 -0.055307508 220 52 147
0.19118944 0.0057206303 -0.056194335 220 52 147
0.20635611 0.01247251 -0.055349886 220 52 147
0.20736897 0.013595432 -0.055750012 220 52 147
0.20800686 0.013801694 -0.057035267 220 52 147
0.25264424 0.039535642 -0.055532098 220 52 147
0.12692904 -0.026587188 -0.052799582 220 52 147
0.12894568 -0.026552239 -0.053489208 220 52 147
0.13120434 -0.024640955 -0.053294867 220 52 147
0.13291425 -0.024353281 -0.05494982 220 52 147
0.13738453 -0.018382028 -0.054649651 220 52 147
0.18652153 0.005639717 -0.054598093 220 52 147
0.20466566 0.012246385 -0.053704619 220 52 147
0.2071335 0.013200954 -0.053535104 220 52 147
0.20543694 0.012976333 -0.05188781 220 52 147
0 0 0 1 0 0 0 1 0 0 0 1 0 0 0 0 0 965 1 0 0
