ply
format ascii 1.0
comment PCL generated
element vertex 758
property float x
property float y
property float z
property uchar red
property uchar green
property uchar blue
element camera 1
property float view_px
property float view_py
property float view_pz
property float x_axisx
property float x_axisy
property float x_axisz
property float y_axisx
property float y_axisy
property float y_axisz
property float z_axisx
property float z_axisy
property float z_axisz
property float focal
property float scalex
property float scaley
property float centerx
property float centery
property int viewportx
property int viewporty
property float k1
property float k2
end_header
-0.13862452 -0.091191821 0.0027760267 0 0 0
-0.13561726 -0.091191821 0.0027760267 0 0 0
-0.13561726 -0.08818455 0.0027760267 0 0 0
-0.13561726 -0.08517728 0.0027760267 0 0 0
-0.13279131 -0.091253996 0.0037759542 0 0 0
-0.13242865 -0.088125117 0.00177598 0 0 0
-0.1322473 -0.085063867 0.00077605247 0 0 0
-0.1296027 -0.08818455 0.0027760267 0 0 0
-0.12906688 -0.085007161 -0.00022399426 0 0 0
-0.12978134 -0.082223989 0.0037759542 0 0 0
-0.12641957 -0.085120581 0.00177598 0 0 0
-0.12641957 -0.082116038 0.00177598 0 0 0
-0.12641957 -0.079111502 0.00177598 0 0 0
-0.12376132 -0.085233994 0.0037759542 0 0 0
-0.12358818 -0.08217001 0.0027760267 0 0 0
-0.12289559 -0.078957766 -0.001224041 0 0 0
-0.11989925 -0.078957766 -0.001224041 0 0 0
-0.12024008 -0.076058455 0.00077605247 0 0 0
-0.12041049 -0.07310243 0.00177598 0 0 0
-0.11707059 -0.079009011 -0.00022399426 0 0 0
-0.11690291 -0.075961426 -0.001224041 0 0 0
-0.11673523 -0.072919294 -0.0022239685 0 0 0
-0.11440142 -0.079111502 0.00177598 0 0 0
-0.11407151 -0.076009937 -0.00022399426 0 0 0
-0.11341173 -0.072827734 -0.0042239428 0 0 0
-0.11423647 -0.070054837 0.00077605247 0 0 0
-0.11489628 -0.06721431 0.004776001 0 0 0
-0.11172131 -0.076203987 0.0037759542 0 0 0
-0.11074802 -0.072919294 -0.0022239685 0 0 0
-0.11107244 -0.070011787 -0.00022399426 0 0 0
-0.11123466 -0.067053027 0.00077605247 0 0 0
-0.10823285 -0.073056646 0.00077605247 0 0 0
-0.10823285 -0.070054837 0.00077605247 0 0 0
-0.10791389 -0.06697239 -0.001224041 0 0 0
-0.10554456 -0.070140935 0.0027760267 0 0 0
-0.10491755 -0.06697239 -0.001224041 0 0 0
-0.10570132 -0.06416399 0.0037759542 0 0 0
-0.10207521 -0.067012712 -0.00022399426 0 0 0
-0.10222925 -0.064051226 0.00077605247 0 0 0
-0.10222925 -0.061049417 0.00077605247 0 0 0
-0.099530019 -0.067133673 0.0027760267 0 0 0
-0.099227436 -0.064051226 0.00077605247 0 0 0
-0.09862227 -0.060909994 -0.0032240152 0 0 0
-0.099227436 -0.058047608 0.00077605247 0 0 0
-0.09968131 -0.055133983 0.0037759542 0 0 0
-0.096522756 -0.064126402 0.0027760267 0 0 0
-0.095631383 -0.060909994 -0.0032240152 0 0 0
-0.095631383 -0.057919115 -0.0032240152 0 0 0
-0.096077062 -0.055016413 -0.00022399426 0 0 0
-0.092932172 -0.060979709 -0.001224041 0 0 0
-0.092786334 -0.057951234 -0.0022239685 0 0 0
-0.092932172 -0.054987021 -0.001224041 0 0 0
-0.093807139 -0.052150648 0.004776001 0 0 0
-0.090222023 -0.058047608 0.00077605247 0 0 0
-0.089935832 -0.054987021 -0.001224041 0 0 0
-0.090222023 -0.052043997 0.00077605247 0 0 0
-0.090508215 -0.049090058 0.0027760267 0 0 0
-0.087641321 -0.058143988 0.0037759542 0 0 0
-0.086939491 -0.054987021 -0.001224041 0 0 0
-0.086799122 -0.051964011 -0.0022239685 0 0 0
-0.084218405 -0.055045806 0.00077605247 0 0 0
-0.083943136 -0.051990673 -0.001224041 0 0 0
-0.084631316 -0.049113985 0.0037759542 0 0 0
-0.081351496 -0.052070662 0.00177598 0 0 0
-0.080946796 -0.048994333 -0.001224041 0 0 0
-0.078082614 -0.052017339 -0.00022399426 0 0 0
-0.077686109 -0.04894647 -0.0032240152 0 0 0
-0.078082614 -0.046019189 -0.00022399426 0 0 0
-0.075471871 -0.052097324 0.0027760267 0 0 0
-0.074954115 -0.048994333 -0.001224041 0 0 0
-0.075083546 -0.046019189 -0.00022399426 0 0 0
-0.075342424 -0.043057047 0.00177598 0 0 0
-0.072211184 -0.049042191 0.00077605247 0 0 0
-0.072084464 -0.046019189 -0.00022399426 0 0 0
-0.071957774 -0.043001644 -0.001224041 0 0 0
-0.072464608 -0.040068246 0.0027760267 0 0 0
-0.069581307 -0.049113985 0.0037759542 0 0 0
-0.069209374 -0.046040386 0.00077605247 0 0 0
-0.068713464 -0.042964708 -0.0032240152 0 0 0
-0.069085397 -0.04002104 -0.00022399426 0 0 0
-0.069581307 -0.037073985 0.0037759542 0 0 0
-0.066571318 -0.046103984 0.0037759542 0 0 0
-0.065965079 -0.043001644 -0.001224041 0 0 0
-0.065965079 -0.0400053 -0.001224041 0 0 0
-0.066207565 -0.03703497 0.00077605247 0 0 0
-0.063442789 -0.043075517 0.0027760267 0 0 0
-0.06332428 -0.040052511 0.00177598 0 0 0
-0.063087247 -0.037021961 -0.00022399426 0 0 0
-0.063679822 -0.034074258 0.004776001 0 0 0
-0.060319744 -0.040052511 0.00177598 0 0 0
-0.059972398 -0.037008956 -0.001224041 0 0 0
-0.060203947 -0.034033164 0.00077605247 0 0 0
-0.060319744 -0.031038899 0.00177598 0 0 0
-0.057541311 -0.040083982 0.0037759542 0 0 0
-0.05697605 -0.037008956 -0.001224041 0 0 0
-0.05697605 -0.034012616 -0.001224041 0 0 0
-0.05674994 -0.031001186 -0.0032240152 0 0 0
-0.057315201 -0.028034359 0.00177598 0 0 0
-0.054200344 -0.03703497 0.00077605247 0 0 0
-0.05397971 -0.034012616 -0.001224041 0 0 0
-0.053538412 -0.0309861 -0.0052239895 0 0 0
-0.053759061 -0.028010305 -0.0032240152 0 0 0
-0.054090016 -0.025025664 -0.00022399426 0 0 0
-0.051628888 -0.03708699 0.004776001 0 0 0
-0.051198535 -0.034033164 0.00077605247 0 0 0
-0.050768182 -0.031001186 -0.0032240152 0 0 0
-0.050768182 -0.028010305 -0.0032240152 0 0 0
-0.050768182 -0.025019424 -0.0032240152 0 0 0
-0.051736481 -0.022022678 0.0057760477 0 0 0
-0.048511311 -0.034063984 0.0037759542 0 0 0
-0.048091866 -0.031023813 -0.00022399426 0 0 0
-0.048091866 -0.028024739 -0.00022399426 0 0 0
-0.047777303 -0.025019424 -0.0032240152 0 0 0
-0.048301592 -0.022025285 0.00177598 0 0 0
-0.048721015 -0.019007215 0.0057760477 0 0 0
-0.045603424 -0.031061526 0.004776001 0 0 0
-0.045297049 -0.028034359 0.00177598 0 0 0
-0.044888549 -0.025021505 -0.0022239685 0 0 0
-0.045092791 -0.022026589 -0.00022399426 0 0 0
-0.044990674 -0.019030897 -0.001224041 0 0 0
-0.042093717 -0.025025664 -0.00022399426 0 0 0
-0.042093717 -0.022026589 -0.00022399426 0 0 0
-0.041795537 -0.019037664 -0.0032240152 0 0 0
-0.042292513 -0.016016209 0.00177598 0 0 0
-0.039384641 -0.025031902 0.0027760267 0 0 0
-0.039287977 -0.022025285 0.00177598 0 0 0
-0.038804658 -0.019037664 -0.0032240152 0 0 0
-0.038997985 -0.016034553 -0.001224041 0 0 0
-0.039191313 -0.013020518 0.00077605247 0 0 0
-0.036001645 -0.019030897 -0.001224041 0 0 0
-0.036001645 -0.016034553 -0.001224041 0 0 0
-0.036189504 -0.013020518 0.00077605247 0 0 0
-0.036471307 -0.0099839801 0.0037759542 0 0 0
-0.033278897 -0.019020747 0.00177598 0 0 0
-0.033005305 -0.016034553 -0.001224041 0 0 0
-0.033005305 -0.01303821 -0.001224041 0 0 0
-0.033187695 -0.010018712 0.00077605247 0 0 0
-0.030185893 -0.016022325 0.00077605247 0 0 0
-0.030097418 -0.013029364 -0.00022399426 0 0 0
-0.030097418 -0.010030288 -0.00022399426 0 0 0
-0.030451305 -0.00697398 0.0037759542 0 0 0
-0.027184084 -0.013020518 0.00077605247 0 0 0
-0.027012616 -0.010041866 -0.001224041 0 0 0
-0.027184084 -0.0070169047 0.00077605247 0 0 0
-0.027355567 -0.0039810184 0.0027760267 0 0 0
-0.024514303 -0.012985134 0.004776001 0 0 0
-0.024016269 -0.010041866 -0.001224041 0 0 0
-0.024016269 -0.0070455223 -0.001224041 0 0 0
-0.024016269 -0.0040491782 -0.001224041 0 0 0
-0.02459731 -0.00091443583 0.0057760477 0 0 0
-0.021180473 -0.010018712 0.00077605247 0 0 0
-0.021019921 -0.0070455223 -0.001224041 0 0 0
-0.020859376 -0.004083259 -0.0032240152 0 0 0
-0.021260753 -0.00099352188 0.00177598 0 0 0
-0.021421298 0.0020560231 0.0037759542 0 0 0
-0.018101126 -0.0070312135 -0.00022399426 0 0 0
-0.017946035 -0.0040662196 -0.0022239685 0 0 0
-0.018101126 -0.001033064 -0.00022399426 0 0 0
-0.018101126 0.0019660108 -0.00022399426 0 0 0
-0.018411301 0.0050660241 0.0037759542 0 0 0
-0.015176862 -0.0040150993 0.00077605247 0 0 0
-0.015102051 -0.001033064 -0.00022399426 0 0 0
-0.01487761 0.0018985011 -0.0032240152 0 0 0
-0.01487761 0.004889382 -0.0032240152 0 0 0
-0.014802799 0.0078522973 -0.0042239428 0 0 0
-0.012391299 -0.003963979 0.0037759542 0 0 0
-0.012247138 -0.00099352188 0.00177598 0 0 0
-0.012175053 0.0019885153 0.00077605247 0 0 0
-0.011958815 0.0049146172 -0.0022239685 0 0 0
-0.01174257 0.0078243334 -0.0052239895 0 0 0
-0.011958815 0.01090184 -0.0022239685 0 0 0
-0.01253546 0.014162881 0.0057760477 0 0 0
-0.0092426017 -0.00099352188 0.00177598 0 0 0
-0.0090345517 0.0019435082 -0.001224041 0 0 0
-0.0090345517 0.0049398523 -0.001224041 0 0 0
-0.0088265017 0.0078522973 -0.0042239428 0 0 0
-0.0089652017 0.01090184 -0.0022239685 0 0 0
-0.0092426017 0.014029166 0.00177598 0 0 0
-0.0062380582 -0.00099352188 0.00177598 0 0 0
-0.0059049726 0.0018985011 -0.0032240152 0 0 0
-0.0059715882 0.0049146172 -0.0022239685 0 0 0
-0.0058383495 0.0078522973 -0.0042239428 0 0 0
-0.0059715882 0.01090184 -0.0022239685 0 0 0
-0.0061048269 0.013962308 -0.00022399426 0 0 0
-0.002914086 0.0018985011 -0.0032240152 0 0 0
-0.002914086 0.004889382 -0.0032240152 0 0 0
-0.002786316 0.0078243334 -0.0052239895 0 0 0
-0.0031057522 0.010963233 -0.00022399426 0 0 0
-0.0031057522 0.013962308 -0.00022399426 0 0 0
-0.0034890696 0.017178344 0.0057760477 0 0 0
-0.00010667741 0.0019660108 -0.00022399426 0 0 0
0.0001379475 0.0048641488 -0.0042239428 0 0 0
0.00019910187 0.0078243334 -0.0052239895 0 0 0
-4.5515597e-05 0.010932537 -0.001224041 0 0 0
-0.00016783178 0.013995739 0.00077605247 0 0 0
-0.00029014051 0.017069863 0.0027760267 0 0 0
-0.00047360361 0.020193806 0.0057760477 0 0 0
0.0027171224 0.0020335186 0.0027760267 0 0 0
0.0030676723 0.004889382 -0.0032240152 0 0 0
0.0032429472 0.0077963658 -0.0062240362 0 0 0
0.0030676723 0.010871144 -0.0032240152 0 0 0
0.0028923973 0.013962308 -0.00022399426 0 0 0
0.0027755499 0.017033705 0.00177598 0 0 0
0.0026587024 0.020116026 0.0037759542 0 0 0
0.0056130104 0.0020785257 0.004776001 0 0 0
0.0060585551 0.004889382 -0.0032240152 0 0 0
0.0062256344 0.0077963658 -0.0062240362 0 0 0
0.0061142482 0.010840448 -0.0042239428 0 0 0
0.0060585551 0.013862023 -0.0032240152 0 0 0
0.0057800896 0.017033705 0.00177598 0 0 0
0.005557321 0.020193806 0.0057760477 0 0 0
0.008943513 0.0049398523 -0.001224041 0 0 0
0.0092083178 0.0077963658 -0.0062240362 0 0 0
0.0091553554 0.010809751 -0.0052239895 0 0 0
0.0091023967 0.013828596 -0.0042239428 0 0 0
0.0087316632 0.017069863 0.0027760267 0 0 0
0.011839397 0.0049903207 0.00077605247 0 0 0
0.012140773 0.0078243334 -0.0052239895 0 0 0
0.012191005 0.010779051 -0.0062240362 0 0 0
0.012191005 0.013761738 -0.0062240362 0 0 0
0.011789165 0.017033705 0.00177598 0 0 0
0.015031196 0.007880263 -0.0032240152 0 0 0
0.015126191 0.010809751 -0.0052239895 0 0 0
0.015173692 0.013761738 -0.0062240362 0 0 0
0.014841203 0.016997548 0.00077605247 0 0 0
0.017932542 0.0079361945 -0.001224041 0 0 0
0.018111609 0.010809751 -0.0052239895 0 0 0
0.018156379 0.013761738 -0.0062240362 0 0 0
0.017977308 0.016889067 -0.0022239685 0 0 0
0.017753471 0.020077134 0.0027760267 0 0 0
0.020802777 0.0080200918 0.00177598 0 0 0
0.021054994 0.010840448 -0.0042239428 0 0 0
0.021139067 0.013761738 -0.0062240362 0 0 0
0.020970918 0.016889067 -0.0022239685 0 0 0
0.020802777 0.020038242 0.00177598 0 0 0
0.023964535 0.01090184 -0.0022239685 0 0 0
0.024082445 0.013795169 -0.0052239895 0 0 0
0.024003837 0.016852906 -0.0032240152 0 0 0
0.023964535 0.019882677 -0.0022239685 0 0 0
0.026775282 0.011055326 0.0027760267 0 0 0
0.02699472 0.013862023 -0.0032240152 0 0 0
0.02699472 0.016852906 -0.0032240152 0 0 0
0.026958145 0.019882677 -0.0022239685 0 0 0
0.026702136 0.023167649 0.004776001 0 0 0
0.029951759 0.013895454 -0.0022239685 0 0 0
0.03005328 0.016780587 -0.0052239895 0 0 0
0.03005328 0.019766005 -0.0052239895 0 0 0
0.029884074 0.022959536 -0.00022399426 0 0 0
0.032883149 0.013962308 -0.00022399426 0 0 0
0.033007588 0.016816745 -0.0042239428 0 0 0
0.033069808 0.019727113 -0.0062240362 0 0 0
0.032945368 0.022876291 -0.0022239685 0 0 0
0.035797089 0.014062596 0.0027760267 0 0 0
0.035995737 0.016816745 -0.0042239428 0 0 0
0.036109254 0.019649332 -0.0082240105 0 0 0
0.036052495 0.0227098 -0.0062240362 0 0 0
0.035882223 0.025958611 -0.00022399426 0 0 0
0.038906947 0.016925225 -0.001224041 0 0 0
0.039137773 0.019571548 -0.010223985 0 0 0
0.039112125 0.022584932 -0.009223938 0 0 0
0.039009534 0.025736837 -0.0052239895 0 0 0
0.041788712 0.017106025 0.0037759542 0 0 0
0.042040788 0.019688221 -0.0072239637 0 0 0
0.042086616 0.022584932 -0.009223938 0 0 0
0.042063702 0.025603777 -0.0082240105 0 0 0
0.041765794 0.029193113 0.004776001 0 0 0
0.044919819 0.019882677 -0.0022239685 0 0 0
0.045000557 0.0227098 -0.0062240362 0 0 0
0.04502074 0.02564813 -0.0072239637 0 0 0
0.044839077 0.029051853 0.00177598 0 0 0
0.047808714 0.020116026 0.0037759542 0 0 0
0.047913432 0.022876291 -0.0022239685 0 0 0
0.047948338 0.02578119 -0.0042239428 0 0 0
0.047895975 0.028910598 -0.001224041 0 0 0
0.047791258 0.032205842 0.004776001 0 0 0
0.05089232 0.022917913 -0.001224041 0 0 0
0.050936483 0.02578119 -0.0042239428 0 0 0
0.050936483 0.028769339 -0.0042239428 0 0 0
0.05089232 0.03190694 -0.001224041 0 0 0
0.053840704 0.023084404 0.0027760267 0 0 0
0.053912643 0.025825551 -0.0032240152 0 0 0
0.053924635 0.028769339 -0.0042239428 0 0 0
0.053924635 0.031757489 -0.0042239428 0 0 0
0.053840704 0.035113484 0.0027760267 0 0 0
0.05687575 0.025958611 -0.00022399426 0 0 0
0.056903526 0.02881643 -0.0032240152 0 0 0
0.056903526 0.031807311 -0.0032240152 0 0 0
0.056847971 0.035113484 0.0027760267 0 0 0
0.059842184 0.026180381 0.004776001 0 0 0
0.059881352 0.028910598 -0.001224041 0 0 0
0.059894405 0.031807311 -0.0032240152 0 0 0
0.059861768 0.035060927 0.00177598 0 0 0
0.062866308 0.029051853 0.00177598 0 0 0
0.062889084 0.031757489 -0.0042239428 0 0 0
0.062885284 0.03479819 -0.0032240152 0 0 0
0.062866308 0.038065463 0.00177598 0 0 0
0.065876164 0.031807311 -0.0032240152 0 0 0
0.065877229 0.034745641 -0.0042239428 0 0 0
0.065876164 0.037789069 -0.0032240152 0 0 0
0.068872049 0.031956762 -0.00022399426 0 0 0
0.06886705 0.03479819 -0.0032240152 0 0 0
0.068865381 0.037733786 -0.0042239428 0 0 0
0.068880379 0.041244037 0.004776001 0 0 0
0.071888715 0.032156028 0.0037759542 0 0 0
0.071866721 0.034903288 -0.001224041 0 0 0
0.071840338 0.037567951 -0.0072239637 0 0 0
0.071862325 0.040837958 -0.0022239685 0 0 0
0.071897514 0.044317514 0.0057760477 0 0 0
0.074877329 0.035008378 0.00077605247 0 0 0
0.074827418 0.037623234 -0.0062240362 0 0 0
0.074834548 0.040663928 -0.0052239895 0 0 0
0.074863069 0.043892317 -0.001224041 0 0 0
0.07782983 0.037733786 -0.0042239428 0 0 0
0.077810109 0.040605918 -0.0062240362 0 0 0
0.077819966 0.043649346 -0.0052239895 0 0 0
0.077928439 0.047332972 0.0057760477 0 0 0
0.08088094 0.038010187 0.00077605247 0 0 0
0.080843166 0.040837958 -0.0022239685 0 0 0
0.080805384 0.043649346 -0.0052239895 0 0 0
0.080893531 0.047079079 0.00177598 0 0 0
0.083913393 0.041128017 0.0027760267 0 0 0
0.083836779 0.043831572 -0.0022239685 0 0 0
0.083898067 0.047079079 0.00177598 0 0 0
0.083928719 0.050216027 0.0037759542 0 0 0
0.086866498 0.043953054 -0.00022399426 0 0 0
0.086920664 0.047142558 0.0027760267 0 0 0
0.086902604 0.050083615 0.00177598 0 0 0
0.089927934 0.044135287 0.0027760267 0 0 0
0.089927934 0.047142558 0.0027760267 0 0 0
0.08988636 0.050017409 0.00077605247 0 0 0
0.09298224 0.044256769 0.004776001 0 0 0
0.092935205 0.047142558 0.0027760267 0 0 0
0.092841133 0.049885005 -0.001224041 0 0 0
0.092958719 0.053226031 0.0037759542 0 0 0
0.095968723 0.047206029 0.0037759542 0 0 0
0.095811225 0.049818799 -0.0022239685 0 0 0
0.095889971 0.053019218 0.00077605247 0 0 0
0.095994972 0.056307696 0.004776001 0 0 0
0.098833814 0.049885005 -0.001224041 0 0 0
0.098862797 0.052950278 -0.00022399426 0 0 0
0.098920763 0.056092687 0.00177598 0 0 0
0.10195701 0.050149828 0.0027760267 0 0 0
0.10186187 0.052950278 -0.00022399426 0 0 0
0.10186187 0.055949353 -0.00022399426 0 0 0
0.10486095 0.052950278 -0.00022399426 0 0 0
0.1048265 0.055877686 -0.001224041 0 0 0
0.10503317 0.059320427 0.004776001 0 0 0
0.10800872 0.053226031 0.0037759542 0 0 0
0.10786002 0.055949353 -0.00022399426 0 0 0
0.10800872 0.059246033 0.0037759542 0 0 0
0.11097881 0.056164362 0.0027760267 0 0 0
0.11101872 0.059246033 0.0037759542 0 0 0
0.11109854 0.062410288 0.0057760477 0 0 0
0.11402872 0.062256031 0.0037759542 0 0 0
0.11699335 0.062178902 0.0027760267 0 0 0
0.11712946 0.065425754 0.0057760477 0 0 0
0.12004872 0.062256031 0.0037759542 0 0 0
0.12009682 0.065345891 0.004776001 0 0 0
0.12014493 0.06844122 0.0057760477 0 0 0
0.12316039 0.065425754 0.0057760477 0 0 0
0.12310955 0.068358622 0.004776001 0 0 0
0.12612228 0.068358622 0.004776001 0 0 0
0.12612228 0.071371354 0.004776001 0 0 0
0.12907872 0.07128603 0.0037759542 0 0 0
0.12919131 0.074472152 0.0057760477 0 0 0
0.13208872 0.07128603 0.0037759542 0 0 0
0.1320297 0.074207969 0.0027760267 0 0 0
0.13522224 0.074472152 0.0057760477 0 0 0
0.15323687 0.086435013 0.004776001 0 0 0
0.15633048 0.086534001 0.0057760477 0 0 0
0.16236141 0.092564933 0.0057760477 0 0 0
0.17442326 0.098595858 0.0057760477 0 0 0
0.17733873 0.098485939 0.004776001 0 0 0
0.17743874 0.10161132 0.0057760477 0 0 0
0.18045419 0.10161132 0.0057760477 0 0 0
0.18045419 0.10462678 0.0057760477 0 0 0
0.18325873 0.10439604 0.0037759542 0 0 0
0.18626873 0.10439604 0.0037759542 0 0 0
0.18950057 0.10462678 0.0057760477 0 0 0
-0.13862452 -0.091191821 0 0 0 0
-0.13561726 -0.091191821 0 0 0 0
-0.13561726 -0.08818455 0 0 0 0
-0.13561726 -0.08517728 0 0 0 0
-0.13279131 -0.091253996 0 0 0 0
-0.13242865 -0.088125117 0 0 0 0
-0.1322473 -0.085063867 0 0 0 0
-0.1296027 -0.08818455 0 0 0 0
-0.12906688 -0.085007161 0 0 0 0
-0.12978134 -0.082223989 0 0 0 0
-0.12641957 -0.085120581 0 0 0 0
-0.12641957 -0.082116038 0 0 0 0
-0.12641957 -0.079111502 0 0 0 0
-0.12376132 -0.085233994 0 0 0 0
-0.12358818 -0.08217001 0 0 0 0
-0.12289559 -0.078957766 0 0 0 0
-0.11989925 -0.078957766 0 0 0 0
-0.12024008 -0.076058455 0 0 0 0
-0.12041049 -0.07310243 0 0 0 0
-0.11707059 -0.079009011 0 0 0 0
-0.11690291 -0.075961426 0 0 0 0
-0.11673523 -0.072919294 0 0 0 0
-0.11440142 -0.079111502 0 0 0 0
-0.11407151 -0.076009937 0 0 0 0
-0.11341173 -0.072827734 0 0 0 0
-0.11423647 -0.070054837 0 0 0 0
-0.11489628 -0.06721431 0 0 0 0
-0.11172131 -0.076203987 0 0 0 0
-0.11074802 -0.072919294 0 0 0 0
-0.11107244 -0.070011787 0 0 0 0
-0.11123466 -0.067053027 0 0 0 0
-0.10823285 -0.073056646 0 0 0 0
-0.10823285 -0.070054837 0 0 0 0
-0.10791389 -0.06697239 0 0 0 0
-0.10554456 -0.070140935 0 0 0 0
-0.10491755 -0.06697239 0 0 0 0
-0.10570132 -0.06416399 0 0 0 0
-0.10207521 -0.067012712 0 0 0 0
-0.10222925 -0.064051226 0 0 0 0
-0.10222925 -0.061049417 0 0 0 0
-0.099530019 -0.067133673 0 0 0 0
-0.099227436 -0.064051226 0 0 0 0
-0.09862227 -0.060909994 0 0 0 0
-0.099227436 -0.058047608 0 0 0 0
-0.09968131 -0.055133983 0 0 0 0
-0.096522756 -0.064126402 0 0 0 0
-0.095631383 -0.060909994 0 0 0 0
-0.095631383 -0.057919115 0 0 0 0
-0.096077062 -0.055016413 0 0 0 0
-0.092932172 -0.060979709 0 0 0 0
-0.092786334 -0.057951234 0 0 0 0
-0.092932172 -0.054987021 0 0 0 0
-0.093807139 -0.052150648 0 0 0 0
-0.090222023 -0.058047608 0 0 0 0
-0.089935832 -0.054987021 0 0 0 0
-0.090222023 -0.052043997 0 0 0 0
-0.090508215 -0.049090058 0 0 0 0
-0.087641321 -0.058143988 0 0 0 0
-0.086939491 -0.054987021 0 0 0 0
-0.086799122 -0.051964011 0 0 0 0
-0.084218405 -0.055045806 0 0 0 0
-0.083943136 -0.051990673 0 0 0 0
-0.084631316 -0.049113985 0 0 0 0
-0.081351496 -0.052070662 0 0 0 0
-0.080946796 -0.048994333 0 0 0 0
-0.078082614 -0.052017339 0 0 0 0
-0.077686109 -0.04894647 0 0 0 0
-0.078082614 -0.046019189 0 0 0 0
-0.075471871 -0.052097324 0 0 0 0
-0.074954115 -0.048994333 0 0 0 0
-0.075083546 -0.046019189 0 0 0 0
-0.075342424 -0.043057047 0 0 0 0
-0.072211184 -0.049042191 0 0 0 0
-0.072084464 -0.046019189 0 0 0 0
-0.071957774 -0.043001644 0 0 0 0
-0.072464608 -0.040068246 0 0 0 0
-0.069581307 -0.049113985 0 0 0 0
-0.069209374 -0.046040386 0 0 0 0
-0.068713464 -0.042964708 0 0 0 0
-0.069085397 -0.04002104 0 0 0 0
-0.069581307 -0.037073985 0 0 0 0
-0.066571318 -0.046103984 0 0 0 0
-0.065965079 -0.043001644 0 0 0 0
-0.065965079 -0.0400053 0 0 0 0
-0.066207565 -0.03703497 0 0 0 0
-0.063442789 -0.043075517 0 0 0 0
-0.06332428 -0.040052511 0 0 0 0
-0.063087247 -0.037021961 0 0 0 0
-0.063679822 -0.034074258 0 0 0 0
-0.060319744 -0.040052511 0 0 0 0
-0.059972398 -0.037008956 0 0 0 0
-0.060203947 -0.034033164 0 0 0 0
-0.060319744 -0.031038899 0 0 0 0
-0.057541311 -0.040083982 0 0 0 0
-0.05697605 -0.037008956 0 0 0 0
-0.05697605 -0.034012616 0 0 0 0
-0.05674994 -0.031001186 0 0 0 0
-0.057315201 -0.028034359 0 0 0 0
-0.054200344 -0.03703497 0 0 0 0
-0.05397971 -0.034012616 0 0 0 0
-0.053538412 -0.0309861 0 0 0 0
-0.053759061 -0.028010305 0 0 0 0
-0.054090016 -0.025025664 0 0 0 0
-0.051628888 -0.03708699 0 0 0 0
-0.051198535 -0.034033164 0 0 0 0
-0.050768182 -0.031001186 0 0 0 0
-0.050768182 -0.028010305 0 0 0 0
-0.050768182 -0.025019424 0 0 0 0
-0.051736481 -0.022022678 0 0 0 0
-0.048511311 -0.034063984 0 0 0 0
-0.048091866 -0.031023813 0 0 0 0
-0.048091866 -0.028024739 0 0 0 0
-0.047777303 -0.025019424 0 0 0 0
-0.048301592 -0.022025285 0 0 0 0
-0.048721015 -0.019007215 0 0 0 0
-0.045603424 -0.031061526 0 0 0 0
-0.045297049 -0.028034359 0 0 0 0
-0.044888549 -0.025021505 0 0 0 0
-0.045092791 -0.022026589 0 0 0 0
-0.044990674 -0.019030897 0 0 0 0
-0.042093717 -0.025025664 0 0 0 0
-0.042093717 -0.022026589 0 0 0 0
-0.041795537 -0.019037664 0 0 0 0
-0.042292513 -0.016016209 0 0 0 0
-0.039384641 -0.025031902 0 0 0 0
-0.039287977 -0.022025285 0 0 0 0
-0.038804658 -0.019037664 0 0 0 0
-0.038997985 -0.016034553 0 0 0 0
-0.039191313 -0.013020518 0 0 0 0
-0.036001645 -0.019030897 0 0 0 0
-0.036001645 -0.016034553 0 0 0 0
-0.036189504 -0.013020518 0 0 0 0
-0.036471307 -0.0099839801 0 0 0 0
-0.033278897 -0.019020747 0 0 0 0
-0.033005305 -0.016034553 0 0 0 0
-0.033005305 -0.01303821 0 0 0 0
-0.033187695 -0.010018712 0 0 0 0
-0.030185893 -0.016022325 0 0 0 0
-0.030097418 -0.013029364 0 0 0 0
-0.030097418 -0.010030288 0 0 0 0
-0.030451305 -0.00697398 0 0 0 0
-0.027184084 -0.013020518 0 0 0 0
-0.027012616 -0.010041866 0 0 0 0
-0.027184084 -0.0070169047 0 0 0 0
-0.027355567 -0.0039810184 0 0 0 0
-0.024514303 -0.012985134 0 0 0 0
-0.024016269 -0.010041866 0 0 0 0
-0.024016269 -0.0070455223 0 0 0 0
-0.024016269 -0.0040491782 0 0 0 0
-0.02459731 -0.00091443583 0 0 0 0
-0.021180473 -0.010018712 0 0 0 0
-0.021019921 -0.0070455223 0 0 0 0
-0.020859376 -0.004083259 0 0 0 0
-0.021260753 -0.00099352188 0 0 0 0
-0.021421298 0.0020560231 0 0 0 0
-0.018101126 -0.0070312135 0 0 0 0
-0.017946035 -0.0040662196 0 0 0 0
-0.018101126 -0.001033064 0 0 0 0
-0.018101126 0.0019660108 0 0 0 0
-0.018411301 0.0050660241 0 0 0 0
-0.015176862 -0.0040150993 0 0 0 0
-0.015102051 -0.001033064 0 0 0 0
-0.01487761 0.0018985011 0 0 0 0
-0.01487761 0.004889382 0 0 0 0
-0.014802799 0.0078522973 0 0 0 0
-0.012391299 -0.003963979 0 0 0 0
-0.012247138 -0.00099352188 0 0 0 0
-0.012175053 0.0019885153 0 0 0 0
-0.011958815 0.0049146172 0 0 0 0
-0.01174257 0.0078243334 0 0 0 0
-0.011958815 0.01090184 0 0 0 0
-0.01253546 0.014162881 0 0 0 0
-0.0092426017 -0.00099352188 0 0 0 0
-0.0090345517 0.0019435082 0 0 0 0
-0.0090345517 0.0049398523 0 0 0 0
-0.0088265017 0.0078522973 0 0 0 0
-0.0089652017 0.01090184 0 0 0 0
-0.0092426017 0.014029166 0 0 0 0
-0.0062380582 -0.00099352188 0 0 0 0
-0.0059049726 0.0018985011 0 0 0 0
-0.0059715882 0.0049146172 0 0 0 0
-0.0058383495 0.0078522973 0 0 0 0
-0.0059715882 0.01090184 0 0 0 0
-0.0061048269 0.013962308 0 0 0 0
-0.002914086 0.0018985011 0 0 0 0
-0.002914086 0.004889382 0 0 0 0
-0.002786316 0.0078243334 0 0 0 0
-0.0031057522 0.010963233 0 0 0 0
-0.0031057522 0.013962308 0 0 0 0
-0.0034890696 0.017178344 0 0 0 0
-0.00010667741 0.0019660108 0 0 0 0
0.0001379475 0.0048641488 0 0 0 0
0.00019910187 0.0078243334 0 0 0 0
-4.5515597e-05 0.010932537 0 0 0 0
-0.00016783178 0.013995739 0 0 0 0
-0.00029014051 0.017069863 0 0 0 0
-0.00047360361 0.020193806 0 0 0 0
0.0027171224 0.0020335186 0 0 0 0
0.0030676723 0.004889382 0 0 0 0
0.0032429472 0.0077963658 0 0 0 0
0.0030676723 0.010871144 0 0 0 0
0.0028923973 0.013962308 0 0 0 0
0.0027755499 0.017033705 0 0 0 0
0.0026587024 0.020116026 0 0 0 0
0.0056130104 0.0020785257 0 0 0 0
0.0060585551 0.004889382 0 0 0 0
0.0062256344 0.0077963658 0 0 0 0
0.0061142482 0.010840448 0 0 0 0
0.0060585551 0.013862023 0 0 0 0
0.0057800896 0.017033705 0 0 0 0
0.005557321 0.020193806 0 0 0 0
0.008943513 0.0049398523 0 0 0 0
0.0092083178 0.0077963658 0 0 0 0
0.0091553554 0.010809751 0 0 0 0
0.0091023967 0.013828596 0 0 0 0
0.0087316632 0.017069863 0 0 0 0
0.011839397 0.0049903207 0 0 0 0
0.012140773 0.0078243334 0 0 0 0
0.012191005 0.010779051 0 0 0 0
0.012191005 0.013761738 0 0 0 0
0.011789165 0.017033705 0 0 0 0
0.015031196 0.007880263 0 0 0 0
0.015126191 0.010809751 0 0 0 0
0.015173692 0.013761738 0 0 0 0
0.014841203 0.016997548 0 0 0 0
0.017932542 0.0079361945 0 0 0 0
0.018111609 0.010809751 0 0 0 0
0.018156379 0.013761738 0 0 0 0
0.017977308 0.016889067 0 0 0 0
0.017753471 0.020077134 0 0 0 0
0.020802777 0.0080200918 0 0 0 0
0.021054994 0.010840448 0 0 0 0
0.021139067 0.013761738 0 0 0 0
0.020970918 0.016889067 0 0 0 0
0.020802777 0.020038242 0 0 0 0
0.023964535 0.01090184 0 0 0 0
0.024082445 0.013795169 0 0 0 0
0.024003837 0.016852906 0 0 0 0
0.023964535 0.019882677 0 0 0 0
0.026775282 0.011055326 0 0 0 0
0.02699472 0.013862023 0 0 0 0
0.02699472 0.016852906 0 0 0 0
0.026958145 0.019882677 0 0 0 0
0.026702136 0.023167649 0 0 0 0
0.029951759 0.013895454 0 0 0 0
0.03005328 0.016780587 0 0 0 0
0.03005328 0.019766005 0 0 0 0
0.029884074 0.022959536 0 0 0 0
0.032883149 0.013962308 0 0 0 0
0.033007588 0.016816745 0 0 0 0
0.033069808 0.019727113 0 0 0 0
0.032945368 0.022876291 0 0 0 0
0.035797089 0.014062596 0 0 0 0
0.035995737 0.016816745 0 0 0 0
0.036109254 0.019649332 0 0 0 0
0.036052495 0.0227098 0 0 0 0
0.035882223 0.025958611 0 0 0 0
0.038906947 0.016925225 0 0 0 0
0.039137773 0.019571548 0 0 0 0
0.039112125 0.022584932 0 0 0 0
0.039009534 0.025736837 0 0 0 0
0.041788712 0.017106025 0 0 0 0
0.042040788 0.019688221 0 0 0 0
0.042086616 0.022584932 0 0 0 0
0.042063702 0.025603777 0 0 0 0
0.041765794 0.029193113 0 0 0 0
0.044919819 0.019882677 0 0 0 0
0.045000557 0.0227098 0 0 0 0
0.04502074 0.02564813 0 0 0 0
0.044839077 0.029051853 0 0 0 0
0.047808714 0.020116026 0 0 0 0
0.047913432 0.022876291 0 0 0 0
0.047948338 0.02578119 0 0 0 0
0.047895975 0.028910598 0 0 0 0
0.047791258 0.032205842 0 0 0 0
0.05089232 0.022917913 0 0 0 0
0.050936483 0.02578119 0 0 0 0
0.050936483 0.028769339 0 0 0 0
0.05089232 0.03190694 0 0 0 0
0.053840704 0.023084404 0 0 0 0
0.053912643 0.025825551 0 0 0 0
0.053924635 0.028769339 0 0 0 0
0.053924635 0.031757489 0 0 0 0
0.053840704 0.035113484 0 0 0 0
0.05687575 0.025958611 0 0 0 0
0.056903526 0.02881643 0 0 0 0
0.056903526 0.031807311 0 0 0 0
0.056847971 0.035113484 0 0 0 0
0.059842184 0.026180381 0 0 0 0
0.059881352 0.028910598 0 0 0 0
0.059894405 0.031807311 0 0 0 0
0.059861768 0.035060927 0 0 0 0
0.062866308 0.029051853 0 0 0 0
0.062889084 0.031757489 0 0 0 0
0.062885284 0.03479819 0 0 0 0
0.062866308 0.038065463 0 0 0 0
0.065876164 0.031807311 0 0 0 0
0.065877229 0.034745641 0 0 0 0
0.065876164 0.037789069 0 0 0 0
0.068872049 0.031956762 0 0 0 0
0.06886705 0.03479819 0 0 0 0
0.068865381 0.037733786 0 0 0 0
0.068880379 0.041244037 0 0 0 0
0.071888715 0.032156028 0 0 0 0
0.071866721 0.034903288 0 0 0 0
0.071840338 0.037567951 0 0 0 0
0.071862325 0.040837958 0 0 0 0
0.071897514 0.044317514 0 0 0 0
0.074877329 0.035008378 0 0 0 0
0.074827418 0.037623234 0 0 0 0
0.074834548 0.040663928 0 0 0 0
0.074863069 0.043892317 0 0 0 0
0.07782983 0.037733786 0 0 0 0
0.077810109 0.040605918 0 0 0 0
0.077819966 0.043649346 0 0 0 0
0.077928439 0.047332972 0 0 0 0
0.08088094 0.038010187 0 0 0 0
0.080843166 0.040837958 0 0 0 0
0.080805384 0.043649346 0 0 0 0
0.080893531 0.047079079 0 0 0 0
0.083913393 0.041128017 0 0 0 0
0.083836779 0.043831572 0 0 0 0
0.083898067 0.047079079 0 0 0 0
0.083928719 0.050216027 0 0 0 0
0.086866498 0.043953054 0 0 0 0
0.086920664 0.047142558 0 0 0 0
0.086902604 0.050083615 0 0 0 0
0.089927934 0.044135287 0 0 0 0
0.089927934 0.047142558 0 0 0 0
0.08988636 0.050017409 0 0 0 0
0.09298224 0.044256769 0 0 0 0
0.092935205 0.047142558 0 0 0 0
0.092841133 0.049885005 0 0 0 0
0.092958719 0.053226031 0 0 0 0
0.095968723 0.047206029 0 0 0 0
0.095811225 0.049818799 0 0 0 0
0.095889971 0.053019218 0 0 0 0
0.095994972 0.056307696 0 0 0 0
0.098833814 0.049885005 0 0 0 0
0.098862797 0.052950278 0 0 0 0
0.098920763 0.056092687 0 0 0 0
0.10195701 0.050149828 0 0 0 0
0.10186187 0.052950278 0 0 0 0
0.10186187 0.055949353 0 0 0 0
0.10486095 0.052950278 0 0 0 0
0.1048265 0.055877686 0 0 0 0
0.10503317 0.059320427 0 0 0 0
0.10800872 0.053226031 0 0 0 0
0.10786002 0.055949353 0 0 0 0
0.10800872 0.059246033 0 0 0 0
0.11097881 0.056164362 0 0 0 0
0.11101872 0.059246033 0 0 0 0
0.11109854 0.062410288 0 0 0 0
0.11402872 0.062256031 0 0 0 0
0.11699335 0.062178902 0 0 0 0
0.11712946 0.065425754 0 0 0 0
0.12004872 0.062256031 0 0 0 0
0.12009682 0.065345891 0 0 0 0
0.12014493 0.06844122 0 0 0 0
0.12316039 0.065425754 0 0 0 0
0.12310955 0.068358622 0 0 0 0
0.12612228 0.068358622 0 0 0 0
0.12612228 0.071371354 0 0 0 0
0.12907872 0.07128603 0 0 0 0
0.12919131 0.074472152 0 0 0 0
0.13208872 0.07128603 0 0 0 0
0.1320297 0.074207969 0 0 0 0
0.13522224 0.074472152 0 0 0 0
0.15323687 0.086435013 0 0 0 0
0.15633048 0.086534001 0 0 0 0
0.16236141 0.092564933 0 0 0 0
0.17442326 0.098595858 0 0 0 0
0.17733873 0.098485939 0 0 0 0
0.17743874 0.10161132 0 0 0 0
0.18045419 0.10161132 0 0 0 0
0.18045419 0.10462678 0 0 0 0
0.18325873 0.10439604 0 0 0 0
0.18626873 0.10439604 0 0 0 0
0.18950057 0.10462678 0 0 0 0
0 0 0 1 0 0 0 1 0 0 0 1 0 0 0 0 0 758 1 0 0
