ply
format ascii 1.0
comment PCL generated
element vertex 1054
property float x
property float y
property float z
property uchar red
property uchar green
property uchar blue
element camera 1
property float view_px
property float view_py
property float view_pz
property float x_axisx
property float x_axisy
property float x_axisz
property float y_axisx
property float y_axisy
property float y_axisz
property float z_axisx
property float z_axisy
property float z_axisz
property float focal
property float scalex
property float scaley
property float centerx
property float centery
property int viewportx
property int viewporty
property float k1
property float k2
end_header
-0.13201763 -0.076188341 0.62400001 251 15 212
-0.19959043 -0.03501812 0.64400005 251 15 212
-0.19959043 -0.033979736 0.64400005 251 15 212
-0.19959043 -0.031383775 0.64400005 251 15 212
-0.19855206 -0.029307002 0.64400005 251 15 212
-0.19647528 -0.029307004 0.64400005 251 15 212
-0.19844873 -0.026178295 0.64366668 251 15 212
-0.19647528 -0.026191849 0.64400005 251 15 212
-0.19834597 -0.023571461 0.64333338 251 15 212
-0.19647528 -0.023595888 0.64400005 251 15 212
-0.19834597 -0.020978188 0.64333338 251 15 212
-0.19647528 -0.020999927 0.64400005 251 15 212
-0.19834597 -0.018384913 0.64333338 251 15 212
-0.19647528 -0.018403964 0.64400005 251 15 212
-0.19844873 -0.016318744 0.64366674 251 15 212
-0.19891629 -0.013201783 0.64350003 251 15 212
-0.19899377 -0.011649739 0.64375007 251 15 212
-0.19959043 -0.0085393097 0.64400005 251 15 212
-0.19959043 -0.0064625409 0.64400005 251 15 212
-0.19959043 -0.0038665792 0.64400005 251 15 212
-0.19902647 -0.041070949 0.64666671 251 15 212
-0.19887829 -0.038817722 0.64675003 251 15 212
-0.19634731 -0.038832527 0.64700001 251 15 212
-0.19426087 -0.038310915 0.64700001 251 15 212
-0.19864786 -0.035647675 0.64600003 251 15 212
-0.19611929 -0.035661675 0.64625001 251 15 212
-0.19373925 -0.035702862 0.64700001 251 15 212
-0.19834036 -0.034032501 0.64500004 251 15 212
-0.19604383 -0.034085263 0.64600003 251 15 212
-0.19358912 -0.034111645 0.64649999 251 15 212
-0.19217442 -0.034138028 0.64700001 251 15 212
-0.19834037 -0.031432509 0.64500004 251 15 212
-0.19618766 -0.031622354 0.64533335 251 15 212
-0.19369194 -0.031367492 0.64579999 251 15 212
-0.19147895 -0.0313561 0.64700001 251 15 212
-0.19375992 -0.029367683 0.64533335 251 15 212
-0.19079654 -0.029432353 0.64675003 251 15 212
-0.19375992 -0.026246076 0.64533335 251 15 212
-0.19046187 -0.026293527 0.64649999 251 15 212
-0.19375992 -0.02364474 0.64533335 251 15 212
-0.19046187 -0.023687486 0.64649999 251 15 212
-0.19375992 -0.021043405 0.64533335 251 15 212
-0.19046187 -0.021081448 0.64649999 251 15 212
-0.19385999 -0.018451594 0.64566666 251 15 212
-0.19046187 -0.01847541 0.64649999 251 15 212
-0.19633584 -0.016098484 0.64525002 251 15 212
-0.19382961 -0.0165077 0.64599997 251 15 212
-0.1915051 -0.016911382 0.64649999 251 15 212
-0.19782037 -0.013232557 0.64500004 251 15 212
-0.19589129 -0.013242815 0.64550006 251 15 212
-0.19426087 -0.013273588 0.64700001 251 15 212
-0.19782037 -0.011672561 0.64500004 251 15 212
-0.19611929 -0.011694982 0.64625001 251 15 212
-0.19426087 -0.012230366 0.64700001 251 15 212
-0.19841702 -0.0085556833 0.64525002 251 15 212
-0.19659334 -0.0087482715 0.64666671 251 15 212
-0.19849372 -0.006477593 0.64550006 251 15 212
-0.19739053 -0.0070142564 0.64700001 251 15 212
-0.19864705 -0.0033577825 0.64600003 251 15 212
-0.19864705 -0.0017953683 0.64600003 251 15 212
-0.19906202 0.0010700868 0.64649999 251 15 212
-0.14500497 0.094032705 0.64600003 251 15 212
-0.14940232 0.09678632 0.64700001 251 15 212
-0.14500497 0.096636727 0.64600003 251 15 212
-0.19904716 -0.058835052 0.64900005 251 15 212
-0.19852394 -0.056218937 0.64900005 251 15 212
-0.19852394 -0.053602818 0.64900005 251 15 212
-0.19852394 -0.052033149 0.64900005 251 15 212
-0.19870412 -0.048733782 0.64885718 251 15 212
-0.19695427 -0.048370585 0.64900005 251 15 212
-0.19894439 -0.045730967 0.64866668 251 15 212
-0.19695427 -0.045754466 0.64900005 251 15 212
-0.19486137 -0.045754466 0.64900005 251 15 212
-0.19879133 -0.044128198 0.64816666 251 15 212
-0.19560596 -0.044116713 0.648 251 15 212
-0.19451255 -0.04401039 0.64900005 251 15 212
-0.1980439 -0.041156352 0.648 251 15 212
-0.19560596 -0.040982213 0.648 251 15 212
-0.19371511 -0.041024644 0.64866668 251 15 212
-0.19067559 -0.040522236 0.64900005 251 15 212
-0.19359052 -0.039168958 0.64824998 251 15 212
-0.19127421 -0.038758416 0.64866668 251 15 212
-0.18962914 -0.038429342 0.64900005 251 15 212
-0.19142662 -0.035758041 0.648 251 15 212
-0.18962914 -0.035813227 0.64900005 251 15 212
-0.19038178 -0.034190789 0.648 251 15 212
-0.18962914 -0.034243554 0.64900005 251 15 212
-0.19038178 -0.032101121 0.648 251 15 212
-0.18933696 -0.031056285 0.648 251 15 212
-0.18933696 -0.028966619 0.648 251 15 212
-0.18933696 -0.026354533 0.648 251 15 212
-0.18933696 -0.023742447 0.648 251 15 212
-0.18933696 -0.021130361 0.648 251 15 212
-0.18933696 -0.018518275 0.648 251 15 212
-0.19097765 -0.016173333 0.64824998 251 15 212
-0.18948305 -0.0169637 0.64850003 251 15 212
-0.19314238 -0.013304361 0.64850003 251 15 212
-0.19366521 -0.0117359 0.64850003 251 15 212
-0.19560596 -0.0080699325 0.648 251 15 212
-0.19441247 -0.0087753283 0.64866668 251 15 212
-0.19769563 -0.0059802635 0.648 251 15 212
-0.19560596 -0.0065026805 0.648 251 15 212
-0.19784817 -0.0033703737 0.64850003 251 15 212
-0.19800071 -0.0018037058 0.64900005 251 15 212
-0.19859612 0.0013349483 0.64866668 251 15 212
-0.19978529 0.0044680792 0.648 251 15 212
-0.14963324 0.098503165 0.648 251 15 212
-0.14963324 0.10059283 0.648 251 15 212
-0.19996725 -0.080658339 0.65200001 251 15 212
-0.19944161 -0.078030124 0.65200001 251 15 212
-0.19944161 -0.075927556 0.65200001 251 15 212
-0.19944161 -0.073299348 0.65200001 251 15 212
-0.19891596 -0.071722418 0.65200001 251 15 212
-0.19886483 -0.068551175 0.6518333 251 15 212
-0.19866146 -0.066381186 0.65116668 251 15 212
-0.19576211 -0.066466004 0.65200001 251 15 212
-0.19471082 -0.065940365 0.65200001 251 15 212
-0.19845779 -0.063166626 0.65050006 251 15 212
-0.19561198 -0.063263997 0.65149999 251 15 212
-0.19418518 -0.063312158 0.65200001 251 15 212
-0.19882983 -0.061545853 0.65000004 251 15 212
-0.19635978 -0.061593197 0.65050006 251 15 212
-0.19403586 -0.061687883 0.65149999 251 15 212
-0.19155698 -0.061735228 0.65200001 251 15 212
-0.19830579 -0.058925703 0.65000004 251 15 212
-0.19628474 -0.058948569 0.65025002 251 15 212
-0.19396161 -0.059039228 0.65125 251 15 212
-0.19103134 -0.058581371 0.65200001 251 15 212
-0.19620967 -0.056305557 0.65000004 251 15 212
-0.19388735 -0.056392178 0.65100002 251 15 212
-0.19088443 -0.055385016 0.65149999 251 15 212
-0.18945441 -0.055427525 0.65200001 251 15 212
-0.19620967 -0.053685408 0.65000004 251 15 212
-0.19388735 -0.053768001 0.65100002 251 15 212
-0.19088444 -0.0538093 0.65149999 251 15 212
-0.18945441 -0.053850599 0.65200001 251 15 212
-0.19620967 -0.051065262 0.65000004 251 15 212
-0.19373804 -0.051104546 0.65050006 251 15 212
-0.19088444 -0.051183105 0.65149999 251 15 212
-0.18945441 -0.051222384 0.65200001 251 15 212
-0.19516161 -0.048445113 0.65000004 251 15 212
-0.19366378 -0.048463948 0.65025008 251 15 212
-0.19081138 -0.04853848 0.65125 251 15 212
-0.18945441 -0.048594177 0.65200001 251 15 212
-0.19358952 -0.045824967 0.65000004 251 15 212
-0.19073834 -0.045895468 0.65100002 251 15 212
-0.18945441 -0.045965966 0.65200001 251 15 212
-0.19341485 -0.044427555 0.65000004 251 15 212
-0.19059142 -0.044286922 0.65050006 251 15 212
-0.18930912 -0.044355404 0.65149999 251 15 212
-0.19096938 -0.041632731 0.65000004 251 15 212
-0.18954256 -0.041140325 0.65050006 251 15 212
-0.18895294 -0.039177246 0.65100002 251 15 212
-0.18878348 -0.035951175 0.65149999 251 15 212
-0.18878347 -0.034375463 0.65149999 251 15 212
-0.18878347 -0.031224029 0.65150005 251 15 212
-0.18878347 -0.029123073 0.65149999 251 15 212
-0.18878348 -0.02649688 0.65149999 251 15 212
-0.18878348 -0.023870684 0.65149999 251 15 212
-0.18916383 -0.021228187 0.65100002 251 15 212
-0.18945441 -0.018632585 0.65200001 251 15 212
-0.18992132 -0.015431253 0.65000004 251 15 212
-0.19059144 -0.013345392 0.65050006 251 15 212
-0.19306549 -0.011239016 0.65000004 251 15 212
-0.19073793 -0.01178074 0.65100002 251 15 212
-0.19351387 -0.0084483428 0.6503334 251 15 212
-0.19141006 -0.0086383559 0.65149999 251 15 212
-0.19516161 -0.0065227505 0.65000004 251 15 212
-0.1941613 -0.0067113452 0.65133333 251 15 212
-0.19643484 -0.0033822702 0.65075004 251 15 212
-0.1975612 -0.0018092642 0.65100002 251 15 212
-0.19576211 -0.0018120435 0.65200001 251 15 212
-0.19804144 0.0015504186 0.6512 251 15 212
-0.19898236 0.0044853166 0.65050006 251 15 212
-0.19951458 0.0058945357 0.65166664 251 15 212
-0.15009508 0.10195137 0.65000004 251 15 212
-0.15009508 0.10299943 0.65000004 251 15 212
-0.19910435 -0.085967392 0.65400004 251 15 212
-0.19636261 -0.08565104 0.65400004 251 15 212
-0.19869459 -0.082887836 0.65300006 251 15 212
-0.19583535 -0.083014771 0.65400004 251 15 212
-0.19869459 -0.081308499 0.65300006 251 15 212
-0.19583535 -0.081433006 0.65400004 251 15 212
-0.19425359 -0.081433006 0.65400004 251 15 212
-0.19816814 -0.078149803 0.65300006 251 15 212
-0.19568524 -0.078209646 0.65350008 251 15 212
-0.19425359 -0.078269482 0.65400004 251 15 212
-0.19816814 -0.076044008 0.65300006 251 15 212
-0.19568524 -0.076102234 0.65350008 251 15 212
-0.19372633 -0.076160461 0.65400004 251 15 212
-0.19816814 -0.07341177 0.65300006 251 15 212
-0.1955359 -0.07341177 0.65300006 251 15 212
-0.19372633 -0.073524192 0.65400004 251 15 212
-0.1955359 -0.071832426 0.65300006 251 15 212
-0.19372633 -0.071942426 0.65400004 251 15 212
-0.1955359 -0.068673737 0.65300006 251 15 212
-0.19380307 -0.068919867 0.65366673 251 15 212
-0.19134362 -0.068568371 0.65366673 251 15 212
-0.19500946 -0.067094393 0.65300006 251 15 212
-0.19395655 -0.066567943 0.65300006 251 15 212
-0.19118343 -0.066523656 0.6536001 251 15 212
-0.19089474 -0.063441627 0.65333337 251 15 212
-0.18898106 -0.063506357 0.65400004 251 15 212
-0.19079787 -0.061829913 0.65300006 251 15 212
-0.18936302 -0.061877254 0.65350008 251 15 212
-0.1892667 -0.058686469 0.65316671 251 15 212
-0.18898106 -0.055597544 0.65400004 251 15 212
-0.18898106 -0.054015782 0.65400004 251 15 212
-0.18898106 -0.051379509 0.65400004 251 15 212
-0.18898106 -0.048743237 0.65400004 251 15 212
-0.18687204 -0.048215982 0.65400004 251 15 212
-0.18898106 -0.046106964 0.65400004 251 15 212
-0.18687204 -0.045579709 0.65400004 251 15 212
-0.18869208 -0.044457123 0.65300006 251 15 212
-0.18687204 -0.043997947 0.65400004 251 15 212
-0.18869208 -0.041298434 0.65300006 251 15 212
-0.18687204 -0.041361675 0.65400004 251 15 212
-0.18620192 -0.03922265 0.65350008 251 15 212
-0.1862019 -0.036061544 0.65350008 251 15 212
-0.1862019 -0.034480989 0.65350008 251 15 212
-0.18620189 -0.031319883 0.65350008 251 15 212
-0.1862019 -0.029212477 0.65350008 251 15 212
-0.1867768 -0.026057476 0.65366673 251 15 212
-0.18687204 -0.022907775 0.65400004 251 15 212
-0.18869208 -0.021293404 0.65300006 251 15 212
-0.18936302 -0.018149003 0.65350008 251 15 212
-0.19003557 -0.016580723 0.65400004 251 15 212
-0.19003557 -0.011308179 0.65400004 251 15 212
-0.18974498 -0.012343785 0.65300006 251 15 212
-0.19041672 -0.0086652776 0.65350008 251 15 212
-0.19147041 -0.0070847245 0.65350008 251 15 212
-0.19500946 -0.0033941669 0.65300006 251 15 212
-0.19395655 -0.0044470634 0.65300006 251 15 212
-0.19185077 -0.0049735117 0.65300006 251 15 212
-0.1953081 -0.0018176018 0.65400004 251 15 212
-0.19594884 0.0010816711 0.65350008 251 15 212
-0.19816814 0.0045025549 0.65300006 251 15 212
-0.19884634 0.0060861534 0.65350008 251 15 212
-0.19952615 0.0076729767 0.65400004 251 15 212
-0.14961272 0.099063732 0.65400004 251 15 212
-0.14996423 0.10152425 0.65400004 251 15 212
-0.19885236 -0.090810992 0.65700001 251 15 212
-0.19567433 -0.090810992 0.65700001 251 15 212
-0.1994549 -0.089546733 0.65550005 251 15 212
-0.19600438 -0.089660577 0.65633333 251 15 212
-0.19408531 -0.089751646 0.65700001 251 15 212
-0.19143695 -0.087632954 0.65700001 251 15 212
-0.1987751 -0.087366186 0.65500003 251 15 212
-0.19587076 -0.0865741 0.65500003 251 15 212
-0.19417053 -0.086376488 0.65549999 251 15 212
-0.19121823 -0.085945912 0.65625 251 15 212
-0.18914171 -0.085867383 0.65700001 251 15 212
-0.19402257 -0.083141699 0.65500003 251 15 212
-0.19114557 -0.083268642 0.65600002 251 15 212
-0.18878859 -0.083395571 0.65700001 251 15 212
-0.18666989 -0.083395571 0.65700001 251 15 212
-0.1934945 -0.08155752 0.65500003 251 15 212
-0.19099948 -0.081619784 0.65549999 251 15 212
-0.18864411 -0.081744298 0.65650004 251 15 212
-0.18666989 -0.081806555 0.65700001 251 15 212
-0.1934945 -0.078389153 0.65500003 251 15 212
-0.19092685 -0.078419276 0.65525007 251 15 212
-0.18955897 -0.078508839 0.65600002 251 15 212
-0.18705671 -0.078568675 0.65650004 251 15 212
-0.19085419 -0.076276913 0.65500003 251 15 212
-0.18955897 -0.076393373 0.65600002 251 15 212
-0.18705669 -0.0764516 0.65649998 251 15 212
-0.19085419 -0.073108554 0.65500003 251 15 212
-0.18955897 -0.073220178 0.65600002 251 15 212
-0.18705671 -0.073275983 0.65650004 251 15 212
-0.19085419 -0.071524367 0.65500003 251 15 212
-0.18955897 -0.07163357 0.65600002 251 15 212
-0.18657465 -0.071706362 0.6566667 251 15 212
-0.19032614 -0.068884067 0.65500003 251 15 212
-0.18927 -0.068884067 0.65500003 251 15 212
-0.18646604 -0.068670854 0.65675002 251 15 212
-0.19032614 -0.067299888 0.65500003 251 15 212
-0.18927 -0.066771828 0.65500003 251 15 212
-0.18672083 -0.066634625 0.65625 251 15 212
-0.18455119 -0.066446036 0.65700001 251 15 212
-0.18643232 -0.063716881 0.65616661 251 15 212
-0.18455119 -0.063797668 0.65700001 251 15 212
-0.18629052 -0.06208241 0.65566671 251 15 212
-0.18455119 -0.06114931 0.65700001 251 15 212
-0.18629052 -0.058910821 0.65566677 251 15 212
-0.18455119 -0.058500946 0.65700001 251 15 212
-0.18629052 -0.055739228 0.65566671 251 15 212
-0.18455119 -0.055852581 0.65700001 251 15 212
-0.18629052 -0.053624842 0.65566677 251 15 212
-0.18455119 -0.053733889 0.65700001 251 15 212
-0.18629052 -0.050453246 0.65566671 251 15 212
-0.18455119 -0.050555851 0.65700001 251 15 212
-0.18600342 -0.048953194 0.65539998 251 15 212
-0.18455119 -0.048966832 0.65700001 251 15 212
-0.18571484 -0.045684256 0.65549999 251 15 212
-0.18455119 -0.045788795 0.65700001 251 15 212
-0.18571484 -0.044098862 0.65550005 251 15 212
-0.18455119 -0.044199776 0.65700001 251 15 212
-0.18564421 -0.041440934 0.65525007 251 15 212
-0.18441075 -0.041520193 0.65649998 251 15 212
-0.18504553 -0.039312679 0.65500003 251 15 212
-0.18427031 -0.039372697 0.65600002 251 15 212
-0.1824325 -0.039432719 0.65700001 251 15 212
-0.18504553 -0.036144316 0.65500003 251 15 212
-0.18427031 -0.036199495 0.65600002 251 15 212
-0.18504553 -0.034560136 0.65500003 251 15 212
-0.18441075 -0.033579934 0.65649998 251 15 212
-0.18504553 -0.031391773 0.65500003 251 15 212
-0.18455119 -0.030957952 0.65700001 251 15 212
-0.18532804 -0.02932423 0.65600002 251 15 212
-0.18455119 -0.029368933 0.65700001 251 15 212
-0.18576193 -0.026137473 0.65566665 251 15 212
-0.18455119 -0.027250241 0.65700001 251 15 212
-0.18638577 -0.022977829 0.65600002 251 15 212
-0.18699513 -0.021556919 0.65566665 251 15 212
-0.18849963 -0.018218834 0.65600002 251 15 212
-0.19032614 -0.015549955 0.65500003 251 15 212
-0.18984793 -0.016656781 0.65700001 251 15 212
-0.1906167 -0.013458228 0.65600002 251 15 212
-0.19032614 -0.0071009859 0.65500003 251 15 212
-0.19394501 -0.0032300064 0.65533334 251 15 212
-0.19141001 -0.0042022546 0.65600002 251 15 212
-0.19431797 -0.0018231602 0.65600002 251 15 212
-0.19545271 0.0020545097 0.65566665 251 15 212
-0.19446649 0.00082179933 0.65649998 251 15 212
-0.1959043 0.0045232405 0.65600002 251 15 212
-0.1985489 0.0066387076 0.65600002 251 15 212
-0.19635695 0.0059369248 0.65633339 251 15 212
-0.19886605 0.0089657214 0.65600002 251 15 212
-0.19938204 0.011415884 0.65700001 251 15 212
-0.16205789 0.092315115 0.65600002 251 15 212
-0.15934658 0.091470324 0.65500003 251 15 212
-0.15383017 0.092455842 0.65700001 251 15 212
-0.16336428 0.093515188 0.65700001 251 15 212
-0.16205789 0.093901716 0.65600002 251 15 212
-0.15929165 0.093830548 0.65549999 251 15 212
-0.15318424 0.093973294 0.65649998 251 15 212
-0.15042283 0.094430581 0.65600002 251 15 212
-0.1493651 0.094430581 0.65600002 251 15 212
-0.15359603 0.095488317 0.65600002 251 15 212
-0.15089761 0.096046843 0.65500003 251 15 212
-0.14913741 0.096398883 0.65500003 251 15 212
-0.15386045 0.098925956 0.65600002 251 15 212
-0.14913741 0.098511122 0.65500003 251 15 212
-0.19945771 -0.093212575 0.65900004 251 15 212
-0.19627 -0.093212575 0.65900004 251 15 212
-0.19361357 -0.093212575 0.65900004 251 15 212
-0.19915503 -0.09201017 0.65800005 251 15 212
-0.19597216 -0.09201017 0.65800005 251 15 212
-0.19377081 -0.091703124 0.65833336 251 15 212
-0.19141538 -0.091318518 0.65875006 251 15 212
-0.18936329 -0.091087431 0.65900004 251 15 212
-0.18723816 -0.090024859 0.65900004 251 15 212
-0.1909326 -0.089357771 0.65800005 251 15 212
-0.18801497 -0.088827297 0.65800005 251 15 212
-0.18670687 -0.087899722 0.65900004 251 15 212
-0.18801497 -0.086705379 0.65800005 251 15 212
-0.18649417 -0.086207844 0.65825003 251 15 212
-0.18572722 -0.082898743 0.65866667 251 15 212
-0.18550304 -0.081462443 0.65850008 251 15 212
-0.18298787 -0.081524298 0.65900004 251 15 212
-0.18550304 -0.078808025 0.65850008 251 15 212
-0.18298787 -0.078867868 0.65900004 251 15 212
-0.18589306 -0.076626271 0.65800005 251 15 212
-0.18390998 -0.076684505 0.65850008 251 15 212
-0.1819253 -0.076742731 0.65900004 251 15 212
-0.18589306 -0.073443398 0.65800005 251 15 212
-0.18377113 -0.073443398 0.65800005 251 15 212
-0.18139401 -0.073555015 0.65900004 251 15 212
-0.18377113 -0.071851961 0.65800005 251 15 212
-0.18139401 -0.071961157 0.65900004 251 15 212
-0.18377113 -0.068669088 0.65800005 251 15 212
-0.18139403 -0.068773448 0.65899998 251 15 212
-0.18271019 -0.06654717 0.65800005 251 15 212
-0.18125597 -0.066597737 0.65850008 251 15 212
-0.18271019 -0.063894778 0.65800005 251 15 212
-0.18125598 -0.063943326 0.65850008 251 15 212
-0.18271019 -0.061242379 0.65800005 251 15 212
-0.18125598 -0.061288919 0.65850008 251 15 212
-0.18271019 -0.058589987 0.65800005 251 15 212
-0.18157111 -0.058856118 0.65900004 251 15 212
-0.18271019 -0.055937592 0.65800005 251 15 212
-0.1819253 -0.056022599 0.65900004 251 15 212
-0.18271019 -0.053815674 0.65800005 251 15 212
-0.1819253 -0.053897459 0.65900004 251 15 212
-0.18271019 -0.050632797 0.65800005 251 15 212
-0.1819253 -0.050709751 0.65900004 251 15 212
-0.18271019 -0.049041361 0.65800005 251 15 212
-0.1819253 -0.049115896 0.65900004 251 15 212
-0.18271019 -0.045858487 0.65800005 251 15 212
-0.1819253 -0.04592818 0.65900004 251 15 212
-0.18271019 -0.044267051 0.65800005 251 15 212
-0.1819253 -0.044334326 0.65900004 251 15 212
-0.18271019 -0.041614652 0.65800005 251 15 212
-0.1819253 -0.041146614 0.65900004 251 15 212
-0.1819253 -0.039021473 0.65900004 251 15 212
-0.18271019 -0.036309861 0.65800005 251 15 212
-0.1819253 -0.036365047 0.65900004 251 15 212
-0.18271019 -0.033657469 0.65800005 251 15 212
-0.1819253 -0.033708617 0.65900004 251 15 212
-0.18271019 -0.031005071 0.65800005 251 15 212
-0.18298787 -0.029458337 0.65900004 251 15 212
-0.18511301 -0.025208052 0.65900004 251 15 212
-0.18390998 -0.026781976 0.65850008 251 15 212
-0.18550304 -0.023065396 0.65850008 251 15 212
-0.1865648 -0.021473154 0.65850008 251 15 212
-0.18936329 -0.017770058 0.65900004 251 15 212
-0.19013689 -0.015621176 0.65800005 251 15 212
-0.19013689 -0.013499259 0.65800005 251 15 212
-0.19042586 -0.012457205 0.65900004 251 15 212
-0.19134313 -0.0034223518 0.65850008 251 15 212
-0.19187361 -0.0018301082 0.65850008 251 15 212
-0.19438073 0.0024151145 0.65800005 251 15 212
-0.19187362 0.0013551852 0.65850002 251 15 212
-0.19438073 0.0045370311 0.65800005 251 15 212
-0.19187361 0.0045404788 0.65850008 251 15 212
-0.19544168 0.0061284681 0.65800005 251 15 212
-0.19346587 0.0061331252 0.65850008 251 15 212
-0.1908845 0.0061356546 0.65875006 251 15 212
-0.19612068 0.0087875361 0.65850008 251 15 212
-0.192551 0.0077316379 0.65900004 251 15 212
-0.19148843 0.0077316379 0.65900004 251 15 212
-0.19862455 0.011433259 0.65800005 251 15 212
-0.19680129 0.01091935 0.65900004 251 15 212
-0.19930598 0.014096359 0.65850008 251 15 212
-0.19998899 0.015700918 0.65900004 251 15 212
-0.19953014 -0.097758651 0.66100001 251 15 212
-0.19611959 -0.09861128 0.66100001 251 15 212
-0.19313537 -0.098824441 0.66100001 251 15 212
-0.19153668 -0.098824441 0.66100001 251 15 212
-0.18901426 -0.097832598 0.66150004 251 15 212
-0.1864894 -0.097906545 0.66200006 251 15 212
-0.19937921 -0.09608762 0.66050005 251 15 212
-0.19664249 -0.096051045 0.66025007 251 15 212
-0.19390737 -0.096014485 0.66000003 251 15 212
-0.19131915 -0.096051052 0.66025001 251 15 212
-0.18887219 -0.096159957 0.66100001 251 15 212
-0.18641877 -0.096269265 0.66175008 251 15 212
-0.18382089 -0.096839137 0.66200006 251 15 212
-0.19124691 -0.093354024 0.66000003 251 15 212
-0.18872851 -0.093424745 0.66050005 251 15 212
-0.1862077 -0.093495466 0.66100001 251 15 212
-0.19071482 -0.092289843 0.66000003 251 15 212
-0.18823172 -0.091935121 0.66000003 251 15 212
-0.18611354 -0.091318071 0.6606667 251 15 212
-0.18346508 -0.090790488 0.66200006 251 15 212
-0.1856748 -0.08816649 0.66100001 251 15 212
-0.18314834 -0.08823318 0.66150004 251 15 212
-0.18168607 -0.08829987 0.66200006 251 15 212
-0.1853939 -0.086436838 0.66000003 251 15 212
-0.18340437 -0.086502716 0.66050005 251 15 212
-0.1815483 -0.086633414 0.66150004 251 15 212
-0.1853939 -0.083776377 0.66000003 251 15 212
-0.18326554 -0.083244286 0.66000003 251 15 212
-0.18141107 -0.083370678 0.66100007 251 15 212
-0.17848384 -0.083496541 0.66200006 251 15 212
-0.18122812 -0.081689246 0.6603334 251 15 212
-0.17848384 -0.081895426 0.66200006 251 15 212
-0.17741644 -0.081895426 0.66200006 251 15 212
-0.18166927 -0.078987554 0.66000003 251 15 212
-0.17853208 -0.078739621 0.66060007 251 15 212
-0.17693588 -0.078456268 0.66180009 251 15 212
-0.18113717 -0.076859184 0.66000003 251 15 212
-0.17874396 -0.076720364 0.6603334 251 15 212
-0.17674872 -0.076500565 0.66150004 251 15 212
-0.17847672 -0.07366664 0.66000003 251 15 212
-0.17674872 -0.073834054 0.66150004 251 15 212
-0.17421421 -0.073889866 0.66200006 251 15 212
-0.17847672 -0.07207036 0.66000003 251 15 212
-0.17674872 -0.071167558 0.66150004 251 15 212
-0.17421421 -0.071221344 0.66200006 251 15 212
-0.17847674 -0.068877816 0.66000003 251 15 212
-0.17674874 -0.068501048 0.66150004 251 15 212
-0.17421421 -0.069086529 0.66200006 251 15 212
-0.17847672 -0.066749446 0.66000003 251 15 212
-0.17674872 -0.066901147 0.66150004 251 15 212
-0.17847815 -0.063807935 0.66040003 251 15 212
-0.17688227 -0.063924134 0.66160005 251 15 212
-0.17874396 -0.061104286 0.66033334 251 15 212
-0.17741644 -0.060547266 0.66200006 251 15 212
-0.18113717 -0.058235984 0.66000003 251 15 212
-0.17861152 -0.058812596 0.66050005 251 15 212
-0.17741644 -0.058946155 0.66200006 251 15 212
-0.18087339 -0.055425961 0.6603334 251 15 212
-0.17865884 -0.055865157 0.66133338 251 15 212
-0.17741644 -0.056277636 0.66200006 251 15 212
-0.18074149 -0.053487647 0.66050005 251 15 212
-0.17848384 -0.053609118 0.66200006 251 15 212
-0.18113717 -0.050786696 0.66000003 251 15 212
-0.17874633 -0.050863646 0.66100001 251 15 212
-0.18113717 -0.049190424 0.66000003 251 15 212
-0.17874633 -0.049264953 0.66100001 251 15 212
-0.18113717 -0.045997873 0.66000003 251 15 212
-0.17874633 -0.046067566 0.66100001 251 15 212
-0.18113717 -0.044401601 0.66000003 251 15 212
-0.17874633 -0.044468876 0.66100001 251 15 212
-0.18113716 -0.041209053 0.66000003 251 15 212
-0.1790088 -0.04120905 0.66000003 251 15 212
-0.18087792 -0.039139897 0.66100001 251 15 212
-0.18101513 -0.036503002 0.66150004 251 15 212
-0.18141162 -0.033810921 0.66100001 251 15 212
-0.18212162 -0.031324062 0.66100001 251 15 212
-0.18247741 -0.02954774 0.66100001 251 15 212
-0.18300951 -0.025817454 0.66100007 251 15 212
-0.18247741 -0.027416149 0.66100001 251 15 212
-0.18354321 -0.023152966 0.66100001 251 15 212
-0.1859359 -0.021365501 0.6606667 251 15 212
-0.18382089 -0.022120584 0.66200006 251 15 212
-0.18766433 -0.018342597 0.66050005 251 15 212
-0.1870231 -0.018918362 0.66200006 251 15 212
-0.1897943 -0.016212618 0.66050005 251 15 212
-0.19022533 -0.012513914 0.66200006 251 15 212
-0.18993798 -0.013560806 0.66100001 251 15 212
-0.19047007 -0.011429216 0.66100001 251 15 212
-0.1908593 -0.0087576937 0.66050005 251 15 212
-0.19129273 -0.0071768751 0.66200006 251 15 212
-0.19435948 0.0091672661 0.6603334 251 15 212
-0.19153668 0.0088208979 0.66100001 251 15 212
-0.19605955 0.011588653 0.66080004 251 15 212
-0.19313537 0.010952489 0.66100001 251 15 212
-0.19206958 0.010952489 0.66100001 251 15 212
-0.19633168 0.014149877 0.66100001 251 15 212
-0.19922829 0.015724745 0.66000003 251 15 212
-0.19643097 0.015756778 0.66133338 251 15 212
-0.19891916 0.018777609 0.66133338 251 15 212
-0.19968107 0.021093894 0.66150004 251 15 212
-0.18370208 -0.098128386 0.66350007 251 15 212
-0.18356991 -0.096369721 0.66366673 251 15 212
-0.18223496 -0.096061073 0.66400003 251 15 212
-0.18363306 -0.093279205 0.66325009 251 15 212
-0.18187809 -0.093206048 0.66400003 251 15 212
-0.18302953 -0.091640316 0.66300005 251 15 212
-0.18149422 -0.09114036 0.66325003 251 15 212
-0.17902307 -0.091243222 0.66400003 251 15 212
-0.1808915 -0.088433251 0.66300005 251 15 212
-0.17848775 -0.088566646 0.66400003 251 15 212
-0.17828594 -0.086862668 0.66325003 251 15 212
-0.17688181 -0.086960696 0.66400003 251 15 212
-0.17768444 -0.083622664 0.66300005 251 15 212
-0.17661542 -0.083622664 0.66300005 251 15 212
-0.17474054 -0.083213478 0.66400003 251 15 212
-0.17661542 -0.082019135 0.66300005 251 15 212
-0.17402679 -0.081429087 0.66400003 251 15 212
-0.17661542 -0.079881094 0.66300005 251 15 212
-0.17371006 -0.078574106 0.66357148 251 15 212
-0.17152864 -0.078395635 0.66400003 251 15 212
-0.17349501 -0.076712586 0.66333342 251 15 212
-0.17152864 -0.076789685 0.66400003 251 15 212
-0.17300381 -0.074057288 0.66350007 251 15 212
-0.17152864 -0.073577784 0.66400003 251 15 212
-0.17340836 -0.071328923 0.66300005 251 15 212
-0.17206912 -0.071007907 0.66333336 251 15 212
-0.17376471 -0.068478204 0.66300005 251 15 212
-0.17193398 -0.068708159 0.66350007 251 15 212
-0.17340314 -0.066277251 0.66380006 251 15 212
-0.17661542 -0.062776767 0.66300005 251 15 212
-0.17363535 -0.063567638 0.66328579 251 15 212
-0.17661542 -0.060638726 0.66300005 251 15 212
-0.17420521 -0.060730193 0.66400003 251 15 212
-0.17661542 -0.059035197 0.66300005 251 15 212
-0.17420523 -0.059124243 0.66400003 251 15 212
-0.17768444 -0.055293627 0.66300005 251 15 212
-0.17661542 -0.055828139 0.66300005 251 15 212
-0.17420521 -0.055912346 0.66400003 251 15 212
-0.17768444 -0.053690098 0.66300005 251 15 212
-0.17661542 -0.053690098 0.66300005 251 15 212
-0.17413944 -0.053751033 0.66375005 251 15 212
-0.17768444 -0.051017549 0.66300005 251 15 212
-0.1767486 -0.050520707 0.66350007 251 15 212
-0.17429595 -0.050711971 0.66366673 251 15 212
-0.17768444 -0.049414016 0.66300005 251 15 212
-0.17688181 -0.048953231 0.66400003 251 15 212
-0.17474054 -0.048953231 0.66400003 251 15 212
-0.17768444 -0.046206959 0.66300005 251 15 212
-0.17688181 -0.046811964 0.66400003 251 15 212
-0.17474054 -0.046811964 0.66400003 251 15 212
-0.17795244 -0.043600067 0.66400003 251 15 212
-0.17855319 -0.041411974 0.66325009 251 15 212
-0.17902307 -0.039317537 0.66400003 251 15 212
-0.17902307 -0.036640957 0.66400003 251 15 212
-0.1808915 -0.033913225 0.66300005 251 15 212
-0.18156242 -0.031264633 0.66350007 251 15 212
-0.18209773 -0.028588861 0.66350007 251 15 212
-0.18223496 -0.025934629 0.66400003 251 15 212
-0.18302953 -0.02322302 0.66300005 251 15 212
-0.18223496 -0.023258047 0.66400003 251 15 212
-0.18356404 -0.021619489 0.66300005 251 15 212
-0.18758813 -0.017904883 0.66400003 251 15 212
-0.18651749 -0.018975517 0.66400003 251 15 212
-0.18837464 -0.016274387 0.66300005 251 15 212
-0.18851671 -0.013076779 0.66350007 251 15 212
-0.18865876 -0.011481088 0.66400003 251 15 212
-0.19065635 -0.0087974733 0.66350007 251 15 212
-0.1915817 -0.0050496752 0.66300005 251 15 212
-0.19172618 -0.003448341 0.66350007 251 15 212
-0.19187066 0.0045784018 0.66400003 251 15 212
-0.19478875 0.012054648 0.66300005 251 15 212
-0.19799583 0.019537792 0.66300005 251 15 212
-0.19676793 0.018844219 0.66366673 251 15 212
-0.18250942 -0.098350227 0.66500002 251 15 212
-0.18143718 -0.098350227 0.66500002 251 15 212
-0.17835318 -0.098303199 0.66650003 251 15 212
-0.17660551 -0.098108277 0.66700006 251 15 212
-0.18250942 -0.097277984 0.66500002 251 15 212
-0.18143718 -0.096741863 0.66500002 251 15 212
-0.17895797 -0.09685117 0.66575003 251 15 212
-0.17701004 -0.096422747 0.66650003 251 15 212
-0.18143718 -0.094061248 0.66500002 251 15 212
-0.17882356 -0.093560487 0.66525 251 15 212
-0.17694384 -0.093701124 0.66624999 251 15 212
-0.17445455 -0.093806401 0.66700006 251 15 212
-0.17822045 -0.091380641 0.66500002 251 15 212
-0.17681104 -0.091483898 0.66575003 251 15 212
-0.17385143 -0.09162131 0.66675001 251 15 212
-0.17571855 -0.088342607 0.66500002 251 15 212
-0.17372108 -0.088329822 0.66624999 251 15 212
-0.17230362 -0.088429049 0.66700006 251 15 212
-0.17500371 -0.086555533 0.66500002 251 15 212
-0.1735253 -0.086620614 0.66550004 251 15 212
-0.17122814 -0.086815849 0.66700006 251 15 212
-0.17500371 -0.084411047 0.66500002 251 15 212
-0.17346033 -0.083906658 0.66525 251 15 212
-0.17150052 -0.084264643 0.66666669 251 15 212
-0.1690262 -0.083349273 0.66680002 251 15 212
-0.17285922 -0.081194311 0.66500002 251 15 212
-0.17191613 -0.081256166 0.66550004 251 15 212
-0.16909137 -0.080779478 0.66600001 251 15 212
-0.16882265 -0.078631759 0.66600007 251 15 212
-0.16873868 -0.076982424 0.6656667 251 15 212
-0.16871034 -0.073749796 0.66555554 251 15 212
-0.1658508 -0.073910207 0.66700006 251 15 212
-0.16882265 -0.07057783 0.66600001 251 15 212
-0.16908853 -0.069094978 0.66619998 251 15 212
-0.17178698 -0.066182882 0.66500002 251 15 212
-0.1694874 -0.066332161 0.66650003 251 15 212
-0.17178698 -0.063502267 0.66500002 251 15 212
-0.1694874 -0.063645497 0.66650003 251 15 212
-0.17285922 -0.060821652 0.66500002 251 15 212
-0.17109898 -0.06095884 0.66650003 251 15 212
-0.16907722 -0.061004572 0.66700006 251 15 212
-0.17285922 -0.059213284 0.66500002 251 15 212
-0.17109898 -0.059346847 0.66650003 251 15 212
-0.17285922 -0.055996552 0.66500002 251 15 212
-0.17109898 -0.056122854 0.66649997 251 15 212
-0.17285922 -0.053852059 0.66500002 251 15 212
-0.17141442 -0.054139275 0.66633338 251 15 212
-0.17338991 -0.050507378 0.6656667 251 15 212
-0.17230362 -0.050787613 0.66700006 251 15 212
-0.1735253 -0.049063817 0.66550004 251 15 212
-0.17230362 -0.049174406 0.66700006 251 15 212
-0.17607595 -0.045810223 0.66500002 251 15 212
-0.17372066 -0.046433263 0.66625005 251 15 212
-0.17607595 -0.043665733 0.66500002 251 15 212
-0.17400889 -0.044133123 0.66666669 251 15 212
-0.17822045 -0.040448997 0.66500002 251 15 212
-0.17620915 -0.041015934 0.66550004 251 15 212
-0.17445455 -0.041108381 0.66700006 251 15 212
-0.17795071 -0.039435964 0.66600001 251 15 212
-0.17660551 -0.039495178 0.66700006 251 15 212
-0.17848781 -0.036215037 0.66600001 251 15 212
-0.17660551 -0.03734424 0.66700006 251 15 212
-0.17902458 -0.032992821 0.66600001 251 15 212
-0.18143718 -0.030798791 0.66500002 251 15 212
-0.1796971 -0.031405188 0.66650003 251 15 212
-0.1815736 -0.028675038 0.66550004 251 15 212
-0.17983191 -0.028740481 0.66700006 251 15 212
-0.18171002 -0.026012745 0.66600001 251 15 212
-0.17983191 -0.026051804 0.66700006 251 15 212
-0.18171002 -0.023328101 0.66600001 251 15 212
-0.18286683 -0.021505998 0.66500002 251 15 212
-0.18171002 -0.021717314 0.66600001 251 15 212
-0.18617667 -0.018298252 0.66533333 251 15 212
-0.18318316 -0.018481856 0.66550004 251 15 212
-0.18171002 -0.018495742 0.66600001 251 15 212
-0.18787065 -0.016323481 0.66500002 251 15 212
-0.18682247 -0.016372573 0.66700006 251 15 212
-0.18352744 -0.016366236 0.66675001 251 15 212
-0.18171 -0.016347222 0.66600001 251 15 212
-0.18787065 -0.013106747 0.66500002 251 15 212
-0.18682247 -0.013146165 0.66700006 251 15 212
-0.1841338 -0.013683899 0.66700006 251 15 212
-0.18815316 -0.01151567 0.66600001 251 15 212
-0.1873602 -0.01153296 0.66700006 251 15 212
-0.19058661 -0.0088442862 0.66700006 251 15 212
-0.18829441 -0.0088372529 0.66650003 251 15 212
-0.19108738 -0.0061371536 0.66500002 251 15 212
-0.18908495 -0.0061425744 0.66550004 251 15 212
-0.19108738 -0.0034565409 0.66500002 251 15 212
-0.18894289 -0.0039926632 0.66500002 251 15 212
-0.19176719 -0.0018495626 0.66550004 251 15 212
-0.1921075 0.001100835 0.66575003 251 15 212
-0.18894289 0.00029631698 0.66500002 251 15 212
-0.19966535 0.020668974 0.66500002 251 15 212
-0.17376846 -0.09832906 0.66850001 251 15 212
-0.17372513 -0.096687973 0.66833335 251 15 212
-0.17066288 -0.09678442 0.66900003 251 15 212
-0.17310049 -0.093947046 0.66800004 251 15 212
-0.17066288 -0.094087683 0.66900003 251 15 212
-0.16904484 -0.093548335 0.66900003 251 15 212
-0.17256194 -0.091792881 0.66800004 251 15 212
-0.17053533 -0.091861993 0.66850007 251 15 212
-0.16898146 -0.091896139 0.66875005 251 15 212
-0.17040779 -0.088561639 0.66800004 251 15 212
-0.1689181 -0.08862792 0.66850001 251 15 212
-0.16742679 -0.08815486 0.66900003 251 15 212
-0.16879216 -0.086946011 0.66800004 251 15 212
-0.16742679 -0.087076172 0.66900003 251 15 212
-0.16825362 -0.084253311 0.66800004 251 15 212
-0.16626467 -0.083798587 0.66866666 251 15 212
-0.16622296 -0.080543756 0.66850007 251 15 212
-0.16622296 -0.078926928 0.66850007 251 15 212
-0.1659051 -0.076610237 0.66866666 251 15 212
-0.1652694 -0.073592484 0.66900003 251 15 212
-0.16717653 -0.070789777 0.66800004 251 15 212
-0.16825362 -0.06809707 0.66800004 251 15 212
-0.16742678 -0.068738356 0.66899997 251 15 212
-0.16825362 -0.065404363 0.66800004 251 15 212
-0.16837955 -0.063836083 0.66850007 251 15 212
-0.16878057 -0.060438421 0.66866666 251 15 212
-0.1689181 -0.058985993 0.66850007 251 15 212
-0.16905564 -0.056457017 0.66833335 251 15 212
-0.17040779 -0.053556461 0.66800004 251 15 212
-0.16958418 -0.05417598 0.66900003 251 15 212
-0.17040779 -0.05086375 0.66800004 251 15 212
-0.16958418 -0.051479246 0.66900003 251 15 212
-0.17066288 -0.049321856 0.66900003 251 15 212
-0.17264806 -0.046039309 0.66833335 251 15 212
-0.17066288 -0.047164466 0.66900003 251 15 212
-0.17322965 -0.04281766 0.66850007 251 15 212
-0.17336611 -0.041370343 0.66833335 251 15 212
-0.17430754 -0.039583996 0.66850007 251 15 212
-0.17794736 -0.035784602 0.66800004 251 15 212
-0.17687027 -0.035784602 0.66800004 251 15 212
-0.17497766 -0.036916867 0.66900003 251 15 212
-0.17821375 -0.033141434 0.66900003 251 15 212
-0.17713505 -0.033141434 0.66900003 251 15 212
-0.17902444 -0.031476274 0.66800004 251 15 212
-0.17929244 -0.028826658 0.66900003 251 15 212
-0.18010153 -0.023398155 0.66800004 251 15 212
-0.18010153 -0.021782532 0.66800004 251 15 212
-0.18077567 -0.018564768 0.66850007 251 15 212
-0.18144983 -0.016421668 0.66900003 251 15 212
-0.18252853 -0.013724931 0.66900003 251 15 212
-0.18656401 -0.011550251 0.66800004 251 15 212
-0.18778154 -0.0088637723 0.66850007 251 15 212
-0.18656401 -0.0093960864 0.66800004 251 15 212
-0.18871818 -0.0050877575 0.66800004 251 15 212
-0.18871818 -0.0034721342 0.66800004 251 15 212
-0.18871818 -0.0018565109 0.66800004 251 15 212
-0.19841193 0.020762218 0.66800004 251 15 212
-0.1715865 -0.098623499 0.67050004 251 15 212
-0.16888277 -0.098623239 0.67050004 251 15 212
-0.16588701 -0.098770589 0.67150003 251 15 212
-0.16492699 -0.098843731 0.67200005 251 15 212
-0.16884081 -0.096977316 0.67033339 251 15 212
-0.1657635 -0.097073756 0.671 251 15 212
-0.16456582 -0.095773727 0.67200011 251 15 212
-0.16832526 -0.094120286 0.67000002 251 15 212
-0.1657635 -0.093828 0.671 251 15 212
-0.16432388 -0.093391523 0.67175007 251 15 212
-0.16767707 -0.091527551 0.67000002 251 15 212
-0.1657635 -0.091664158 0.671 251 15 212
-0.16426252 -0.091732465 0.67150003 251 15 212
-0.16767707 -0.089366943 0.67000002 251 15 212
-0.16551645 -0.08882679 0.67000002 251 15 212
-0.16420157 -0.088992707 0.67124999 251 15 212
-0.16167641 -0.08855018 0.67200005 251 15 212
-0.16551645 -0.087206326 0.67000002 251 15 212
-0.1640179 -0.086190291 0.67050004 251 15 212
-0.16167641 -0.086383119 0.67200005 251 15 212
-0.1640179 -0.083487511 0.67050004 251 15 212
-0.16113463 -0.083674282 0.67200005 251 15 212
-0.1640179 -0.080784723 0.67050004 251 15 212
-0.16167641 -0.080965452 0.67200005 251 15 212
-0.16393426 -0.078850284 0.67060006 251 15 212
-0.16167641 -0.07934016 0.67200005 251 15 212
-0.16415732 -0.076080628 0.67033339 251 15 212
-0.16420116 -0.073839791 0.67124999 251 15 212
-0.16551645 -0.071001723 0.67000002 251 15 212
-0.16480428 -0.070618913 0.67150003 251 15 212
-0.16559879 -0.068874814 0.67033339 251 15 212
-0.16492699 -0.06850484 0.67200005 251 15 212
-0.16767707 -0.065600187 0.67000002 251 15 212
-0.1657635 -0.065698095 0.671 251 15 212
-0.16767707 -0.063979723 0.67000002 251 15 212
-0.16588701 -0.064122558 0.67150003 251 15 212
-0.16767707 -0.060738802 0.67000002 251 15 212
-0.16601053 -0.060920116 0.67200005 251 15 212
-0.16767707 -0.059118342 0.67000002 251 15 212
-0.16601053 -0.05929482 0.67200005 251 15 212
-0.16820401 -0.056293655 0.67066669 251 15 212
-0.16846748 -0.054337941 0.67100006 251 15 212
-0.1692854 -0.05088675 0.67066669 251 15 212
-0.16954941 -0.049469303 0.671 251 15 212
-0.17047259 -0.045993388 0.67080003 251 15 212
-0.16926113 -0.047375966 0.67200005 251 15 212
-0.17063132 -0.042977788 0.671 251 15 212
-0.17307861 -0.040753122 0.67000002 251 15 212
-0.17117254 -0.041535228 0.671 251 15 212
-0.17311957 -0.038433723 0.671 251 15 212
-0.17523922 -0.035351586 0.67000002 251 15 212
-0.17414431 -0.036143754 0.67133331 251 15 212
-0.17523922 -0.033190973 0.67000002 251 15 212
-0.17467879 -0.033290051 0.67200005 251 15 212
-0.17848015 -0.031570513 0.67000002 251 15 212
-0.1764503 -0.031594072 0.67050004 251 15 212
-0.17441885 -0.032158595 0.671 251 15 212
-0.17848015 -0.029950052 0.67000002 251 15 212
-0.17739983 -0.029950052 0.67000002 251 15 212
-0.17956045 -0.021307595 0.67000002 251 15 212
-0.18009645 -0.018120605 0.67200005 251 15 212
-0.17982845 -0.019175559 0.671 251 15 212
-0.18226351 -0.013786477 0.67200005 251 15 212
-0.18834335 -0.0034847257 0.67050004 251 15 212
-0.1884838 -0.0018648484 0.671 251 15 212
-0.16354471 -0.098990813 0.67300004 251 15 212
-0.16107082 -0.098594524 0.67400002 251 15 212
-0.15998407 -0.097507767 0.67400002 251 15 212
-0.16336386 -0.09663967 0.67300004 251 15 212
-0.16107082 -0.095334254 0.67400002 251 15 212
-0.15998407 -0.095334254 0.67400002 251 15 212
-0.16300213 -0.093565099 0.67300004 251 15 212
-0.16107082 -0.093704119 0.67400002 251 15 212
-0.15998407 -0.093704119 0.67400002 251 15 212
-0.16300213 -0.091937378 0.67300004 251 15 212
-0.16083184 -0.091937378 0.67300004 251 15 212
-0.15998407 -0.092073984 0.67400002 251 15 212
-0.16300213 -0.089767091 0.67300004 251 15 212
-0.16083184 -0.088681959 0.67300004 251 15 212
-0.15971237 -0.088542022 0.67400002 251 15 212
-0.16083184 -0.085426517 0.67300004 251 15 212
-0.15932201 -0.085489981 0.67350006 251 15 212
-0.15946357 -0.084021427 0.67333335 251 15 212
-0.16083184 -0.080543369 0.67300004 251 15 212
-0.15998407 -0.08066304 0.67400002 251 15 212
-0.16300213 -0.077830508 0.67300004 251 15 212
-0.16095133 -0.078430898 0.67350006 251 15 212
-0.15998407 -0.079032905 0.67400002 251 15 212
-0.16300213 -0.075660214 0.67300004 251 15 212
-0.16107082 -0.075772636 0.67400002 251 15 212
-0.16312324 -0.074087098 0.67350006 251 15 212
-0.1638063 -0.070993252 0.67333341 251 15 212
-0.16433109 -0.068708718 0.67400002 251 15 212
-0.16517243 -0.065893918 0.67300004 251 15 212
-0.16433109 -0.065991826 0.67400002 251 15 212
-0.16529514 -0.064313546 0.67350006 251 15 212
-0.16541785 -0.061101422 0.67400002 251 15 212
-0.16541785 -0.059471287 0.67400002 251 15 212
-0.16604763 -0.056420159 0.67325002 251 15 212
-0.16650461 -0.054037504 0.67400002 251 15 212
-0.16842785 -0.051244471 0.67300004 251 15 212
-0.16650461 -0.051863991 0.67400002 251 15 212
-0.16855299 -0.048566859 0.67350006 251 15 212
-0.16923471 -0.046022568 0.67333335 251 15 212
-0.16625756 -0.045276176 0.67300004 251 15 212
-0.16976488 -0.043169938 0.67400002 251 15 212
-0.16650461 -0.043169938 0.67400002 251 15 212
-0.17059815 -0.040935602 0.67300004 251 15 212
-0.16976488 -0.041539803 0.67400002 251 15 212
-0.17059815 -0.038765311 0.67300004 251 15 212
-0.16976488 -0.038822912 0.67400002 251 15 212
-0.17313014 -0.035871595 0.67300004 251 15 212
-0.17085163 -0.03610602 0.67400002 251 15 212
-0.17343935 -0.033364359 0.67350006 251 15 212
-0.17085163 -0.033389129 0.67400002 251 15 212
-0.17302515 -0.032302372 0.67400002 251 15 212
-0.17873672 -0.021403003 0.67300004 251 15 212
-0.18036444 -0.017062427 0.67300004 251 15 212
-0.16022144 -0.099284992 0.67500001 251 15 212
-0.15913308 -0.098740809 0.67500001 251 15 212
-0.15657739 -0.098596372 0.67650002 251 15 212
-0.15913308 -0.095475703 0.67500001 251 15 212
-0.15625228 -0.095711447 0.67666674 251 15 212
-0.15913308 -0.093843147 0.67500001 251 15 212
-0.15625228 -0.094074868 0.67666674 251 15 212
-0.15913308 -0.091122225 0.67500001 251 15 212
-0.15613656 -0.091279991 0.67616671 251 15 212
-0.15913308 -0.088945486 0.67500001 251 15 212
-0.1560978 -0.088532269 0.67600006 251 15 212
-0.15609781 -0.085807316 0.67600006 251 15 212
-0.15913308 -0.083503641 0.67500001 251 15 212
-0.15670119 -0.084203273 0.67625004 251 15 212
-0.15913308 -0.080782719 0.67500001 251 15 212
-0.15675932 -0.080962241 0.67650008 251 15 212
-0.16022144 -0.078061797 0.67500001 251 15 212
-0.15925094 -0.078663804 0.67550004 251 15 212
-0.15730512 -0.078780264 0.67650008 251 15 212
-0.16022144 -0.075885057 0.67500001 251 15 212
-0.15948668 -0.075507894 0.67650008 251 15 212
-0.15742138 -0.076109909 0.67700005 251 15 212
-0.16088431 -0.074307509 0.67550004 251 15 212
-0.15960456 -0.073926717 0.67700005 251 15 212
-0.16348654 -0.070443213 0.67500001 251 15 212
-0.16112247 -0.071145147 0.67650008 251 15 212
-0.16360764 -0.068861231 0.67550004 251 15 212
-0.16112247 -0.068963572 0.67650008 251 15 212
-0.16401081 -0.06542889 0.67566675 251 15 212
-0.16142391 -0.065921694 0.67700005 251 15 212
-0.16427293 -0.064007685 0.676 251 15 212
-0.16178776 -0.064102374 0.67700005 251 15 212
-0.16453613 -0.061494887 0.67633343 251 15 212
-0.16481873 -0.059647765 0.67600006 251 15 212
-0.16546305 -0.055623364 0.67566663 251 15 212
-0.16481873 -0.056922808 0.67600006 251 15 212
-0.16548562 -0.054237939 0.67650008 251 15 212
-0.1659079 -0.051473305 0.67600006 251 15 212
-0.16633019 -0.048711892 0.67550004 251 15 212
-0.16892838 -0.045410726 0.67500001 251 15 212
-0.16633019 -0.04653354 0.67550004 251 15 212
-0.16917865 -0.04329804 0.67600006 251 15 212
-0.1694289 -0.041178901 0.67700005 251 15 212
-0.16942891 -0.037904121 0.67700005 251 15 212
-0.17001677 -0.03615959 0.67500001 251 15 212
-0.16917865 -0.03621316 0.67600006 251 15 212
-0.17437024 -0.032350298 0.67500001 251 15 212
-0.1792679 -0.01928987 0.67500001 251 15 212
-0.18471123 -0.012797462 0.67700005 251 15 212
-0.18471123 -0.0084310863 0.67700005 251 15 212
-0.18879832 -0.0035137164 0.67600006 251 15 212
-0.1554675 -0.099179655 0.67800003 251 15 212
-0.15437429 -0.098633051 0.67800003 251 15 212
-0.15241234 -0.098778531 0.67900002 251 15 212
-0.15437429 -0.095900036 0.67800003 251 15 212
-0.15241234 -0.096041486 0.67900002 251 15 212
-0.15437429 -0.093713619 0.67800003 251 15 212
-0.15241234 -0.093851842 0.67900008 251 15 212
-0.15437429 -0.090434007 0.67800003 251 15 212
-0.15241234 -0.090567388 0.67900002 251 15 212
-0.15437429 -0.088794202 0.67800003 251 15 212
-0.15241234 -0.08892516 0.67900002 251 15 212
-0.15448813 -0.085577235 0.67850006 251 15 212
-0.15241234 -0.086188115 0.67900002 251 15 212
-0.1554675 -0.084421374 0.67800003 251 15 212
-0.15460198 -0.083998479 0.67900002 251 15 212
-0.15558214 -0.081201196 0.67850006 251 15 212
-0.15612875 -0.079013564 0.67850006 251 15 212
-0.15874712 -0.075129122 0.67800003 251 15 212
-0.1563497 -0.075932331 0.67866677 251 15 212
-0.15874712 -0.074035913 0.67800003 251 15 212
-0.15679161 -0.074145108 0.67900002 251 15 212
-0.15935224 -0.071328983 0.67825001 251 15 212
-0.15679161 -0.071955472 0.67900002 251 15 212
-0.15941077 -0.069167458 0.67850006 251 15 212
-0.16093352 -0.065290265 0.67800003 251 15 212
-0.15941077 -0.065885425 0.6785 251 15 212
-0.16050479 -0.064244404 0.67850006 251 15 212
-0.15898125 -0.064291745 0.67900002 251 15 212
-0.16421315 -0.060917441 0.67800003 251 15 212
-0.16105168 -0.061509237 0.6785 251 15 212
-0.16421315 -0.058731027 0.67800003 251 15 212
-0.16171829 -0.059912469 0.67900002 251 15 212
-0.16421315 -0.055998012 0.67800003 251 15 212
-0.16421315 -0.054358203 0.67800003 251 15 212
-0.16530636 -0.051078584 0.67800003 251 15 212
-0.16445534 -0.05170133 0.67900002 251 15 212
-0.16530636 -0.04889217 0.67800003 251 15 212
-0.16664499 -0.04567983 0.67900002 251 15 212
-0.16664499 -0.042395372 0.67900002 251 15 212
-0.18306726 -0.016119724 0.67900002 251 15 212
-0.18389086 -0.012816365 0.67800003 251 15 212
-0.18498407 -0.011723159 0.67800003 251 15 212
-0.1852569 -0.0095508127 0.67900002 251 15 212
-0.15099217 -0.098924011 0.68000001 251 15 212
-0.15104748 -0.095669672 0.68025005 251 15 212
-0.15154038 -0.093441859 0.68000001 251 15 212
-0.15154038 -0.090700775 0.68000001 251 15 212
-0.15198609 -0.089318052 0.68200004 251 15 212
-0.15263681 -0.085218623 0.68000001 251 15 212
-0.15198609 -0.086019091 0.68200004 251 15 212
-0.15308574 -0.084369607 0.68200004 251 15 212
-0.15198609 -0.084369607 0.68200004 251 15 212
-0.15395771 -0.081500784 0.68099999 251 15 212
-0.15395771 -0.079304703 0.68099999 251 15 212
-0.15560558 -0.076011382 0.68099999 251 15 212
-0.15308574 -0.076122187 0.68200004 251 15 212
-0.15592611 -0.074254312 0.68000001 251 15 212
-0.15629159 -0.071330495 0.68000001 251 15 212
-0.15702254 -0.069320373 0.68000001 251 15 212
-0.15702254 -0.066579297 0.68000001 251 15 212
-0.16054758 -0.060088944 0.68100005 251 15 212
-0.15921541 -0.062193573 0.68000001 251 15 212
-0.16384171 -0.057892855 0.68100005 251 15 212
-0.16121447 -0.057935361 0.68150008 251 15 212
-0.16396201 -0.056286685 0.68150008 251 15 212
-0.1640823 -0.054678898 0.68200004 251 15 212
-0.16469756 -0.050132826 0.68000001 251 15 212
-0.16933194 -0.042520247 0.68100005 251 15 212
-0.16958058 -0.040933199 0.68200004 251 15 212
-0.16738127 -0.04148303 0.68200004 251 15 212
-0.16933194 -0.038128074 0.68100005 251 15 212
-0.18470454 -0.011775031 0.68100005 251 15 212
-0.1500064 -0.099360436 0.68300003 251 15 212
-0.14802027 -0.098954476 0.68400002 251 15 212
-0.1500064 -0.096056633 0.68300003 251 15 212
-0.14802027 -0.096748717 0.68400002 251 15 212
-0.15066685 -0.093922801 0.68350005 251 15 212
-0.15051991 -0.09082222 0.68366671 251 15 212
-0.15081379 -0.089308865 0.6833334 251 15 212
-0.15066685 -0.086208284 0.68350005 251 15 212
-0.14802027 -0.086271346 0.68400002 251 15 212
-0.14691739 -0.086271346 0.68400002 251 15 212
-0.15066685 -0.084555171 0.68350005 251 15 212
-0.15193361 -0.081464827 0.68300003 251 15 212
-0.15220894 -0.078986973 0.68300003 251 15 212
-0.15551275 -0.075683169 0.68300003 251 15 212
-0.15551275 -0.074581899 0.68300003 251 15 212
-0.16762669 -0.043746393 0.68300003 251 15 212
-0.16676924 -0.042707559 0.68400002 251 15 212
-0.18441533 -0.014032666 0.68400002 251 15 212
-0.1469005 -0.09931615 0.68650007 251 15 212
-0.14823666 -0.095785663 0.68500006 251 15 212
-0.14734697 -0.096478552 0.68600005 251 15 212
-0.14823666 -0.094128922 0.68500006 251 15 212
-0.14734697 -0.09426634 0.68600005 251 15 212
-0.14823666 -0.090815447 0.68500006 251 15 212
-0.14624032 -0.090948559 0.68600005 251 15 212
-0.14823666 -0.089158706 0.68500006 251 15 212
-0.14609821 -0.089202099 0.68533343 251 15 212
-0.14602768 -0.086397476 0.68500006 251 15 212
-0.1449232 -0.086949721 0.68500006 251 15 212
-0.15951414 -0.066060647 0.68600005 251 15 212
-0.16275333 -0.056077365 0.68566674 251 15 212
-0.16172636 -0.057211809 0.68600005 251 15 212
-0.16971612 -0.038464006 0.68700004 251 15 212
-0.18578944 -0.0096352082 0.68500006 251 15 212
-0.16946909 0.14741769 0.68600005 251 15 212
-0.14576946 -0.099677823 0.68900001 251 15 212
-0.14666723 -0.096205167 0.68800002 251 15 212
-0.14666723 -0.093986504 0.68800002 251 15 212
-0.14333923 -0.093986504 0.68800002 251 15 212
-0.14333923 -0.091767848 0.68800002 251 15 212
-0.15997919 -0.06514392 0.68800002 251 15 212
-0.15997919 -0.062925257 0.68800002 251 15 212
-0.1702102 -0.040797867 0.68900001 251 15 212
-0.16996317 -0.037410662 0.68800002 251 15 212
-0.17452723 0.14628932 0.68850005 251 15 212
-0.16996317 0.14673816 0.68800002 251 15 212
-0.14598103 -0.097597383 0.69000006 251 15 212
-0.14396426 -0.098852992 0.69100004 251 15 212
-0.1461926 -0.096067578 0.69100004 251 15 212
-0.14264336 -0.095372275 0.69000006 251 15 212
-0.1461926 -0.094396323 0.69100004 251 15 212
-0.16711958 0.13937683 0.69000006 251 15 212
-0.1710135 0.14160194 0.69000006 251 15 212
-0.16823213 0.14160194 0.69000006 251 15 212
-0.1737949 0.14327078 0.69000006 251 15 212
-0.17101352 0.14327078 0.69000006 251 15 212
-0.16823213 0.14327078 0.69000006 251 15 212
-0.17268234 0.14605217 0.69000006 251 15 212
-0.1710135 0.14605217 0.69000006 251 15 212
-0.14326355 -0.098021723 0.69300002 251 15 212
-0.14400847 -0.096531868 0.69300002 251 15 212
-0.1703264 -0.041093931 0.69400001 251 15 212
-0.16833058 -0.043394379 0.69500005 251 15 212
0 0 0 1 0 0 0 1 0 0 0 1 0 0 0 0 0 1054 1 0 0
