ply
format ascii 1.0
comment PCL generated
element vertex 35
property list uint float fpfh
element camera 1
property float view_px
property float view_py
property float view_pz
property float x_axisx
property float x_axisy
property float x_axisz
property float y_axisx
property float y_axisy
property float y_axisz
property float z_axisx
property float z_axisy
property float z_axisz
property float focal
property float scalex
property float scaley
property float centerx
property float centery
property int viewportx
property int viewporty
property float k1
property float k2
end_header
33 2.8166752 0.046002124 0.048908666 0.099930421 0.22116503 60.557152 32.734989 0.049258973 0.017817151 0.031392865 3.3767021 0.93252879 17.612577 0.89318419 0.78613377 10.127794 17.365086 11.682982 5.6463947 8.4942932 20.26965 6.1893749 0.015345209 0 0.072659008 13.966702 52.756077 26.472397 2.0589547 4.365901 0.10240592 0.14893714 0.040625345
33 2.889329 0.037229836 0.042302083 0.086189941 0.18946074 59.641247 33.734486 0.042559512 0.014043259 0.025286304 3.2978694 0.78168005 17.809137 0.74995959 0.67839307 9.3919268 17.587721 13.039154 4.5702386 8.6936626 20.507494 6.1906343 0.012168458 0 0.058533326 16.697613 52.917324 24.882273 0.44437692 4.7333093 0.092575066 0.12408707 0.037745524
33 4.311306 0.02214638 0.027462693 0.055924974 0.11249635 59.120285 34.465397 0.027626485 0.0081976261 0.014940067 1.8342099 0.48717174 18.002056 0.47533298 0.43372706 8.9945974 17.854467 12.64102 5.2545567 10.246508 19.462606 6.147954 0.0070151067 0 0.034895089 13.052516 55.948093 25.172859 1.9222473 3.7038929 0.057313133 0.079300955 0.021863677
33 1.307402 0.022756644 0.027547924 0.056162361 0.11605564 64.614365 28.939068 0.027727911 0.0085315052 0.015384439 4.8649993 0.49909285 18.062449 0.48256099 0.44035068 8.6658068 17.914442 13.241439 4.7145681 7.2591281 22.545692 6.1744704 0.0072707175 0 0.035973102 17.432692 46.915886 30.345552 1.1820179 3.9160128 0.059574123 0.082295582 0.022728609
33 1.6858783 0.30560341 0.027169382 0.067916758 2.9065666 40.74062 46.625244 0.029680248 0.074405558 0.18645924 7.3504758 14.271253 17.541784 17.117901 10.899753 5.2169204 8.884963 6.0609498 1.392783 1.6212133 11.89959 5.0928903 0.11036827 0.13407871 0.60053545 26.303448 49.797211 13.530372 5.8106613 1.9971917 0.70390636 0.83236247 0.17986476
33 1.4864576 1.2229584 0.34337914 0.714665 3.5117075 43.984108 42.490734 0.34803906 0.12098271 0.66432977 5.112638 12.288 11.951751 17.645296 11.816628 8.425086 9.627018 8.6224003 1.7253609 4.0535927 8.0480003 5.7968574 0.15010101 0.15853857 1.8198127 20.991423 52.74094 10.268561 6.6602468 4.0449281 1.1725974 1.6979305 0.29491612
33 2.6406968 0.3902885 1.4254247 2.865721 1.2153128 41.129959 46.279423 1.4281287 0.073898792 0.2280837 2.3230619 12.707391 15.051138 15.458018 15.873231 5.4013519 7.3279648 8.7435265 1.249475 7.0624566 6.1119409 5.0135069 0.10606539 0.12108181 0.69957387 22.506701 56.888817 10.235436 5.5969181 2.0414202 0.72016627 0.89723015 0.18658772
33 3.4090621 0.10671268 0.09960378 0.2381552 6.0699492 52.109116 34.806366 0.10549887 0.14021794 0.11725501 2.7980795 11.465911 6.7161031 8.203907 14.132567 12.316648 14.547533 16.529091 1.4959638 4.5201283 4.2897816 5.7823648 0.13857383 0.11883814 2.0415685 14.516252 56.533779 7.7245574 7.7430806 5.3330674 1.1421616 4.3969994 0.31112412
33 1.7942613 3.3883801 0.098939359 0.26383844 3.1639464 42.508076 43.52496 0.10818486 0.21195605 1.7872567 3.1501954 11.276714 10.074058 20.252762 8.718255 12.976189 8.4938078 7.5455327 1.8857657 4.7879062 7.0641565 6.9248567 0.1808596 0.13977681 3.8411572 16.890596 51.834774 7.7838502 10.051782 5.7851586 1.4709566 1.5828751 0.43821526
33 3.1439216 1.1047869 0.19759977 0.46851775 3.7065098 49.138622 36.746284 0.2164676 0.27838704 0.66515595 4.3337479 12.172148 9.4102697 11.782701 10.252551 11.724652 10.640037 11.405135 3.5143428 4.6868334 6.3888879 8.0224447 0.26056305 0.23582537 2.3453338 19.378777 47.912918 10.411638 9.192277 4.6452761 2.1015871 2.9379699 0.5778302
33 4.4328866 0.76757342 0.66667384 0.20022972 7.5287137 59.527084 16.318964 0.59679347 0.66101253 0.6460138 8.6540394 16.250555 8.8010883 4.623075 4.8025503 6.2382073 12.041652 9.6364346 3.6130996 3.4746931 9.3102598 21.208382 1.318107 0.22769056 1.5995257 12.033911 30.084101 17.521845 19.164913 9.1969175 3.4061303 3.5787656 1.868084
33 5.4834576 0.99747109 0.25767168 0.9163624 6.838604 55.894619 16.546638 0.51506174 0.29426757 1.1713117 11.084545 18.32646 9.7906713 4.1059761 4.5745773 6.1815119 10.236315 6.8864584 3.8510327 2.853837 9.3798342 23.813324 0.81592965 0.22251576 0.95229268 10.04358 30.067829 15.373123 22.110016 8.6967611 4.8558469 5.0212436 1.8408604
33 2.3052642 0.59053713 0.24460639 0.27717745 5.5890422 65.538185 19.014383 0.45797232 0.3479141 0.75005448 4.8848519 11.914436 8.5858297 5.3968759 5.9956408 8.2045097 12.257177 12.002911 6.1046362 4.7520623 8.8502932 15.935625 0.79784703 0.38127321 1.7018297 14.803071 34.547058 16.415655 15.443998 7.1229024 3.8834288 3.7607257 1.142213
33 4.6665998 0.70120996 0.16344003 0.59326655 4.4031382 53.322037 25.605936 0.23395489 0.85408473 0.58337218 8.8729553 15.016305 9.2458677 8.9061861 7.7903748 7.3802123 13.304593 11.277995 2.8738246 3.7856925 7.4418545 12.977088 0.42129499 0.27443933 2.082561 15.261761 41.007187 13.619517 12.359241 6.9048805 2.6884408 4.1423149 1.2383581
33 3.5488102 0.56283617 0.0090167997 0.65219808 6.4781189 65.500412 12.192491 0.81261659 0.28183603 1.3450042 8.6166687 15.691763 10.248658 2.8937898 3.642617 4.9395289 10.552481 8.9226217 5.7072077 4.1806622 10.517179 22.703484 0.88704371 0.24912049 0.84560144 9.195199 28.046547 19.355598 21.783947 8.9303284 4.3813076 5.1465125 1.1787847
33 2.6535697 0.5578568 0.39846456 0.24111512 5.2379293 70.39476 13.366709 0.20811802 0.16820052 0.35547161 6.4177871 11.088275 9.4554663 4.1862354 3.2839642 7.4145975 13.496426 12.92843 8.8458576 3.8798487 9.0414562 16.379431 0.73272848 0.52415121 1.4659362 12.269197 36.463211 19.043238 14.924045 6.3103309 4.5577259 1.9704084 1.7390249
33 1.6683104 0.18257795 0.10834224 0.12121466 2.5951583 77.236572 13.67528 0.08076515 0.091813609 0.15131682 4.0886455 7.2326603 8.9173203 5.69104 3.4104214 7.70541 16.313053 14.540851 12.342109 5.5133705 8.21912 10.114638 0.3863585 1.1635725 1.7248793 10.720785 42.16037 18.72191 12.560853 6.1762753 3.9317396 1.8341146 0.61913496
33 1.4450572 0.077502266 0.036822256 0.065729432 1.3100821 73.371994 20.23304 0.03386512 0.045953996 0.14335653 3.2365913 4.6776772 4.2037101 5.5966172 5.1097937 5.1050797 15.443736 22.512712 15.199876 7.750339 4.5431862 9.8572636 1.00974 2.0034513 1.0197885 17.770317 37.565742 15.843521 15.649503 4.8591132 2.2536113 1.1464195 0.87879193
33 4.446095 1.2752563 0.78593457 0.69411379 6.5460305 59.785954 15.528479 0.0095169069 0.55143905 0.47397619 9.9032059 16.705723 9.666544 3.316576 4.2158332 5.5032635 11.022118 9.1781244 4.649076 3.9408317 9.7296133 22.072292 0.84930223 0.21385972 1.1327871 10.402837 31.352251 15.277665 20.642988 8.4578066 5.0205135 3.7245815 2.9254022
33 4.5450397 0.61854458 0.42299035 0.41141239 5.9549265 65.125519 11.87291 0.48812643 0.3496961 0.66718066 9.5436792 15.54493 9.576273 3.9158399 2.920217 5.2143111 12.094688 9.3051519 7.0094652 3.7560034 9.7421618 20.920954 1.0085402 0.39922222 1.1247685 7.6646247 31.516359 18.212654 20.862688 9.7466726 4.209331 3.7488685 1.5062683
33 1.5682194 0.16948552 0.093856461 0.14895737 1.8220619 76.541901 14.441038 0.089627884 0.12499689 0.16176897 4.8380885 7.2089119 10.360515 4.3332829 4.1681786 8.128418 14.216437 15.250421 11.915232 5.8739219 9.6512194 8.8934603 0.41232187 1.5945712 2.3953321 12.244464 41.769184 17.614489 12.926538 6.646028 2.2032378 1.4948187 0.69901985
33 2.9657202 0.016355915 0.0082589099 0.014119622 0.28926 79.495667 16.536982 0.0077473656 0.011009846 0.018270168 0.63660091 3.6489749 9.7916565 6.3980451 0.92570525 9.4106903 16.706741 21.968849 13.293241 1.3595514 15.061769 1.4347798 0.15656303 3.1346934 0.58749008 13.328779 48.405853 13.944584 13.192914 6.6231098 0.40968043 0.13626008 0.080084063
33 1.0848155 0.049248941 0.024255404 0.039445989 1.0813471 74.221977 20.360029 0.02159798 0.027831217 0.077012397 3.0124273 4.174603 3.6910546 7.2952232 4.8915749 4.1499081 17.575693 25.471817 13.124146 6.9483461 2.9962099 9.6814213 1.8118571 2.5049109 1.3813124 18.894432 35.404179 14.984359 15.287421 5.7804432 2.1817107 1.3332896 0.4361009
33 1.5849714 0.04145208 0.020074239 0.034157 1.4522476 75.082878 19.165443 0.018251203 0.023768015 0.089171775 2.4875863 4.0508361 3.1322463 5.9807734 5.4663668 4.5247231 16.25745 24.603407 15.51206 7.9089775 2.5743854 9.9887886 2.1650207 3.3291204 1.8907084 19.181313 35.620415 14.813696 15.180978 5.04737 1.7431518 0.41000876 0.61822087
33 1.4421232 0.19587475 0.11416709 0.122435 2.1010306 77.054474 14.400387 0.083452284 0.088870376 0.16368777 4.2335081 6.8169661 9.0553131 5.6441131 3.0909176 8.4277153 15.887682 15.612293 12.343921 5.1248221 7.483386 10.512863 0.47562057 1.3796015 2.361964 10.919613 43.532677 16.716591 13.323148 6.216795 2.9961786 1.4763503 0.60145766
33 1.2769096 0.088942781 0.047834169 0.066518061 1.3206065 79.119865 14.590805 0.040099315 0.050215643 0.085689761 3.3125439 4.9806104 9.6914091 5.3451815 3.9203744 7.9301829 16.244493 17.026587 12.572656 5.1567845 10.451334 6.6803942 0.49287254 1.8749139 2.4388926 14.069854 42.022202 17.303247 12.130261 6.2698145 2.3581705 0.70081824 0.3389529
33 1.3280594 0.057534996 0.028647857 0.046814777 1.1777134 77.335678 16.979155 0.025866209 0.034151372 0.080883667 2.9054873 4.3516841 5.8917503 6.5863881 3.738359 6.1221962 17.133884 22.475685 13.663173 6.2038488 5.3543882 8.4786444 0.96135992 3.17644 1.6346151 18.616501 38.907131 13.486644 14.506255 5.7242436 1.7541666 0.78734756 0.44530097
33 1.3810965 0.040903777 0.019745387 0.034788713 2.155318 72.383247 20.970438 0.018467432 0.024508622 0.12135281 2.8501439 4.0884156 3.1119919 5.6957822 5.4075866 3.9365754 15.914236 24.199766 15.93381 8.4343233 3.1280878 10.149425 1.725871 2.8706775 2.0143282 22.094219 33.489449 11.664827 15.60629 5.3378458 2.3741746 1.4543524 1.3679619
33 2.5222116 0.040803041 0.014418823 0.025839092 1.2203034 70.136772 22.836428 0.013544747 0.024560491 0.33511329 2.8300114 4.1473007 1.9634087 2.7362008 5.2736793 3.7965255 12.43508 19.260588 19.096983 12.9824 6.4304214 11.877419 1.9777942 2.2625291 2.1991298 17.278351 33.838352 16.962252 15.856936 4.23774 2.2531819 0.92013615 2.213598
33 0.49464962 0.024811311 0.0083951792 0.015297182 1.272386 68.648827 22.814529 0.0079527162 0.014627529 1.6701317 5.028389 3.9388812 0.87194949 1.0910457 4.0797396 2.3805592 10.184819 14.867335 19.688879 18.290421 10.614891 13.991489 2.1593697 0.72930616 2.4004202 16.605127 26.943296 29.110346 15.705117 3.5868766 0.99537891 0.35623077 1.408536
33 1.7009858 0.073136605 0.038986731 0.059814565 1.5983981 78.336777 15.24141 0.035476044 0.047473937 0.072603859 2.7949221 4.7905793 8.2371378 7.2113924 1.2703961 9.0538254 18.862213 18.395441 13.317865 2.8214941 8.8001852 7.2394619 0.34676868 2.1076818 1.5388556 11.347823 47.073517 16.444258 12.327627 5.2267337 2.7035635 0.58932072 0.29383212
33 0.20624508 0.016557006 0.008436258 0.014013628 0.29196674 79.602905 16.429319 0.0077964379 0.010885056 0.018121123 3.3937733 3.650944 9.8922462 6.29985 1.0942613 9.3488636 16.724884 21.60891 13.306084 1.6367005 14.881503 1.5557536 0.15723607 3.1189597 0.72700453 13.21231 45.648571 16.72261 13.129089 6.6438618 0.42449224 0.13747217 0.078401931
33 1.6388866 0.044667114 0.016370967 0.028176902 1.6606215 71.389862 21.940998 0.015298516 0.026720421 0.24307582 2.9953165 4.1670585 2.2611158 3.1628258 6.1234527 4.5046659 13.095497 21.502871 19.523474 10.557198 4.2367039 10.865136 1.5144727 1.9351169 2.3190248 16.941149 33.082851 19.111246 17.281429 3.521364 2.2647533 0.50693524 1.521654
33 2.4532173 0.026486555 0.0092014093 0.016394924 1.6501678 67.529305 22.780991 0.008681003 0.015642775 1.2160519 4.2938576 3.9809563 1.0427568 1.3122408 3.592205 2.0928161 10.002831 12.59715 17.717861 20.008709 12.966316 14.686159 2.000072 1.0676532 0.87697661 17.574909 25.916872 23.977617 19.670506 3.5383983 2.211688 0.61352849 2.5517712
33 3.635967 0.022415979 0.0075895432 0.013706964 0.86817455 68.951759 23.04566 0.0071854549 0.01311017 0.017830132 3.4166114 3.9119005 0.75946057 0.93058693 4.0637913 2.3799906 10.09109 15.245911 20.288567 18.164335 10.228974 13.935385 0.42931184 0.61209708 2.7935958 15.978806 27.966549 18.032869 23.051119 3.7101448 2.3496614 0.32721198 4.7486391
0 0 0 1 0 0 0 1 0 0 0 1 0 0 0 0 0 35 1 0 0
