ply
format ascii 1.0
comment PCL generated
element vertex 513
property float x
property float y
property float z
property uchar red
property uchar green
property uchar blue
element camera 1
property float view_px
property float view_py
property float view_pz
property float x_axisx
property float x_axisy
property float x_axisz
property float y_axisx
property float y_axisy
property float y_axisz
property float z_axisx
property float z_axisy
property float z_axisz
property float focal
property float scalex
property float scaley
property float centerx
property float centery
property int viewportx
property int viewporty
property float k1
property float k2
end_header
-0.059792314 -0.16449741 0.37799996 105 177 1
-0.059792314 -0.16537401 0.37799996 105 177 1
-0.05976858 -0.16606835 0.37899995 105 177 1
-0.058827281 -0.15856071 0.38199997 105 177 1
-0.058849391 -0.16047344 0.38099998 105 177 1
-0.058871496 -0.1615193 0.38 105 177 1
-0.058893602 -0.16431838 0.37899995 105 177 1
-0.058893602 -0.16519336 0.37899995 105 177 1
-0.058893602 -0.16606835 0.37899995 105 177 1
-0.057957184 -0.15856071 0.38199997 105 177 1
-0.057977665 -0.16047344 0.38099998 105 177 1
-0.057998147 -0.1615193 0.38 105 177 1
-0.058018625 -0.16431838 0.37899995 105 177 1
-0.058018625 -0.16519336 0.37899995 105 177 1
-0.058018625 -0.16606835 0.37899995 105 177 1
-0.058018625 -0.16694331 0.37899995 105 177 1
-0.057143651 -0.16431838 0.37899995 105 177 1
-0.057143651 -0.16519336 0.37899995 105 177 1
-0.057143651 -0.16606835 0.37899995 105 177 1
-0.057143651 -0.16694331 0.37899995 105 177 1
-0.056165304 -0.15026592 0.38499999 105 177 1
-0.056165304 -0.15199636 0.38499999 105 177 1
-0.056182534 -0.1530211 0.38399994 105 177 1
-0.056182534 -0.15388793 0.38399994 105 177 1
-0.056182534 -0.15562162 0.38399994 105 177 1
-0.056182534 -0.15648848 0.38399994 105 177 1
-0.056199759 -0.15752296 0.38299996 105 177 1
-0.056199759 -0.15839143 0.38299996 105 177 1
-0.056216989 -0.16030091 0.38199997 105 177 1
-0.056234218 -0.16134515 0.38099998 105 177 1
-0.056251444 -0.16239265 0.38 105 177 1
-0.055300087 -0.14767027 0.38499999 105 177 1
-0.055300087 -0.14853549 0.38499999 105 177 1
-0.055300087 -0.14940071 0.38499999 105 177 1
-0.055300087 -0.15026592 0.38499999 105 177 1
-0.055300087 -0.15199636 0.38499999 105 177 1
-0.055315688 -0.1530211 0.38399994 105 177 1
-0.055315688 -0.15388793 0.38399994 105 177 1
-0.055315688 -0.15562162 0.38399994 105 177 1
-0.055315688 -0.15648848 0.38399994 105 177 1
-0.055315688 -0.15735531 0.38399994 105 177 1
-0.05533129 -0.15839143 0.38299996 105 177 1
-0.05533129 -0.16012838 0.38299996 105 177 1
-0.055346891 -0.16117099 0.38199997 105 177 1
-0.055362493 -0.16221687 0.38099998 105 177 1
-0.055378094 -0.16501272 0.38 105 177 1
-0.055393696 -0.16606835 0.37899995 105 177 1
-0.055393696 -0.16694331 0.37899995 105 177 1
-0.055393696 -0.16869327 0.37899995 105 177 1
-0.054448843 -0.14521948 0.38399994 105 177 1
-0.054448843 -0.14608634 0.38399994 105 177 1
-0.054434866 -0.14767027 0.38499999 105 177 1
-0.054434866 -0.14853549 0.38499999 105 177 1
-0.054434866 -0.14940071 0.38499999 105 177 1
-0.054434866 -0.15026592 0.38499999 105 177 1
-0.054434866 -0.15199636 0.38499999 105 177 1
-0.054434866 -0.15286157 0.38499999 105 177 1
-0.054434866 -0.15372679 0.38499999 105 177 1
-0.054448843 -0.15562162 0.38399994 105 177 1
-0.054448843 -0.15648848 0.38399994 105 177 1
-0.054448843 -0.15735531 0.38399994 105 177 1
-0.054462817 -0.15839143 0.38299996 105 177 1
-0.054462817 -0.16012838 0.38299996 105 177 1
-0.054476794 -0.16117099 0.38199997 105 177 1
-0.054490767 -0.16221687 0.38099998 105 177 1
-0.054490767 -0.16396032 0.38099998 105 177 1
-0.054504745 -0.16501272 0.38 105 177 1
-0.054504745 -0.16588606 0.38 105 177 1
-0.054504745 -0.1667594 0.38 105 177 1
-0.054504745 -0.16850612 0.38 105 177 1
-0.053619042 -0.16396032 0.38099998 105 177 1
-0.053631391 -0.16588606 0.38 105 177 1
-0.053631391 -0.1667594 0.38 105 177 1
-0.053631391 -0.16850612 0.38 105 177 1
-0.052715153 -0.14521948 0.38399994 105 177 1
-0.052715153 -0.14608634 0.38399994 105 177 1
-0.052704427 -0.14767027 0.38499999 105 177 1
-0.052704427 -0.14853549 0.38499999 105 177 1
-0.052704427 -0.14940071 0.38499999 105 177 1
-0.052704427 -0.15026592 0.38499999 105 177 1
-0.052704427 -0.15199636 0.38499999 105 177 1
-0.052704427 -0.15286157 0.38499999 105 177 1
-0.052704427 -0.15372679 0.38499999 105 177 1
-0.052715153 -0.15562162 0.38399994 105 177 1
-0.052715153 -0.15648848 0.38399994 105 177 1
-0.052715153 -0.15735531 0.38399994 105 177 1
-0.052715153 -0.15822217 0.38399994 105 177 1
-0.052725874 -0.16012838 0.38299996 105 177 1
-0.052725874 -0.16099685 0.38299996 105 177 1
-0.052736595 -0.1620411 0.38199997 105 177 1
-0.051848307 -0.14521948 0.38399994 105 177 1
-0.05183921 -0.14593983 0.38499999 105 177 1
-0.05183921 -0.14767027 0.38499999 105 177 1
-0.05183921 -0.14853549 0.38499999 105 177 1
-0.05183921 -0.14940071 0.38499999 105 177 1
-0.05183921 -0.15026592 0.38499999 105 177 1
-0.05183921 -0.15199636 0.38499999 105 177 1
-0.05183921 -0.15286157 0.38499999 105 177 1
-0.05183921 -0.15372679 0.38499999 105 177 1
-0.05183921 -0.15545723 0.38499999 105 177 1
-0.051848307 -0.15648848 0.38399994 105 177 1
-0.051848307 -0.15735531 0.38399994 105 177 1
-0.051848307 -0.15822217 0.38399994 105 177 1
-0.051857401 -0.16012838 0.38299996 105 177 1
-0.051857401 -0.16099685 0.38299996 105 177 1
-0.051866498 -0.1620411 0.38199997 105 177 1
-0.051866498 -0.16378129 0.38199997 105 177 1
-0.051875595 -0.16570377 0.38099998 105 177 1
-0.051884692 -0.1667594 0.38 105 177 1
-0.050973989 -0.14507461 0.38499999 105 177 1
-0.050973989 -0.14593983 0.38499999 105 177 1
-0.050973989 -0.14767027 0.38499999 105 177 1
-0.050973989 -0.14853549 0.38499999 105 177 1
-0.050973989 -0.14940071 0.38499999 105 177 1
-0.050973989 -0.15026592 0.38499999 105 177 1
-0.050973989 -0.15199636 0.38499999 105 177 1
-0.050973989 -0.15286157 0.38499999 105 177 1
-0.050973989 -0.15372679 0.38499999 105 177 1
-0.050973989 -0.15545723 0.38499999 105 177 1
-0.050981462 -0.15648848 0.38399994 105 177 1
-0.050981462 -0.15735531 0.38399994 105 177 1
-0.050981462 -0.15822217 0.38399994 105 177 1
-0.050988931 -0.16012838 0.38299996 105 177 1
-0.050988931 -0.16099685 0.38299996 105 177 1
-0.050988931 -0.16186532 0.38299996 105 177 1
-0.0509964 -0.16378129 0.38199997 105 177 1
-0.0509964 -0.16465139 0.38199997 105 177 1
-0.05100387 -0.16570377 0.38099998 105 177 1
-0.05100387 -0.16657549 0.38099998 105 177 1
-0.050114617 -0.14521948 0.38399994 105 177 1
-0.050114617 -0.15648848 0.38399994 105 177 1
-0.050114617 -0.15735531 0.38399994 105 177 1
-0.050114617 -0.15822217 0.38399994 105 177 1
-0.050114617 -0.15995586 0.38399994 105 177 1
-0.050120458 -0.16099685 0.38299996 105 177 1
-0.050120458 -0.16186532 0.38299996 105 177 1
-0.050120458 -0.16360226 0.38299996 105 177 1
-0.050126303 -0.16465139 0.38199997 105 177 1
-0.050126303 -0.16552149 0.38199997 105 177 1
-0.050132144 -0.16657549 0.38099998 105 177 1
-0.049243554 -0.14593983 0.38499999 105 177 1
-0.049243554 -0.14767027 0.38499999 105 177 1
-0.049243554 -0.14853549 0.38499999 105 177 1
-0.049243554 -0.14940071 0.38499999 105 177 1
-0.049243554 -0.15026592 0.38499999 105 177 1
-0.049243554 -0.15199636 0.38499999 105 177 1
-0.049243554 -0.15286157 0.38499999 105 177 1
-0.049243554 -0.15372679 0.38499999 105 177 1
-0.049243554 -0.15545723 0.38499999 105 177 1
-0.048378333 -0.14507461 0.38499999 105 177 1
-0.048378333 -0.14593983 0.38499999 105 177 1
-0.048378333 -0.14767027 0.38499999 105 177 1
-0.048378333 -0.14853549 0.38499999 105 177 1
-0.048378333 -0.14940071 0.38499999 105 177 1
-0.048378333 -0.15026592 0.38499999 105 177 1
-0.048378333 -0.15199636 0.38499999 105 177 1
-0.048378333 -0.15286157 0.38499999 105 177 1
-0.048378333 -0.15372679 0.38499999 105 177 1
-0.048378333 -0.15545723 0.38499999 105 177 1
-0.048380926 -0.15648848 0.38399994 105 177 1
-0.048380926 -0.15735531 0.38399994 105 177 1
-0.048380926 -0.15822217 0.38399994 105 177 1
-0.048380926 -0.15995586 0.38399994 105 177 1
-0.048383515 -0.16099685 0.38299996 105 177 1
-0.048383515 -0.16186532 0.38299996 105 177 1
-0.048383515 -0.16360226 0.38299996 105 177 1
-0.048386108 -0.16465139 0.38199997 105 177 1
-0.048386108 -0.16552149 0.38199997 105 177 1
-0.048386108 -0.16639158 0.38199997 105 177 1
-0.047513116 -0.14507461 0.38499999 105 177 1
-0.047513116 -0.14593983 0.38499999 105 177 1
-0.047513116 -0.14767027 0.38499999 105 177 1
-0.047513116 -0.14853549 0.38499999 105 177 1
-0.047513116 -0.14940071 0.38499999 105 177 1
-0.047513116 -0.15026592 0.38499999 105 177 1
-0.047513116 -0.15199636 0.38499999 105 177 1
-0.047513116 -0.15286157 0.38499999 105 177 1
-0.047513116 -0.15372679 0.38499999 105 177 1
-0.047513116 -0.15545723 0.38499999 105 177 1
-0.047514081 -0.15648848 0.38399994 105 177 1
-0.047514081 -0.15735531 0.38399994 105 177 1
-0.047514081 -0.15822217 0.38399994 105 177 1
-0.047514081 -0.15995586 0.38399994 105 177 1
-0.047515042 -0.16099685 0.38299996 105 177 1
-0.047515042 -0.16186532 0.38299996 105 177 1
-0.047515042 -0.16360226 0.38299996 105 177 1
-0.047515042 -0.16447073 0.38299996 105 177 1
-0.047516007 -0.16552149 0.38199997 105 177 1
-0.047516007 -0.16639158 0.38199997 105 177 1
-0.047516007 -0.16813178 0.38199997 105 177 1
-0.046647895 -0.14507461 0.38499999 105 177 1
-0.046647895 -0.14593983 0.38499999 105 177 1
-0.046647895 -0.14767027 0.38499999 105 177 1
-0.046647895 -0.14853549 0.38499999 105 177 1
-0.046647895 -0.14940071 0.38499999 105 177 1
-0.046647895 -0.15026592 0.38499999 105 177 1
-0.046647895 -0.15199636 0.38499999 105 177 1
-0.046647895 -0.15286157 0.38499999 105 177 1
-0.046647895 -0.15372679 0.38499999 105 177 1
-0.046647895 -0.15545723 0.38499999 105 177 1
-0.046647236 -0.15648848 0.38399994 105 177 1
-0.046647236 -0.15735531 0.38399994 105 177 1
-0.046647236 -0.15822217 0.38399994 105 177 1
-0.046647236 -0.15995586 0.38399994 105 177 1
-0.046646573 -0.16099685 0.38299996 105 177 1
-0.046646573 -0.16186532 0.38299996 105 177 1
-0.046646573 -0.16360226 0.38299996 105 177 1
-0.046646573 -0.16447073 0.38299996 105 177 1
-0.04664591 -0.16552149 0.38199997 105 177 1
-0.04664591 -0.16639158 0.38199997 105 177 1
-0.04664591 -0.16813178 0.38199997 105 177 1
-0.04664591 -0.16900188 0.38199997 105 177 1
-0.04664525 -0.17006239 0.38099998 105 177 1
-0.045775812 -0.16900188 0.38199997 105 177 1
-0.045775812 -0.16987199 0.38199997 105 177 1
-0.045773525 -0.17180584 0.38099998 105 177 1
-0.045773525 -0.17267758 0.38099998 105 177 1
-0.045773525 -0.17354929 0.38099998 105 177 1
-0.045773525 -0.17442101 0.38099998 105 177 1
-0.044917457 -0.14507461 0.38499999 105 177 1
-0.044917457 -0.14593983 0.38499999 105 177 1
-0.044917457 -0.14767027 0.38499999 105 177 1
-0.044917457 -0.14853549 0.38499999 105 177 1
-0.044917457 -0.14940071 0.38499999 105 177 1
-0.044917457 -0.15026592 0.38499999 105 177 1
-0.044917457 -0.15199636 0.38499999 105 177 1
-0.044917457 -0.15286157 0.38499999 105 177 1
-0.044917457 -0.15372679 0.38499999 105 177 1
-0.044917457 -0.15545723 0.38499999 105 177 1
-0.044913545 -0.15648848 0.38399994 105 177 1
-0.044913545 -0.15735531 0.38399994 105 177 1
-0.044913545 -0.15822217 0.38399994 105 177 1
-0.044913545 -0.15995586 0.38399994 105 177 1
-0.044913545 -0.16082269 0.38399994 105 177 1
-0.04490963 -0.16186532 0.38299996 105 177 1
-0.04490963 -0.16360226 0.38299996 105 177 1
-0.04490963 -0.16447073 0.38299996 105 177 1
-0.04490963 -0.1653392 0.38299996 105 177 1
-0.04490963 -0.16620767 0.38299996 105 177 1
-0.04490963 -0.16794461 0.38299996 105 177 1
-0.04405224 -0.14420938 0.38499999 105 177 1
-0.04405224 -0.14507461 0.38499999 105 177 1
-0.04405224 -0.14593983 0.38499999 105 177 1
-0.04405224 -0.14767027 0.38499999 105 177 1
-0.04405224 -0.14853549 0.38499999 105 177 1
-0.04405224 -0.14940071 0.38499999 105 177 1
-0.04405224 -0.15026592 0.38499999 105 177 1
-0.04405224 -0.15199636 0.38499999 105 177 1
-0.04405224 -0.15286157 0.38499999 105 177 1
-0.04405224 -0.15372679 0.38499999 105 177 1
-0.04405224 -0.15545723 0.38499999 105 177 1
-0.0440467 -0.15648848 0.38399994 105 177 1
-0.0440467 -0.15735531 0.38399994 105 177 1
-0.0440467 -0.15822217 0.38399994 105 177 1
-0.0440467 -0.15995586 0.38399994 105 177 1
-0.0440467 -0.16082269 0.38399994 105 177 1
-0.044041157 -0.16186532 0.38299996 105 177 1
-0.044041157 -0.16360226 0.38299996 105 177 1
-0.044041157 -0.16447073 0.38299996 105 177 1
-0.044041157 -0.1653392 0.38299996 105 177 1
-0.044035617 -0.16639158 0.38199997 105 177 1
-0.044035617 -0.16813178 0.38199997 105 177 1
-0.044035617 -0.16900188 0.38199997 105 177 1
-0.044035617 -0.16987199 0.38199997 105 177 1
-0.044030074 -0.17180584 0.38099998 105 177 1
-0.044030074 -0.17267758 0.38099998 105 177 1
-0.044030074 -0.17354929 0.38099998 105 177 1
-0.044030074 -0.17442101 0.38099998 105 177 1
-0.044024535 -0.17636627 0.38 105 177 1
-0.044024535 -0.17723961 0.38 105 177 1
-0.044024535 -0.17811295 0.38 105 177 1
-0.043187018 -0.14420938 0.38499999 105 177 1
-0.043187018 -0.14507461 0.38499999 105 177 1
-0.043187018 -0.14593983 0.38499999 105 177 1
-0.043187018 -0.14767027 0.38499999 105 177 1
-0.043187018 -0.14853549 0.38499999 105 177 1
-0.043187018 -0.14940071 0.38499999 105 177 1
-0.043187018 -0.15026592 0.38499999 105 177 1
-0.043187018 -0.15199636 0.38499999 105 177 1
-0.043187018 -0.15286157 0.38499999 105 177 1
-0.043187018 -0.15372679 0.38499999 105 177 1
-0.043187018 -0.15545723 0.38499999 105 177 1
-0.043179855 -0.15648848 0.38399994 105 177 1
-0.043179855 -0.15735531 0.38399994 105 177 1
-0.043179855 -0.15822217 0.38399994 105 177 1
-0.043179855 -0.15995586 0.38399994 105 177 1
-0.043179855 -0.16082269 0.38399994 105 177 1
-0.043172687 -0.16186532 0.38299996 105 177 1
-0.043172687 -0.16360226 0.38299996 105 177 1
-0.043172687 -0.16447073 0.38299996 105 177 1
-0.043172687 -0.1653392 0.38299996 105 177 1
-0.04316552 -0.16639158 0.38199997 105 177 1
-0.04316552 -0.16813178 0.38199997 105 177 1
-0.04316552 -0.16900188 0.38199997 105 177 1
-0.04316552 -0.16987199 0.38199997 105 177 1
-0.043158352 -0.17180584 0.38099998 105 177 1
-0.043158352 -0.17267758 0.38099998 105 177 1
-0.043151185 -0.17374621 0.38 105 177 1
-0.043151185 -0.17461956 0.38 105 177 1
-0.043151185 -0.17636627 0.38 105 177 1
-0.043151185 -0.17723961 0.38 105 177 1
-0.04231301 -0.15735531 0.38399994 105 177 1
-0.04231301 -0.15822217 0.38399994 105 177 1
-0.04231301 -0.15995586 0.38399994 105 177 1
-0.04231301 -0.16082269 0.38399994 105 177 1
-0.042304214 -0.16186532 0.38299996 105 177 1
-0.042304214 -0.16360226 0.38299996 105 177 1
-0.042304214 -0.16447073 0.38299996 105 177 1
-0.042304214 -0.1653392 0.38299996 105 177 1
-0.042295419 -0.16639158 0.38199997 105 177 1
-0.042295419 -0.16813178 0.38199997 105 177 1
-0.042295419 -0.16900188 0.38199997 105 177 1
-0.042286627 -0.17006239 0.38099998 105 177 1
-0.042286627 -0.17180584 0.38099998 105 177 1
-0.042286627 -0.17267758 0.38099998 105 177 1
-0.042277832 -0.17374621 0.38 105 177 1
-0.042277832 -0.17461956 0.38 105 177 1
-0.04145658 -0.14334416 0.38499999 105 177 1
-0.04145658 -0.14420938 0.38499999 105 177 1
-0.04145658 -0.14507461 0.38499999 105 177 1
-0.04145658 -0.14593983 0.38499999 105 177 1
-0.04145658 -0.14767027 0.38499999 105 177 1
-0.04145658 -0.14853549 0.38499999 105 177 1
-0.04145658 -0.14940071 0.38499999 105 177 1
-0.04145658 -0.15026592 0.38499999 105 177 1
-0.04145658 -0.15199636 0.38499999 105 177 1
-0.04145658 -0.15286157 0.38499999 105 177 1
-0.04145658 -0.15372679 0.38499999 105 177 1
-0.04145658 -0.15545723 0.38499999 105 177 1
-0.04145658 -0.15632245 0.38499999 105 177 1
-0.040591363 -0.14161372 0.38499999 105 177 1
-0.040591363 -0.14334416 0.38499999 105 177 1
-0.040591363 -0.14420938 0.38499999 105 177 1
-0.040591363 -0.14507461 0.38499999 105 177 1
-0.040591363 -0.14593983 0.38499999 105 177 1
-0.040591363 -0.14767027 0.38499999 105 177 1
-0.040591363 -0.14853549 0.38499999 105 177 1
-0.040591363 -0.14940071 0.38499999 105 177 1
-0.040591363 -0.15026592 0.38499999 105 177 1
-0.040591363 -0.15199636 0.38499999 105 177 1
-0.040579319 -0.1530211 0.38399994 105 177 1
-0.040579319 -0.15388793 0.38399994 105 177 1
-0.040579319 -0.15562162 0.38399994 105 177 1
-0.040579319 -0.15648848 0.38399994 105 177 1
-0.040579319 -0.15735531 0.38399994 105 177 1
-0.040579319 -0.15822217 0.38399994 105 177 1
-0.040579319 -0.15995586 0.38399994 105 177 1
-0.040567271 -0.16099685 0.38299996 105 177 1
-0.040567271 -0.16186532 0.38299996 105 177 1
-0.040567271 -0.16360226 0.38299996 105 177 1
-0.040567271 -0.16447073 0.38299996 105 177 1
-0.040567271 -0.1653392 0.38299996 105 177 1
-0.040555224 -0.16639158 0.38199997 105 177 1
-0.040555224 -0.16813178 0.38199997 105 177 1
-0.040555224 -0.16900188 0.38199997 105 177 1
-0.040543176 -0.17006239 0.38099998 105 177 1
-0.040543176 -0.17180584 0.38099998 105 177 1
-0.040531132 -0.17287287 0.38 105 177 1
-0.040543176 -0.17442101 0.38099998 105 177 1
-0.039726146 -0.1407485 0.38499999 105 177 1
-0.039726146 -0.14161372 0.38499999 105 177 1
-0.039726146 -0.14334416 0.38499999 105 177 1
-0.039726146 -0.14420938 0.38499999 105 177 1
-0.039726146 -0.14507461 0.38499999 105 177 1
-0.039726146 -0.14593983 0.38499999 105 177 1
-0.039726146 -0.14767027 0.38499999 105 177 1
-0.039726146 -0.14853549 0.38499999 105 177 1
-0.039726146 -0.14940071 0.38499999 105 177 1
-0.039726146 -0.15026592 0.38499999 105 177 1
-0.039712474 -0.15215424 0.38399994 105 177 1
-0.039712474 -0.1530211 0.38399994 105 177 1
-0.039712474 -0.15388793 0.38399994 105 177 1
-0.039712474 -0.15562162 0.38399994 105 177 1
-0.039712474 -0.15648848 0.38399994 105 177 1
-0.039712474 -0.15735531 0.38399994 105 177 1
-0.039712474 -0.15822217 0.38399994 105 177 1
-0.039712474 -0.15995586 0.38399994 105 177 1
-0.039698798 -0.16099685 0.38299996 105 177 1
-0.039698798 -0.16186532 0.38299996 105 177 1
-0.039698798 -0.16360226 0.38299996 105 177 1
-0.039698798 -0.16447073 0.38299996 105 177 1
-0.039698798 -0.1653392 0.38299996 105 177 1
-0.039685126 -0.16639158 0.38199997 105 177 1
-0.039685126 -0.16813178 0.38199997 105 177 1
-0.039671455 -0.16919068 0.38099998 105 177 1
-0.039671455 -0.17006239 0.38099998 105 177 1
-0.039657779 -0.17199951 0.38 105 177 1
-0.038860925 -0.13988329 0.38499999 105 177 1
-0.038860925 -0.1407485 0.38499999 105 177 1
-0.038860925 -0.14161372 0.38499999 105 177 1
-0.038860925 -0.14334416 0.38499999 105 177 1
-0.038860925 -0.14420938 0.38499999 105 177 1
-0.038860925 -0.14507461 0.38499999 105 177 1
-0.038860925 -0.14593983 0.38499999 105 177 1
-0.038860925 -0.14767027 0.38499999 105 177 1
-0.038860925 -0.14853549 0.38499999 105 177 1
-0.038860925 -0.14940071 0.38499999 105 177 1
-0.038860925 -0.15026592 0.38499999 105 177 1
-0.038845628 -0.15215424 0.38399994 105 177 1
-0.038845628 -0.1530211 0.38399994 105 177 1
-0.038845628 -0.15388793 0.38399994 105 177 1
-0.038845628 -0.15562162 0.38399994 105 177 1
-0.038845628 -0.15648848 0.38399994 105 177 1
-0.038845628 -0.15735531 0.38399994 105 177 1
-0.038845628 -0.15822217 0.38399994 105 177 1
-0.038830325 -0.16012838 0.38299996 105 177 1
-0.038830325 -0.16099685 0.38299996 105 177 1
-0.038830325 -0.16186532 0.38299996 105 177 1
-0.038830325 -0.16360226 0.38299996 105 177 1
-0.038830325 -0.16447073 0.38299996 105 177 1
-0.038830325 -0.1653392 0.38299996 105 177 1
-0.038815029 -0.16639158 0.38199997 105 177 1
-0.038815029 -0.16813178 0.38199997 105 177 1
-0.038799729 -0.16919068 0.38099998 105 177 1
-0.038799729 -0.17006239 0.38099998 105 177 1
-0.037130486 -0.13988329 0.38499999 105 177 1
-0.037130486 -0.1407485 0.38499999 105 177 1
-0.037130486 -0.14161372 0.38499999 105 177 1
-0.037130486 -0.14334416 0.38499999 105 177 1
-0.037130486 -0.14420938 0.38499999 105 177 1
-0.037130486 -0.14507461 0.38499999 105 177 1
-0.037130486 -0.14593983 0.38499999 105 177 1
-0.037130486 -0.14767027 0.38499999 105 177 1
-0.037130486 -0.14853549 0.38499999 105 177 1
-0.037130486 -0.14940071 0.38499999 105 177 1
-0.037111938 -0.15042055 0.38399994 105 177 1
-0.037111938 -0.15215424 0.38399994 105 177 1
-0.037111938 -0.1530211 0.38399994 105 177 1
-0.037111938 -0.15388793 0.38399994 105 177 1
-0.037111938 -0.15562162 0.38399994 105 177 1
-0.037111938 -0.15648848 0.38399994 105 177 1
-0.037111938 -0.15735531 0.38399994 105 177 1
-0.037093386 -0.15839143 0.38299996 105 177 1
-0.037093386 -0.16012838 0.38299996 105 177 1
-0.037093386 -0.16099685 0.38299996 105 177 1
-0.037093386 -0.16186532 0.38299996 105 177 1
-0.037093386 -0.16360226 0.38299996 105 177 1
-0.037093386 -0.16447073 0.38299996 105 177 1
-0.037111938 -0.16862431 0.38399994 105 177 1
-0.036265269 -0.13815285 0.38499999 105 177 1
-0.036265269 -0.13988329 0.38499999 105 177 1
-0.036265269 -0.1407485 0.38499999 105 177 1
-0.036265269 -0.14161372 0.38499999 105 177 1
-0.036265269 -0.14334416 0.38499999 105 177 1
-0.036265269 -0.14420938 0.38499999 105 177 1
-0.036265269 -0.14507461 0.38499999 105 177 1
-0.036265269 -0.14593983 0.38499999 105 177 1
-0.036265269 -0.14767027 0.38499999 105 177 1
-0.036265269 -0.14853549 0.38499999 105 177 1
-0.036245093 -0.14955372 0.38399994 105 177 1
-0.036245093 -0.15042055 0.38399994 105 177 1
-0.036245093 -0.15215424 0.38399994 105 177 1
-0.036245093 -0.1530211 0.38399994 105 177 1
-0.036245093 -0.15388793 0.38399994 105 177 1
-0.036245093 -0.15562162 0.38399994 105 177 1
-0.036245093 -0.15648848 0.38399994 105 177 1
-0.036224913 -0.15752296 0.38299996 105 177 1
-0.036224913 -0.15839143 0.38299996 105 177 1
-0.036224913 -0.16012838 0.38299996 105 177 1
-0.036224913 -0.16099685 0.38299996 105 177 1
-0.036224913 -0.16186532 0.38299996 105 177 1
-0.036224913 -0.16360226 0.38299996 105 177 1
-0.036224913 -0.16447073 0.38299996 105 177 1
-0.035400048 -0.13728765 0.38499999 105 177 1
-0.035400048 -0.13815285 0.38499999 105 177 1
-0.035400048 -0.13988329 0.38499999 105 177 1
-0.035400048 -0.1407485 0.38499999 105 177 1
-0.035400048 -0.14161372 0.38499999 105 177 1
-0.035400048 -0.14334416 0.38499999 105 177 1
-0.035400048 -0.14420938 0.38499999 105 177 1
-0.035400048 -0.14507461 0.38499999 105 177 1
-0.035378247 -0.14608634 0.38399994 105 177 1
-0.035378247 -0.14782003 0.38399994 105 177 1
-0.035378247 -0.14868686 0.38399994 105 177 1
-0.035378247 -0.14955372 0.38399994 105 177 1
-0.035378247 -0.15042055 0.38399994 105 177 1
-0.035378247 -0.15215424 0.38399994 105 177 1
-0.03535644 -0.1531806 0.38299996 105 177 1
-0.03535644 -0.15404907 0.38299996 105 177 1
-0.03535644 -0.15578601 0.38299996 105 177 1
-0.03535644 -0.15665449 0.38299996 105 177 1
-0.03535644 -0.15752296 0.38299996 105 177 1
-0.03535644 -0.15839143 0.38299996 105 177 1
-0.03535644 -0.16012838 0.38299996 105 177 1
-0.03535644 -0.16099685 0.38299996 105 177 1
-0.03535644 -0.16186532 0.38299996 105 177 1
-0.03535644 -0.16360226 0.38299996 105 177 1
-0.03535644 -0.16447073 0.38299996 105 177 1
-0.034534831 -0.13728765 0.38499999 105 177 1
-0.034534831 -0.13815285 0.38499999 105 177 1
-0.034534831 -0.13988329 0.38499999 105 177 1
-0.034534831 -0.1407485 0.38499999 105 177 1
-0.034534831 -0.14161372 0.38499999 105 177 1
-0.034534831 -0.14334416 0.38499999 105 177 1
-0.034534831 -0.14420938 0.38499999 105 177 1
-0.034511402 -0.14521948 0.38399994 105 177 1
-0.034511402 -0.14608634 0.38399994 105 177 1
-0.034511402 -0.14782003 0.38399994 105 177 1
-0.03448797 -0.14883825 0.38299996 105 177 1
-0.03448797 -0.14970672 0.38299996 105 177 1
-0.03448797 -0.15144366 0.38299996 105 177 1
-0.03448797 -0.15231213 0.38299996 105 177 1
-0.03448797 -0.1531806 0.38299996 105 177 1
-0.034464538 -0.16030091 0.38199997 105 177 1
-0.034464538 -0.16117099 0.38199997 105 177 1
-0.034464538 -0.1620411 0.38199997 105 177 1
-0.032804392 -0.14334416 0.38499999 105 177 1
-0.032777712 -0.14435264 0.38399994 105 177 1
-0.032777712 -0.14521948 0.38399994 105 177 1
-0.032751024 -0.14623283 0.38299996 105 177 1
-0.032724343 -0.14811954 0.38199997 105 177 1
-0.032724343 -0.14898962 0.38199997 105 177 1
-0.032697659 -0.15001273 0.38099998 105 177 1
0 0 0 1 0 0 0 1 0 0 0 1 0 0 0 0 0 513 1 0 0
