ply
format ascii 1.0
comment PCL generated
element vertex 614
property float x
property float y
property float z
property uchar red
property uchar green
property uchar blue
element camera 1
property float view_px
property float view_py
property float view_pz
property float x_axisx
property float x_axisy
property float x_axisz
property float y_axisx
property float y_axisy
property float y_axisz
property float z_axisx
property float z_axisy
property float z_axisz
property float focal
property float scalex
property float scaley
property float centerx
property float centery
property int viewportx
property int viewporty
property float k1
property float k2
end_header
-0.064111598 -0.17025281 0.38 36 185 193
-0.06326849 -0.16869327 0.37899995 36 185 193
-0.063238248 -0.16937947 0.38 36 185 193
-0.063238248 -0.17025281 0.38 36 185 193
-0.063208014 -0.17180584 0.38099998 36 185 193
-0.063208014 -0.17267758 0.38099998 36 185 193
-0.063208014 -0.17354929 0.38099998 36 185 193
-0.063177772 -0.17422247 0.38199997 36 185 193
-0.062393509 -0.16869327 0.37899995 36 185 193
-0.062364899 -0.16937947 0.38 36 185 193
-0.062364899 -0.17025281 0.38 36 185 193
-0.062336288 -0.17180584 0.38099998 36 185 193
-0.062336288 -0.17267758 0.38099998 36 185 193
-0.062336288 -0.17354929 0.38099998 36 185 193
-0.062307674 -0.17422247 0.38199997 36 185 193
-0.062307674 -0.17596267 0.38199997 36 185 193
-0.061518535 -0.16869327 0.37899995 36 185 193
-0.061491549 -0.16937947 0.38 36 185 193
-0.061491549 -0.17025281 0.38 36 185 193
-0.061491549 -0.17199951 0.38 36 185 193
-0.061464563 -0.17267758 0.38099998 36 185 193
-0.061464563 -0.17354929 0.38099998 36 185 193
-0.061464563 -0.17442101 0.38099998 36 185 193
-0.061464563 -0.17616446 0.38099998 36 185 193
-0.060567476 -0.17683277 0.38199997 36 185 193
-0.060542118 -0.1774978 0.38299996 36 185 193
-0.060491398 -0.21775299 0.38499999 36 185 193
-0.05976858 -0.16869327 0.37899995 36 185 193
-0.05976858 -0.16956824 0.37899995 36 185 193
-0.059744846 -0.17025281 0.38 36 185 193
-0.059744846 -0.17199951 0.38 36 185 193
-0.059721112 -0.17267758 0.38099998 36 185 193
-0.059721112 -0.17354929 0.38099998 36 185 193
-0.059697382 -0.17422247 0.38199997 36 185 193
-0.059697382 -0.17596267 0.38199997 36 185 193
-0.059697382 -0.17683277 0.38199997 36 185 193
-0.059673645 -0.1774978 0.38299996 36 185 193
-0.059649915 -0.19462967 0.38399994 36 185 193
-0.059649915 -0.19549651 0.38399994 36 185 193
-0.059626181 -0.19612251 0.38499999 36 185 193
-0.059626181 -0.19698773 0.38499999 36 185 193
-0.059626181 -0.19871818 0.38499999 36 185 193
-0.059626181 -0.1995834 0.38499999 36 185 193
-0.059626181 -0.20044862 0.38499999 36 185 193
-0.059626181 -0.21515733 0.38499999 36 185 193
-0.059626181 -0.21602255 0.38499999 36 185 193
-0.059626181 -0.21775299 0.38499999 36 185 193
-0.058893602 -0.16869327 0.37899995 36 185 193
-0.058893602 -0.16956824 0.37899995 36 185 193
-0.058871496 -0.17025281 0.38 36 185 193
-0.058871496 -0.17199951 0.38 36 185 193
-0.058849391 -0.17267758 0.38099998 36 185 193
-0.058849391 -0.17354929 0.38099998 36 185 193
-0.058827281 -0.17422247 0.38199997 36 185 193
-0.058827281 -0.17596267 0.38199997 36 185 193
-0.058827281 -0.17683277 0.38199997 36 185 193
-0.058827281 -0.17770287 0.38199997 36 185 193
-0.058783069 -0.18856175 0.38399994 36 185 193
-0.058783069 -0.1894286 0.38399994 36 185 193
-0.058783069 -0.19116229 0.38399994 36 185 193
-0.058783069 -0.19202913 0.38399994 36 185 193
-0.05876096 -0.19266164 0.38499999 36 185 193
-0.05876096 -0.19439209 0.38499999 36 185 193
-0.05876096 -0.19525729 0.38499999 36 185 193
-0.05876096 -0.19612251 0.38499999 36 185 193
-0.05876096 -0.19698773 0.38499999 36 185 193
-0.05876096 -0.19871818 0.38499999 36 185 193
-0.05876096 -0.1995834 0.38499999 36 185 193
-0.05876096 -0.20044862 0.38499999 36 185 193
-0.05876096 -0.20217904 0.38499999 36 185 193
-0.05876096 -0.20304427 0.38499999 36 185 193
-0.05876096 -0.20390949 0.38499999 36 185 193
-0.05876096 -0.20477471 0.38499999 36 185 193
-0.05876096 -0.20650515 0.38499999 36 185 193
-0.05876096 -0.20737036 0.38499999 36 185 193
-0.05876096 -0.20823558 0.38499999 36 185 193
-0.05876096 -0.21429211 0.38499999 36 185 193
-0.05876096 -0.21515733 0.38499999 36 185 193
-0.05876096 -0.21602255 0.38499999 36 185 193
-0.05876096 -0.21775299 0.38499999 36 185 193
-0.058018625 -0.16869327 0.37899995 36 185 193
-0.058018625 -0.16956824 0.37899995 36 185 193
-0.057998147 -0.17025281 0.38 36 185 193
-0.057998147 -0.17199951 0.38 36 185 193
-0.057977665 -0.17267758 0.38099998 36 185 193
-0.057977665 -0.17354929 0.38099998 36 185 193
-0.057977665 -0.17442101 0.38099998 36 185 193
-0.057957184 -0.17596267 0.38199997 36 185 193
-0.057957184 -0.17683277 0.38199997 36 185 193
-0.057957184 -0.17770287 0.38199997 36 185 193
-0.057916224 -0.18856175 0.38399994 36 185 193
-0.057916224 -0.1894286 0.38399994 36 185 193
-0.057916224 -0.19116229 0.38399994 36 185 193
-0.057916224 -0.19202913 0.38399994 36 185 193
-0.057916224 -0.19289598 0.38399994 36 185 193
-0.057916224 -0.19462967 0.38399994 36 185 193
-0.057143651 -0.16956824 0.37899995 36 185 193
-0.057143651 -0.17044322 0.37899995 36 185 193
-0.057030521 -0.19525729 0.38499999 36 185 193
-0.057030521 -0.19612251 0.38499999 36 185 193
-0.057030521 -0.19698773 0.38499999 36 185 193
-0.057030521 -0.19871818 0.38499999 36 185 193
-0.057030521 -0.1995834 0.38499999 36 185 193
-0.057030521 -0.20044862 0.38499999 36 185 193
-0.057030521 -0.20217904 0.38499999 36 185 193
-0.057030521 -0.20304427 0.38499999 36 185 193
-0.057030521 -0.20390949 0.38499999 36 185 193
-0.057030521 -0.20477471 0.38499999 36 185 193
-0.057030521 -0.20650515 0.38499999 36 185 193
-0.057030521 -0.20737036 0.38499999 36 185 193
-0.057030521 -0.20823558 0.38499999 36 185 193
-0.057030521 -0.21256168 0.38499999 36 185 193
-0.057030521 -0.21429211 0.38499999 36 185 193
-0.057030521 -0.21515733 0.38499999 36 185 193
-0.057030521 -0.21602255 0.38499999 36 185 193
-0.057030521 -0.21775299 0.38499999 36 185 193
-0.056251444 -0.17199951 0.38 36 185 193
-0.056251444 -0.17287287 0.38 36 185 193
-0.056234218 -0.17354929 0.38099998 36 185 193
-0.056234218 -0.17442101 0.38099998 36 185 193
-0.056216989 -0.17596267 0.38199997 36 185 193
-0.056216989 -0.17683277 0.38199997 36 185 193
-0.056216989 -0.17770287 0.38199997 36 185 193
-0.056199759 -0.17923474 0.38299996 36 185 193
-0.056199759 -0.18010321 0.38299996 36 185 193
-0.056182534 -0.18076015 0.38399994 36 185 193
-0.056182534 -0.18422753 0.38399994 36 185 193
-0.056182534 -0.18509437 0.38399994 36 185 193
-0.056182534 -0.18682806 0.38399994 36 185 193
-0.056182534 -0.18769491 0.38399994 36 185 193
-0.056182534 -0.18856175 0.38399994 36 185 193
-0.056165304 -0.18920076 0.38499999 36 185 193
-0.056165304 -0.1909312 0.38499999 36 185 193
-0.056165304 -0.19179642 0.38499999 36 185 193
-0.056165304 -0.19266164 0.38499999 36 185 193
-0.056165304 -0.19439209 0.38499999 36 185 193
-0.056165304 -0.19525729 0.38499999 36 185 193
-0.056165304 -0.19612251 0.38499999 36 185 193
-0.056165304 -0.19698773 0.38499999 36 185 193
-0.056165304 -0.19871818 0.38499999 36 185 193
-0.056165304 -0.1995834 0.38499999 36 185 193
-0.056165304 -0.20044862 0.38499999 36 185 193
-0.056165304 -0.20217904 0.38499999 36 185 193
-0.056165304 -0.20304427 0.38499999 36 185 193
-0.056165304 -0.20390949 0.38499999 36 185 193
-0.056165304 -0.20477471 0.38499999 36 185 193
-0.056165304 -0.20650515 0.38499999 36 185 193
-0.056165304 -0.20737036 0.38499999 36 185 193
-0.056165304 -0.20823558 0.38499999 36 185 193
-0.056165304 -0.20996602 0.38499999 36 185 193
-0.056165304 -0.21083124 0.38499999 36 185 193
-0.056182534 -0.21196657 0.38399994 36 185 193
-0.056165304 -0.21256168 0.38499999 36 185 193
-0.056165304 -0.21429211 0.38499999 36 185 193
-0.056165304 -0.21515733 0.38499999 36 185 193
-0.056165304 -0.21602255 0.38499999 36 185 193
-0.056165304 -0.21775299 0.38499999 36 185 193
-0.055378094 -0.16937947 0.38 36 185 193
-0.055378094 -0.17025281 0.38 36 185 193
-0.055378094 -0.17199951 0.38 36 185 193
-0.055362493 -0.17267758 0.38099998 36 185 193
-0.055362493 -0.17354929 0.38099998 36 185 193
-0.055362493 -0.17442101 0.38099998 36 185 193
-0.055346891 -0.17596267 0.38199997 36 185 193
-0.055346891 -0.17683277 0.38199997 36 185 193
-0.055346891 -0.17770287 0.38199997 36 185 193
-0.05533129 -0.17923474 0.38299996 36 185 193
-0.05533129 -0.18010321 0.38299996 36 185 193
-0.055315688 -0.18076015 0.38399994 36 185 193
-0.055315688 -0.18162698 0.38399994 36 185 193
-0.055315688 -0.18336068 0.38399994 36 185 193
-0.055315688 -0.18422753 0.38399994 36 185 193
-0.055315688 -0.18509437 0.38399994 36 185 193
-0.055315688 -0.18682806 0.38399994 36 185 193
-0.055315688 -0.18769491 0.38399994 36 185 193
-0.055315688 -0.18856175 0.38399994 36 185 193
-0.055300087 -0.18920076 0.38499999 36 185 193
-0.055300087 -0.1909312 0.38499999 36 185 193
-0.055300087 -0.19179642 0.38499999 36 185 193
-0.055300087 -0.19266164 0.38499999 36 185 193
-0.055300087 -0.19439209 0.38499999 36 185 193
-0.055300087 -0.19525729 0.38499999 36 185 193
-0.055300087 -0.19612251 0.38499999 36 185 193
-0.055300087 -0.19698773 0.38499999 36 185 193
-0.055300087 -0.19871818 0.38499999 36 185 193
-0.055300087 -0.1995834 0.38499999 36 185 193
-0.055300087 -0.20044862 0.38499999 36 185 193
-0.055300087 -0.20217904 0.38499999 36 185 193
-0.055300087 -0.20304427 0.38499999 36 185 193
-0.055300087 -0.20390949 0.38499999 36 185 193
-0.055300087 -0.20477471 0.38499999 36 185 193
-0.055300087 -0.20650515 0.38499999 36 185 193
-0.055300087 -0.20737036 0.38499999 36 185 193
-0.055300087 -0.20823558 0.38499999 36 185 193
-0.055300087 -0.20996602 0.38499999 36 185 193
-0.055300087 -0.21083124 0.38499999 36 185 193
-0.055315688 -0.21196657 0.38399994 36 185 193
-0.055315688 -0.21283342 0.38399994 36 185 193
-0.055300087 -0.21429211 0.38499999 36 185 193
-0.055300087 -0.21515733 0.38499999 36 185 193
-0.055300087 -0.21602255 0.38499999 36 185 193
-0.055300087 -0.21775299 0.38499999 36 185 193
-0.054504745 -0.16937947 0.38 36 185 193
-0.054504745 -0.17025281 0.38 36 185 193
-0.054504745 -0.17199951 0.38 36 185 193
-0.054490767 -0.17267758 0.38099998 36 185 193
-0.054490767 -0.17354929 0.38099998 36 185 193
-0.054490767 -0.17442101 0.38099998 36 185 193
-0.054476794 -0.17596267 0.38199997 36 185 193
-0.054476794 -0.17683277 0.38199997 36 185 193
-0.054476794 -0.17770287 0.38199997 36 185 193
-0.054462817 -0.17923474 0.38299996 36 185 193
-0.054462817 -0.18010321 0.38299996 36 185 193
-0.054462817 -0.1809717 0.38299996 36 185 193
-0.054448843 -0.18162698 0.38399994 36 185 193
-0.054448843 -0.18336068 0.38399994 36 185 193
-0.054448843 -0.18422753 0.38399994 36 185 193
-0.054448843 -0.18509437 0.38399994 36 185 193
-0.054448843 -0.18682806 0.38399994 36 185 193
-0.054448843 -0.18769491 0.38399994 36 185 193
-0.054448843 -0.18856175 0.38399994 36 185 193
-0.054448843 -0.1894286 0.38399994 36 185 193
-0.054434866 -0.1909312 0.38499999 36 185 193
-0.054434866 -0.19179642 0.38499999 36 185 193
-0.054434866 -0.19266164 0.38499999 36 185 193
-0.054434866 -0.19439209 0.38499999 36 185 193
-0.054434866 -0.19525729 0.38499999 36 185 193
-0.054434866 -0.19612251 0.38499999 36 185 193
-0.054434866 -0.19698773 0.38499999 36 185 193
-0.054434866 -0.19871818 0.38499999 36 185 193
-0.054434866 -0.1995834 0.38499999 36 185 193
-0.054434866 -0.20044862 0.38499999 36 185 193
-0.054434866 -0.20217904 0.38499999 36 185 193
-0.054434866 -0.20304427 0.38499999 36 185 193
-0.054434866 -0.20390949 0.38499999 36 185 193
-0.054434866 -0.20477471 0.38499999 36 185 193
-0.054434866 -0.20650515 0.38499999 36 185 193
-0.054448843 -0.20763235 0.38399994 36 185 193
-0.054448843 -0.20849919 0.38399994 36 185 193
-0.054448843 -0.21023288 0.38399994 36 185 193
-0.054448843 -0.21109973 0.38399994 36 185 193
-0.054448843 -0.21196657 0.38399994 36 185 193
-0.054448843 -0.21283342 0.38399994 36 185 193
-0.054448843 -0.21456711 0.38399994 36 185 193
-0.054434866 -0.21515733 0.38499999 36 185 193
-0.054434866 -0.21602255 0.38499999 36 185 193
-0.054434866 -0.21775299 0.38499999 36 185 193
-0.053631391 -0.16937947 0.38 36 185 193
-0.053631391 -0.17025281 0.38 36 185 193
-0.053631391 -0.17199951 0.38 36 185 193
-0.053619042 -0.17267758 0.38099998 36 185 193
-0.053619042 -0.17354929 0.38099998 36 185 193
-0.053619042 -0.17442101 0.38099998 36 185 193
-0.053619042 -0.17616446 0.38099998 36 185 193
-0.052736595 -0.17683277 0.38199997 36 185 193
-0.052736595 -0.17770287 0.38199997 36 185 193
-0.052736595 -0.17944306 0.38199997 36 185 193
-0.052725874 -0.18010321 0.38299996 36 185 193
-0.052725874 -0.1809717 0.38299996 36 185 193
-0.052725874 -0.18184017 0.38299996 36 185 193
-0.052725874 -0.18357711 0.38299996 36 185 193
-0.052715153 -0.18422753 0.38399994 36 185 193
-0.052715153 -0.18509437 0.38399994 36 185 193
-0.052715153 -0.18682806 0.38399994 36 185 193
-0.052715153 -0.18769491 0.38399994 36 185 193
-0.052715153 -0.18856175 0.38399994 36 185 193
-0.052715153 -0.1894286 0.38399994 36 185 193
-0.052715153 -0.19116229 0.38399994 36 185 193
-0.052704427 -0.19179642 0.38499999 36 185 193
-0.052704427 -0.19266164 0.38499999 36 185 193
-0.052704427 -0.19439209 0.38499999 36 185 193
-0.052704427 -0.19525729 0.38499999 36 185 193
-0.052704427 -0.19612251 0.38499999 36 185 193
-0.052704427 -0.19698773 0.38499999 36 185 193
-0.052704427 -0.19871818 0.38499999 36 185 193
-0.052704427 -0.1995834 0.38499999 36 185 193
-0.052704427 -0.20044862 0.38499999 36 185 193
-0.052704427 -0.20217904 0.38499999 36 185 193
-0.052704427 -0.20304427 0.38499999 36 185 193
-0.052704427 -0.20390949 0.38499999 36 185 193
-0.052704427 -0.20477471 0.38499999 36 185 193
-0.052715153 -0.2067655 0.38399994 36 185 193
-0.052715153 -0.20763235 0.38399994 36 185 193
-0.052715153 -0.20849919 0.38399994 36 185 193
-0.052715153 -0.21023288 0.38399994 36 185 193
-0.052715153 -0.21109973 0.38399994 36 185 193
-0.052715153 -0.21196657 0.38399994 36 185 193
-0.052715153 -0.21283342 0.38399994 36 185 193
-0.052715153 -0.21456711 0.38399994 36 185 193
-0.052715153 -0.21543396 0.38399994 36 185 193
-0.052715153 -0.2163008 0.38399994 36 185 193
-0.052704427 -0.21775299 0.38499999 36 185 193
-0.051875595 -0.17180584 0.38099998 36 185 193
-0.051875595 -0.17267758 0.38099998 36 185 193
-0.051875595 -0.17354929 0.38099998 36 185 193
-0.051875595 -0.17442101 0.38099998 36 185 193
-0.051866498 -0.17596267 0.38199997 36 185 193
-0.051866498 -0.17683277 0.38199997 36 185 193
-0.051866498 -0.17770287 0.38199997 36 185 193
-0.051866498 -0.17944306 0.38199997 36 185 193
-0.051866498 -0.18031317 0.38199997 36 185 193
-0.051857401 -0.1809717 0.38299996 36 185 193
-0.051857401 -0.18184017 0.38299996 36 185 193
-0.051857401 -0.18357711 0.38299996 36 185 193
-0.051857401 -0.18444559 0.38299996 36 185 193
-0.051848307 -0.18509437 0.38399994 36 185 193
-0.051848307 -0.18682806 0.38399994 36 185 193
-0.051848307 -0.18769491 0.38399994 36 185 193
-0.051848307 -0.18856175 0.38399994 36 185 193
-0.051848307 -0.1894286 0.38399994 36 185 193
-0.051848307 -0.19116229 0.38399994 36 185 193
-0.051848307 -0.19202913 0.38399994 36 185 193
-0.051848307 -0.19289598 0.38399994 36 185 193
-0.05183921 -0.19439209 0.38499999 36 185 193
-0.05183921 -0.19525729 0.38499999 36 185 193
-0.05183921 -0.19612251 0.38499999 36 185 193
-0.05183921 -0.19698773 0.38499999 36 185 193
-0.05183921 -0.19871818 0.38499999 36 185 193
-0.05183921 -0.1995834 0.38499999 36 185 193
-0.05183921 -0.20044862 0.38499999 36 185 193
-0.05183921 -0.20217904 0.38499999 36 185 193
-0.05183921 -0.20304427 0.38499999 36 185 193
-0.051848307 -0.20416497 0.38399994 36 185 193
-0.051848307 -0.20503181 0.38399994 36 185 193
-0.051848307 -0.2067655 0.38399994 36 185 193
-0.051848307 -0.20763235 0.38399994 36 185 193
-0.051848307 -0.20849919 0.38399994 36 185 193
-0.051848307 -0.21023288 0.38399994 36 185 193
-0.051848307 -0.21109973 0.38399994 36 185 193
-0.051848307 -0.21196657 0.38399994 36 185 193
-0.051848307 -0.21283342 0.38399994 36 185 193
-0.051848307 -0.21456711 0.38399994 36 185 193
-0.051848307 -0.21543396 0.38399994 36 185 193
-0.051848307 -0.2163008 0.38399994 36 185 193
-0.05100387 -0.17180584 0.38099998 36 185 193
-0.05100387 -0.17267758 0.38099998 36 185 193
-0.05100387 -0.17616446 0.38099998 36 185 193
-0.0509964 -0.17683277 0.38199997 36 185 193
-0.0509964 -0.17770287 0.38199997 36 185 193
-0.0509964 -0.17944306 0.38199997 36 185 193
-0.0509964 -0.18031317 0.38199997 36 185 193
-0.0509964 -0.18118325 0.38199997 36 185 193
-0.050988931 -0.18184017 0.38299996 36 185 193
-0.050988931 -0.18357711 0.38299996 36 185 193
-0.050988931 -0.18444559 0.38299996 36 185 193
-0.050988931 -0.18531406 0.38299996 36 185 193
-0.050988931 -0.187051 0.38299996 36 185 193
-0.050988931 -0.18791947 0.38299996 36 185 193
-0.050981462 -0.18856175 0.38399994 36 185 193
-0.050981462 -0.1894286 0.38399994 36 185 193
-0.050981462 -0.19116229 0.38399994 36 185 193
-0.050981462 -0.19202913 0.38399994 36 185 193
-0.050981462 -0.19289598 0.38399994 36 185 193
-0.050981462 -0.19462967 0.38399994 36 185 193
-0.050973989 -0.19525729 0.38499999 36 185 193
-0.050973989 -0.19612251 0.38499999 36 185 193
-0.050973989 -0.19698773 0.38499999 36 185 193
-0.050973989 -0.19871818 0.38499999 36 185 193
-0.050973989 -0.1995834 0.38499999 36 185 193
-0.050981462 -0.20069759 0.38399994 36 185 193
-0.050981462 -0.20243128 0.38399994 36 185 193
-0.050981462 -0.20329812 0.38399994 36 185 193
-0.050981462 -0.20416497 0.38399994 36 185 193
-0.050981462 -0.20503181 0.38399994 36 185 193
-0.050981462 -0.2067655 0.38399994 36 185 193
-0.050981462 -0.20763235 0.38399994 36 185 193
-0.050981462 -0.20849919 0.38399994 36 185 193
-0.050981462 -0.21023288 0.38399994 36 185 193
-0.050981462 -0.21109973 0.38399994 36 185 193
-0.050981462 -0.21196657 0.38399994 36 185 193
-0.050981462 -0.21283342 0.38399994 36 185 193
-0.050981462 -0.21456711 0.38399994 36 185 193
-0.050981462 -0.21543396 0.38399994 36 185 193
-0.050981462 -0.2163008 0.38399994 36 185 193
-0.050132144 -0.17180584 0.38099998 36 185 193
-0.050132144 -0.17267758 0.38099998 36 185 193
-0.050132144 -0.17354929 0.38099998 36 185 193
-0.050132144 -0.17442101 0.38099998 36 185 193
-0.050132144 -0.17616446 0.38099998 36 185 193
-0.050126303 -0.17683277 0.38199997 36 185 193
-0.050126303 -0.17770287 0.38199997 36 185 193
-0.050126303 -0.17944306 0.38199997 36 185 193
-0.050126303 -0.18031317 0.38199997 36 185 193
-0.050126303 -0.18118325 0.38199997 36 185 193
-0.050120458 -0.18184017 0.38299996 36 185 193
-0.050120458 -0.18357711 0.38299996 36 185 193
-0.050120458 -0.18444559 0.38299996 36 185 193
-0.050120458 -0.18531406 0.38299996 36 185 193
-0.050120458 -0.187051 0.38299996 36 185 193
-0.050120458 -0.18791947 0.38299996 36 185 193
-0.050120458 -0.18878794 0.38299996 36 185 193
-0.050120458 -0.18965641 0.38299996 36 185 193
-0.050120458 -0.19139335 0.38299996 36 185 193
-0.050114617 -0.19202913 0.38399994 36 185 193
-0.050114617 -0.19289598 0.38399994 36 185 193
-0.050114617 -0.19462967 0.38399994 36 185 193
-0.050114617 -0.19549651 0.38399994 36 185 193
-0.050114617 -0.1989639 0.38399994 36 185 193
-0.050114617 -0.19983074 0.38399994 36 185 193
-0.050114617 -0.20069759 0.38399994 36 185 193
-0.050114617 -0.20243128 0.38399994 36 185 193
-0.050114617 -0.20329812 0.38399994 36 185 193
-0.050114617 -0.20416497 0.38399994 36 185 193
-0.050114617 -0.20503181 0.38399994 36 185 193
-0.050114617 -0.2067655 0.38399994 36 185 193
-0.048388697 -0.17180584 0.38099998 36 185 193
-0.048388697 -0.17267758 0.38099998 36 185 193
-0.048388697 -0.17354929 0.38099998 36 185 193
-0.048388697 -0.17442101 0.38099998 36 185 193
-0.048388697 -0.17616446 0.38099998 36 185 193
-0.048388697 -0.1770362 0.38099998 36 185 193
-0.048388697 -0.17790791 0.38099998 36 185 193
-0.048386108 -0.17944306 0.38199997 36 185 193
-0.048386108 -0.18031317 0.38199997 36 185 193
-0.048386108 -0.18118325 0.38199997 36 185 193
-0.048386108 -0.18379354 0.38199997 36 185 193
-0.048386108 -0.18466365 0.38199997 36 185 193
-0.048386108 -0.18553375 0.38199997 36 185 193
-0.048386108 -0.18727395 0.38199997 36 185 193
-0.048386108 -0.18814404 0.38199997 36 185 193
-0.048386108 -0.18901414 0.38199997 36 185 193
-0.048383515 -0.18965641 0.38299996 36 185 193
-0.048383515 -0.19139335 0.38299996 36 185 193
-0.048383515 -0.19226182 0.38299996 36 185 193
-0.048383515 -0.1931303 0.38299996 36 185 193
-0.048380926 -0.19462967 0.38399994 36 185 193
-0.048380926 -0.19549651 0.38399994 36 185 193
-0.048380926 -0.19636336 0.38399994 36 185 193
-0.048380926 -0.1972302 0.38399994 36 185 193
-0.048380926 -0.1989639 0.38399994 36 185 193
-0.048380926 -0.19983074 0.38399994 36 185 193
-0.048380926 -0.20069759 0.38399994 36 185 193
-0.048380926 -0.20243128 0.38399994 36 185 193
-0.048380926 -0.20329812 0.38399994 36 185 193
-0.048383515 -0.20442043 0.38299996 36 185 193
-0.048383515 -0.2052889 0.38299996 36 185 193
-0.048383515 -0.20702584 0.38299996 36 185 193
-0.047516972 -0.17180584 0.38099998 36 185 193
-0.047516972 -0.17267758 0.38099998 36 185 193
-0.047516972 -0.17354929 0.38099998 36 185 193
-0.047516972 -0.17442101 0.38099998 36 185 193
-0.047516972 -0.17616446 0.38099998 36 185 193
-0.047516972 -0.1770362 0.38099998 36 185 193
-0.047516972 -0.17790791 0.38099998 36 185 193
-0.047516972 -0.18226653 0.38099998 36 185 193
-0.047516972 -0.18400998 0.38099998 36 185 193
-0.047516972 -0.18488172 0.38099998 36 185 193
-0.047516972 -0.18575343 0.38099998 36 185 193
-0.047516972 -0.18749689 0.38099998 36 185 193
-0.047516972 -0.1883686 0.38099998 36 185 193
-0.047516007 -0.18901414 0.38199997 36 185 193
-0.047516007 -0.18988425 0.38199997 36 185 193
-0.047516007 -0.19162443 0.38199997 36 185 193
-0.047516007 -0.19249454 0.38199997 36 185 193
-0.047515042 -0.1931303 0.38299996 36 185 193
-0.047515042 -0.19486724 0.38299996 36 185 193
-0.047515042 -0.19573571 0.38299996 36 185 193
-0.047515042 -0.19660418 0.38299996 36 185 193
-0.047515042 -0.19747266 0.38299996 36 185 193
-0.047515042 -0.1992096 0.38299996 36 185 193
-0.047515042 -0.20007807 0.38299996 36 185 193
-0.047515042 -0.20094654 0.38299996 36 185 193
-0.047515042 -0.20268348 0.38299996 36 185 193
-0.047515042 -0.20355196 0.38299996 36 185 193
-0.047515042 -0.20442043 0.38299996 36 185 193
-0.047515042 -0.2052889 0.38299996 36 185 193
-0.04664525 -0.17180584 0.38099998 36 185 193
-0.04664525 -0.17267758 0.38099998 36 185 193
-0.04664525 -0.17354929 0.38099998 36 185 193
-0.04664525 -0.17616446 0.38099998 36 185 193
-0.04664525 -0.18139482 0.38099998 36 185 193
-0.046644587 -0.18247971 0.38 36 185 193
-0.046644587 -0.18422642 0.38 36 185 193
-0.046644587 -0.18509977 0.38 36 185 193
-0.046644587 -0.18597311 0.38 36 185 193
-0.046644587 -0.18771982 0.38 36 185 193
-0.046644587 -0.18859318 0.38 36 185 193
-0.04664525 -0.18924034 0.38099998 36 185 193
-0.04664525 -0.19011205 0.38099998 36 185 193
-0.04664525 -0.19185551 0.38099998 36 185 193
-0.04664591 -0.19249454 0.38199997 36 185 193
-0.04664591 -0.19336464 0.38199997 36 185 193
-0.04664591 -0.19510482 0.38199997 36 185 193
-0.046646573 -0.19573571 0.38299996 36 185 193
-0.046646573 -0.19660418 0.38299996 36 185 193
-0.046646573 -0.19747266 0.38299996 36 185 193
-0.046646573 -0.1992096 0.38299996 36 185 193
-0.046646573 -0.20007807 0.38299996 36 185 193
-0.046646573 -0.20094654 0.38299996 36 185 193
-0.046646573 -0.20268348 0.38299996 36 185 193
-0.045771237 -0.17985967 0.38 36 185 193
-0.045771237 -0.18073303 0.38 36 185 193
-0.045771237 -0.18160637 0.38 36 185 193
-0.045771237 -0.18247971 0.38 36 185 193
-0.045768946 -0.18444286 0.37899995 36 185 193
-0.045768946 -0.18531784 0.37899995 36 185 193
-0.045768946 -0.18619281 0.37899995 36 185 193
-0.045768946 -0.18794277 0.37899995 36 185 193
-0.045768946 -0.18881774 0.37899995 36 185 193
-0.045771237 -0.18946652 0.38 36 185 193
-0.045771237 -0.19033986 0.38 36 185 193
-0.045771237 -0.19208658 0.38 36 185 193
-0.045773525 -0.19272724 0.38099998 36 185 193
-0.045773525 -0.19359896 0.38099998 36 185 193
-0.045775812 -0.19510482 0.38199997 36 185 193
-0.045775812 -0.19597493 0.38199997 36 185 193
-0.044018995 -0.18094295 0.37899995 36 185 193
-0.044018995 -0.18181793 0.37899995 36 185 193
-0.044018995 -0.18269292 0.37899995 36 185 193
-0.044018995 -0.18444286 0.37899995 36 185 193
-0.044018995 -0.18531784 0.37899995 36 185 193
-0.044013452 -0.1864125 0.37799996 36 185 193
-0.044013452 -0.18816571 0.37799996 36 185 193
-0.044018995 -0.18881774 0.37899995 36 185 193
-0.044018995 -0.18969272 0.37899995 36 185 193
-0.044018995 -0.1905677 0.37899995 36 185 193
-0.044018995 -0.19231766 0.37899995 36 185 193
-0.044024535 -0.19295993 0.38 36 185 193
-0.044024535 -0.19383328 0.38 36 185 193
-0.044030074 -0.19534241 0.38099998 36 185 193
-0.044030074 -0.19621412 0.38099998 36 185 193
-0.043144017 -0.17831802 0.37899995 36 185 193
-0.043144017 -0.18006799 0.37899995 36 185 193
-0.043144017 -0.18094295 0.37899995 36 185 193
-0.04313685 -0.18202949 0.37799996 36 185 193
-0.04313685 -0.18290609 0.37799996 36 185 193
-0.04313685 -0.1846593 0.37799996 36 185 193
-0.04313685 -0.18553591 0.37799996 36 185 193
-0.04313685 -0.1864125 0.37799996 36 185 193
-0.04313685 -0.18816571 0.37799996 36 185 193
-0.04313685 -0.1890423 0.37799996 36 185 193
-0.04313685 -0.18991891 0.37799996 36 185 193
-0.04313685 -0.19079551 0.37799996 36 185 193
-0.04313685 -0.19254872 0.37799996 36 185 193
-0.04313685 -0.19342533 0.37799996 36 185 193
-0.043144017 -0.19406761 0.37899995 36 185 193
-0.043151185 -0.19557998 0.38 36 185 193
-0.043151185 -0.19645333 0.38 36 185 193
-0.04226904 -0.17656806 0.37899995 36 185 193
-0.042260244 -0.17764646 0.37799996 36 185 193
-0.042260244 -0.17852306 0.37799996 36 185 193
-0.042260244 -0.18027627 0.37799996 36 185 193
-0.042260244 -0.18115288 0.37799996 36 185 193
-0.042260244 -0.18202949 0.37799996 36 185 193
-0.042260244 -0.18290609 0.37799996 36 185 193
-0.042251453 -0.18487573 0.37699997 36 185 193
-0.042251453 -0.18575396 0.37699997 36 185 193
-0.042251453 -0.18663219 0.37699997 36 185 193
-0.042251453 -0.18838865 0.37699997 36 185 193
-0.042251453 -0.18926688 0.37699997 36 185 193
-0.042251453 -0.19014511 0.37699997 36 185 193
-0.042251453 -0.19102333 0.37699997 36 185 193
-0.042251453 -0.19277979 0.37699997 36 185 193
-0.042251453 -0.19365802 0.37699997 36 185 193
-0.042260244 -0.19430193 0.37799996 36 185 193
-0.04226904 -0.19581756 0.37899995 36 185 193
-0.042277832 -0.19645333 0.38 36 185 193
-0.042277832 -0.19732668 0.38 36 185 193
-0.041373223 -0.18224104 0.37699997 36 185 193
-0.041373223 -0.18311927 0.37699997 36 185 193
-0.041373223 -0.18487573 0.37699997 36 185 193
-0.041373223 -0.18575396 0.37699997 36 185 193
-0.041362803 -0.18685189 0.37599999 36 185 193
-0.041362803 -0.1886116 0.37599999 36 185 193
-0.041362803 -0.18949145 0.37599999 36 185 193
-0.041362803 -0.1903713 0.37599999 36 185 193
-0.041362803 -0.19125116 0.37599999 36 185 193
-0.041362803 -0.19301088 0.37599999 36 185 193
-0.041362803 -0.19389074 0.37599999 36 185 193
-0.041373223 -0.19453625 0.37699997 36 185 193
-0.041373223 -0.19629271 0.37699997 36 185 193
-0.041383643 -0.19693173 0.37799996 36 185 193
-0.041383643 -0.19780834 0.37799996 36 185 193
-0.040543176 -0.17616446 0.38099998 36 185 193
-0.040543176 -0.1770362 0.38099998 36 185 193
-0.040531132 -0.17811295 0.38 36 185 193
-0.040531132 -0.17985967 0.38 36 185 193
-0.040531132 -0.18073303 0.38 36 185 193
-0.039630435 -0.17501666 0.37799996 36 185 193
-0.039616764 -0.17697166 0.37699997 36 185 193
-0.039603092 -0.17805332 0.37599999 36 185 193
-0.039603092 -0.17893317 0.37599999 36 185 193
-0.039603092 -0.18069288 0.37599999 36 185 193
-0.039603092 -0.18157274 0.37599999 36 185 193
-0.039603092 -0.1824526 0.37599999 36 185 193
-0.039603092 -0.18333246 0.37599999 36 185 193
-0.039603092 -0.18509217 0.37599999 36 185 193
-0.039603092 -0.18597203 0.37599999 36 185 193
-0.03958942 -0.18707156 0.37499994 36 185 193
-0.03958942 -0.18883453 0.37499994 36 185 193
-0.03958942 -0.18971601 0.37499994 36 185 193
-0.03958942 -0.1905975 0.37499994 36 185 193
-0.03958942 -0.19147897 0.37499994 36 185 193
-0.03958942 -0.19412343 0.37499994 36 185 193
-0.03958942 -0.19500491 0.37499994 36 185 193
-0.038723234 -0.17717347 0.37599999 36 185 193
-0.038723234 -0.17805332 0.37599999 36 185 193
-0.038707934 -0.17913821 0.37499994 36 185 193
-0.038707934 -0.1809012 0.37499994 36 185 193
-0.038723234 -0.18157274 0.37599999 36 185 193
-0.038723234 -0.1824526 0.37599999 36 185 193
-0.038723234 -0.18333246 0.37599999 36 185 193
-0.038723234 -0.18509217 0.37599999 36 185 193
-0.038707934 -0.18619008 0.37499994 36 185 193
-0.037843376 -0.17805332 0.37599999 36 185 193
-0.037826452 -0.17913821 0.37499994 36 185 193
-0.037826452 -0.1809012 0.37499994 36 185 193
-0.037826452 -0.18178266 0.37499994 36 185 193
-0.037843376 -0.1824526 0.37599999 36 185 193
-0.037843376 -0.18333246 0.37599999 36 185 193
-0.037826452 -0.18530861 0.37499994 36 185 193
-0.036124021 -0.18202949 0.37799996 36 185 193
-0.036124021 -0.18290609 0.37799996 36 185 193
-0.035203811 -0.18509217 0.37599999 36 185 193
0 0 0 1 0 0 0 1 0 0 0 1 0 0 0 0 0 614 1 0 0
