ply
format ascii 1.0
comment PCL generated
element vertex 852
property float x
property float y
property float z
property uchar red
property uchar green
property uchar blue
element camera 1
property float view_px
property float view_py
property float view_pz
property float x_axisx
property float x_axisy
property float x_axisz
property float y_axisx
property float y_axisy
property float y_axisz
property float z_axisx
property float z_axisy
property float z_axisz
property float focal
property float scalex
property float scaley
property float centerx
property float centery
property int viewportx
property int viewporty
property float k1
property float k2
end_header
-0.21339312 -0.12017868 0.38299996 69 110 85
-0.21221468 -0.11748043 0.38399994 69 110 85
-0.21252465 -0.11844174 0.38299996 69 110 85
-0.21252465 -0.12017868 0.38299996 69 110 85
-0.21103948 -0.11652239 0.38499999 69 110 85
-0.21134785 -0.11748043 0.38399994 69 110 85
-0.21134785 -0.11834727 0.38399994 69 110 85
-0.21165618 -0.12017868 0.38299996 69 110 85
-0.21165618 -0.12104715 0.38299996 69 110 85
-0.20930904 -0.11652239 0.38499999 69 110 85
-0.20930904 -0.1173876 0.38499999 69 110 85
-0.20961416 -0.11834727 0.38399994 69 110 85
-0.20961416 -0.12008096 0.38399994 69 110 85
-0.20991924 -0.12104715 0.38299996 69 110 85
-0.20991924 -0.12191562 0.38299996 69 110 85
-0.20991924 -0.12278409 0.38299996 69 110 85
-0.2087473 -0.11401305 0.38399994 69 110 85
-0.2087473 -0.11487989 0.38399994 69 110 85
-0.2087473 -0.11661358 0.38399994 69 110 85
-0.20844382 -0.1173876 0.38499999 69 110 85
-0.20844382 -0.11825281 0.38499999 69 110 85
-0.2087473 -0.12008096 0.38399994 69 110 85
-0.2087473 -0.12094781 0.38399994 69 110 85
-0.20905077 -0.12191562 0.38299996 69 110 85
-0.20905077 -0.12278409 0.38299996 69 110 85
-0.20788047 -0.11487989 0.38399994 69 110 85
-0.20788047 -0.11661358 0.38399994 69 110 85
-0.20788047 -0.11748043 0.38399994 69 110 85
-0.20757863 -0.11825281 0.38499999 69 110 85
-0.20757863 -0.11998326 0.38499999 69 110 85
-0.20788047 -0.12094781 0.38399994 69 110 85
-0.20788047 -0.12181466 0.38399994 69 110 85
-0.20818231 -0.12278409 0.38299996 69 110 85
-0.20701361 -0.11661358 0.38399994 69 110 85
-0.20701361 -0.12181466 0.38399994 69 110 85
-0.20701361 -0.12268151 0.38399994 69 110 85
-0.20584819 -0.1173876 0.38499999 69 110 85
-0.20584819 -0.11825281 0.38499999 69 110 85
-0.20584819 -0.11998326 0.38499999 69 110 85
-0.20584819 -0.12084848 0.38499999 69 110 85
-0.20468599 -0.11729477 0.38599998 69 110 85
-0.20468599 -0.11815836 0.38599998 69 110 85
-0.20498297 -0.11998326 0.38499999 69 110 85
-0.20498297 -0.12084848 0.38499999 69 110 85
-0.20498297 -0.1217137 0.38499999 69 110 85
-0.20498297 -0.12257892 0.38499999 69 110 85
-0.20323172 -0.1171091 0.38799995 69 110 85
-0.20352706 -0.1180639 0.38699996 69 110 85
-0.2038224 -0.11988554 0.38599998 69 110 85
-0.20411775 -0.12084848 0.38499999 69 110 85
-0.20411775 -0.1217137 0.38499999 69 110 85
-0.20411775 -0.12257892 0.38499999 69 110 85
-0.20266509 -0.1180639 0.38699996 69 110 85
-0.20295882 -0.11988554 0.38599998 69 110 85
-0.20295882 -0.12074913 0.38599998 69 110 85
-0.20295882 -0.12161273 0.38599998 69 110 85
-0.20325252 -0.12257892 0.38499999 69 110 85
-0.20121899 -0.11615755 0.389 69 110 85
-0.20151106 -0.1171091 0.38799995 69 110 85
-0.20036027 -0.11615755 0.389 69 110 85
-0.20065072 -0.1171091 0.38799995 69 110 85
-0.20065072 -0.11796944 0.38799995 69 110 85
-0.20094118 -0.11978783 0.38699996 69 110 85
-0.20123163 -0.12074913 0.38599998 69 110 85
-0.20123163 -0.12161273 0.38599998 69 110 85
-0.20123163 -0.12247632 0.38599998 69 110 85
-0.19921273 -0.11606634 0.38999999 69 110 85
-0.19950154 -0.11701626 0.389 69 110 85
-0.19979039 -0.11796944 0.38799995 69 110 85
-0.2000792 -0.11978783 0.38699996 69 110 85
-0.2000792 -0.1206498 0.38699996 69 110 85
-0.20036805 -0.12161273 0.38599998 69 110 85
-0.20036805 -0.12247632 0.38599998 69 110 85
-0.19864285 -0.11787498 0.389 69 110 85
-0.19893003 -0.11969012 0.38799995 69 110 85
-0.19921723 -0.1206498 0.38699996 69 110 85
-0.19921723 -0.12151176 0.38699996 69 110 85
-0.19921723 -0.12237373 0.38699996 69 110 85
-0.19749856 -0.11606634 0.38999999 69 110 85
-0.19749856 -0.11692343 0.38999999 69 110 85
-0.19635752 -0.11597514 0.39099997 69 110 85
-0.19664147 -0.11692343 0.38999999 69 110 85
-0.1969254 -0.11787498 0.389 69 110 85
-0.19720936 -0.11969012 0.38799995 69 110 85
-0.19720936 -0.12055045 0.38799995 69 110 85
-0.19749331 -0.12151176 0.38699996 69 110 85
-0.19749331 -0.12237373 0.38699996 69 110 85
-0.19550204 -0.11426422 0.39099997 69 110 85
-0.19550204 -0.11597514 0.39099997 69 110 85
-0.19578439 -0.11692343 0.38999999 69 110 85
-0.19606671 -0.11787498 0.389 69 110 85
-0.19606671 -0.11959241 0.389 69 110 85
-0.19634902 -0.12055045 0.38799995 69 110 85
-0.19634902 -0.1214108 0.38799995 69 110 85
-0.19634902 -0.12227114 0.38799995 69 110 85
-0.1946466 -0.11426422 0.39099997 69 110 85
-0.1946466 -0.11597514 0.39099997 69 110 85
-0.1949273 -0.11692343 0.38999999 69 110 85
-0.1949273 -0.11778052 0.38999999 69 110 85
-0.19520798 -0.11959241 0.389 69 110 85
-0.19548866 -0.12055045 0.38799995 69 110 85
-0.19548866 -0.1214108 0.38799995 69 110 85
-0.19548866 -0.12227114 0.38799995 69 110 85
-0.19265822 -0.11161476 0.39199996 69 110 85
-0.19265822 -0.11246859 0.39199996 69 110 85
-0.19293568 -0.11340876 0.39099997 69 110 85
-0.19293568 -0.11426422 0.39099997 69 110 85
-0.19293568 -0.11597514 0.39099997 69 110 85
-0.19293568 -0.1168306 0.39099997 69 110 85
-0.19321311 -0.11778052 0.38999999 69 110 85
-0.19349056 -0.11959241 0.389 69 110 85
-0.19349056 -0.12045112 0.389 69 110 85
-0.19376799 -0.1214108 0.38799995 69 110 85
-0.19376799 -0.12227114 0.38799995 69 110 85
-0.19180438 -0.11161476 0.39199996 69 110 85
-0.19180438 -0.11246859 0.39199996 69 110 85
-0.1920802 -0.11340876 0.39099997 69 110 85
-0.1920802 -0.11426422 0.39099997 69 110 85
-0.1920802 -0.11597514 0.39099997 69 110 85
-0.1920802 -0.1168306 0.39099997 69 110 85
-0.19235602 -0.11778052 0.38999999 69 110 85
-0.19235602 -0.11949469 0.38999999 69 110 85
-0.19263184 -0.12045112 0.389 69 110 85
-0.19263184 -0.12130983 0.389 69 110 85
-0.19263184 -0.12216854 0.389 69 110 85
-0.19401094 -0.15562162 0.38399994 69 110 85
-0.19401094 -0.15648848 0.38399994 69 110 85
-0.19373512 -0.15718767 0.38499999 69 110 85
-0.19373512 -0.15805289 0.38499999 69 110 85
-0.19373512 -0.15978333 0.38499999 69 110 85
-0.19373512 -0.16064855 0.38499999 69 110 85
-0.19095054 -0.11161476 0.39199996 69 110 85
-0.19095054 -0.11246859 0.39199996 69 110 85
-0.19122475 -0.11340876 0.39099997 69 110 85
-0.19122475 -0.11426422 0.39099997 69 110 85
-0.19122475 -0.11597514 0.39099997 69 110 85
-0.19122475 -0.1168306 0.39099997 69 110 85
-0.19149894 -0.11778052 0.38999999 69 110 85
-0.19149894 -0.11949469 0.38999999 69 110 85
-0.19149894 -0.12035178 0.38999999 69 110 85
-0.19177315 -0.12130983 0.389 69 110 85
-0.19177315 -0.12216854 0.389 69 110 85
-0.19259569 -0.15270206 0.38599998 69 110 85
-0.19259569 -0.15356565 0.38599998 69 110 85
-0.19259569 -0.15529284 0.38599998 69 110 85
-0.1928699 -0.15632245 0.38499999 69 110 85
-0.1928699 -0.15718767 0.38499999 69 110 85
-0.1928699 -0.15805289 0.38499999 69 110 85
-0.19259569 -0.15961081 0.38599998 69 110 85
-0.19259569 -0.16047439 0.38599998 69 110 85
-0.1928699 -0.16151378 0.38499999 69 110 85
-0.19064185 -0.11949469 0.38999999 69 110 85
-0.19064185 -0.12035178 0.38999999 69 110 85
-0.19064185 -0.12120886 0.38999999 69 110 85
-0.19091442 -0.12216854 0.389 69 110 85
-0.19145954 -0.15168059 0.38699996 69 110 85
-0.19173211 -0.15270206 0.38599998 69 110 85
-0.19173211 -0.15356565 0.38599998 69 110 85
-0.19173211 -0.15529284 0.38599998 69 110 85
-0.19173211 -0.15615642 0.38599998 69 110 85
-0.19173211 -0.15702003 0.38599998 69 110 85
-0.19173211 -0.15788361 0.38599998 69 110 85
-0.19173211 -0.15961081 0.38599998 69 110 85
-0.19173211 -0.16047439 0.38599998 69 110 85
-0.19173211 -0.16133799 0.38599998 69 110 85
-0.19173211 -0.16306517 0.38599998 69 110 85
-0.1892429 -0.10819942 0.39199996 69 110 85
-0.1892429 -0.10905325 0.39199996 69 110 85
-0.1892429 -0.10990709 0.39199996 69 110 85
-0.1892429 -0.11161476 0.39199996 69 110 85
-0.18951383 -0.1125533 0.39099997 69 110 85
-0.18951383 -0.11340876 0.39099997 69 110 85
-0.18951383 -0.11426422 0.39099997 69 110 85
-0.18951383 -0.11597514 0.39099997 69 110 85
-0.18951383 -0.1168306 0.39099997 69 110 85
-0.18951383 -0.11768606 0.39099997 69 110 85
-0.18951383 -0.13137344 0.39099997 69 110 85
-0.18951383 -0.13222888 0.39099997 69 110 85
-0.18951383 -0.13308436 0.39099997 69 110 85
-0.18865836 -0.11169784 0.39099997 69 110 85
-0.18865836 -0.1125533 0.39099997 69 110 85
-0.18865836 -0.11340876 0.39099997 69 110 85
-0.18865836 -0.11426422 0.39099997 69 110 85
-0.18865836 -0.11597514 0.39099997 69 110 85
-0.18865836 -0.1168306 0.39099997 69 110 85
-0.18865836 -0.11768606 0.39099997 69 110 85
-0.18892768 -0.11949469 0.38999999 69 110 85
-0.18892768 -0.12035178 0.38999999 69 110 85
-0.18892768 -0.12120886 0.38999999 69 110 85
-0.18892768 -0.12206595 0.38999999 69 110 85
-0.189197 -0.12732083 0.389 69 110 85
-0.189197 -0.12817954 0.389 69 110 85
-0.189197 -0.12903826 0.389 69 110 85
-0.189197 -0.12989697 0.389 69 110 85
-0.189197 -0.13161439 0.389 69 110 85
-0.189197 -0.13247311 0.389 69 110 85
-0.189197 -0.13333182 0.389 69 110 85
-0.189197 -0.14020154 0.389 69 110 85
-0.1894663 -0.14894167 0.38799995 69 110 85
-0.1894663 -0.14980201 0.38799995 69 110 85
-0.18973562 -0.15168059 0.38699996 69 110 85
-0.18973562 -0.15254255 0.38699996 69 110 85
-0.18973562 -0.1534045 0.38699996 69 110 85
-0.19000491 -0.15529284 0.38599998 69 110 85
-0.19000491 -0.15615642 0.38599998 69 110 85
-0.19000491 -0.15702003 0.38599998 69 110 85
-0.19000491 -0.15788361 0.38599998 69 110 85
-0.19000491 -0.15961081 0.38599998 69 110 85
-0.19000491 -0.16047439 0.38599998 69 110 85
-0.18973562 -0.1611622 0.38699996 69 110 85
-0.18973562 -0.16288614 0.38699996 69 110 85
-0.19000491 -0.16392876 0.38599998 69 110 85
-0.18780291 -0.11169784 0.39099997 69 110 85
-0.18780291 -0.1125533 0.39099997 69 110 85
-0.18780291 -0.11340876 0.39099997 69 110 85
-0.18780291 -0.11426422 0.39099997 69 110 85
-0.1880706 -0.11606634 0.38999999 69 110 85
-0.1880706 -0.11692343 0.38999999 69 110 85
-0.1880706 -0.11778052 0.38999999 69 110 85
-0.1880706 -0.11949469 0.38999999 69 110 85
-0.1880706 -0.12035178 0.38999999 69 110 85
-0.1880706 -0.12120886 0.38999999 69 110 85
-0.1880706 -0.12206595 0.38999999 69 110 85
-0.18833828 -0.12388597 0.389 69 110 85
-0.18833828 -0.12474468 0.389 69 110 85
-0.18833828 -0.12560341 0.389 69 110 85
-0.18833828 -0.12732083 0.389 69 110 85
-0.18833828 -0.12817954 0.389 69 110 85
-0.18833828 -0.12903826 0.389 69 110 85
-0.18833828 -0.12989697 0.389 69 110 85
-0.18833828 -0.13161439 0.389 69 110 85
-0.18833828 -0.13247311 0.389 69 110 85
-0.18833828 -0.13333182 0.389 69 110 85
-0.18833828 -0.13934281 0.389 69 110 85
-0.18833828 -0.14020154 0.389 69 110 85
-0.18860596 -0.14119862 0.38799995 69 110 85
-0.18833828 -0.14363638 0.389 69 110 85
-0.18860596 -0.147221 0.38799995 69 110 85
-0.18860596 -0.14808133 0.38799995 69 110 85
-0.18860596 -0.14894167 0.38799995 69 110 85
-0.18860596 -0.14980201 0.38799995 69 110 85
-0.18860596 -0.1515227 0.38799995 69 110 85
-0.18860596 -0.15238303 0.38799995 69 110 85
-0.18887365 -0.1534045 0.38699996 69 110 85
-0.18887365 -0.15512845 0.38699996 69 110 85
-0.18887365 -0.15599041 0.38699996 69 110 85
-0.18914133 -0.15702003 0.38599998 69 110 85
-0.18914133 -0.15788361 0.38599998 69 110 85
-0.18914133 -0.15961081 0.38599998 69 110 85
-0.18887365 -0.16030024 0.38699996 69 110 85
-0.18887365 -0.1611622 0.38699996 69 110 85
-0.18887365 -0.16288614 0.38699996 69 110 85
-0.18887365 -0.16374812 0.38699996 69 110 85
-0.18887365 -0.16461007 0.38699996 69 110 85
-0.18887365 -0.16547203 0.38699996 69 110 85
-0.18887365 -0.16719598 0.38699996 69 110 85
-0.18833828 -0.16768035 0.389 69 110 85
-0.18833828 -0.16853908 0.389 69 110 85
-0.1880706 -0.17006284 0.38999999 69 110 85
-0.1880706 -0.17091992 0.38999999 69 110 85
-0.18721351 -0.11692343 0.38999999 69 110 85
-0.18721351 -0.11778052 0.38999999 69 110 85
-0.18721351 -0.11949469 0.38999999 69 110 85
-0.18721351 -0.12035178 0.38999999 69 110 85
-0.18721351 -0.12120886 0.38999999 69 110 85
-0.18721351 -0.12206595 0.38999999 69 110 85
-0.18747956 -0.12388597 0.389 69 110 85
-0.18747956 -0.12474468 0.389 69 110 85
-0.18747956 -0.12560341 0.389 69 110 85
-0.18747956 -0.12732083 0.389 69 110 85
-0.18747956 -0.12817954 0.389 69 110 85
-0.18747956 -0.12903826 0.389 69 110 85
-0.18747956 -0.12989697 0.389 69 110 85
-0.18747956 -0.13161439 0.389 69 110 85
-0.18747956 -0.13247311 0.389 69 110 85
-0.18747956 -0.13333182 0.389 69 110 85
-0.18694744 -0.13479528 0.39099997 69 110 85
-0.18747956 -0.13934281 0.389 69 110 85
-0.18747956 -0.14020154 0.389 69 110 85
-0.18747956 -0.14106023 0.389 69 110 85
-0.1877456 -0.1429193 0.38799995 69 110 85
-0.1877456 -0.14377964 0.38799995 69 110 85
-0.1877456 -0.14463997 0.38799995 69 110 85
-0.1877456 -0.14550032 0.38799995 69 110 85
-0.18747956 -0.14707124 0.389 69 110 85
-0.1877456 -0.14808133 0.38799995 69 110 85
-0.1877456 -0.14894167 0.38799995 69 110 85
-0.1877456 -0.14980201 0.38799995 69 110 85
-0.1877456 -0.1515227 0.38799995 69 110 85
-0.1877456 -0.15238303 0.38799995 69 110 85
-0.1877456 -0.15324338 0.38799995 69 110 85
-0.18801168 -0.15512845 0.38699996 69 110 85
-0.18801168 -0.15599041 0.38699996 69 110 85
-0.18801168 -0.15685238 0.38699996 69 110 85
-0.18801168 -0.15771434 0.38699996 69 110 85
-0.18801168 -0.15943828 0.38699996 69 110 85
-0.18801168 -0.16030024 0.38699996 69 110 85
-0.18801168 -0.1611622 0.38699996 69 110 85
-0.18801168 -0.16288614 0.38699996 69 110 85
-0.1877456 -0.16356745 0.38799995 69 110 85
-0.1877456 -0.16442779 0.38799995 69 110 85
-0.1877456 -0.16528814 0.38799995 69 110 85
-0.1877456 -0.16700882 0.38799995 69 110 85
-0.18801168 -0.16805793 0.38699996 69 110 85
-0.18827775 -0.16911033 0.38599998 69 110 85
-0.18827775 -0.17083751 0.38599998 69 110 85
-0.18801168 -0.17150581 0.38699996 69 110 85
-0.18801168 -0.17236777 0.38699996 69 110 85
-0.18721351 -0.17263409 0.38999999 69 110 85
-0.18576214 -0.12216854 0.389 69 110 85
-0.18576214 -0.12560341 0.389 69 110 85
-0.18576214 -0.12732083 0.389 69 110 85
-0.18576214 -0.12817954 0.389 69 110 85
-0.18576214 -0.12903826 0.389 69 110 85
-0.18576214 -0.12989697 0.389 69 110 85
-0.18576214 -0.13161439 0.389 69 110 85
-0.18576214 -0.13247311 0.389 69 110 85
-0.18576214 -0.13333182 0.389 69 110 85
-0.18576214 -0.13504925 0.389 69 110 85
-0.18576214 -0.13590796 0.389 69 110 85
-0.18576214 -0.13676667 0.389 69 110 85
-0.18576214 -0.1376254 0.389 69 110 85
-0.18576214 -0.13934281 0.389 69 110 85
-0.18576214 -0.14020154 0.389 69 110 85
-0.18576214 -0.14106023 0.389 69 110 85
-0.18576214 -0.14191896 0.389 69 110 85
-0.18576214 -0.14363638 0.389 69 110 85
-0.18576214 -0.1444951 0.389 69 110 85
-0.18576214 -0.14535381 0.389 69 110 85
-0.18576214 -0.14707124 0.389 69 110 85
-0.18602493 -0.14808133 0.38799995 69 110 85
-0.18602493 -0.14894167 0.38799995 69 110 85
-0.18602493 -0.14980201 0.38799995 69 110 85
-0.18602493 -0.1515227 0.38799995 69 110 85
-0.18602493 -0.15238303 0.38799995 69 110 85
-0.18602493 -0.15324338 0.38799995 69 110 85
-0.18602493 -0.16098642 0.38799995 69 110 85
-0.18602493 -0.16270712 0.38799995 69 110 85
-0.18602493 -0.16356745 0.38799995 69 110 85
-0.18602493 -0.16442779 0.38799995 69 110 85
-0.18602493 -0.16528814 0.38799995 69 110 85
-0.18602493 -0.16700882 0.38799995 69 110 85
-0.18602493 -0.16786915 0.38799995 69 110 85
-0.18576214 -0.16853908 0.389 69 110 85
-0.18576214 -0.1702565 0.389 69 110 85
-0.18549934 -0.17091992 0.38999999 69 110 85
-0.18549934 -0.17177701 0.38999999 69 110 85
-0.18549934 -0.17263409 0.38999999 69 110 85
-0.18549934 -0.17434826 0.38999999 69 110 85
-0.18576214 -0.17540878 0.389 69 110 85
-0.18490341 -0.12732083 0.389 69 110 85
-0.18490341 -0.12817954 0.389 69 110 85
-0.18490341 -0.12903826 0.389 69 110 85
-0.18490341 -0.12989697 0.389 69 110 85
-0.18490341 -0.13161439 0.389 69 110 85
-0.18490341 -0.13247311 0.389 69 110 85
-0.18490341 -0.13333182 0.389 69 110 85
-0.18490341 -0.13504925 0.389 69 110 85
-0.18490341 -0.13590796 0.389 69 110 85
-0.18490341 -0.13676667 0.389 69 110 85
-0.18490341 -0.1376254 0.389 69 110 85
-0.18490341 -0.13934281 0.389 69 110 85
-0.18490341 -0.14020154 0.389 69 110 85
-0.18490341 -0.14106023 0.389 69 110 85
-0.18490341 -0.14191896 0.389 69 110 85
-0.18490341 -0.14363638 0.389 69 110 85
-0.18490341 -0.1444951 0.389 69 110 85
-0.18490341 -0.14535381 0.389 69 110 85
-0.18490341 -0.14707124 0.389 69 110 85
-0.18490341 -0.14792995 0.389 69 110 85
-0.1851646 -0.14894167 0.38799995 69 110 85
-0.1851646 -0.14980201 0.38799995 69 110 85
-0.1851646 -0.1515227 0.38799995 69 110 85
-0.1851646 -0.15238303 0.38799995 69 110 85
-0.1851646 -0.15324338 0.38799995 69 110 85
-0.1851646 -0.15496406 0.38799995 69 110 85
-0.1851646 -0.15582439 0.38799995 69 110 85
-0.18542579 -0.15685238 0.38699996 69 110 85
-0.18542579 -0.15771434 0.38699996 69 110 85
-0.18542579 -0.16030024 0.38699996 69 110 85
-0.18542579 -0.1611622 0.38699996 69 110 85
-0.18542579 -0.16288614 0.38699996 69 110 85
-0.18542579 -0.16374812 0.38699996 69 110 85
-0.1851646 -0.16442779 0.38799995 69 110 85
-0.1851646 -0.16528814 0.38799995 69 110 85
-0.1851646 -0.16700882 0.38799995 69 110 85
-0.1851646 -0.16786915 0.38799995 69 110 85
-0.1851646 -0.16872948 0.38799995 69 110 85
-0.1851646 -0.17045018 0.38799995 69 110 85
-0.1851646 -0.17131051 0.38799995 69 110 85
-0.1851646 -0.17217085 0.38799995 69 110 85
-0.18542579 -0.17322972 0.38699996 69 110 85
-0.18464226 -0.17434826 0.38999999 69 110 85
-0.18490341 -0.17540878 0.389 69 110 85
-0.18404472 -0.12474468 0.389 69 110 85
-0.18404472 -0.12560341 0.389 69 110 85
-0.18404472 -0.12732083 0.389 69 110 85
-0.18404472 -0.12817954 0.389 69 110 85
-0.18404472 -0.12903826 0.389 69 110 85
-0.18404472 -0.12989697 0.389 69 110 85
-0.18404472 -0.13161439 0.389 69 110 85
-0.18404472 -0.13247311 0.389 69 110 85
-0.18404472 -0.13333182 0.389 69 110 85
-0.18404472 -0.13504925 0.389 69 110 85
-0.18404472 -0.13590796 0.389 69 110 85
-0.18404472 -0.13676667 0.389 69 110 85
-0.18404472 -0.1376254 0.389 69 110 85
-0.18404472 -0.13934281 0.389 69 110 85
-0.18404472 -0.14020154 0.389 69 110 85
-0.18404472 -0.14106023 0.389 69 110 85
-0.18404472 -0.14191896 0.389 69 110 85
-0.18404472 -0.14363638 0.389 69 110 85
-0.18404472 -0.1444951 0.389 69 110 85
-0.18404472 -0.14707124 0.389 69 110 85
-0.18404472 -0.14792995 0.389 69 110 85
-0.18430427 -0.14894167 0.38799995 69 110 85
-0.18430427 -0.14980201 0.38799995 69 110 85
-0.18430427 -0.1515227 0.38799995 69 110 85
-0.18430427 -0.15238303 0.38799995 69 110 85
-0.18430427 -0.15324338 0.38799995 69 110 85
-0.18430427 -0.15496406 0.38799995 69 110 85
-0.18430427 -0.15582439 0.38799995 69 110 85
-0.18456382 -0.15685238 0.38699996 69 110 85
-0.18456382 -0.15771434 0.38699996 69 110 85
-0.18456382 -0.15943828 0.38699996 69 110 85
-0.18456382 -0.16030024 0.38699996 69 110 85
-0.18456382 -0.1611622 0.38699996 69 110 85
-0.18456382 -0.16288614 0.38699996 69 110 85
-0.18456382 -0.16374812 0.38699996 69 110 85
-0.18430427 -0.16442779 0.38799995 69 110 85
-0.18430427 -0.16528814 0.38799995 69 110 85
-0.18430427 -0.16700882 0.38799995 69 110 85
-0.18430427 -0.16786915 0.38799995 69 110 85
-0.18430427 -0.16872948 0.38799995 69 110 85
-0.18430427 -0.17045018 0.38799995 69 110 85
-0.18430427 -0.17131051 0.38799995 69 110 85
-0.18430427 -0.17217085 0.38799995 69 110 85
-0.18430427 -0.1730312 0.38799995 69 110 85
-0.18456382 -0.17495367 0.38699996 69 110 85
-0.18404472 -0.1762675 0.389 69 110 85
-0.1834439 -0.13259521 0.38799995 69 110 85
-0.1834439 -0.13345556 0.38799995 69 110 85
-0.1834439 -0.13517624 0.38799995 69 110 85
-0.18318599 -0.13590796 0.389 69 110 85
-0.18318599 -0.13676667 0.389 69 110 85
-0.18318599 -0.1376254 0.389 69 110 85
-0.18318599 -0.13934281 0.389 69 110 85
-0.18318599 -0.14020154 0.389 69 110 85
-0.18318599 -0.14106023 0.389 69 110 85
-0.18318599 -0.14191896 0.389 69 110 85
-0.18318599 -0.14363638 0.389 69 110 85
-0.18318599 -0.1444951 0.389 69 110 85
-0.18318599 -0.14535381 0.389 69 110 85
-0.18318599 -0.14707124 0.389 69 110 85
-0.18318599 -0.14792995 0.389 69 110 85
-0.1834439 -0.14894167 0.38799995 69 110 85
-0.1834439 -0.14980201 0.38799995 69 110 85
-0.1834439 -0.1515227 0.38799995 69 110 85
-0.1834439 -0.15238303 0.38799995 69 110 85
-0.1834439 -0.15324338 0.38799995 69 110 85
-0.1834439 -0.15496406 0.38799995 69 110 85
-0.1834439 -0.15582439 0.38799995 69 110 85
-0.18370184 -0.15685238 0.38699996 69 110 85
-0.18370184 -0.15771434 0.38699996 69 110 85
-0.18370184 -0.15943828 0.38699996 69 110 85
-0.18370184 -0.16030024 0.38699996 69 110 85
-0.18370184 -0.1611622 0.38699996 69 110 85
-0.18370184 -0.16288614 0.38699996 69 110 85
-0.18370184 -0.16374812 0.38699996 69 110 85
-0.1834439 -0.16442779 0.38799995 69 110 85
-0.1834439 -0.16528814 0.38799995 69 110 85
-0.1834439 -0.16700882 0.38799995 69 110 85
-0.1834439 -0.16786915 0.38799995 69 110 85
-0.1834439 -0.16872948 0.38799995 69 110 85
-0.1834439 -0.17045018 0.38799995 69 110 85
-0.1834439 -0.17131051 0.38799995 69 110 85
-0.18370184 -0.17495367 0.38699996 69 110 85
-0.18146858 -0.13676667 0.389 69 110 85
-0.18146858 -0.1376254 0.389 69 110 85
-0.18146858 -0.13934281 0.389 69 110 85
-0.18146858 -0.14020154 0.389 69 110 85
-0.18146858 -0.14106023 0.389 69 110 85
-0.18146858 -0.14191896 0.389 69 110 85
-0.18146858 -0.14363638 0.389 69 110 85
-0.18146858 -0.1444951 0.389 69 110 85
-0.18146858 -0.14535381 0.389 69 110 85
-0.18146858 -0.14707124 0.389 69 110 85
-0.18146858 -0.14792995 0.389 69 110 85
-0.18172324 -0.14894167 0.38799995 69 110 85
-0.18172324 -0.14980201 0.38799995 69 110 85
-0.18172324 -0.1515227 0.38799995 69 110 85
-0.18172324 -0.15238303 0.38799995 69 110 85
-0.18172324 -0.15324338 0.38799995 69 110 85
-0.18172324 -0.15496406 0.38799995 69 110 85
-0.18172324 -0.15582439 0.38799995 69 110 85
-0.18197793 -0.15685238 0.38699996 69 110 85
-0.18197793 -0.15771434 0.38699996 69 110 85
-0.18197793 -0.15943828 0.38699996 69 110 85
-0.18197793 -0.16030024 0.38699996 69 110 85
-0.18197793 -0.1611622 0.38699996 69 110 85
-0.18197793 -0.16288614 0.38699996 69 110 85
-0.18197793 -0.16374812 0.38699996 69 110 85
-0.18197793 -0.16461007 0.38699996 69 110 85
-0.18172324 -0.16528814 0.38799995 69 110 85
-0.18172324 -0.16700882 0.38799995 69 110 85
-0.18172324 -0.16786915 0.38799995 69 110 85
-0.18172324 -0.16872948 0.38799995 69 110 85
-0.18172324 -0.17045018 0.38799995 69 110 85
-0.18172324 -0.17131051 0.38799995 69 110 85
-0.18172324 -0.17217085 0.38799995 69 110 85
-0.18172324 -0.1730312 0.38799995 69 110 85
-0.18197793 -0.17495367 0.38699996 69 110 85
-0.18197793 -0.17581564 0.38699996 69 110 85
-0.18197793 -0.17667761 0.38699996 69 110 85
-0.18223259 -0.17947343 0.38599998 69 110 85
-0.1808629 -0.13947794 0.38799995 69 110 85
-0.18060985 -0.14020154 0.389 69 110 85
-0.1808629 -0.14119862 0.38799995 69 110 85
-0.18060985 -0.14191896 0.389 69 110 85
-0.18060985 -0.14363638 0.389 69 110 85
-0.18060985 -0.1444951 0.389 69 110 85
-0.18060985 -0.14535381 0.389 69 110 85
-0.1808629 -0.147221 0.38799995 69 110 85
-0.1808629 -0.14808133 0.38799995 69 110 85
-0.1808629 -0.14894167 0.38799995 69 110 85
-0.1808629 -0.14980201 0.38799995 69 110 85
-0.1808629 -0.1515227 0.38799995 69 110 85
-0.1808629 -0.15238303 0.38799995 69 110 85
-0.1808629 -0.15324338 0.38799995 69 110 85
-0.1808629 -0.15496406 0.38799995 69 110 85
-0.18111596 -0.15599041 0.38699996 69 110 85
-0.18111596 -0.15685238 0.38699996 69 110 85
-0.18111596 -0.15771434 0.38699996 69 110 85
-0.18111596 -0.15943828 0.38699996 69 110 85
-0.18111596 -0.16030024 0.38699996 69 110 85
-0.18111596 -0.1611622 0.38699996 69 110 85
-0.18111596 -0.16288614 0.38699996 69 110 85
-0.18111596 -0.16374812 0.38699996 69 110 85
-0.18111596 -0.16461007 0.38699996 69 110 85
-0.18111596 -0.16547203 0.38699996 69 110 85
-0.1808629 -0.16700882 0.38799995 69 110 85
-0.1808629 -0.16786915 0.38799995 69 110 85
-0.1808629 -0.16872948 0.38799995 69 110 85
-0.1808629 -0.17045018 0.38799995 69 110 85
-0.1808629 -0.17131051 0.38799995 69 110 85
-0.1808629 -0.17217085 0.38799995 69 110 85
-0.1808629 -0.1730312 0.38799995 69 110 85
-0.18111596 -0.17495367 0.38699996 69 110 85
-0.18111596 -0.17581564 0.38699996 69 110 85
-0.18111596 -0.17667761 0.38699996 69 110 85
-0.18136901 -0.17947343 0.38599998 69 110 85
-0.18136901 -0.18033703 0.38599998 69 110 85
-0.18136901 -0.18120062 0.38599998 69 110 85
-0.18111596 -0.18357334 0.38699996 69 110 85
-0.18111596 -0.18443531 0.38699996 69 110 85
-0.18111596 -0.18615922 0.38699996 69 110 85
-0.18111596 -0.1870212 0.38699996 69 110 85
-0.18111596 -0.18788317 0.38699996 69 110 85
-0.18000257 -0.14377964 0.38799995 69 110 85
-0.18000257 -0.14463997 0.38799995 69 110 85
-0.18000257 -0.14550032 0.38799995 69 110 85
-0.18000257 -0.147221 0.38799995 69 110 85
-0.18000257 -0.14808133 0.38799995 69 110 85
-0.18000257 -0.14894167 0.38799995 69 110 85
-0.18000257 -0.14980201 0.38799995 69 110 85
-0.18000257 -0.1515227 0.38799995 69 110 85
-0.18000257 -0.15238303 0.38799995 69 110 85
-0.18000257 -0.15324338 0.38799995 69 110 85
-0.18025398 -0.15512845 0.38699996 69 110 85
-0.18025398 -0.15599041 0.38699996 69 110 85
-0.18025398 -0.15685238 0.38699996 69 110 85
-0.18025398 -0.15771434 0.38699996 69 110 85
-0.18025398 -0.15943828 0.38699996 69 110 85
-0.18025398 -0.16030024 0.38699996 69 110 85
-0.18025398 -0.1611622 0.38699996 69 110 85
-0.18025398 -0.16288614 0.38699996 69 110 85
-0.18025398 -0.16374812 0.38699996 69 110 85
-0.18025398 -0.16461007 0.38699996 69 110 85
-0.18025398 -0.16547203 0.38699996 69 110 85
-0.18025398 -0.16719598 0.38699996 69 110 85
-0.18000257 -0.16786915 0.38799995 69 110 85
-0.18000257 -0.16872948 0.38799995 69 110 85
-0.18000257 -0.17045018 0.38799995 69 110 85
-0.18000257 -0.17131051 0.38799995 69 110 85
-0.18000257 -0.17217085 0.38799995 69 110 85
-0.18025398 -0.17322972 0.38699996 69 110 85
-0.18025398 -0.17495367 0.38699996 69 110 85
-0.18025398 -0.17581564 0.38699996 69 110 85
-0.18025398 -0.17667761 0.38699996 69 110 85
-0.18025398 -0.18615922 0.38699996 69 110 85
-0.18025398 -0.1870212 0.38699996 69 110 85
-0.18050539 -0.18810935 0.38599998 69 110 85
-0.18050539 -0.18897295 0.38599998 69 110 85
-0.18075684 -0.1909312 0.38499999 69 110 85
-0.17914221 -0.14463997 0.38799995 69 110 85
-0.17914221 -0.14550032 0.38799995 69 110 85
-0.17914221 -0.147221 0.38799995 69 110 85
-0.17914221 -0.14808133 0.38799995 69 110 85
-0.17914221 -0.14894167 0.38799995 69 110 85
-0.17914221 -0.14980201 0.38799995 69 110 85
-0.17914221 -0.1515227 0.38799995 69 110 85
-0.17939201 -0.15254255 0.38699996 69 110 85
-0.17939201 -0.1534045 0.38699996 69 110 85
-0.17939201 -0.15512845 0.38699996 69 110 85
-0.17939201 -0.15599041 0.38699996 69 110 85
-0.17939201 -0.15685238 0.38699996 69 110 85
-0.17939201 -0.15771434 0.38699996 69 110 85
-0.17939201 -0.15943828 0.38699996 69 110 85
-0.17939201 -0.16030024 0.38699996 69 110 85
-0.17939201 -0.1611622 0.38699996 69 110 85
-0.17939201 -0.16288614 0.38699996 69 110 85
-0.17939201 -0.16374812 0.38699996 69 110 85
-0.17939201 -0.16461007 0.38699996 69 110 85
-0.17939201 -0.16547203 0.38699996 69 110 85
-0.17939201 -0.16719598 0.38699996 69 110 85
-0.17939201 -0.16805793 0.38699996 69 110 85
-0.17914221 -0.16872948 0.38799995 69 110 85
-0.17914221 -0.17045018 0.38799995 69 110 85
-0.17914221 -0.17131051 0.38799995 69 110 85
-0.17939201 -0.17236777 0.38699996 69 110 85
-0.17939201 -0.17322972 0.38699996 69 110 85
-0.17939201 -0.17495367 0.38699996 69 110 85
-0.17939201 -0.17581564 0.38699996 69 110 85
-0.17939201 -0.17667761 0.38699996 69 110 85
-0.17939201 -0.17840153 0.38699996 69 110 85
-0.17939201 -0.18615922 0.38699996 69 110 85
-0.17939201 -0.1870212 0.38699996 69 110 85
-0.17964181 -0.18810935 0.38599998 69 110 85
-0.17989162 -0.18920076 0.38499999 69 110 85
-0.17964181 -0.19070014 0.38599998 69 110 85
-0.17964181 -0.19156373 0.38599998 69 110 85
-0.17742154 -0.147221 0.38799995 69 110 85
-0.17742154 -0.14808133 0.38799995 69 110 85
-0.17766809 -0.14909467 0.38699996 69 110 85
-0.17766809 -0.14995664 0.38699996 69 110 85
-0.17766809 -0.15168059 0.38699996 69 110 85
-0.17766809 -0.15254255 0.38699996 69 110 85
-0.17766809 -0.1534045 0.38699996 69 110 85
-0.17766809 -0.15512845 0.38699996 69 110 85
-0.17766809 -0.15599041 0.38699996 69 110 85
-0.17766809 -0.15685238 0.38699996 69 110 85
-0.17791462 -0.15788361 0.38599998 69 110 85
-0.17791462 -0.15961081 0.38599998 69 110 85
-0.17791462 -0.16047439 0.38599998 69 110 85
-0.17791462 -0.16133799 0.38599998 69 110 85
-0.17766809 -0.16288614 0.38699996 69 110 85
-0.17766809 -0.16374812 0.38699996 69 110 85
-0.17766809 -0.16461007 0.38699996 69 110 85
-0.17766809 -0.16547203 0.38699996 69 110 85
-0.17766809 -0.16719598 0.38699996 69 110 85
-0.17766809 -0.16805793 0.38699996 69 110 85
-0.17742154 -0.16872948 0.38799995 69 110 85
-0.17766809 -0.17064384 0.38699996 69 110 85
-0.17766809 -0.17150581 0.38699996 69 110 85
-0.17766809 -0.17236777 0.38699996 69 110 85
-0.17766809 -0.17322972 0.38699996 69 110 85
-0.17766809 -0.17495367 0.38699996 69 110 85
-0.17766809 -0.17581564 0.38699996 69 110 85
-0.17766809 -0.17667761 0.38699996 69 110 85
-0.17766809 -0.17840153 0.38699996 69 110 85
-0.17766809 -0.1792635 0.38699996 69 110 85
-0.17766809 -0.18012547 0.38699996 69 110 85
-0.17766809 -0.18098745 0.38699996 69 110 85
-0.17766809 -0.18271136 0.38699996 69 110 85
-0.17766809 -0.18357334 0.38699996 69 110 85
-0.17766809 -0.18443531 0.38699996 69 110 85
-0.17766809 -0.18615922 0.38699996 69 110 85
-0.17791462 -0.18724576 0.38599998 69 110 85
-0.17816117 -0.18833554 0.38499999 69 110 85
-0.17766809 -0.18874514 0.38699996 69 110 85
-0.17766809 -0.19046906 0.38699996 69 110 85
-0.17766809 -0.19133103 0.38699996 69 110 85
-0.17680612 -0.14306092 0.38699996 69 110 85
-0.17680612 -0.14392288 0.38699996 69 110 85
-0.17680612 -0.14478484 0.38699996 69 110 85
-0.17680612 -0.14564681 0.38699996 69 110 85
-0.17680612 -0.14737076 0.38699996 69 110 85
-0.17680612 -0.14823271 0.38699996 69 110 85
-0.17680612 -0.14909467 0.38699996 69 110 85
-0.17680612 -0.14995664 0.38699996 69 110 85
-0.17680612 -0.15168059 0.38699996 69 110 85
-0.17680612 -0.15254255 0.38699996 69 110 85
-0.17705104 -0.15356565 0.38599998 69 110 85
-0.17705104 -0.15529284 0.38599998 69 110 85
-0.17705104 -0.15615642 0.38599998 69 110 85
-0.17705104 -0.15702003 0.38599998 69 110 85
-0.17705104 -0.15788361 0.38599998 69 110 85
-0.17705104 -0.15961081 0.38599998 69 110 85
-0.17705104 -0.16047439 0.38599998 69 110 85
-0.17705104 -0.16133799 0.38599998 69 110 85
-0.17705104 -0.16306517 0.38599998 69 110 85
-0.17705104 -0.16392876 0.38599998 69 110 85
-0.17680612 -0.16461007 0.38699996 69 110 85
-0.17680612 -0.16547203 0.38699996 69 110 85
-0.17680612 -0.16719598 0.38699996 69 110 85
-0.17680612 -0.16805793 0.38699996 69 110 85
-0.17680612 -0.16891991 0.38699996 69 110 85
-0.17680612 -0.17064384 0.38699996 69 110 85
-0.17680612 -0.17150581 0.38699996 69 110 85
-0.17680612 -0.17236777 0.38699996 69 110 85
-0.17680612 -0.17322972 0.38699996 69 110 85
-0.17680612 -0.17495367 0.38699996 69 110 85
-0.17680612 -0.17581564 0.38699996 69 110 85
-0.17680612 -0.17667761 0.38699996 69 110 85
-0.17680612 -0.17840153 0.38699996 69 110 85
-0.17680612 -0.1792635 0.38699996 69 110 85
-0.17680612 -0.18012547 0.38699996 69 110 85
-0.17680612 -0.18098745 0.38699996 69 110 85
-0.17680612 -0.18271136 0.38699996 69 110 85
-0.17680612 -0.18357334 0.38699996 69 110 85
-0.17680612 -0.18443531 0.38699996 69 110 85
-0.17680612 -0.18615922 0.38699996 69 110 85
-0.17705104 -0.18724576 0.38599998 69 110 85
-0.17680612 -0.18788317 0.38699996 69 110 85
-0.17680612 -0.18874514 0.38699996 69 110 85
-0.17680612 -0.19046906 0.38699996 69 110 85
-0.17680612 -0.19133103 0.38699996 69 110 85
-0.17594415 -0.14564681 0.38699996 69 110 85
-0.17594415 -0.14737076 0.38699996 69 110 85
-0.17594415 -0.14823271 0.38699996 69 110 85
-0.17594415 -0.14909467 0.38699996 69 110 85
-0.17618746 -0.15011129 0.38599998 69 110 85
-0.17618746 -0.15356565 0.38599998 69 110 85
-0.17618746 -0.15529284 0.38599998 69 110 85
-0.17618746 -0.15615642 0.38599998 69 110 85
-0.17618746 -0.15702003 0.38599998 69 110 85
-0.17618746 -0.15788361 0.38599998 69 110 85
-0.17618746 -0.15961081 0.38599998 69 110 85
-0.17618746 -0.16047439 0.38599998 69 110 85
-0.17618746 -0.16133799 0.38599998 69 110 85
-0.17618746 -0.16306517 0.38599998 69 110 85
-0.17618746 -0.16392876 0.38599998 69 110 85
-0.17618746 -0.16479236 0.38599998 69 110 85
-0.17618746 -0.16565594 0.38599998 69 110 85
-0.17618746 -0.16738313 0.38599998 69 110 85
-0.17594415 -0.16805793 0.38699996 69 110 85
-0.17594415 -0.16891991 0.38699996 69 110 85
-0.17594415 -0.17064384 0.38699996 69 110 85
-0.17594415 -0.17150581 0.38699996 69 110 85
-0.17594415 -0.17236777 0.38699996 69 110 85
-0.17594415 -0.17495367 0.38699996 69 110 85
-0.17594415 -0.17581564 0.38699996 69 110 85
-0.17594415 -0.17667761 0.38699996 69 110 85
-0.17594415 -0.17840153 0.38699996 69 110 85
-0.17594415 -0.1792635 0.38699996 69 110 85
-0.17594415 -0.18012547 0.38699996 69 110 85
-0.17594415 -0.18098745 0.38699996 69 110 85
-0.17594415 -0.18271136 0.38699996 69 110 85
-0.17594415 -0.18357334 0.38699996 69 110 85
-0.17594415 -0.18443531 0.38699996 69 110 85
-0.17594415 -0.18615922 0.38699996 69 110 85
-0.17594415 -0.1870212 0.38699996 69 110 85
-0.17594415 -0.18788317 0.38699996 69 110 85
-0.17594415 -0.18874514 0.38699996 69 110 85
-0.17594415 -0.19046906 0.38699996 69 110 85
-0.17556551 -0.15199636 0.38499999 69 110 85
-0.17556551 -0.15286157 0.38499999 69 110 85
-0.17556551 -0.15632245 0.38499999 69 110 85
-0.17556551 -0.15718767 0.38499999 69 110 85
-0.17556551 -0.15805289 0.38499999 69 110 85
-0.17556551 -0.15978333 0.38499999 69 110 85
-0.17556551 -0.16064855 0.38499999 69 110 85
-0.17556551 -0.16151378 0.38499999 69 110 85
-0.17446026 -0.16306517 0.38599998 69 110 85
-0.17446026 -0.16392876 0.38599998 69 110 85
-0.17446026 -0.16479236 0.38599998 69 110 85
-0.17446026 -0.16565594 0.38599998 69 110 85
-0.17446026 -0.16738313 0.38599998 69 110 85
-0.17446026 -0.16824672 0.38599998 69 110 85
-0.17446026 -0.16911033 0.38599998 69 110 85
-0.17446026 -0.17083751 0.38599998 69 110 85
-0.1742202 -0.17150581 0.38699996 69 110 85
-0.1742202 -0.17236777 0.38699996 69 110 85
-0.1742202 -0.17322972 0.38699996 69 110 85
-0.1742202 -0.17495367 0.38699996 69 110 85
-0.1742202 -0.17581564 0.38699996 69 110 85
-0.1742202 -0.17667761 0.38699996 69 110 85
-0.1742202 -0.17840153 0.38699996 69 110 85
-0.1742202 -0.1792635 0.38699996 69 110 85
-0.1742202 -0.18012547 0.38699996 69 110 85
-0.1742202 -0.18098745 0.38699996 69 110 85
-0.1742202 -0.18271136 0.38699996 69 110 85
-0.1742202 -0.18357334 0.38699996 69 110 85
-0.1742202 -0.18443531 0.38699996 69 110 85
-0.1742202 -0.18615922 0.38699996 69 110 85
-0.1742202 -0.1870212 0.38699996 69 110 85
-0.1742202 -0.18788317 0.38699996 69 110 85
-0.1742202 -0.18874514 0.38699996 69 110 85
-0.17383507 -0.16064855 0.38499999 69 110 85
-0.17383507 -0.16151378 0.38499999 69 110 85
-0.17383507 -0.1632442 0.38499999 69 110 85
-0.17383507 -0.16410942 0.38499999 69 110 85
-0.17359665 -0.16479236 0.38599998 69 110 85
-0.17359665 -0.16565594 0.38599998 69 110 85
-0.17359665 -0.16738313 0.38599998 69 110 85
-0.17359665 -0.16824672 0.38599998 69 110 85
-0.17359665 -0.16911033 0.38599998 69 110 85
-0.17359665 -0.17083751 0.38599998 69 110 85
-0.17335826 -0.17150581 0.38699996 69 110 85
-0.17335826 -0.17236777 0.38699996 69 110 85
-0.17335826 -0.17322972 0.38699996 69 110 85
-0.17335826 -0.17495367 0.38699996 69 110 85
-0.17335826 -0.17581564 0.38699996 69 110 85
-0.17335826 -0.17667761 0.38699996 69 110 85
-0.17335826 -0.17840153 0.38699996 69 110 85
-0.17335826 -0.1792635 0.38699996 69 110 85
-0.17335826 -0.18012547 0.38699996 69 110 85
-0.17335826 -0.18098745 0.38699996 69 110 85
-0.17335826 -0.18271136 0.38699996 69 110 85
-0.17335826 -0.18357334 0.38699996 69 110 85
-0.17335826 -0.18443531 0.38699996 69 110 85
-0.17335826 -0.18615922 0.38699996 69 110 85
-0.17335826 -0.1870212 0.38699996 69 110 85
-0.17335826 -0.18788317 0.38699996 69 110 85
-0.17320666 -0.16082269 0.38399994 69 110 85
-0.17296985 -0.16151378 0.38499999 69 110 85
-0.17296985 -0.1632442 0.38499999 69 110 85
-0.17296985 -0.16410942 0.38499999 69 110 85
-0.17296985 -0.16497464 0.38499999 69 110 85
-0.17296985 -0.16583985 0.38499999 69 110 85
-0.17273307 -0.16738313 0.38599998 69 110 85
-0.17273307 -0.16824672 0.38599998 69 110 85
-0.17273307 -0.16911033 0.38599998 69 110 85
-0.17273307 -0.17083751 0.38599998 69 110 85
-0.17273307 -0.1717011 0.38599998 69 110 85
-0.17249629 -0.17236777 0.38699996 69 110 85
-0.17249629 -0.17322972 0.38699996 69 110 85
-0.17249629 -0.17495367 0.38699996 69 110 85
-0.17249629 -0.17581564 0.38699996 69 110 85
-0.17249629 -0.17667761 0.38699996 69 110 85
-0.17249629 -0.17840153 0.38699996 69 110 85
-0.17249629 -0.1792635 0.38699996 69 110 85
-0.17249629 -0.18012547 0.38699996 69 110 85
-0.17249629 -0.18098745 0.38699996 69 110 85
-0.17249629 -0.18271136 0.38699996 69 110 85
-0.17249629 -0.18357334 0.38699996 69 110 85
-0.17249629 -0.18443531 0.38699996 69 110 85
-0.17249629 -0.18615922 0.38699996 69 110 85
-0.17249629 -0.1870212 0.38699996 69 110 85
-0.17210463 -0.16410942 0.38499999 69 110 85
-0.17210463 -0.16497464 0.38499999 69 110 85
-0.17210463 -0.16583985 0.38499999 69 110 85
-0.17210463 -0.16757029 0.38499999 69 110 85
-0.17210463 -0.16843551 0.38499999 69 110 85
-0.17186949 -0.16911033 0.38599998 69 110 85
-0.17186949 -0.17083751 0.38599998 69 110 85
-0.17186949 -0.1717011 0.38599998 69 110 85
-0.17186949 -0.17256469 0.38599998 69 110 85
-0.17163432 -0.18012547 0.38699996 69 110 85
-0.17163432 -0.18098745 0.38699996 69 110 85
-0.17163432 -0.18271136 0.38699996 69 110 85
-0.17163432 -0.18357334 0.38699996 69 110 85
0 0 0 1 0 0 0 1 0 0 0 1 0 0 0 0 0 852 1 0 0
