ply
format ascii 1.0
comment PCL generated
element vertex 835
property float x
property float y
property float z
property uchar red
property uchar green
property uchar blue
element camera 1
property float view_px
property float view_py
property float view_pz
property float x_axisx
property float x_axisy
property float x_axisz
property float y_axisx
property float y_axisy
property float y_axisz
property float z_axisx
property float z_axisy
property float z_axisz
property float focal
property float scalex
property float scaley
property float centerx
property float centery
property int viewportx
property int viewporty
property float k1
property float k2
end_header
0.054598294 -0.22250135 -0.65768671 37 43 41
0.055643003 -0.22273065 -0.65759075 39 42 43
0.051195133 -0.22070114 -0.65703303 90 89 96
0.053976819 -0.22131169 -0.65677744 36 42 41
0.055792514 -0.22134435 -0.65662384 34 40 40
0.057878774 -0.22180226 -0.65643215 21 29 30
0.051561289 -0.21822041 -0.65709126 144 145 151
0.054284833 -0.21826938 -0.65686083 41 44 47
0.055849526 -0.21861282 -0.65671706 36 39 40
0.058341637 -0.21970862 -0.65646845 35 38 39
0.052314289 -0.21728806 -0.65706152 133 132 143
0.0055916058 -0.084034473 -0.61756796 130 133 134
0.018084276 -0.082837217 -0.61756593 87 68 55
0.028030923 -0.084131196 -0.6176883 87 61 50
0.039413191 -0.083691388 -0.61775231 77 53 41
0.063056991 -0.087981768 -0.6166169 76 51 42
0.065866083 -0.08974804 -0.61732179 74 54 44
0.034715343 -0.085337862 -0.61507535 81 57 45
0.056368634 -0.085367374 -0.61626822 77 53 40
0.058751669 -0.085829459 -0.61554945 78 54 42
0.062200684 -0.086647451 -0.61573249 74 49 40
0.0053643044 -0.084721915 -0.61555403 127 130 131
0.014435984 -0.082788773 -0.61586571 87 68 58
0.019415133 -0.083572268 -0.61692572 88 67 54
0.020974122 -0.083405554 -0.61680079 90 69 56
0.023377176 -0.083867043 -0.61608028 93 69 57
0.025795341 -0.084397808 -0.6158582 91 67 55
0.029925393 -0.084416762 -0.6165148 84 58 45
0.031329907 -0.084594801 -0.61538631 84 59 45
0.032780807 -0.084913254 -0.61525303 83 59 47
0.036710158 -0.083993964 -0.61696434 76 52 40
0.041270252 -0.083931983 -0.61624885 77 53 41
0.044311494 -0.08412987 -0.61632109 76 53 41
0.045838073 -0.083893403 -0.61569929 78 54 42
0.049078573 -0.08376728 -0.61693788 75 51 38
0.050942056 -0.084054358 -0.61576694 74 50 38
0.054154839 -0.083857849 -0.61650831 76 51 38
0.055916287 -0.083341129 -0.61738318 79 53 40
0.057863466 -0.083768517 -0.61720431 80 54 43
0.0085347407 -0.082001574 -0.61638951 42 38 45
0.010573238 -0.081940934 -0.61622053 84 69 65
0.012987454 -0.082470834 -0.61599874 89 71 62
0.051453896 -0.082243077 -0.6167931 73 49 37
0.0031350811 -0.13619539 -0.61489803 27 30 33
0.0016317497 -0.13338974 -0.61311668 28 31 34
0.0049195653 -0.086222589 -0.61252505 101 104 107
0.0051384107 -0.085403033 -0.61354023 115 118 121
0.035626736 -0.085407667 -0.61399209 81 57 45
0.060161117 -0.086077847 -0.61492008 78 53 44
0.013678758 -0.083232991 -0.61290091 86 68 59
0.016825065 -0.083179571 -0.61464685 84 64 54
0.018271223 -0.083496988 -0.61451405 84 64 51
0.021612555 -0.084096804 -0.61320776 91 70 57
0.026721312 -0.08446914 -0.61477363 90 66 54
0.028585214 -0.084680386 -0.61310333 88 62 49
0.036748875 -0.084509239 -0.61292595 79 55 43
0.039465792 -0.084281497 -0.61421216 77 53 41
0.040883668 -0.084529243 -0.61358213 80 56 44
0.045031812 -0.084548846 -0.61423725 76 55 42
0.048592933 -0.08425089 -0.61344677 78 54 41
0.0088740364 -0.082178406 -0.61334223 32 31 38
0.0023763443 -0.13389584 -0.6100235 28 31 34
0.0025888402 -0.13293467 -0.61004013 24 27 30
0.0031227721 -0.1307499 -0.6110779 21 24 25
0.063207529 -0.088287711 -0.61056828 73 53 43
0.031418029 -0.085148267 -0.61167711 85 61 48
0.034284994 -0.085733563 -0.61108059 84 60 48
0.03957865 -0.085001774 -0.61166644 83 59 47
0.040957529 -0.085175842 -0.61054027 83 58 49
0.044158168 -0.085057586 -0.61178195 77 56 43
0.045494977 -0.085160621 -0.61015975 78 57 44
0.054262422 -0.085309893 -0.61142635 79 55 41
0.056672685 -0.085838921 -0.61120498 79 55 43
0.058600899 -0.086262137 -0.61102784 77 52 41
0.061591577 -0.08704216 -0.61175287 77 52 43
0.0073609017 -0.084094524 -0.61139226 26 28 36
0.0086372504 -0.082863778 -0.6113292 30 29 36
0.017016489 -0.083830357 -0.61159503 83 63 53
0.018455535 -0.084146209 -0.61146283 86 64 54
0.020343151 -0.084425285 -0.61029005 91 66 57
0.023020931 -0.084272355 -0.61207902 93 69 57
0.025883295 -0.084833831 -0.61131644 91 67 55
0.038616125 -0.084790505 -0.61175489 81 57 45
0.041783303 -0.084599786 -0.61249989 80 56 44
0.045853626 -0.084478706 -0.61216241 77 56 43
0.048814945 -0.08455883 -0.61140877 77 55 42
0.05088805 -0.084569253 -0.61173636 77 53 41
0.052816264 -0.084992476 -0.61155921 78 52 39
0.0098212594 -0.082251079 -0.61225593 63 55 54
0.010780623 -0.082461648 -0.61216784 83 72 63
0.0069527649 -0.13590814 -0.60956693 68 56 56
0.003436985 -0.13340303 -0.60894799 23 26 27
0.0056302324 -0.13397738 -0.60840845 25 23 24
0.0039634327 -0.13078399 -0.6079936 21 24 25
0.061083291 -0.08757095 -0.60876411 72 52 42
0.062791981 -0.088957131 -0.60857087 74 54 44
0.0070145028 -0.085105382 -0.60837257 25 27 33
0.025054049 -0.085188806 -0.60785872 90 66 54
0.029175701 -0.085356124 -0.60951489 88 62 49
0.030564323 -0.085527346 -0.60838795 85 61 47
0.035670102 -0.085905671 -0.609954 85 61 49
0.03898612 -0.086545564 -0.60898304 89 64 54
0.043735489 -0.085592702 -0.60878575 81 60 47
0.047265794 -0.085295461 -0.60799783 79 58 45
0.048887767 -0.085272811 -0.60886657 81 60 46
0.051391639 -0.085318476 -0.60865474 83 59 46
0.053832732 -0.085916907 -0.60893035 83 59 45
0.056188457 -0.086371332 -0.60821408 80 56 44
0.0088736406 -0.08357624 -0.60877335 46 43 45
0.011954849 -0.083318159 -0.60902596 84 69 60
0.013864094 -0.083737209 -0.6088506 86 67 57
0.016727962 -0.0843658 -0.6085875 84 64 54
0.018159896 -0.084680095 -0.60845596 86 64 54
0.021746349 -0.084598035 -0.60916185 89 65 53
0.023180654 -0.084912851 -0.60903013 88 64 52
0.027260134 -0.084935673 -0.60969085 92 66 53
0.04859101 -0.084829025 -0.60991162 79 58 43
0.0069604586 -0.13356332 -0.60663801 60 49 47
0.0091427211 -0.13409775 -0.60593343 97 81 78
0.006565263 -0.13065736 -0.60610604 38 31 31
0.0077610947 -0.13118076 -0.60565209 75 64 59
0.0039924714 -0.1288289 -0.60672241 19 22 23
0.006174814 -0.12933084 -0.60585171 22 21 21
0.0042356816 -0.12606861 -0.60613167 48 50 51
0.0050048688 -0.12535991 -0.60508829 93 97 92
0.0042657317 -0.12419818 -0.60519207 91 92 88
0.061533306 -0.088300101 -0.60568762 72 52 42
0.0067766299 -0.085625336 -0.60536134 27 29 35
0.013381152 -0.085219517 -0.60582542 88 70 61
0.016230796 -0.085844979 -0.60556364 83 64 54
0.018620528 -0.08643961 -0.60584378 83 62 52
0.021124966 -0.085677803 -0.60582811 84 60 49
0.02282651 -0.085293673 -0.60502952 85 61 49
0.026444603 -0.085358784 -0.60673165 90 66 53
0.029257607 -0.085840978 -0.605474 88 63 50
0.031948205 -0.085697517 -0.60726148 85 61 49
0.03433476 -0.086221337 -0.60704231 85 61 49
0.035766695 -0.086535633 -0.60691071 85 61 49
0.038589042 -0.087066062 -0.60598522 87 62 52
0.040645882 -0.087103486 -0.6064806 86 61 52
0.043638188 -0.087302826 -0.60655683 81 59 51
0.045984317 -0.085829124 -0.60658008 80 60 48
0.049102668 -0.085571706 -0.60682952 84 63 50
0.051015072 -0.085991457 -0.60665381 84 60 47
0.053405583 -0.086516149 -0.60643423 81 57 43
0.056381226 -0.086665377 -0.606179 78 55 43
0.058492802 -0.086751863 -0.60700268 72 52 42
0.0085273422 -0.084653072 -0.60625339 31 31 31
0.01148139 -0.084802538 -0.60599995 86 69 62
0.020038385 -0.084955513 -0.60728419 88 63 54
0.0099680908 -0.13444526 -0.60434538 94 78 75
0.01149891 -0.13322745 -0.6032564 91 77 73
0.0091530392 -0.1305293 -0.60421968 81 68 62
0.010822239 -0.13141587 -0.60337824 89 76 71
0.0072222827 -0.12884511 -0.60477698 63 51 51
0.0081610475 -0.1288361 -0.60369432 73 59 53
0.010531799 -0.12935646 -0.60347652 83 67 60
0.0067947572 -0.12614748 -0.60440761 65 63 61
0.0082123969 -0.12635319 -0.60377908 69 59 55
0.010568481 -0.12665901 -0.60256612 75 60 50
0.0061530382 -0.12429982 -0.60352367 78 78 73
0.0080433823 -0.12461052 -0.60285169 71 66 62
0.0047842641 -0.12150729 -0.6037389 87 88 84
0.0056233071 -0.12208699 -0.60314548 83 84 80
0.0047800769 -0.11692106 -0.60340172 86 86 86
0.038710292 -0.087780505 -0.60360634 82 60 51
0.041224275 -0.087899335 -0.60389304 82 60 52
0.043705139 -0.087944105 -0.60368311 83 61 53
0.061227694 -0.088479772 -0.60369855 74 54 44
0.0065493216 -0.086282857 -0.60334855 25 28 31
0.0077041518 -0.085541822 -0.60327816 22 25 28
0.011238106 -0.085464865 -0.60398829 82 68 57
0.013131546 -0.085880451 -0.60381436 85 70 60
0.015971705 -0.086503841 -0.60355353 81 66 54
0.021598751 -0.085746571 -0.60310811 81 57 45
0.024726272 -0.085710652 -0.604855 90 66 54
0.026089154 -0.085804448 -0.60323095 91 67 54
0.028435834 -0.086251065 -0.60251582 88 62 49
0.031086206 -0.086039476 -0.60380703 86 66 53
0.033934269 -0.086664595 -0.60354543 85 63 52
0.036335588 -0.087259278 -0.6038245 85 62 52
0.046978988 -0.086662024 -0.60345417 80 60 50
0.048776835 -0.086546108 -0.60401022 80 59 49
0.052027144 -0.086898297 -0.6040259 78 56 46
0.053412791 -0.087138139 -0.60339886 78 56 46
0.056569614 -0.086956792 -0.60414439 77 56 43
0.057999175 -0.087270565 -0.60401309 73 53 43
0.0088713048 -0.084945373 -0.60420573 28 27 27
0.014125722 -0.13269867 -0.60104644 84 68 65
0.015070863 -0.13290612 -0.60095966 82 68 64
0.012095111 -0.13097879 -0.60228288 84 69 63
0.013837837 -0.13090575 -0.60080028 79 63 58
0.012129069 -0.1282824 -0.60137266 79 60 54
0.014008081 -0.12858813 -0.60070175 72 56 50
0.015518403 -0.12831651 -0.60008258 72 56 51
0.011603171 -0.12617861 -0.60149235 79 63 54
0.013001738 -0.12627485 -0.60036719 81 65 57
0.0089421282 -0.12327337 -0.60182005 73 65 58
0.01174264 -0.12301996 -0.60058975 76 62 54
0.0058261016 -0.12093191 -0.60216576 84 84 80
0.0082761971 -0.12134798 -0.60134256 76 66 61
0.0057651806 -0.11873026 -0.6012457 84 84 80
0.0083225286 -0.11809947 -0.60004944 73 66 60
0.0049784342 -0.11557821 -0.60142487 84 84 84
0.0060915952 -0.11635381 -0.6006341 77 77 77
0.0085315183 -0.11715415 -0.60006577 78 74 75
0.035951968 -0.087763891 -0.60082614 84 61 51
0.038787391 -0.088386238 -0.60056567 81 59 50
0.041967418 -0.088360168 -0.60230786 83 61 53
0.043284729 -0.088446453 -0.60068786 82 62 54
0.046445161 -0.088345155 -0.60193235 82 62 54
0.04830233 -0.088685997 -0.60126209 78 58 50
0.05135604 -0.088358417 -0.60101736 78 57 48
0.054094907 -0.088605799 -0.60061115 76 56 47
0.057033494 -0.087675676 -0.60106713 74 54 44
0.058930099 -0.088091969 -0.6008929 73 55 45
0.0608267 -0.088508248 -0.60071874 72 54 45
0.0068988982 -0.086564742 -0.60130072 23 26 28
0.0085210307 -0.085928783 -0.60118735 20 20 20
0.01115985 -0.086224698 -0.60070407 73 59 48
0.013335246 -0.086490676 -0.60076284 81 66 56
0.016462198 -0.087000169 -0.60098404 81 63 52
0.01922581 -0.086934313 -0.60125637 84 62 52
0.021090493 -0.087248988 -0.6004191 85 61 49
0.023436304 -0.08594206 -0.60144049 84 60 48
0.025777627 -0.086386673 -0.60072583 90 66 52
0.029382553 -0.086458862 -0.60242885 86 62 48
0.030728836 -0.086549014 -0.60080624 85 65 52
0.033535443 -0.087096587 -0.60004884 84 63 51
0.051133301 -0.08737848 -0.60157335 78 56 46
0.055655748 -0.08743757 -0.60169351 74 54 44
0.032557089 -0.13850981 -0.59828579 23 23 27
0.027271165 -0.13514386 -0.59784639 81 75 77
0.015991708 -0.1328882 -0.59987873 80 66 62
0.019488025 -0.13255356 -0.59909505 77 66 65
0.020886304 -0.13275127 -0.59846848 73 68 66
0.023241252 -0.13326815 -0.59825212 92 90 93
0.026329186 -0.13493711 -0.59793293 79 73 75
0.015833938 -0.1313643 -0.59994668 74 60 55
0.018522955 -0.13164455 -0.59904134 75 61 55
0.020624306 -0.13170257 -0.59852809 77 67 61
0.016637279 -0.12825547 -0.59932137 71 56 51
0.019255128 -0.12887119 -0.5984937 71 57 51
0.020932967 -0.12931587 -0.59791839 73 60 54
0.013662438 -0.12521861 -0.59934545 82 63 57
0.016174585 -0.12636471 -0.59909332 71 56 51
0.019284405 -0.12624417 -0.59783238 71 60 52
0.020016164 -0.1273943 -0.59772962 71 60 53
0.013609428 -0.12322462 -0.5994215 77 61 54
0.016323105 -0.12328532 -0.59818727 76 60 56
0.017612247 -0.12488764 -0.59802151 71 57 49
0.0093175154 -0.12030022 -0.59988689 83 71 65
0.011847128 -0.12151623 -0.59963077 81 65 61
0.013644779 -0.12148476 -0.59867764 78 62 59
0.0092645064 -0.11830622 -0.59996289 97 90 84
0.011515275 -0.11827197 -0.59877098 98 91 87
0.013577017 -0.11846078 -0.59808898 116 112 110
0.0068475492 -0.11559825 -0.5992589 55 54 54
0.0092901951 -0.11652982 -0.59935504 105 101 102
0.011160366 -0.11680969 -0.59851855 95 90 88
0.013879681 -0.11694664 -0.59761584 86 84 82
0.0066091763 -0.11327198 -0.59911144 32 32 34
0.0091327615 -0.11392902 -0.59812278 71 68 65
0.010540988 -0.11423811 -0.59799337 75 70 67
0.012888032 -0.11475326 -0.59777778 84 73 68
0.0059681484 -0.11191728 -0.59846073 21 23 24
0.0062027024 -0.10914935 -0.59753621 16 19 20
0.048082437 -0.090152591 -0.59771329 82 63 57
0.055274144 -0.090015881 -0.59912264 76 57 53
0.0063555385 -0.088547938 -0.59876478 21 24 24
0.011453898 -0.087619483 -0.59786791 79 65 54
0.014186277 -0.087938882 -0.59796166 82 66 58
0.016373074 -0.087858215 -0.59845036 86 67 58
0.019427961 -0.087684423 -0.59920418 82 61 49
0.020806042 -0.087843344 -0.59807861 84 60 48
0.024318997 -0.087697491 -0.59829092 83 58 46
0.02570842 -0.087931506 -0.59766376 81 60 45
0.03415985 -0.087949358 -0.59795749 84 63 55
0.036510848 -0.088465378 -0.59774154 83 63 55
0.037982672 -0.088926986 -0.59860551 81 60 55
0.042027473 -0.088960499 -0.59926873 83 62 54
0.043372542 -0.089118823 -0.59814596 83 63 55
0.046153337 -0.089440897 -0.59870422 81 64 55
0.047975905 -0.089408502 -0.59975731 81 62 56
0.051347502 -0.089583665 -0.59896576 79 62 55
0.056166098 -0.088222638 -0.59911203 75 55 45
0.058528949 -0.088741258 -0.59889501 74 56 46
0.060891796 -0.089259878 -0.59867799 75 56 46
0.063357927 -0.089931414 -0.59945089 82 62 52
0.0072460175 -0.086842775 -0.5992533 21 24 25
0.0081735682 -0.086899489 -0.59816921 19 19 19
0.011135339 -0.086988918 -0.59858674 78 65 54
0.013087213 -0.087137006 -0.5987522 84 69 59
0.029017942 -0.086913131 -0.59909588 82 62 48
0.042866822 -0.1405493 -0.59634262 153 153 147
0.0286153 -0.13510881 -0.59622854 81 77 81
0.033838645 -0.13647534 -0.59674501 152 149 146
0.036219962 -0.13710803 -0.59702432 153 150 147
0.037572287 -0.13718481 -0.59590387 155 152 149
0.024615355 -0.13335137 -0.59712958 101 95 99
0.026865041 -0.13344307 -0.59660268 84 76 77
0.028331762 -0.1339487 -0.59579188 80 76 79
0.02385476 -0.13136062 -0.59706414 83 73 69
0.02611864 -0.13039267 -0.59560335 82 67 61
0.021758523 -0.12806059 -0.59655523 72 61 54
0.024076773 -0.12841146 -0.59559488 74 60 54
0.025369383 -0.12913533 -0.5952093 79 63 58
0.021227535 -0.12591664 -0.59642577 70 59 51
0.017062917 -0.1225846 -0.59714615 76 60 55
0.01882867 -0.12341523 -0.596717 75 61 55
0.020959439 -0.12389388 -0.59576774 76 65 57
0.016801795 -0.12153943 -0.59720552 83 67 63
0.018181879 -0.12164059 -0.59608191 90 76 70
0.020056352 -0.12205201 -0.59590971 90 76 72
0.01487133 -0.11914 -0.59745377 128 122 124
0.016261945 -0.11878666 -0.5973497 124 125 126
0.018383298 -0.11888443 -0.59596306 121 114 114
0.01602813 -0.11656562 -0.5964449 107 110 110
0.018013319 -0.11615101 -0.59528881 117 121 123
0.0093278354 -0.11279386 -0.59714293 71 62 57
0.010733692 -0.11310244 -0.59701383 81 74 68
0.014128208 -0.11394877 -0.5963636 86 82 79
0.015500179 -0.11346625 -0.59559631 86 85 86
0.0067240624 -0.11123617 -0.59741753 23 23 23
0.0085985372 -0.11164759 -0.59724534 58 51 46
0.011214214 -0.11131519 -0.59569865 76 69 63
0.013264831 -0.11248335 -0.59581923 84 80 73
0.0069569158 -0.10847342 -0.59649295 21 20 19
0.0087552154 -0.10913514 -0.59598345 58 51 46
0.011016579 -0.10914482 -0.59537476 68 62 57
0.0062396294 -0.10637548 -0.59587538 15 17 16
0.0079157986 -0.10686175 -0.59546608 40 36 34
0.0062889177 -0.10388368 -0.59570962 14 17 16
0.0060009323 -0.09317749 -0.59511387 15 18 19
0.0067470623 -0.09063793 -0.59564447 18 19 19
0.010798585 -0.090130493 -0.59582448 67 48 39
0.015209164 -0.090115711 -0.59545457 82 54 51
0.044901349 -0.090168446 -0.59597158 75 67 64
0.046309575 -0.090477541 -0.59584224 78 73 71
0.04880143 -0.090598993 -0.59613073 75 64 62
0.051522058 -0.090440266 -0.59640998 80 65 63
0.054325491 -0.090396464 -0.59617615 80 65 66
0.056206286 -0.090809278 -0.59600335 83 64 66
0.059027482 -0.091428503 -0.59574419 85 66 64
0.061637003 -0.0910777 -0.59603971 75 58 55
0.062942013 -0.090572491 -0.59745449 76 55 52
0.0061360504 -0.089258984 -0.59725147 21 24 23
0.0085730851 -0.089225695 -0.59654593 41 34 29
0.011483591 -0.089398123 -0.59646267 69 53 44
0.014275087 -0.089910686 -0.5955404 81 55 51
0.016115375 -0.088495761 -0.59644079 87 68 60
0.019033482 -0.088679865 -0.5964402 88 64 53
0.02100182 -0.088582918 -0.59602726 88 60 50
0.024034437 -0.088336617 -0.59628356 82 57 45
0.026354946 -0.088774174 -0.59557086 82 62 47
0.029624538 -0.087662973 -0.59634036 81 62 49
0.031448405 -0.087923072 -0.5951736 82 62 51
0.033319719 -0.088333808 -0.59500176 84 64 56
0.036653817 -0.089205831 -0.59569466 84 63 57
0.038796205 -0.089439712 -0.59617573 84 63 59
0.041648865 -0.089523837 -0.59676993 83 65 62
0.043023713 -0.089756325 -0.59614408 80 66 62
0.056716226 -0.089074075 -0.59702694 73 54 50
0.059071172 -0.089590967 -0.59681064 72 53 49
0.060013149 -0.08979772 -0.59672409 72 53 47
0.028218683 -0.087354407 -0.59646952 83 62 48
0.030819084 -0.087077536 -0.59726518 84 65 52
0.03269672 -0.087489657 -0.59709269 82 62 52
0.043458506 -0.14122029 -0.59426057 159 159 161
0.031358972 -0.13538095 -0.59448212 145 139 139
0.034847241 -0.13516039 -0.59419709 106 103 100
0.036253095 -0.13546896 -0.59406793 95 92 89
0.038564108 -0.135867 -0.59335744 90 88 87
0.029177045 -0.13369745 -0.59372157 79 75 80
0.031516187 -0.13421087 -0.59350669 71 65 65
0.032972764 -0.13474895 -0.59436929 82 79 76
0.02873677 -0.13103251 -0.59335214 80 69 64
0.031793345 -0.13175996 -0.59256727 79 70 64
0.026700454 -0.12848938 -0.59378177 89 74 66
0.028921232 -0.1290983 -0.59290397 83 71 63
0.024080561 -0.12568712 -0.59443706 71 60 53
0.025463387 -0.12588726 -0.59381169 78 66 61
0.027778709 -0.12629208 -0.59310061 80 66 60
0.0220528 -0.12376525 -0.59467638 81 70 62
0.023789816 -0.12391462 -0.59419036 89 77 71
0.025564155 -0.12449551 -0.59335107 99 87 84
0.021731116 -0.12069144 -0.59456265 100 93 90
0.023669561 -0.12099823 -0.59296626 99 92 88
0.02503868 -0.12057789 -0.59253168 130 125 121
0.021289086 -0.11890533 -0.5944128 110 110 110
0.02301777 -0.11866252 -0.5927701 121 123 120
0.025245566 -0.11964211 -0.59254789 125 125 125
0.019369004 -0.11560042 -0.5941906 118 124 126
0.021686699 -0.11601324 -0.59347904 125 132 136
0.016047174 -0.11290558 -0.59456629 97 97 99
0.018730631 -0.1138915 -0.59380347 105 108 113
0.021410633 -0.11487556 -0.593041 127 132 137
0.014126457 -0.11051828 -0.59481329 96 94 91
0.015981944 -0.11083297 -0.59414411 103 102 103
0.01830131 -0.11124948 -0.59343225 115 118 121
0.011255116 -0.1077405 -0.59414989 85 80 76
0.01440969 -0.10887806 -0.59359318 101 100 100
0.016267778 -0.10924044 -0.59317309 86 85 87
0.0088714017 -0.1052549 -0.59443933 103 100 97
0.011202641 -0.10576658 -0.59422517 116 116 114
0.01389262 -0.10585202 -0.59299207 93 89 90
0.0153753 -0.10650396 -0.59284419 85 81 82
0.0070403889 -0.10321767 -0.59466624 15 15 15
0.0087092742 -0.10365994 -0.59400815 87 84 83
0.011464854 -0.10388249 -0.59326667 119 123 122
0.012789088 -0.10495678 -0.59311688 112 112 114
0.0066857538 -0.10165808 -0.59374785 15 15 15
0.0088961441 -0.10132557 -0.5933733 74 66 61
0.0063744462 -0.098651126 -0.59388191 13 14 15
0.0084580425 -0.098754138 -0.5935359 55 46 41
0.010186583 -0.098830417 -0.59255111 80 68 62
0.0060631381 -0.095644176 -0.59401596 15 18 19
0.0089591509 -0.095790051 -0.59376758 49 36 31
0.010805137 -0.096032552 -0.59259963 66 47 41
0.0063729412 -0.094242863 -0.59404027 15 18 18
0.0089097572 -0.093859762 -0.59409195 53 41 32
0.010768595 -0.094228119 -0.59367162 63 43 34
0.013871145 -0.093439788 -0.59343934 70 48 40
0.015474051 -0.092812069 -0.59332728 117 92 85
0.0093501145 -0.091296054 -0.59490013 57 44 35
0.011313006 -0.091184556 -0.59440452 65 44 35
0.014245443 -0.09145841 -0.59408152 69 47 39
0.015796073 -0.091489375 -0.59384978 82 60 52
0.018395506 -0.091739103 -0.59312046 74 49 42
0.020954769 -0.090096861 -0.59296441 81 52 42
0.0228166 -0.090505518 -0.59279341 67 42 35
0.033730917 -0.090106018 -0.59289527 115 95 96
0.03612075 -0.090774104 -0.59367478 103 88 87
0.037521861 -0.091081642 -0.59354609 94 80 76
0.041740626 -0.090182111 -0.59422821 89 73 70
0.043577157 -0.090515092 -0.59355998 97 86 83
0.046393085 -0.091156535 -0.59346777 105 99 99
0.049329855 -0.091354765 -0.59354877 96 87 92
0.050836951 -0.09119413 -0.59342796 85 78 82
0.053685337 -0.091254234 -0.59385604 92 82 83
0.055814434 -0.091439001 -0.59400535 92 74 75
0.058626145 -0.09205614 -0.59374708 88 69 67
0.060185507 -0.091972925 -0.59412116 85 66 64
0.016325336 -0.089229293 -0.59438848 87 62 55
0.018656574 -0.089740977 -0.59417439 85 58 50
0.020609278 -0.089604698 -0.59351319 84 57 46
0.023887951 -0.089514852 -0.59374315 75 52 40
0.026064064 -0.089404434 -0.59356433 81 60 49
0.02864814 -0.089133948 -0.59436119 83 66 54
0.030933429 -0.089492001 -0.59315228 86 69 62
0.033526897 -0.089220256 -0.59394836 88 67 62
0.040804971 -0.089976743 -0.59431416 87 68 64
0.045736413 -0.13809654 -0.59116888 88 82 84
0.04099907 -0.13683671 -0.59060776 129 128 128
0.036083285 -0.13302918 -0.59216142 94 86 85
0.038822241 -0.13341528 -0.59091341 74 71 73
0.03311329 -0.1310278 -0.59167933 80 68 62
0.036295392 -0.13124743 -0.59053397 87 78 76
0.038034592 -0.1320478 -0.59002447 77 70 64
0.031956919 -0.12886062 -0.59115136 77 64 57
0.033534165 -0.12812139 -0.59054333 77 66 58
0.035861451 -0.1286322 -0.59032953 78 67 62
0.028977355 -0.12575971 -0.59201491 78 64 57
0.03096026 -0.12662859 -0.5910641 76 62 54
0.033344086 -0.12677361 -0.59060764 76 64 56
0.026283011 -0.12379464 -0.59231174 90 82 79
0.029048799 -0.12426609 -0.59139311 80 70 67
0.026302161 -0.12119658 -0.59165025 99 94 95
0.029015865 -0.12128959 -0.59036458 103 95 99
0.030328678 -0.12232002 -0.59001654 93 83 83
0.026552912 -0.11847947 -0.59107399 115 117 120
0.023624321 -0.11591695 -0.59161276 133 137 141
0.026248261 -0.11653502 -0.59056681 134 140 142
0.021945596 -0.1143131 -0.59201211 130 136 141
0.022961142 -0.113952 -0.5914377 130 136 140
0.019031117 -0.11057151 -0.59239119 105 105 109
0.021143332 -0.11106037 -0.59144306 110 111 116
0.022975717 -0.11132455 -0.59052658 114 114 121
0.019121358 -0.10910347 -0.59143209 93 92 96
0.021426938 -0.10951862 -0.59072149 105 104 110
0.023266273 -0.10983143 -0.59005368 115 114 121
0.016590634 -0.10600553 -0.59175575 101 97 99
0.019432956 -0.10635009 -0.59075165 104 98 101
0.020533718 -0.10679112 -0.59039229 106 100 104
0.012252938 -0.10270654 -0.59223849 125 131 129
0.013664373 -0.10366825 -0.59208536 124 124 126
0.016104426 -0.10367807 -0.59147847 125 124 126
0.017801166 -0.10375082 -0.59073091 121 119 122
0.011735974 -0.10063731 -0.59235615 124 122 114
0.013129976 -0.10094328 -0.59222811 109 105 104
0.016254107 -0.10106834 -0.59095711 114 114 117
0.012045252 -0.099238373 -0.5923804 112 103 96
0.013428699 -0.099458195 -0.59175426 102 94 91
0.016510949 -0.098586559 -0.59102464 99 87 85
0.013693791 -0.096159473 -0.59224087 72 49 44
0.016836604 -0.096380197 -0.59107643 77 57 53
0.01759233 -0.095895268 -0.59103036 79 56 51
0.014108603 -0.094312929 -0.59238386 65 43 35
0.016474387 -0.093802035 -0.59186882 75 50 43
0.018737096 -0.093474872 -0.59142274 76 51 45
0.020821067 -0.093024492 -0.59086227 70 45 40
0.023054436 -0.093189284 -0.59066874 76 54 46
0.026043534 -0.09286914 -0.59042925 77 51 49
0.041779451 -0.092563368 -0.59012282 147 147 149
0.044920862 -0.092562094 -0.59186739 156 159 158
0.046319604 -0.092869103 -0.59173894 142 142 144
0.049036369 -0.09332186 -0.59049034 118 117 124
0.051363662 -0.093832672 -0.5902766 121 121 125
0.053942144 -0.093489192 -0.59057438 135 132 136
0.056524582 -0.093146577 -0.59087193 131 120 125
0.058758277 -0.093131267 -0.59128743 100 89 89
0.061546415 -0.093474627 -0.59194463 101 92 89
0.018444495 -0.092330977 -0.59209085 77 52 45
0.021438684 -0.092010304 -0.59185088 70 46 40
0.023949271 -0.091507532 -0.59115601 74 52 43
0.026861651 -0.090868793 -0.59110177 77 56 50
0.0288305 -0.090836756 -0.59110492 83 69 68
0.031333894 -0.091198482 -0.5907144 115 108 113
0.033072606 -0.09107507 -0.59157687 128 117 121
0.036129873 -0.091884889 -0.59112376 135 125 128
0.038812831 -0.091730364 -0.59140605 112 101 103
0.041055225 -0.091778666 -0.59096491 101 93 97
0.043916337 -0.092198066 -0.59096068 150 150 150
0.049997114 -0.091713868 -0.59147155 134 125 130
0.05092961 -0.091918543 -0.5913859 149 145 148
0.053924803 -0.092014194 -0.59180033 120 118 121
0.055891018 -0.092164882 -0.59196454 77 68 73
0.028349705 -0.089760892 -0.59235549 79 62 56
0.04351832 -0.13814913 -0.58934498 158 158 152
0.049516883 -0.13750668 -0.58886427 104 99 107
0.041138645 -0.13566774 -0.58963388 97 96 96
0.043792095 -0.13663071 -0.58887434 105 100 103
0.045718003 -0.13645446 -0.58821684 94 88 90
0.048732184 -0.13619277 -0.58822417 109 103 108
0.051706381 -0.13581309 -0.58773696 153 137 146
0.053082954 -0.13546331 -0.58763391 122 103 110
0.041264798 -0.133267 -0.58903998 74 66 64
0.043697033 -0.13365804 -0.58815223 77 65 67
0.045665704 -0.13448723 -0.58829182 77 66 70
0.047989044 -0.13499717 -0.58807844 83 72 80
0.051912565 -0.13488047 -0.58775312 140 140 142
0.054442085 -0.1344578 -0.58755583 121 94 97
0.055319127 -0.13269454 -0.58754545 139 130 133
0.039004974 -0.13155845 -0.58895636 74 67 60
0.04089801 -0.13167655 -0.5885421 72 64 57
0.043888696 -0.13095349 -0.58756375 69 58 54
0.036835521 -0.12814865 -0.58926094 77 66 61
0.038198195 -0.12834437 -0.58863735 75 62 57
0.04145829 -0.12874652 -0.58784705 71 58 50
0.043819081 -0.12833498 -0.58766359 66 52 47
0.045331039 -0.12882954 -0.58751881 82 70 70
0.03380597 -0.12569092 -0.58960354 76 64 56
0.03659223 -0.12631048 -0.58874482 75 63 58
0.038389783 -0.1264925 -0.58818561 71 56 51
0.040795181 -0.12734586 -0.58795303 68 54 46
0.031051829 -0.12345662 -0.58991504 85 72 69
0.033836603 -0.12371154 -0.58886874 78 64 57
0.036876835 -0.12306906 -0.58843559 76 63 52
0.038629424 -0.12394185 -0.58825707 76 61 53
0.041876562 -0.12465456 -0.58795881 87 71 66
0.059544392 -0.12305541 -0.58854079 140 145 150
0.029763551 -0.12004345 -0.58914155 90 81 86
0.031052265 -0.12081442 -0.58900565 89 79 78
0.033807889 -0.12132086 -0.58825397 78 65 57
0.035198338 -0.12162605 -0.5881263 74 60 52
0.05984984 -0.12233136 -0.58954525 140 145 150
0.060263615 -0.12045977 -0.58957767 144 151 155
0.029247465 -0.11797775 -0.58925903 104 100 103
0.031102972 -0.11838502 -0.58908862 97 87 87
0.034396879 -0.11842727 -0.58780628 76 65 57
0.035786137 -0.1187322 -0.58767867 80 69 60
0.037741229 -0.11867404 -0.58751661 82 68 60
0.026411995 -0.11540295 -0.58958954 134 141 143
0.028616466 -0.1163274 -0.58912021 123 125 127
0.031360753 -0.11678632 -0.58812016 90 82 80
0.034447499 -0.11600201 -0.58788908 83 68 63
0.03583676 -0.11630693 -0.58776146 83 67 60
0.038357679 -0.1158857 -0.58756489 120 106 98
0.024298443 -0.11396284 -0.58981872 129 134 139
0.026948875 -0.1134444 -0.58894533 123 127 129
0.02827251 -0.11318482 -0.58850878 109 112 113
0.030768117 -0.11397623 -0.58827078 91 87 88
0.032800637 -0.11466599 -0.58807534 80 69 64
0.036710814 -0.11454967 -0.58775115 98 77 72
0.039231732 -0.11412843 -0.58755457 112 99 95
0.059649006 -0.11310948 -0.58788472 131 133 141
0.024339177 -0.11148538 -0.58965313 111 112 118
0.026305817 -0.11100225 -0.58850121 105 105 108
0.028185941 -0.11107996 -0.58783847 91 88 91
0.040311269 -0.11144172 -0.5875603 121 110 114
0.023768947 -0.10829814 -0.58906239 93 92 97
0.026376128 -0.10820463 -0.58784258 85 80 83
0.028790178 -0.10824805 -0.58763832 84 72 72
0.04164841 -0.10978612 -0.58750743 119 113 115
0.020895371 -0.10555589 -0.58940214 94 89 92
0.023928652 -0.10629624 -0.58861876 92 85 91
0.025759235 -0.1066099 -0.58795166 83 72 76
0.028353149 -0.10693602 -0.58772212 88 75 75
0.019831212 -0.10304836 -0.58958149 118 112 116
0.021203242 -0.10326359 -0.58895648 93 88 91
0.024063149 -0.10331896 -0.58821225 91 85 86
0.025724048 -0.10384566 -0.58805388 80 73 71
0.028121253 -0.10469612 -0.58782196 110 93 95
0.017463658 -0.1005796 -0.5898689 119 119 123
0.018287089 -0.10124761 -0.5897758 118 117 124
0.021149134 -0.1012951 -0.58897579 112 109 112
0.024285128 -0.10158405 -0.58825582 82 74 74
0.02503828 -0.10110077 -0.58820993 83 68 67
0.056453586 -0.10052004 -0.58760077 104 92 90
0.018337712 -0.09882234 -0.58985853 112 104 105
0.021510353 -0.098056354 -0.58861548 87 75 75
0.023701925 -0.098375238 -0.58841997 88 72 73
0.026115974 -0.098418653 -0.58821565 117 103 103
0.028632591 -0.097998127 -0.58801943 136 138 140
0.030944074 -0.098505475 -0.58780706 141 140 145
0.034180149 -0.099215753 -0.58750981 125 123 130
0.04411421 -0.098632701 -0.58770061 111 105 113
0.045143127 -0.098371267 -0.5876236 111 105 112
0.048773512 -0.097858131 -0.5883413 113 110 107
0.051556773 -0.098469034 -0.58808559 112 106 104
0.053498294 -0.099220574 -0.58789557 113 102 102
0.056401376 -0.098556161 -0.58767563 107 96 95
0.057793006 -0.098861605 -0.58754778 110 99 97
0.061089296 -0.09777955 -0.58831394 102 92 92
0.01885142 -0.09649872 -0.58989882 80 60 57
0.021498049 -0.096863806 -0.58932871 81 63 60
0.024009626 -0.096983433 -0.58844405 98 79 75
0.02616651 -0.09599752 -0.58829832 112 97 96
0.028803036 -0.095765464 -0.58808523 146 148 151
0.031379938 -0.095870204 -0.58803242 161 169 172
0.034210905 -0.096529126 -0.58780444 143 144 152
0.036052629 -0.095563866 -0.5884878 130 128 134
0.039431226 -0.095655739 -0.58820075 114 108 112
0.041300945 -0.09671583 -0.58800566 123 122 125
0.043547634 -0.096802883 -0.58781385 126 122 129
0.045466557 -0.095780052 -0.58835888 129 126 133
0.049004696 -0.095712394 -0.58839887 119 115 120
0.051882427 -0.096262671 -0.58813745 129 124 124
0.053741001 -0.095952228 -0.58836907 126 120 118
0.056806013 -0.096068449 -0.58848405 107 98 101
0.058196269 -0.095999159 -0.58882165 107 98 101
0.060778145 -0.096455276 -0.58872229 109 99 99
0.019828215 -0.094276741 -0.5898965 72 46 42
0.021783303 -0.094218582 -0.58973444 67 46 41
0.023319306 -0.094231978 -0.58940417 76 54 49
0.026485041 -0.094061859 -0.58901048 96 79 79
0.028214401 -0.093681037 -0.58921361 129 130 133
0.031291325 -0.094258927 -0.58893448 157 168 168
0.03457113 -0.093688712 -0.58918154 104 100 108
0.035961576 -0.093993902 -0.58905387 100 94 100
0.038587384 -0.093107581 -0.58886516 125 115 120
0.040904798 -0.093616225 -0.58865225 133 130 134
0.043836817 -0.093869589 -0.58906633 145 150 150
0.045820728 -0.093865879 -0.58923459 141 143 146
0.048606358 -0.094477303 -0.58897871 125 125 129
0.051072799 -0.094603166 -0.58926916 129 129 131
0.055087321 -0.094649978 -0.58993453 114 108 110
0.032124646 -0.091763347 -0.58995819 138 137 139
0.032949481 -0.092432499 -0.58986491 147 150 153
0.044450674 -0.1384867 -0.5869115 155 156 150
0.046323013 -0.13842444 -0.58608705 155 155 149
0.047214437 -0.1373207 -0.58605176 94 88 92
0.044404782 -0.13301919 -0.58744627 73 61 59
0.045796413 -0.13332465 -0.58731842 72 61 63
0.048940331 -0.13362423 -0.58704364 138 136 140
0.051104896 -0.1335136 -0.58686584 139 140 142
0.052960403 -0.13392085 -0.58669537 145 134 142
0.044610616 -0.13208817 -0.58746243 71 59 57
0.04597092 -0.13121529 -0.58737946 73 62 62
0.049300093 -0.13067693 -0.58711922 150 153 157
0.051275924 -0.13127328 -0.58693188 139 142 147
0.05384298 -0.13118593 -0.58671945 125 127 132
0.056487851 -0.13133003 -0.58674318 122 119 123
0.057700593 -0.13008019 -0.58643514 120 114 118
0.046722665 -0.12913498 -0.58739102 112 105 110
0.049247883 -0.12871304 -0.58719409 153 157 162
0.050639514 -0.12901847 -0.58706629 152 158 163
0.053706177 -0.12944752 -0.5867933 121 119 126
0.055810276 -0.12836368 -0.5866555 126 117 123
0.05811226 -0.12821813 -0.58646739 122 111 117
0.04160228 -0.12536882 -0.58695209 70 56 49
0.043917716 -0.12587702 -0.5867393 108 94 91
0.046078585 -0.12576659 -0.58656186 142 139 138
0.048815042 -0.12612703 -0.58707219 140 144 148
0.051257018 -0.12622535 -0.58711463 146 151 157
0.054143202 -0.12637074 -0.58686703 139 137 144
0.056101628 -0.12631248 -0.58670461 141 136 141
0.058421016 -0.12682158 -0.58649158 124 116 122
0.038900442 -0.12331396 -0.58725274 74 59 52
0.04201325 -0.12350991 -0.58698428 88 72 67
0.043222334 -0.12353165 -0.58688188 122 111 113
0.04628377 -0.12395997 -0.58660942 129 129 130
0.048136115 -0.12436654 -0.58643931 135 139 143
0.05143553 -0.1239799 -0.58697939 146 152 159
0.054399744 -0.1230103 -0.5869661 141 148 154
0.056255251 -0.12341756 -0.58679563 123 128 134
0.059038512 -0.12402846 -0.58653998 140 142 148
0.037124779 -0.12146239 -0.58746827 75 62 51
0.039079867 -0.12140424 -0.5873062 76 60 52
0.041412175 -0.12110403 -0.58712101 108 95 92
0.043778729 -0.12064891 -0.58693868 142 140 142
0.046437137 -0.12106998 -0.58670026 142 143 149
0.048443742 -0.12121804 -0.58652651 142 145 150
0.051330496 -0.12129622 -0.58695066 151 158 165
0.053636353 -0.12118318 -0.58709574 144 151 157
0.056460787 -0.12160788 -0.58684337 134 138 143
0.05769759 -0.1212936 -0.58675075 137 144 148
0.03907897 -0.11877275 -0.58740073 96 81 73
0.041205689 -0.11910961 -0.58721 118 106 102
0.043452382 -0.11919667 -0.58701813 135 131 135
0.046727985 -0.11902229 -0.58674932 127 126 132
0.048442848 -0.11858656 -0.58662099 140 142 146
0.051469542 -0.11836889 -0.58687669 151 158 164
0.053006612 -0.11831155 -0.58725172 154 164 169
0.056356668 -0.11855874 -0.58696151 133 135 141
0.058315098 -0.11850049 -0.58679914 143 150 152
0.039386593 -0.11562425 -0.58748782 115 104 97
0.040775858 -0.11592918 -0.5873602 111 98 94
0.043826226 -0.11625066 -0.58709246 106 95 96
0.046075292 -0.1161178 -0.5869084 123 120 122
0.048815094 -0.1163537 -0.5866698 136 138 143
0.051311892 -0.11625195 -0.58713323 150 157 162
0.05331536 -0.116915 -0.58727592 153 163 168
0.056407377 -0.11612934 -0.58704442 148 150 157
0.058176871 -0.11619232 -0.58689356 142 148 152
0.03156545 -0.1132352 -0.58722627 79 72 71
0.033637118 -0.11336561 -0.58704764 86 72 69
0.03587997 -0.11345252 -0.58685613 99 79 79
0.038910165 -0.1129015 -0.5866214 113 99 95
0.041186821 -0.11407028 -0.58739245 106 91 90
0.044068083 -0.11421541 -0.58714521 111 97 98
0.046211779 -0.11403622 -0.58697164 124 120 121
0.048929747 -0.11308976 -0.58677739 144 149 150
0.051214054 -0.11356941 -0.58690304 152 160 163
0.053836975 -0.11361273 -0.58735067 146 151 158
0.056921959 -0.11380176 -0.58708477 148 155 161
0.058777474 -0.11420901 -0.5869143 144 151 157
0.031410854 -0.11174192 -0.58729285 83 74 77
0.033362608 -0.11168387 -0.58713102 132 120 120
0.036341522 -0.11136482 -0.58689231 131 116 116
0.039422996 -0.11058185 -0.58666158 121 113 116
0.041532647 -0.11108972 -0.58726954 121 114 114
0.04440162 -0.11160859 -0.58721077 125 120 121
0.045713447 -0.11116563 -0.58711648 121 120 121
0.048790373 -0.11174352 -0.58683741 139 145 145
0.050910145 -0.11181897 -0.58665663 145 153 154
0.053345192 -0.11105403 -0.5864796 144 149 154
0.056147836 -0.11070319 -0.58726096 136 141 147
0.058766134 -0.11118026 -0.58702397 140 145 151
0.060167603 -0.11012117 -0.58694428 144 146 152
0.031717956 -0.10859879 -0.58737987 114 97 94
0.03351571 -0.1087988 -0.58722168 124 113 109
0.036392055 -0.10894369 -0.58697498 116 105 104
0.038429528 -0.10922875 -0.5867936 124 115 115
0.041237 -0.10822348 -0.58659387 132 130 129
0.043466013 -0.10888565 -0.58738708 120 116 116
0.046072595 -0.10822334 -0.58719194 113 113 115
0.049262684 -0.10872862 -0.58690596 113 117 121
0.051063508 -0.10892897 -0.58674747 132 141 144
0.054047514 -0.10860938 -0.58650839 141 146 151
0.056465693 -0.10865286 -0.58630371 144 147 152
0.058878887 -0.1093502 -0.58708012 146 152 156
0.060373437 -0.10919013 -0.58696038 141 147 149
0.031588569 -0.10634413 -0.58696955 122 108 107
0.033951242 -0.10573252 -0.58729517 127 120 117
0.036819164 -0.10628092 -0.58703464 111 98 101
0.038265761 -0.10594984 -0.58692503 122 112 117
0.041197214 -0.1063153 -0.58666575 139 138 138
0.04334873 -0.10614934 -0.58682573 106 104 105
0.046265278 -0.10638616 -0.58707434 109 109 110
0.049056299 -0.10702658 -0.58698434 102 101 104
0.051361013 -0.10626552 -0.5868181 124 126 128
0.054200877 -0.10571939 -0.58659917 123 123 125
0.055812996 -0.10574838 -0.58646274 128 130 135
0.058951061 -0.10630197 -0.58634675 124 123 130
0.060476996 -0.10620412 -0.58655679 131 131 136
0.026434489 -0.10318284 -0.58701378 83 73 73
0.029049693 -0.10375685 -0.58677357 132 121 120
0.031151943 -0.10373266 -0.58659786 129 118 118
0.033473313 -0.10428472 -0.58663416 117 106 106
0.036352839 -0.10385343 -0.58682615 142 135 137
0.03826987 -0.1039499 -0.58666176 135 128 134
0.041423794 -0.10372433 -0.58673966 136 134 136
0.043187261 -0.10378709 -0.58658934 122 116 121
0.046393193 -0.10343707 -0.58683473 109 107 109
0.048993461 -0.10379677 -0.58710551 111 112 114
0.051113229 -0.10387222 -0.58692485 114 116 117
0.053582929 -0.10412192 -0.58670843 115 114 115
0.055778246 -0.10444134 -0.58651257 127 128 130
0.05898511 -0.10384582 -0.58626461 127 124 127
0.060680687 -0.10340028 -0.58714241 109 103 109
0.026382549 -0.101229 -0.58708829 112 100 98
0.029356368 -0.10091048 -0.58684993 128 120 125
0.030569738 -0.10052932 -0.58676177 133 129 132
0.033796214 -0.10121437 -0.58660966 128 127 130
0.036066871 -0.10153437 -0.58701712 135 135 138
0.038739197 -0.1010677 -0.58706051 100 93 97
0.041748334 -0.10152549 -0.58679134 127 123 127
0.043528944 -0.10165688 -0.58663708 120 114 118
0.046721995 -0.10147905 -0.58737946 103 100 103
0.048093885 -0.10113046 -0.58727676 103 101 102
0.051420864 -0.10072371 -0.58701193 107 101 101
0.053273208 -0.10113028 -0.58684182 102 94 93
0.056051731 -0.10174014 -0.58658653 106 99 99
0.059392825 -0.10137042 -0.58707237 110 102 103
0.060267515 -0.10086906 -0.58726794 109 98 102
0.027014209 -0.099101447 -0.58711153 145 137 138
0.029202035 -0.099419773 -0.58691645 138 134 139
0.030688945 -0.099260524 -0.58679724 122 118 121
0.033372406 -0.099525772 -0.5865624 115 113 119
0.035772171 -0.098592304 -0.58739853 128 127 130
0.038751084 -0.098273255 -0.58715975 122 116 118
0.041165136 -0.098316669 -0.58695549 120 114 118
0.043374047 -0.09928795 -0.58673513 114 108 116
0.046995476 -0.098777831 -0.58745342 119 115 117
0.048384733 -0.099082768 -0.58732581 120 117 116
0.051266 -0.09922789 -0.58707869 111 105 103
0.052655257 -0.09953282 -0.58695102 112 102 102
0.059854351 -0.098337837 -0.58739346 101 91 89
0.060782105 -0.098541468 -0.58730823 100 90 90
0.036404911 -0.096461117 -0.58742183 121 119 123
0.039058782 -0.096881457 -0.58718389 117 111 114
0.047303699 -0.097383663 -0.58747756 145 141 142
0.060060184 -0.09740679 -0.58740962 108 98 98
-0.035562716 -0.033161186 -0.12076899 13 17 18
-0.034981139 -0.033788018 -0.12069767 8 16 17
-0.036215749 -0.032151189 -0.1212785 13 16 16
-0.035805695 -0.032849818 -0.11979643 13 17 18
-0.036012493 -0.032287549 -0.11983397 13 17 17
-0.033465136 -0.028368363 -0.11306629 13 17 15
-0.033177298 -0.027736926 -0.1117259 12 16 11
-0.032711912 -0.027136117 -0.11137366 16 23 20
-0.032442611 -0.026224207 -0.11071432 11 15 10
-0.034089204 -0.025890565 -0.10885625 10 19 20
-0.031569183 -0.025397591 -0.10966647 28 28 30
0 0 0 1 0 0 0 1 0 0 0 1 0 0 0 0 0 835 1 0 0
